# Made in Blockbench 4.11.1
mtllib PlacaConfig.mtl

o cube
v -0.0625 0.625 0
v -0.0625 0.625 0.0625
v -0.0625 -0.6875 0
v -0.0625 -0.6875 0.0625
v 0 0.625 0.0625
v 0 0.625 0
v 0 -0.6875 0.0625
v 0 -0.6875 0
vt 0.25000000000000006 1
vt 0.28125000000000006 1
vt 0.28125000000000006 0.34375
vt 0.25000000000000006 0.34375
vt 0.3125000000000001 1
vt 0.3437500000000001 1
vt 0.3437500000000001 0.34375
vt 0.3125000000000001 0.34375
vt 0.3750000000000001 1
vt 0.4062500000000001 1
vt 0.4062500000000001 0.34375
vt 0.3750000000000001 0.34375
vt 0.4375000000000001 1
vt 0.46875000000000017 1
vt 0.46875000000000017 0.34375
vt 0.4375000000000001 0.34375
vt 0.5312500000000001 0.78125
vt 0.5000000000000001 0.78125
vt 0.5000000000000001 0.8125
vt 0.5312500000000001 0.8125
vt 0.5312500000000001 0.75
vt 0.5000000000000001 0.75
vt 0.5000000000000001 0.71875
vt 0.5312500000000001 0.71875
vn 1.2246467991473532e-16 0 1
vn -1 0 1.2246467991473532e-16
vn -1.2246467991473532e-16 0 -1
vn 1 0 -1.2246467991473532e-16
vn 0 1 0
vn 0 -1 0
usemtl m_401f7630-518e-3efc-6c56-09bcc60349ae
f 4/4/1 7/3/1 5/2/1 2/1/1
f 3/8/2 4/7/2 2/6/2 1/5/2
f 8/12/3 3/11/3 1/10/3 6/9/3
f 7/16/4 8/15/4 6/14/4 5/13/4
f 6/20/5 1/19/5 2/18/5 5/17/5
f 7/24/6 4/23/6 3/22/6 8/21/6
o plane
v -0.03125000000000089 0.4875157832308853 -0.006250000000000021
v -0.34060921676911454 0.7968750000000008 -0.006249999999999983
v 0.27810921676911454 0.796874999999999 -0.006250000000000011
v -0.031249999999999112 1.1062342167691144 -0.006249999999999973
v -0.03125000000000089 0.4875157832308853 -0.02187500000000002
v -0.34060921676911454 0.7968750000000008 -0.021874999999999985
v -0.031249999999999112 1.1062342167691144 -0.02187499999999997
v 0.27810921676911454 0.796874999999999 -0.021875000000000012
vt 0.21875000000000006 0.53125
vt 0.21875000000000006 0.75
vt 0 0.75
vt 0 0.53125
vt 0.21875000000000006 0.5
vt 0 0.5
vt 0 0.46875
vt 0.21875000000000006 0.46875
vt 0.7187500000000003 1
vt 0.5000000000000001 1
vt 0.5000000000000001 0.96875
vt 0.7187500000000003 0.96875
vt 0.7187500000000003 0.9375
vt 0.5000000000000001 0.9375
vt 0.5000000000000001 0.90625
vt 0.7187500000000003 0.90625
vt 0.7187500000000003 0.875
vt 0.5000000000000001 0.875
vt 0.5000000000000001 0.84375
vt 0.7187500000000003 0.84375
vt 0 0.4375
vt 0 0.21875
vt 0.21875000000000006 0.21875
vt 0.21875000000000006 0.4375
vn -4.396005698054633e-17 7.850462293418852e-17 -1
vn -0.7071067811865497 -0.7071067811865455 8.090982689361076e-18
vn -0.7071067811865455 0.7071067811865496 1.6510022855773805e-16
vn 0.7071067811865497 0.7071067811865455 -8.090982689361076e-18
vn 0.7071067811865455 -0.7071067811865496 -1.6510022855773805e-16
vn 4.396005698054633e-17 -7.850462293418852e-17 1
usemtl m_401f7630-518e-3efc-6c56-09bcc60349ae
f 13/25/7 14/26/7 15/27/7 16/28/7
f 14/29/8 13/30/8 9/31/8 10/32/8
f 15/33/9 14/34/9 10/35/9 12/36/9
f 16/37/10 15/38/10 12/39/10 11/40/10
f 13/41/11 16/42/11 11/43/11 9/44/11
f 11/45/12 12/46/12 10/47/12 9/48/12
o texto
v 0.20312498870831355 0.593749988708314 -0.02656250000000012
v -0.2343750112916859 0.5937500112916864 -0.026562500000000072
v 0.2031250112916859 1.0312499887083135 -0.02656249999999993
v -0.23437498870831355 1.0312500112916858 -0.026562499999999874
v -0.234374998795537 0.8358336586154824 -0.02656249999999996
v -0.02119929795967807 1.0312500002877407 -0.026562499999999902
v 0.20312499958241476 0.8044102571763747 -0.02656250000000003
v 0.20312499878346393 0.7889324539204438 -0.026562500000000037
v -0.06894416452630632 0.5937500027522888 -0.02656250000000009
v 0.008617729215170705 0.5937499987486108 -0.0265625000000001
vt 0 0.8934121546256821
vt 0.11341986576596955 0.78125
vt 0.0977081763381018 1
vt 0.21875000000000006 0.9172845766173101
vt 0.0977081763381018 1
vt 0.11341986576596955 0.78125
vt 0.12115876739393502 0.78125
vt 0.21875000000000006 0.8785036297465716
vt 0.21875000000000006 0.9172845766173101
vt 0.11341986576596955 0.78125
vn -1.2246465699123365e-16 4.44089209850062e-16 -1
vn -1.2246465699123365e-16 4.44089209850062e-16 -1
vn -1.2246465699123365e-16 4.44089209850062e-16 -1
usemtl m_401f7630-518e-3efc-6c56-09bcc60349ae
f 22/49/13 23/50/13 21/51/13
f 25/52/14 21/53/14 23/54/14
f 24/55/15 26/56/15 25/57/15 23/58/15