# Made in Blockbench 4.11.1
mtllib PlacaQuiet.mtl

o cube
v 0.0625 0.625 0
v 0.0625 0.625 -0.0625
v 0.0625 -0.6875 0
v 0.0625 -0.6875 -0.0625
v 0 0.625 -0.0625
v 0 0.625 0
v 0 -0.6875 -0.0625
v 0 -0.6875 0
vt 0.25000000000000006 1
vt 0.28125000000000006 1
vt 0.28125000000000006 0.34375
vt 0.25000000000000006 0.34375
vt 0.3125000000000001 1
vt 0.3437500000000001 1
vt 0.3437500000000001 0.34375
vt 0.3125000000000001 0.34375
vt 0.3750000000000001 1
vt 0.4062500000000001 1
vt 0.4062500000000001 0.34375
vt 0.3750000000000001 0.34375
vt 0.4375000000000001 1
vt 0.46875000000000017 1
vt 0.46875000000000017 0.34375
vt 0.4375000000000001 0.34375
vt 0.5312500000000001 0.78125
vt 0.5000000000000001 0.78125
vt 0.5000000000000001 0.8125
vt 0.5312500000000001 0.8125
vt 0.5312500000000001 0.75
vt 0.5000000000000001 0.75
vt 0.5000000000000001 0.71875
vt 0.5312500000000001 0.71875
vn 0 0 -1
vn 1 0 0
vn 0 0 1
vn -1 0 0
vn 0 1 0
vn 0 -1 0
usemtl m_a13efd38-3161-7669-1ce6-aac8b9f202dc
f 4/4/1 7/3/1 5/2/1 2/1/1
f 3/8/2 4/7/2 2/6/2 1/5/2
f 8/12/3 3/11/3 1/10/3 6/9/3
f 7/16/4 8/15/4 6/14/4 5/13/4
f 6/20/5 1/19/5 2/18/5 5/17/5
f 7/24/6 4/23/6 3/22/6 8/21/6
o plane
v 0.03125000000000089 0.4875157832308853 0.006250000000000025
v 0.34060921676911454 0.7968750000000008 0.006250000000000025
v -0.27810921676911454 0.796874999999999 0.006249999999999976
v 0.031249999999999112 1.1062342167691144 0.006249999999999976
v 0.03125000000000089 0.4875157832308853 0.021875000000000026
v 0.34060921676911454 0.7968750000000008 0.021875000000000026
v 0.031249999999999112 1.1062342167691144 0.021874999999999978
v -0.27810921676911454 0.796874999999999 0.021874999999999978
vt 0.21875000000000006 0.53125
vt 0.21875000000000006 0.75
vt 0 0.75
vt 0 0.53125
vt 0.21875000000000006 0.5
vt 0 0.5
vt 0 0.46875
vt 0.21875000000000006 0.46875
vt 0.7187500000000003 1
vt 0.5000000000000001 1
vt 0.5000000000000001 0.96875
vt 0.7187500000000003 0.96875
vt 0.7187500000000003 0.9375
vt 0.5000000000000001 0.9375
vt 0.5000000000000001 0.90625
vt 0.7187500000000003 0.90625
vt 0.7187500000000003 0.875
vt 0.5000000000000001 0.875
vt 0.5000000000000001 0.84375
vt 0.7187500000000003 0.84375
vt 0 0.4375
vt 0 0.21875
vt 0.21875000000000006 0.21875
vt 0.21875000000000006 0.4375
vn -7.850462293418899e-17 7.850462293418852e-17 1
vn 0.7071067811865497 -0.7071067811865455 7.850462293418852e-17
vn 0.7071067811865455 0.7071067811865496 -7.850462293418898e-17
vn -0.7071067811865497 0.7071067811865455 -7.850462293418852e-17
vn -0.7071067811865455 -0.7071067811865496 7.850462293418898e-17
vn 7.850462293418899e-17 -7.850462293418852e-17 -1
usemtl m_a13efd38-3161-7669-1ce6-aac8b9f202dc
f 13/25/7 14/26/7 15/27/7 16/28/7
f 14/29/8 13/30/8 9/31/8 10/32/8
f 15/33/9 14/34/9 10/35/9 12/36/9
f 16/37/10 15/38/10 12/39/10 11/40/10
f 13/41/11 16/42/11 11/43/11 9/44/11
f 11/45/12 12/46/12 10/47/12 9/48/12
o texto
v -0.15624999116469812 0.6812499911646985 0.026562500000000096
v 0.21875000883530143 0.6812500088353017 0.026562500000000096
v 0.21874999116469812 1.0562500088353013 0.02656249999999991
v -0.15625000883530143 1.056249991164698 0.02656249999999991
v 0.2187499985274495 0.9000000088353015 0.02656249999999999
v -0.15625000147255005 0.8999999911646982 0.02656249999999999
v -0.15625000147255005 0.8999999911646982 0.02656249999999999
v 0.2187499985274495 0.9000000088353015 0.02656249999999999
v 0.21875000589020088 0.7437500088353017 0.026562500000000065
v -0.15624999410979867 0.7437499911646984 0.026562500000000065
v -0.15624999410979867 0.7437499911646984 0.026562500000000065
v 0.21875000589020088 0.7437500088353017 0.026562500000000065
vt 0.09114583333333336 0.78125
vt 0.18229166666666669 0.78125
vt 0.18229166666666669 1
vt 0.09114583333333336 1
vt 0.09114583333333336 1
vt 0.18229166666666669 1
vt 0.18229166666666669 1
vt 0.09114583333333336 1
vt 0.09114583333333336 1
vt 0.18229166666666669 1
vt 0.18229166666666669 1
vt 0.09114583333333336 1
vn -2.3541972789763228e-23 4.996003610813199e-16 1
vn 0 0 0
vn 0 0 0
usemtl m_a13efd38-3161-7669-1ce6-aac8b9f202dc
f 22/49/13 26/50/13 25/51/13 21/52/13
f 23/53/14 26/54/14 27/55/14 22/56/14
f 21/57/15 28/58/15 25/59/15 24/60/15