# Blender 4.4.3
# www.blender.org
mtllib leviatan.mtl
o Corpo
v -0.477366 -0.144324 14.570536
v 1.188857 0.118764 18.166073
v 0.399594 -1.635156 18.166073
v -2.143591 0.118764 18.166073
v -1.354326 -1.635156 18.166073
v -2.055894 -2.161333 12.553526
v 2.504297 0.995725 12.553526
v -3.459031 0.995725 12.553526
v 1.101163 -2.161333 12.553526
v -0.477366 1.521901 18.166073
v -0.477366 -1.635156 18.166073
v -0.477366 -2.336725 12.554609
v -0.477366 3.275821 12.553526
v -4.072903 0.995725 10.624214
v 1.627337 -2.161333 10.624214
v -2.582071 -2.161333 10.624214
v 3.118172 0.995725 10.624214
v -0.477366 4.503566 10.624214
v -0.477366 -2.249029 10.624214
v -0.477366 -0.144324 10.799606
v 1.188857 0.118764 14.395144
v 0.399594 -1.635156 14.395144
v -2.143591 0.118764 14.395144
v -1.354326 -1.635156 14.395144
v -2.055894 -2.161333 8.782597
v 2.504297 0.995725 8.782597
v -3.459031 0.995725 8.782597
v 1.101163 -2.161333 8.782597
v -0.477366 1.521901 14.395144
v -0.477366 -1.635156 14.395144
v -0.477366 -2.336725 8.783680
v -0.477366 3.275821 8.782597
v -4.072903 0.995725 6.853285
v 1.627337 -2.161333 6.853285
v -2.582071 -2.161333 6.853285
v 3.118172 0.995725 6.853285
v -0.477366 4.503566 6.853285
v -0.477366 -2.249029 6.853285
v -0.477366 -0.144324 7.028679
v 1.188857 0.118764 10.624216
v 0.399594 -1.635156 10.624216
v -2.143591 0.118764 10.624216
v -1.354326 -1.635156 10.624216
v -2.055894 -2.161333 5.011669
v 2.504297 0.995725 5.011669
v -3.459031 0.995725 5.011669
v 1.101163 -2.161333 5.011669
v -0.477366 1.521901 10.624216
v -0.477366 -1.635156 10.624216
v -0.477366 -2.336725 5.012753
v -0.477366 3.275821 5.011669
v -4.072903 0.995725 3.082357
v 1.627337 -2.161333 3.082357
v -2.582071 -2.161333 3.082357
v 3.118172 0.995725 3.082357
v -0.477366 4.503566 3.082357
v -0.477366 -2.249029 3.082357
v -0.477366 -0.144324 3.257750
v 1.188857 0.118764 6.853287
v 0.399594 -1.635156 6.853287
v -2.143591 0.118764 6.853287
v -1.354326 -1.635156 6.853287
v -2.055894 -2.161333 1.240740
v 2.504297 0.995725 1.240740
v -3.459031 0.995725 1.240740
v 1.101163 -2.161333 1.240740
v -0.477366 1.521901 6.853287
v -0.477366 -1.635156 6.853287
v -0.477366 -2.336725 1.241823
v -0.477366 3.275821 1.240740
v -4.072903 0.995725 -0.688572
v 1.627337 -2.161333 -0.688572
v -2.582071 -2.161333 -0.688572
v 3.118172 0.995725 -0.688572
v -0.477366 4.503566 -0.688572
v -0.477366 -2.249029 -0.688572
v -0.477366 -0.144324 -0.513179
v 1.188857 0.118764 3.082358
v 0.399594 -1.635156 3.082358
v -2.143591 0.118764 3.082358
v -1.354326 -1.635156 3.082358
v -2.055894 -2.161333 -2.530189
v 2.504297 0.995725 -2.530189
v -3.459031 0.995725 -2.530189
v 1.101163 -2.161333 -2.530189
v -0.477366 1.521901 3.082358
v -0.477366 -1.635156 3.082358
v -0.477366 -2.336725 -2.529105
v -0.477366 3.275821 -2.530189
v -4.072903 0.995725 -4.459500
v 1.627337 -2.161333 -4.459500
v -2.582071 -2.161333 -4.459500
v 3.118172 0.995725 -4.459500
v -0.477366 4.503566 -4.459500
v -0.477366 -2.249029 -4.459500
v -0.477366 -0.144324 -4.284107
v 1.188857 0.118764 -0.688570
v 0.399594 -1.635156 -0.688570
v -2.143591 0.118764 -0.688570
v -1.354326 -1.635156 -0.688570
v -2.055894 -2.161333 -6.301117
v 2.504297 0.995725 -6.301117
v -3.459031 0.995725 -6.301117
v 1.101163 -2.161333 -6.301117
v -0.477366 1.521901 -0.688570
v -0.477366 -1.635156 -0.688570
v -0.477366 -2.336725 -6.300034
v -0.477366 3.275821 -6.301117
v -4.072903 0.995725 -8.230429
v 1.627337 -2.161333 -8.230429
v -2.582071 -2.161333 -8.230429
v 3.118172 0.995725 -8.230429
v -0.477366 4.503566 -8.230429
v -0.477366 -2.249029 -8.230429
v -0.477366 -0.144324 -8.055037
v 1.188857 0.118764 -4.459499
v 0.399594 -1.635156 -4.459499
v -2.143591 0.118764 -4.459499
v -1.354326 -1.635156 -4.459499
v -2.055894 -2.161333 -10.072046
v 2.504297 0.995725 -10.072046
v -3.459031 0.995725 -10.072046
v 1.101163 -2.161333 -10.072046
v -0.477366 1.521901 -4.459499
v -0.477366 -1.635156 -4.459499
v -0.477366 -2.336725 -10.070963
v -0.477366 3.275821 -10.072046
v -4.072903 0.995725 -12.001358
v 1.627337 -2.161333 -12.001358
v -2.582071 -2.161333 -12.001358
v 3.118172 0.995725 -12.001358
v -0.477366 4.503566 -12.001358
v -0.477366 -2.249029 -12.001358
v -0.477366 -0.144324 -11.825966
v 1.188857 0.118764 -8.230429
v 0.399594 -1.635156 -8.230429
v -2.143591 0.118764 -8.230429
v -1.354326 -1.635156 -8.230429
v -2.055894 -2.161333 -13.842976
v 2.504297 0.995725 -13.842976
v -3.459031 0.995725 -13.842976
v 1.101163 -2.161333 -13.842976
v -0.477366 1.521901 -8.230429
v -0.477366 -1.635156 -8.230429
v -0.477366 -2.336725 -13.841892
v -0.477366 3.275821 -13.842976
v -4.072903 0.995725 -15.772287
v 1.627337 -2.161333 -15.772287
v -2.582071 -2.161333 -15.772287
v 3.118172 0.995725 -15.772287
v -0.477366 4.503566 -15.772287
v -0.477366 -2.249029 -15.772287
v -0.477366 -0.144324 -15.596895
v 1.188857 0.118764 -12.001358
v 0.399594 -1.635156 -12.001358
v -2.143591 0.118764 -12.001358
v -1.354326 -1.635156 -12.001358
v -2.055894 -2.161333 -17.613905
v 2.504297 0.995725 -17.613905
v -3.459031 0.995725 -17.613905
v 1.101163 -2.161333 -17.613905
v -0.477366 1.521901 -12.001358
v -0.477366 -1.635156 -12.001358
v -0.477366 -2.336725 -17.612822
v -0.477366 3.275821 -17.613905
v -4.072903 0.995725 -19.543217
v 1.627337 -2.161333 -19.543217
v -2.582071 -2.161333 -19.543217
v 3.118172 0.995725 -19.543217
v -0.477366 4.503566 -19.543217
v -0.477366 -2.249029 -19.543217
v -0.477366 -0.144324 -19.367823
v 1.188857 0.118764 -15.772285
v 0.399594 -1.635156 -15.772285
v -2.143591 0.118764 -15.772285
v -1.354326 -1.635156 -15.772285
v -2.055894 -2.161333 -21.384832
v 2.504297 0.995725 -21.384832
v -3.459031 0.995725 -21.384832
v 1.101163 -2.161333 -21.384832
v -0.477366 1.521901 -15.772285
v -0.477366 -1.635156 -15.772285
v -0.477366 -2.336725 -21.383749
v -0.477366 3.275821 -21.384832
v -4.072903 0.995725 -23.314144
v 1.627337 -2.161333 -23.314144
v -2.582071 -2.161333 -23.314144
v 3.118172 0.995725 -23.314144
v -0.477366 4.503566 -23.314144
v -0.477366 -2.249029 -23.314144
v -0.477366 -0.144324 -23.138750
v 1.188857 0.118764 -19.543213
v 0.399594 -1.635156 -19.543213
v -2.143591 0.118764 -19.543213
v -1.354326 -1.635156 -19.543213
v -2.055894 -2.161333 -25.155760
v 2.504297 0.995725 -25.155760
v -3.459031 0.995725 -25.155760
v 1.101163 -2.161333 -25.155760
v -0.477366 1.521901 -19.543213
v -0.477366 -1.635156 -19.543213
v -0.477366 -2.336725 -25.154676
v -0.477366 3.275821 -25.155760
v -4.072903 0.995725 -27.085072
v 1.627337 -2.161333 -27.085072
v -2.582071 -2.161333 -27.085072
v 3.118172 0.995725 -27.085072
v -0.477366 4.503566 -27.085072
v -0.477366 -2.249029 -27.085072
v -0.477366 -0.144324 -26.909678
v 1.188857 0.118764 -23.314140
v 0.399594 -1.635156 -23.314140
v -2.143591 0.118764 -23.314140
v -1.354326 -1.635156 -23.314140
v -2.055894 -2.161333 -28.926687
v 2.504297 0.995725 -28.926687
v -3.459031 0.995725 -28.926687
v 1.101163 -2.161333 -28.926687
v -0.477366 1.521901 -23.314140
v -0.477366 -1.635156 -23.314140
v -0.477366 -2.336725 -28.925604
v -0.477366 3.275821 -28.926687
v -4.072903 0.995725 -30.855999
v 1.627337 -2.161333 -30.855999
v -2.582071 -2.161333 -30.855999
v 3.118172 0.995725 -30.855999
v -0.477366 4.503566 -30.855999
v -0.477366 -2.249029 -30.855999
v -0.477366 -0.144324 -30.680605
v 1.188857 0.118764 -27.085068
v 0.399594 -1.635156 -27.085068
v -2.143591 0.118764 -27.085068
v -1.354326 -1.635156 -27.085068
v -2.055894 -2.161333 -32.697617
v 2.504297 0.995725 -32.697617
v -3.459031 0.995725 -32.697617
v 1.101163 -2.161333 -32.697617
v -0.477366 1.521901 -27.085068
v -0.477366 -1.635156 -27.085068
v -0.477366 -2.336725 -32.696533
v -0.477366 3.275821 -32.697617
v -4.072903 0.995725 -34.626926
v 1.627337 -2.161333 -34.626926
v -2.582071 -2.161333 -34.626926
v 3.118172 0.995725 -34.626926
v -0.477366 4.503566 -34.626926
v -0.477366 -2.249029 -34.626926
v -0.477366 -0.144324 -34.451530
v 1.188857 0.118764 -30.855995
v 0.399594 -1.635156 -30.855995
v -2.143591 0.118764 -30.855995
v -1.354326 -1.635156 -30.855995
v -2.055894 -2.161333 -36.468544
v 2.504297 0.995725 -36.468544
v -3.459031 0.995725 -36.468544
v 1.101163 -2.161333 -36.468544
v -0.477366 1.521901 -30.855995
v -0.477366 -1.635156 -30.855995
v -0.477366 -2.336725 -36.467461
v -0.477366 3.275821 -36.468544
v -4.072903 0.995725 -38.397854
v 1.627337 -2.161333 -38.397854
v -2.582071 -2.161333 -38.397854
v 3.118172 0.995725 -38.397854
v -0.477366 4.503566 -38.397854
v -0.477366 -2.249029 -38.397854
v -0.477366 -0.144324 -38.222458
v 1.188857 0.118764 -34.626923
v 0.399594 -1.635156 -34.626923
v -2.143591 0.118764 -34.626923
v -1.354326 -1.635156 -34.626923
v -2.055894 -2.161333 -40.239471
v 2.504297 0.995725 -40.239471
v -3.459031 0.995725 -40.239471
v 1.101163 -2.161333 -40.239471
v -0.477366 1.521901 -34.626923
v -0.477366 -1.635156 -34.626923
v -0.477366 -2.336725 -40.238388
v -0.477366 3.275821 -40.239471
v -4.072903 0.995725 -42.168785
v 1.627337 -2.161333 -42.168785
v -2.582071 -2.161333 -42.168785
v 3.118172 0.995725 -42.168785
v -0.477366 4.503566 -42.168785
v -0.477366 -2.249029 -42.168785
v -0.477366 -0.144324 -41.993385
v 1.188857 0.118764 -38.397850
v 0.399594 -1.635156 -38.397850
v -2.143591 0.118764 -38.397850
v -1.354326 -1.635156 -38.397850
v -2.055894 -2.161333 -44.010399
v 2.504297 0.995725 -44.010399
v -3.459031 0.995725 -44.010399
v 1.101163 -2.161333 -44.010399
v -0.477366 1.521901 -38.397850
v -0.477366 -1.635156 -38.397850
v -0.477366 -2.336725 -44.009315
v -0.477366 3.275821 -44.010399
v -4.072903 0.995725 -45.939713
v 1.627337 -2.161333 -45.939713
v -2.582071 -2.161333 -45.939713
v 3.118172 0.995725 -45.939713
v -0.477366 4.503566 -45.939713
v -0.477366 -2.249029 -45.939713
v -0.477366 -0.144324 -45.764313
v 1.188857 0.118764 -42.168777
v 0.399594 -1.635156 -42.168777
v -2.143591 0.118764 -42.168777
v -1.354326 -1.635156 -42.168777
v -2.055894 -2.161333 -47.781326
v 2.504297 0.995725 -47.781326
v -3.459031 0.995725 -47.781326
v 1.101163 -2.161333 -47.781326
v -0.477366 1.521901 -42.168777
v -0.477366 -1.635156 -42.168777
v -0.477366 -2.336725 -47.780243
v -0.477366 3.275821 -47.781326
v -4.072903 0.995725 -49.710640
v 1.627337 -2.161333 -49.710640
v -2.582071 -2.161333 -49.710640
v 3.118172 0.995725 -49.710640
v -0.477366 4.503566 -49.710640
v -0.477366 -2.249029 -49.710640
v -0.477366 -0.144324 -49.535248
v 1.188857 0.118764 -45.939713
v 0.399594 -1.635156 -45.939713
v -2.143591 0.118764 -45.939713
v -1.354326 -1.635156 -45.939713
v -2.055894 -2.161333 -51.552254
v 2.504297 0.995725 -51.552254
v -3.459031 0.995725 -51.552254
v 1.101163 -2.161333 -51.552254
v -0.477366 1.521901 -45.939713
v -0.477366 -1.635156 -45.939713
v -0.477366 -2.336725 -51.551170
v -0.477366 3.275821 -51.552254
v -4.072903 0.995725 -53.481567
v 1.627337 -2.161333 -53.481567
v -2.582071 -2.161333 -53.481567
v 3.118172 0.995725 -53.481567
v -0.477366 4.503566 -53.481567
v -0.477366 -2.249029 -53.481567
v -0.477366 -0.144324 -53.306175
v 1.188857 0.118764 -49.710640
v 0.399594 -1.635156 -49.710640
v -2.143591 0.118764 -49.710640
v -1.354326 -1.635156 -49.710640
v -2.055894 -2.161333 -55.323181
v 2.504297 0.995725 -55.323181
v -3.459031 0.995725 -55.323181
v 1.101163 -2.161333 -55.323181
v -0.477366 1.521901 -49.710640
v -0.477366 -1.635156 -49.710640
v -0.477366 -2.336725 -55.322098
v -0.477366 3.275821 -55.323181
v -4.072903 0.995725 -57.252495
v 1.627337 -2.161333 -57.252495
v -2.582071 -2.161333 -57.252495
v 3.118172 0.995725 -57.252495
v -0.477366 4.503566 -57.252495
v -0.477366 -2.249029 -57.252495
v -0.477366 -0.144324 -57.077103
v 1.188857 0.118764 -53.481567
v 0.399594 -1.635156 -53.481567
v -2.143591 0.118764 -53.481567
v -1.354326 -1.635156 -53.481567
v -2.055894 -2.161333 -59.094109
v 2.504297 0.995725 -59.094109
v -3.459031 0.995725 -59.094109
v 1.101163 -2.161333 -59.094109
v -0.477366 1.521901 -53.481567
v -0.477366 -1.635156 -53.481567
v -0.477366 -2.336725 -59.093025
v -0.477366 3.275821 -59.094109
v -4.072903 0.995725 -61.023422
v 1.627337 -2.161333 -61.023422
v -2.582071 -2.161333 -61.023422
v 3.118172 0.995725 -61.023422
v -0.477366 4.503566 -61.023422
v -0.477366 -2.249029 -61.023422
vn -0.6016 0.7592 0.2484
vn -0.0000 -0.0000 1.0000
vn 0.7406 0.3497 -0.5737
vn 0.0708 -0.9911 0.1128
vn 0.9029 -0.4031 0.1496
vn 0.8779 -0.4024 0.2594
vn 0.0712 -0.9974 -0.0129
vn -0.9029 -0.4031 0.1496
vn -0.6247 0.7099 0.3253
vn 0.6247 0.7099 0.3253
vn -0.0712 -0.9974 -0.0129
vn -0.0708 -0.9911 0.1128
vn 0.6016 0.7592 0.2484
vn 0.0367 0.8818 -0.4703
vn -0.5339 -0.5473 -0.6446
vn 0.5339 -0.5473 -0.6445
vn -0.0367 0.8818 -0.4703
vn -0.7406 0.3497 -0.5737
vn -0.8779 -0.4024 0.2594
vn 0.5339 -0.5473 -0.6446
vn -0.5339 -0.5473 -0.6445
vt 0.625000 0.041667
vt 0.687500 0.041667
vt 0.666667 0.177083
vt 0.625000 0.177083
vt 0.812500 0.562500
vt 0.864583 0.614583
vt 0.812500 0.614583
vt 0.802083 0.572917
vt 0.614583 0.187500
vt 0.614583 0.260417
vt 0.520833 0.229167
vt 0.052083 0.333333
vt 0.010417 0.333333
vt 0.031250 0.468750
vt 0.052083 0.468750
vt 0.270833 0.604167
vt 0.197917 0.604167
vt 0.218750 0.468750
vt 0.260417 0.468750
vt 0.270833 0.645833
vt 0.197917 0.645833
vt 0.052083 0.291667
vt 0.000000 0.291667
vt 0.437500 0.197917
vt 0.437500 0.239583
vt 0.562500 0.260417
vt 0.562500 0.187500
vt 0.625000 0.000000
vt 0.708333 0.000000
vt 0.541667 0.000000
vt 0.552083 0.041667
vt 0.104167 0.291667
vt 0.083333 0.333333
vt 0.072917 0.468750
vt 0.833333 0.552083
vt 0.875000 0.572917
vt 0.583333 0.177083
vt 0.052083 0.385417
vt 0.593750 0.812500
vt 0.666667 0.895833
vt 0.666667 0.770833
vt 0.552083 0.895833
vt 0.218750 0.552083
s 0
usemtl Material.013
f 13/1/1 8/2/1 4/3/1 10/4/1
f 11/5/2 10/6/2 4/7/2 5/8/2
f 16/9/3 14/10/3 1/11/3
f 12/12/4 9/13/4 3/14/4 11/15/4
f 9/16/5 7/17/5 2/18/5 3/19/5
f 15/20/6 17/21/6 7/17/6 9/16/6
f 19/22/7 15/23/7 9/13/7 12/12/7
f 5/24/8 4/25/8 8/26/8 6/27/8
f 18/28/9 14/29/9 8/2/9 13/1/9
f 17/30/10 18/28/10 13/1/10 7/31/10
f 16/32/11 19/22/11 12/12/11 6/33/11
f 6/33/12 12/12/12 11/15/12 5/34/12
f 3/35/2 2/36/2 10/6/2 11/5/2
f 7/31/13 13/1/13 10/4/13 2/37/13
f 1/38/14 19/22/14 16/32/14
f 1/39/15 18/40/15 17/41/15
f 1/39/16 14/42/16 18/40/16
f 1/38/17 15/23/17 19/22/17
f 1/43/18 17/21/18 15/20/18
f 6/27/19 8/26/19 14/10/19 16/9/19
f 32/1/1 27/2/1 23/3/1 29/4/1
f 30/5/2 29/6/2 23/7/2 24/8/2
f 35/9/3 33/10/3 20/11/3
f 31/12/4 28/13/4 22/14/4 30/15/4
f 28/16/5 26/17/5 21/18/5 22/19/5
f 34/20/6 36/21/6 26/17/6 28/16/6
f 38/22/7 34/23/7 28/13/7 31/12/7
f 24/24/8 23/25/8 27/26/8 25/27/8
f 37/28/9 33/29/9 27/2/9 32/1/9
f 36/30/10 37/28/10 32/1/10 26/31/10
f 35/32/11 38/22/11 31/12/11 25/33/11
f 25/33/12 31/12/12 30/15/12 24/34/12
f 22/35/2 21/36/2 29/6/2 30/5/2
f 26/31/13 32/1/13 29/4/13 21/37/13
f 20/38/14 38/22/14 35/32/14
f 20/39/15 37/40/15 36/41/15
f 20/39/20 33/42/20 37/40/20
f 20/38/17 34/23/17 38/22/17
f 20/43/18 36/21/18 34/20/18
f 25/27/19 27/26/19 33/10/19 35/9/19
f 51/1/1 46/2/1 42/3/1 48/4/1
f 49/5/2 48/6/2 42/7/2 43/8/2
f 54/9/3 52/10/3 39/11/3
f 50/12/4 47/13/4 41/14/4 49/15/4
f 47/16/5 45/17/5 40/18/5 41/19/5
f 53/20/6 55/21/6 45/17/6 47/16/6
f 57/22/7 53/23/7 47/13/7 50/12/7
f 43/24/8 42/25/8 46/26/8 44/27/8
f 56/28/9 52/29/9 46/2/9 51/1/9
f 55/30/10 56/28/10 51/1/10 45/31/10
f 54/32/11 57/22/11 50/12/11 44/33/11
f 44/33/12 50/12/12 49/15/12 43/34/12
f 41/35/2 40/36/2 48/6/2 49/5/2
f 45/31/13 51/1/13 48/4/13 40/37/13
f 39/38/14 57/22/14 54/32/14
f 39/39/15 56/40/15 55/41/15
f 39/39/20 52/42/20 56/40/20
f 39/38/17 53/23/17 57/22/17
f 39/43/18 55/21/18 53/20/18
f 44/27/19 46/26/19 52/10/19 54/9/19
f 70/1/1 65/2/1 61/3/1 67/4/1
f 68/5/2 67/6/2 61/7/2 62/8/2
f 73/9/3 71/10/3 58/11/3
f 69/12/4 66/13/4 60/14/4 68/15/4
f 66/16/5 64/17/5 59/18/5 60/19/5
f 72/20/6 74/21/6 64/17/6 66/16/6
f 76/22/7 72/23/7 66/13/7 69/12/7
f 62/24/8 61/25/8 65/26/8 63/27/8
f 75/28/9 71/29/9 65/2/9 70/1/9
f 74/30/10 75/28/10 70/1/10 64/31/10
f 73/32/11 76/22/11 69/12/11 63/33/11
f 63/33/12 69/12/12 68/15/12 62/34/12
f 60/35/2 59/36/2 67/6/2 68/5/2
f 64/31/13 70/1/13 67/4/13 59/37/13
f 58/38/14 76/22/14 73/32/14
f 58/39/15 75/40/15 74/41/15
f 58/39/20 71/42/20 75/40/20
f 58/38/17 72/23/17 76/22/17
f 58/43/18 74/21/18 72/20/18
f 63/27/19 65/26/19 71/10/19 73/9/19
f 89/1/1 84/2/1 80/3/1 86/4/1
f 87/5/2 86/6/2 80/7/2 81/8/2
f 92/9/3 90/10/3 77/11/3
f 88/12/4 85/13/4 79/14/4 87/15/4
f 85/16/5 83/17/5 78/18/5 79/19/5
f 91/20/6 93/21/6 83/17/6 85/16/6
f 95/22/7 91/23/7 85/13/7 88/12/7
f 81/24/8 80/25/8 84/26/8 82/27/8
f 94/28/9 90/29/9 84/2/9 89/1/9
f 93/30/10 94/28/10 89/1/10 83/31/10
f 92/32/11 95/22/11 88/12/11 82/33/11
f 82/33/12 88/12/12 87/15/12 81/34/12
f 79/35/2 78/36/2 86/6/2 87/5/2
f 83/31/13 89/1/13 86/4/13 78/37/13
f 77/38/14 95/22/14 92/32/14
f 77/39/15 94/40/15 93/41/15
f 77/39/20 90/42/20 94/40/20
f 77/38/17 91/23/17 95/22/17
f 77/43/18 93/21/18 91/20/18
f 82/27/19 84/26/19 90/10/19 92/9/19
f 108/1/1 103/2/1 99/3/1 105/4/1
f 106/5/2 105/6/2 99/7/2 100/8/2
f 111/9/3 109/10/3 96/11/3
f 107/12/4 104/13/4 98/14/4 106/15/4
f 104/16/5 102/17/5 97/18/5 98/19/5
f 110/20/6 112/21/6 102/17/6 104/16/6
f 114/22/7 110/23/7 104/13/7 107/12/7
f 100/24/8 99/25/8 103/26/8 101/27/8
f 113/28/9 109/29/9 103/2/9 108/1/9
f 112/30/10 113/28/10 108/1/10 102/31/10
f 111/32/11 114/22/11 107/12/11 101/33/11
f 101/33/12 107/12/12 106/15/12 100/34/12
f 98/35/2 97/36/2 105/6/2 106/5/2
f 102/31/13 108/1/13 105/4/13 97/37/13
f 96/38/14 114/22/14 111/32/14
f 96/39/15 113/40/15 112/41/15
f 96/39/20 109/42/20 113/40/20
f 96/38/17 110/23/17 114/22/17
f 96/43/18 112/21/18 110/20/18
f 101/27/19 103/26/19 109/10/19 111/9/19
f 127/1/1 122/2/1 118/3/1 124/4/1
f 125/5/2 124/6/2 118/7/2 119/8/2
f 130/9/3 128/10/3 115/11/3
f 126/12/4 123/13/4 117/14/4 125/15/4
f 123/16/5 121/17/5 116/18/5 117/19/5
f 129/20/6 131/21/6 121/17/6 123/16/6
f 133/22/7 129/23/7 123/13/7 126/12/7
f 119/24/8 118/25/8 122/26/8 120/27/8
f 132/28/9 128/29/9 122/2/9 127/1/9
f 131/30/10 132/28/10 127/1/10 121/31/10
f 130/32/11 133/22/11 126/12/11 120/33/11
f 120/33/12 126/12/12 125/15/12 119/34/12
f 117/35/2 116/36/2 124/6/2 125/5/2
f 121/31/13 127/1/13 124/4/13 116/37/13
f 115/38/14 133/22/14 130/32/14
f 115/39/15 132/40/15 131/41/15
f 115/39/20 128/42/20 132/40/20
f 115/38/17 129/23/17 133/22/17
f 115/43/18 131/21/18 129/20/18
f 120/27/19 122/26/19 128/10/19 130/9/19
f 146/1/1 141/2/1 137/3/1 143/4/1
f 144/5/2 143/6/2 137/7/2 138/8/2
f 149/9/3 147/10/3 134/11/3
f 145/12/4 142/13/4 136/14/4 144/15/4
f 142/16/5 140/17/5 135/18/5 136/19/5
f 148/20/6 150/21/6 140/17/6 142/16/6
f 152/22/7 148/23/7 142/13/7 145/12/7
f 138/24/8 137/25/8 141/26/8 139/27/8
f 151/28/9 147/29/9 141/2/9 146/1/9
f 150/30/10 151/28/10 146/1/10 140/31/10
f 149/32/11 152/22/11 145/12/11 139/33/11
f 139/33/12 145/12/12 144/15/12 138/34/12
f 136/35/2 135/36/2 143/6/2 144/5/2
f 140/31/13 146/1/13 143/4/13 135/37/13
f 134/38/14 152/22/14 149/32/14
f 134/39/15 151/40/15 150/41/15
f 134/39/20 147/42/20 151/40/20
f 134/38/17 148/23/17 152/22/17
f 134/43/18 150/21/18 148/20/18
f 139/27/19 141/26/19 147/10/19 149/9/19
f 165/1/1 160/2/1 156/3/1 162/4/1
f 163/5/2 162/6/2 156/7/2 157/8/2
f 168/9/3 166/10/3 153/11/3
f 164/12/4 161/13/4 155/14/4 163/15/4
f 161/16/5 159/17/5 154/18/5 155/19/5
f 167/20/6 169/21/6 159/17/6 161/16/6
f 171/22/7 167/23/7 161/13/7 164/12/7
f 157/24/8 156/25/8 160/26/8 158/27/8
f 170/28/9 166/29/9 160/2/9 165/1/9
f 169/30/10 170/28/10 165/1/10 159/31/10
f 168/32/11 171/22/11 164/12/11 158/33/11
f 158/33/12 164/12/12 163/15/12 157/34/12
f 155/35/2 154/36/2 162/6/2 163/5/2
f 159/31/13 165/1/13 162/4/13 154/37/13
f 153/38/14 171/22/14 168/32/14
f 153/39/15 170/40/15 169/41/15
f 153/39/20 166/42/20 170/40/20
f 153/38/17 167/23/17 171/22/17
f 153/43/18 169/21/18 167/20/18
f 158/27/19 160/26/19 166/10/19 168/9/19
f 184/1/1 179/2/1 175/3/1 181/4/1
f 182/5/2 181/6/2 175/7/2 176/8/2
f 187/9/3 185/10/3 172/11/3
f 183/12/4 180/13/4 174/14/4 182/15/4
f 180/16/5 178/17/5 173/18/5 174/19/5
f 186/20/6 188/21/6 178/17/6 180/16/6
f 190/22/7 186/23/7 180/13/7 183/12/7
f 176/24/8 175/25/8 179/26/8 177/27/8
f 189/28/9 185/29/9 179/2/9 184/1/9
f 188/30/10 189/28/10 184/1/10 178/31/10
f 187/32/11 190/22/11 183/12/11 177/33/11
f 177/33/12 183/12/12 182/15/12 176/34/12
f 174/35/2 173/36/2 181/6/2 182/5/2
f 178/31/13 184/1/13 181/4/13 173/37/13
f 172/38/14 190/22/14 187/32/14
f 172/39/15 189/40/15 188/41/15
f 172/39/20 185/42/20 189/40/20
f 172/38/17 186/23/17 190/22/17
f 172/43/18 188/21/18 186/20/18
f 177/27/19 179/26/19 185/10/19 187/9/19
f 203/1/1 198/2/1 194/3/1 200/4/1
f 201/5/2 200/6/2 194/7/2 195/8/2
f 206/9/3 204/10/3 191/11/3
f 202/12/4 199/13/4 193/14/4 201/15/4
f 199/16/5 197/17/5 192/18/5 193/19/5
f 205/20/6 207/21/6 197/17/6 199/16/6
f 209/22/7 205/23/7 199/13/7 202/12/7
f 195/24/8 194/25/8 198/26/8 196/27/8
f 208/28/9 204/29/9 198/2/9 203/1/9
f 207/30/10 208/28/10 203/1/10 197/31/10
f 206/32/11 209/22/11 202/12/11 196/33/11
f 196/33/12 202/12/12 201/15/12 195/34/12
f 193/35/2 192/36/2 200/6/2 201/5/2
f 197/31/13 203/1/13 200/4/13 192/37/13
f 191/38/14 209/22/14 206/32/14
f 191/39/15 208/40/15 207/41/15
f 191/39/20 204/42/20 208/40/20
f 191/38/17 205/23/17 209/22/17
f 191/43/18 207/21/18 205/20/18
f 196/27/19 198/26/19 204/10/19 206/9/19
f 222/1/1 217/2/1 213/3/1 219/4/1
f 220/5/2 219/6/2 213/7/2 214/8/2
f 225/9/3 223/10/3 210/11/3
f 221/12/4 218/13/4 212/14/4 220/15/4
f 218/16/5 216/17/5 211/18/5 212/19/5
f 224/20/6 226/21/6 216/17/6 218/16/6
f 228/22/7 224/23/7 218/13/7 221/12/7
f 214/24/8 213/25/8 217/26/8 215/27/8
f 227/28/9 223/29/9 217/2/9 222/1/9
f 226/30/10 227/28/10 222/1/10 216/31/10
f 225/32/11 228/22/11 221/12/11 215/33/11
f 215/33/12 221/12/12 220/15/12 214/34/12
f 212/35/2 211/36/2 219/6/2 220/5/2
f 216/31/13 222/1/13 219/4/13 211/37/13
f 210/38/14 228/22/14 225/32/14
f 210/39/15 227/40/15 226/41/15
f 210/39/20 223/42/20 227/40/20
f 210/38/17 224/23/17 228/22/17
f 210/43/18 226/21/18 224/20/18
f 215/27/19 217/26/19 223/10/19 225/9/19
f 241/1/1 236/2/1 232/3/1 238/4/1
f 239/5/2 238/6/2 232/7/2 233/8/2
f 244/9/3 242/10/3 229/11/3
f 240/12/4 237/13/4 231/14/4 239/15/4
f 237/16/5 235/17/5 230/18/5 231/19/5
f 243/20/6 245/21/6 235/17/6 237/16/6
f 247/22/7 243/23/7 237/13/7 240/12/7
f 233/24/8 232/25/8 236/26/8 234/27/8
f 246/28/9 242/29/9 236/2/9 241/1/9
f 245/30/10 246/28/10 241/1/10 235/31/10
f 244/32/11 247/22/11 240/12/11 234/33/11
f 234/33/12 240/12/12 239/15/12 233/34/12
f 231/35/2 230/36/2 238/6/2 239/5/2
f 235/31/13 241/1/13 238/4/13 230/37/13
f 229/38/14 247/22/14 244/32/14
f 229/39/15 246/40/15 245/41/15
f 229/39/20 242/42/20 246/40/20
f 229/38/17 243/23/17 247/22/17
f 229/43/18 245/21/18 243/20/18
f 234/27/19 236/26/19 242/10/19 244/9/19
f 260/1/1 255/2/1 251/3/1 257/4/1
f 258/5/2 257/6/2 251/7/2 252/8/2
f 263/9/3 261/10/3 248/11/3
f 259/12/4 256/13/4 250/14/4 258/15/4
f 256/16/5 254/17/5 249/18/5 250/19/5
f 262/20/6 264/21/6 254/17/6 256/16/6
f 266/22/7 262/23/7 256/13/7 259/12/7
f 252/24/8 251/25/8 255/26/8 253/27/8
f 265/28/9 261/29/9 255/2/9 260/1/9
f 264/30/10 265/28/10 260/1/10 254/31/10
f 263/32/11 266/22/11 259/12/11 253/33/11
f 253/33/12 259/12/12 258/15/12 252/34/12
f 250/35/2 249/36/2 257/6/2 258/5/2
f 254/31/13 260/1/13 257/4/13 249/37/13
f 248/38/14 266/22/14 263/32/14
f 248/39/15 265/40/15 264/41/15
f 248/39/20 261/42/20 265/40/20
f 248/38/17 262/23/17 266/22/17
f 248/43/18 264/21/18 262/20/18
f 253/27/19 255/26/19 261/10/19 263/9/19
f 279/1/1 274/2/1 270/3/1 276/4/1
f 277/5/2 276/6/2 270/7/2 271/8/2
f 282/9/3 280/10/3 267/11/3
f 278/12/4 275/13/4 269/14/4 277/15/4
f 275/16/5 273/17/5 268/18/5 269/19/5
f 281/20/6 283/21/6 273/17/6 275/16/6
f 285/22/7 281/23/7 275/13/7 278/12/7
f 271/24/8 270/25/8 274/26/8 272/27/8
f 284/28/9 280/29/9 274/2/9 279/1/9
f 283/30/10 284/28/10 279/1/10 273/31/10
f 282/32/11 285/22/11 278/12/11 272/33/11
f 272/33/12 278/12/12 277/15/12 271/34/12
f 269/35/2 268/36/2 276/6/2 277/5/2
f 273/31/13 279/1/13 276/4/13 268/37/13
f 267/38/14 285/22/14 282/32/14
f 267/39/21 284/40/21 283/41/21
f 267/39/16 280/42/16 284/40/16
f 267/38/17 281/23/17 285/22/17
f 267/43/18 283/21/18 281/20/18
f 272/27/19 274/26/19 280/10/19 282/9/19
f 298/1/1 293/2/1 289/3/1 295/4/1
f 296/5/2 295/6/2 289/7/2 290/8/2
f 301/9/3 299/10/3 286/11/3
f 297/12/4 294/13/4 288/14/4 296/15/4
f 294/16/5 292/17/5 287/18/5 288/19/5
f 300/20/6 302/21/6 292/17/6 294/16/6
f 304/22/7 300/23/7 294/13/7 297/12/7
f 290/24/8 289/25/8 293/26/8 291/27/8
f 303/28/9 299/29/9 293/2/9 298/1/9
f 302/30/10 303/28/10 298/1/10 292/31/10
f 301/32/11 304/22/11 297/12/11 291/33/11
f 291/33/12 297/12/12 296/15/12 290/34/12
f 288/35/2 287/36/2 295/6/2 296/5/2
f 292/31/13 298/1/13 295/4/13 287/37/13
f 286/38/14 304/22/14 301/32/14
f 286/39/15 303/40/15 302/41/15
f 286/39/20 299/42/20 303/40/20
f 286/38/17 300/23/17 304/22/17
f 286/43/18 302/21/18 300/20/18
f 291/27/19 293/26/19 299/10/19 301/9/19
f 317/1/1 312/2/1 308/3/1 314/4/1
f 315/5/2 314/6/2 308/7/2 309/8/2
f 320/9/3 318/10/3 305/11/3
f 316/12/4 313/13/4 307/14/4 315/15/4
f 313/16/5 311/17/5 306/18/5 307/19/5
f 319/20/6 321/21/6 311/17/6 313/16/6
f 323/22/7 319/23/7 313/13/7 316/12/7
f 309/24/8 308/25/8 312/26/8 310/27/8
f 322/28/9 318/29/9 312/2/9 317/1/9
f 321/30/10 322/28/10 317/1/10 311/31/10
f 320/32/11 323/22/11 316/12/11 310/33/11
f 310/33/12 316/12/12 315/15/12 309/34/12
f 307/35/2 306/36/2 314/6/2 315/5/2
f 311/31/13 317/1/13 314/4/13 306/37/13
f 305/38/14 323/22/14 320/32/14
f 305/39/15 322/40/15 321/41/15
f 305/39/20 318/42/20 322/40/20
f 305/38/17 319/23/17 323/22/17
f 305/43/18 321/21/18 319/20/18
f 310/27/19 312/26/19 318/10/19 320/9/19
f 336/1/1 331/2/1 327/3/1 333/4/1
f 334/5/2 333/6/2 327/7/2 328/8/2
f 339/9/3 337/10/3 324/11/3
f 335/12/4 332/13/4 326/14/4 334/15/4
f 332/16/5 330/17/5 325/18/5 326/19/5
f 338/20/6 340/21/6 330/17/6 332/16/6
f 342/22/7 338/23/7 332/13/7 335/12/7
f 328/24/8 327/25/8 331/26/8 329/27/8
f 341/28/9 337/29/9 331/2/9 336/1/9
f 340/30/10 341/28/10 336/1/10 330/31/10
f 339/32/11 342/22/11 335/12/11 329/33/11
f 329/33/12 335/12/12 334/15/12 328/34/12
f 326/35/2 325/36/2 333/6/2 334/5/2
f 330/31/13 336/1/13 333/4/13 325/37/13
f 324/38/14 342/22/14 339/32/14
f 324/39/15 341/40/15 340/41/15
f 324/39/20 337/42/20 341/40/20
f 324/38/17 338/23/17 342/22/17
f 324/43/18 340/21/18 338/20/18
f 329/27/19 331/26/19 337/10/19 339/9/19
f 355/1/1 350/2/1 346/3/1 352/4/1
f 353/5/2 352/6/2 346/7/2 347/8/2
f 358/9/3 356/10/3 343/11/3
f 354/12/4 351/13/4 345/14/4 353/15/4
f 351/16/5 349/17/5 344/18/5 345/19/5
f 357/20/6 359/21/6 349/17/6 351/16/6
f 361/22/7 357/23/7 351/13/7 354/12/7
f 347/24/8 346/25/8 350/26/8 348/27/8
f 360/28/9 356/29/9 350/2/9 355/1/9
f 359/30/10 360/28/10 355/1/10 349/31/10
f 358/32/11 361/22/11 354/12/11 348/33/11
f 348/33/12 354/12/12 353/15/12 347/34/12
f 345/35/2 344/36/2 352/6/2 353/5/2
f 349/31/13 355/1/13 352/4/13 344/37/13
f 343/38/14 361/22/14 358/32/14
f 343/39/15 360/40/15 359/41/15
f 343/39/20 356/42/20 360/40/20
f 343/38/17 357/23/17 361/22/17
f 343/43/18 359/21/18 357/20/18
f 348/27/19 350/26/19 356/10/19 358/9/19
f 374/1/1 369/2/1 365/3/1 371/4/1
f 372/5/2 371/6/2 365/7/2 366/8/2
f 377/9/3 375/10/3 362/11/3
f 373/12/4 370/13/4 364/14/4 372/15/4
f 370/16/5 368/17/5 363/18/5 364/19/5
f 376/20/6 378/21/6 368/17/6 370/16/6
f 380/22/7 376/23/7 370/13/7 373/12/7
f 366/24/8 365/25/8 369/26/8 367/27/8
f 379/28/9 375/29/9 369/2/9 374/1/9
f 378/30/10 379/28/10 374/1/10 368/31/10
f 377/32/11 380/22/11 373/12/11 367/33/11
f 367/33/12 373/12/12 372/15/12 366/34/12
f 364/35/2 363/36/2 371/6/2 372/5/2
f 368/31/13 374/1/13 371/4/13 363/37/13
f 362/38/14 380/22/14 377/32/14
f 362/39/15 379/40/15 378/41/15
f 362/39/20 375/42/20 379/40/20
f 362/38/17 376/23/17 380/22/17
f 362/43/18 378/21/18 376/20/18
f 367/27/19 369/26/19 375/10/19 377/9/19
o Nadadeiras
v 3.819740 1.854222 14.529846
v 5.749053 3.169663 12.249750
v -0.038885 -0.688962 17.511511
v 0.662683 0.801870 11.285093
v 5.222876 2.818879 9.180387
v 1.276555 0.801870 8.215733
v 4.784396 3.257359 6.461811
v 1.101163 0.538782 1.813923
v 5.573660 2.468094 -0.816957
v 0.662683 0.538782 -5.991024
v 4.959788 3.257359 -7.043375
v 0.750379 0.538782 -11.077394
v 1.188859 0.538782 -2.044703
v 7.152189 3.608143 1.726227
v -3.819740 1.854222 14.529846
v -5.749053 3.169663 12.249750
v 0.038885 -0.688962 17.511511
v -0.662683 0.801870 11.285093
v -5.222876 2.818879 9.180387
v -1.276555 0.801870 8.215733
v -4.784396 3.257359 6.461811
v -1.101163 0.538782 1.813923
v -5.573660 2.468094 -0.816957
v -0.662683 0.538782 -5.991024
v -4.959788 3.257359 -7.043375
v -0.750379 0.538782 -11.077394
v -1.188859 0.538782 -2.044703
v -7.152189 3.608143 1.726227
v 3.819740 1.854222 -28.353516
v 5.749053 3.169663 -30.633612
v -0.038885 -0.688962 -25.371851
v 0.662683 0.801870 -31.598269
v 5.222876 2.818879 -33.702972
v 1.276555 0.801870 -34.667629
v 4.784396 3.257359 -36.421551
v 1.101163 0.538782 -41.069439
v 5.573660 2.468094 -43.700317
v 0.662683 0.538782 -48.874390
v 4.959788 3.257359 -49.926735
v 0.750379 0.538782 -53.960754
v 1.188859 0.538782 -44.928062
v 7.152189 3.608143 -41.157135
v -3.819740 1.854222 -28.353516
v -5.749053 3.169663 -30.633612
v 0.038885 -0.688962 -25.371851
v -0.662683 0.801870 -31.598269
v -5.222876 2.818879 -33.702972
v -1.276555 0.801870 -34.667629
v -4.784396 3.257359 -36.421551
v -1.101163 0.538782 -41.069439
v -5.573660 2.468094 -43.700317
v -0.662683 0.538782 -48.874390
v -4.959788 3.257359 -49.926735
v -0.750379 0.538782 -53.960754
v -1.188859 0.538782 -44.928062
v -7.152189 3.608143 -41.157135
vn -0.4492 0.8805 0.1515
vn -0.4260 0.9029 -0.0577
vn -0.5546 0.8304 0.0533
vn -0.3947 0.9182 -0.0333
vn -0.5181 0.8512 0.0835
vn -0.4515 0.8874 -0.0928
vn 0.4492 0.8805 0.1515
vn 0.4260 0.9029 -0.0577
vn 0.5546 0.8304 0.0533
vn 0.3947 0.9182 -0.0333
vn 0.5181 0.8512 0.0835
vn 0.4515 0.8874 -0.0928
vt 0.187500 0.208333
vt 0.218750 0.270833
vt 0.104167 0.270833
vt 0.114583 0.125000
vt 0.197917 0.343750
vt 0.104167 0.343750
vt 0.177083 0.395833
vt 0.072917 0.489583
vt 0.052083 0.572917
vt 0.208333 0.520833
vt 0.156250 0.572917
vt 0.020833 0.666667
vt 0.114583 0.708333
vt 0.000000 0.781250
s 0
usemtl Material.013
f 381/44/22 382/45/22 384/46/22 383/47/22
f 384/46/23 382/45/23 385/48/23 386/49/23
f 386/49/24 385/48/24 387/50/24 388/51/24
f 393/52/25 394/53/25 389/54/25 390/55/25
f 390/55/26 389/54/26 391/56/26 392/57/26
f 388/51/27 387/50/27 394/53/27 393/52/27
f 395/44/28 397/47/28 398/46/28 396/45/28
f 398/46/29 400/49/29 399/48/29 396/45/29
f 400/49/30 402/51/30 401/50/30 399/48/30
f 407/52/31 404/55/31 403/54/31 408/53/31
f 404/55/32 406/57/32 405/56/32 403/54/32
f 402/51/33 407/52/33 408/53/33 401/50/33
f 409/44/22 410/45/22 412/46/22 411/47/22
f 412/46/23 410/45/23 413/48/23 414/49/23
f 414/49/24 413/48/24 415/50/24 416/51/24
f 421/52/25 422/53/25 417/54/25 418/55/25
f 418/55/26 417/54/26 419/56/26 420/57/26
f 416/51/27 415/50/27 422/53/27 421/52/27
f 423/44/28 425/47/28 426/46/28 424/45/28
f 426/46/29 428/49/29 427/48/29 424/45/29
f 428/49/30 430/51/30 429/50/30 427/48/30
f 435/52/31 432/55/31 431/54/31 436/53/31
f 432/55/32 434/57/32 433/56/32 431/54/32
f 430/51/33 435/52/33 436/53/33 429/50/33
o Cabeça
v -0.476161 0.708144 17.414328
v 2.122032 1.123854 26.767820
v 0.874899 -2.513616 26.036200
v -3.074353 1.123854 26.767820
v -1.827221 -2.513616 26.036200
v -2.866498 -2.409688 18.141823
v 4.096658 2.474914 18.141823
v -5.048980 2.474914 18.141823
v 1.914176 -2.409688 18.141823
v -0.476161 3.202409 26.248182
v -0.476161 -2.513616 26.248182
v -0.476161 -3.016191 18.141823
v -0.476161 4.610589 18.141823
v -5.984329 2.474914 15.127918
v 2.745598 -2.409688 15.127918
v -3.697920 -2.409688 15.127918
v 5.032007 2.474914 15.127918
v -0.476161 7.879155 11.033026
v -0.476161 -2.513616 15.127918
v -2.450787 -2.201833 26.248182
v 1.394538 0.188506 26.767820
v 3.057381 -0.954700 18.141823
v -4.009703 -0.954700 17.310400
v -0.476161 0.812070 26.767820
v 3.888803 -0.019351 15.127918
v -4.945052 -0.019351 15.127918
v 1.394538 -2.201833 26.248182
v -0.476161 -1.694061 26.767820
v -2.450787 0.188506 26.767820
v 3.577019 2.059205 20.428232
v -4.529341 2.059205 20.428232
v -0.476161 4.402963 20.116449
v -3.593992 -0.642918 19.492882
v 2.641670 -0.642918 20.428232
v -0.476161 1.331710 21.347458
v -2.570394 -2.439299 20.451433
v 1.618072 -2.439299 20.451433
v -0.476161 -2.372745 20.451433
v 2.583615 -1.310025 20.451433
v -3.565547 -1.310025 19.856894
v -1.894109 -2.506927 25.726454
v -0.476161 -2.256206 25.227446
v 1.501559 -2.121567 25.726454
v 0.941787 -2.506927 25.726454
v -2.551119 -2.121567 25.672945
v -0.476161 -3.068874 20.451433
v -0.476161 -2.874331 25.726454
v -0.476161 1.355255 27.736502
v -0.476161 -0.685619 19.064142
vn -0.5245 0.8269 0.2028
vn -0.2792 -0.8375 0.4697
vn 0.4209 0.1970 -0.8854
vn 0.8934 -0.4084 0.1871
vn 0.9162 -0.3375 0.2162
vn 0.1253 -0.9900 -0.0653
vn -0.9188 -0.3490 0.1842
vn -0.4860 0.8176 0.3089
vn 0.4860 0.8176 0.3089
vn -0.1253 -0.9900 -0.0653
vn 0.2656 -0.8409 0.4715
vn 0.5245 0.8269 0.2028
vn 0.0187 0.5786 -0.8154
vn -0.0964 -0.6617 -0.7436
vn 0.0964 -0.6617 -0.7436
vn -0.0187 0.5786 -0.8154
vn -0.4282 0.2004 -0.8812
vn -0.8991 -0.3520 0.2603
vn -0.8508 -0.4852 0.2019
vn -0.7875 -0.6122 0.0715
vn 0.8490 -0.5048 0.1559
vn -0.0842 -0.5336 0.8415
vn -0.4752 -0.8742 0.0997
vn 0.4533 -0.8852 0.1046
vn 0.0657 -0.2743 -0.9594
vn 0.0925 -0.1585 -0.9830
vn 0.4600 -0.8877 -0.0196
vn -0.4655 -0.8847 -0.0259
vn 0.4479 0.8752 0.1827
vn -0.8901 -0.4243 0.1666
vn 0.9355 -0.3013 0.1845
vn -0.4479 0.8752 0.1827
vn 0.7725 -0.6304 0.0762
vn -0.6849 -0.7271 0.0468
vn 0.3108 0.9473 0.0780
vn -0.4778 -0.8785 0.0040
vn 0.7034 -0.7084 0.0582
vn 0.1578 0.9276 -0.3385
vn -0.1496 0.9288 -0.3390
vn 0.0904 0.9884 0.1222
vn -0.1002 0.9863 0.1312
vn -0.2350 0.9711 0.0419
vn 0.2245 0.9736 0.0424
vn -0.3271 0.9418 0.0778
vn 0.2507 0.9674 -0.0357
vn -0.2507 -0.9675 0.0332
vn -0.0889 -0.8193 0.5664
vn -0.1106 -0.7005 0.7050
vn 0.0889 -0.5334 0.8412
vn 0.1135 -0.6810 0.7234
vn 0.5390 -0.8420 0.0247
vn 0.2507 -0.9675 0.0332
vn 0.0889 -0.8193 0.5664
vn 0.2507 -0.9674 0.0357
vn 0.2878 -0.9574 0.0246
vn 0.2459 -0.9690 -0.0221
vn -0.2459 -0.9690 -0.0221
vn -0.2878 -0.9574 0.0246
vn 0.2878 0.9574 -0.0246
vn -0.3241 -0.2161 0.9210
vn -0.3271 0.5929 0.7358
vn 0.3271 0.5929 0.7358
vn 0.3189 -0.2481 0.9147
vn -0.3964 0.5831 0.7091
vn 0.2425 0.6162 0.7493
vn -0.0422 -0.9909 0.1275
vn -0.0057 0.9901 -0.1403
vn 0.0805 -0.7470 0.6600
vn -0.2691 -0.7218 0.6377
vt 0.166667 0.812500
vt 0.177083 0.906250
vt 0.031250 0.906250
vt 0.031250 0.843750
vt 0.875000 0.062500
vt 0.916667 0.072917
vt 0.885417 0.041667
vt 0.770833 0.885417
vt 0.791667 0.937500
vt 0.812500 1.000000
vt 0.875000 0.885417
vt 0.041667 0.125000
vt 0.104167 0.125000
vt 0.083333 0.270833
vt 0.062500 0.270833
vt 0.052083 0.000000
vt 0.114583 0.000000
vt 0.114583 0.072917
vt 0.031250 0.072917
vt 0.750000 0.822917
vt 0.822917 0.822917
vt 0.802083 0.750000
vt 0.750000 0.750000
vt 0.802083 0.447917
vt 0.739583 0.427083
vt 0.729167 0.479167
vt 0.802083 0.500000
vt 0.375000 0.760417
vt 0.312500 0.906250
vt 0.239583 0.906250
vt 0.208333 0.802083
vt 0.250000 0.656250
vt 0.187500 0.697917
vt 0.677083 0.822917
vt 0.697917 0.750000
vt 0.833333 0.062500
vt 0.135417 0.718750
vt 0.000000 0.791667
vt 0.989583 1.000000
vt 1.000000 0.822917
vt 0.885417 0.781250
vt 0.937500 0.802083
vt 0.729167 0.552083
vt 0.781250 0.552083
vt 0.843750 0.479167
vt 0.843750 0.552083
vt 0.843750 0.427083
vt 0.812500 0.437500
vt 0.000000 0.000000
vt 0.000000 0.072917
vt 0.125000 0.093750
vt 0.114583 0.041667
vt 0.135417 0.041667
vt 0.927083 0.229167
vt 0.854167 0.187500
vt 0.843750 0.281250
vt 0.927083 0.281250
vt 0.781250 0.218750
vt 0.760417 0.270833
vt 0.885417 0.375000
vt 0.802083 0.333333
vt 0.791667 0.395833
vt 0.812500 0.427083
vt 0.885417 0.281250
vt 0.843750 0.291667
vt 0.781250 0.281250
vt 0.760417 0.281250
vt 0.031250 0.125000
vt 0.000000 0.125000
vt 0.718750 0.583333
vt 0.708333 0.583333
vt 0.677083 0.718750
vt 0.697917 0.697917
vt 0.750000 0.697917
vt 0.666667 0.770833
vt 0.718750 0.572917
vt 0.708333 0.562500
vt 0.802083 0.697917
vt 0.822917 0.697917
vt 0.802083 0.583333
vt 0.781250 0.583333
vt 0.750000 0.552083
vt 0.791667 0.562500
vt 0.750000 0.593750
vt 0.833333 0.750000
vt 0.750000 0.583333
vt 0.750000 0.562500
vt 0.125000 0.000000
vt 0.114583 0.010417
vt 0.781250 0.572917
vt 0.458333 0.843750
vt 0.447917 0.864583
vt 0.395833 0.833333
vt 0.395833 0.791667
vt 0.343750 0.843750
vt 0.354167 0.864583
vt 0.333333 0.354167
vt 0.375000 0.364583
vt 0.364583 0.437500
vt 0.375000 0.281250
vt 0.843750 0.239583
s 0
usemtl Material.013
f 468/58/34 467/59/34 440/60/34 446/61/34
f 460/62/35 457/63/35 484/64/35
f 452/65/36 462/66/36 450/67/36 437/68/36
f 470/69/37 466/70/37 438/71/37 457/72/37
f 461/73/38 453/74/38 443/75/38 458/76/38
f 455/77/39 451/78/39 445/79/39 448/80/39
f 469/81/40 467/82/40 444/83/40 459/84/40
f 454/85/41 450/86/41 444/87/41 449/88/41
f 453/89/42 454/85/42 449/88/42 443/90/42
f 452/91/43 455/77/43 448/80/43 442/92/43
f 484/64/44 465/93/44 460/62/44
f 466/94/45 468/58/45 446/61/45 438/95/45
f 437/68/46 455/78/46 452/65/46
f 437/68/47 454/96/47 453/97/47
f 437/68/48 450/67/48 454/96/48
f 437/68/49 451/98/49 455/78/49
f 437/68/50 453/97/50 461/99/50 451/98/50
f 459/84/51 444/83/51 450/100/51 462/101/51
f 442/102/52 459/84/52 462/101/52 452/103/52
f 472/104/53 476/105/53 459/84/53 442/102/53
f 451/106/54 461/73/54 458/76/54 445/107/54
f 456/108/55 447/109/55 464/110/55
f 470/111/56 471/112/56 437/113/56 458/114/56
f 469/115/57 459/116/57 437/113/57 471/112/57
f 437/117/58 448/118/58 442/119/58 459/120/58
f 448/118/59 437/117/59 458/121/59 445/122/59
f 465/93/60 469/115/60 471/112/60 460/62/60
f 457/63/61 460/62/61 471/112/61 470/111/61
f 443/90/62 449/88/62 468/58/62 466/94/62
f 465/123/63 440/124/63 467/82/63 469/81/63
f 458/76/64 443/75/64 466/70/64 470/69/64
f 449/88/65 444/87/65 467/59/65 468/58/65
f 445/107/66 458/76/66 475/125/66 473/126/66
f 477/127/67 481/128/67 476/129/67 472/130/67
f 476/129/68 474/131/68 459/132/68
f 441/133/69 456/134/69 481/128/69 477/127/69
f 473/135/70 475/136/70 479/137/70 480/138/70
f 464/139/71 463/140/71 478/141/71
f 456/134/72 464/139/72 478/141/72
f 481/128/73 456/134/73 478/141/73
f 479/137/74 478/141/74 463/140/74
f 475/136/75 474/131/75 478/141/75 479/137/75
f 474/131/76 476/129/76 481/128/76 478/141/76
f 475/136/77 458/142/77 474/131/77
f 482/131/78 477/127/78 483/143/78
f 441/133/79 477/127/79 483/143/79
f 447/144/80 441/133/80 483/143/80
f 447/109/81 456/108/81 441/75/81
f 463/145/82 464/110/82 447/109/82
f 463/145/83 447/109/83 439/146/83
f 439/147/84 480/138/84 479/137/84 463/140/84
f 480/138/85 439/147/85 483/143/85
f 447/144/86 483/143/86 439/147/86
f 482/131/87 480/138/87 483/143/87
f 473/135/88 480/138/88 482/131/88
f 445/79/88 473/135/88 482/131/88
f 445/79/89 482/131/89 448/80/89
f 482/131/90 442/92/90 448/80/90
f 472/130/91 442/92/91 482/131/91
f 477/127/92 482/131/92 472/130/92
f 440/148/93 465/149/93 484/150/93
f 440/148/94 484/150/94 446/151/94
f 446/151/95 484/150/95 438/152/95
f 457/153/96 438/152/96 484/150/96
f 474/154/97 485/155/97 459/156/97
f 474/154/98 458/157/98 485/155/98
f 470/111/99 485/158/99 458/114/99
f 469/115/100 485/158/100 459/116/100
f 471/112/101 469/115/101 485/158/101
f 470/111/102 471/112/102 485/158/102
o Cauda1
v 1.202322 0.765143 -53.267960
v 0.382009 -0.523920 -53.267960
v -2.157053 0.765143 -53.267960
v -1.336740 -0.523920 -53.267960
v -0.828928 -0.914543 -61.471085
v 0.186697 1.429206 -62.017960
v -1.141428 1.429206 -62.017960
v -0.125803 -0.914543 -61.471085
v -0.477366 1.780768 -53.267960
v -0.477366 -0.523920 -53.267960
v -0.477366 -3.531733 -59.596092
v -0.477366 3.069830 -61.471085
v -0.477366 3.694830 -77.603897
v -0.477366 -1.734858 -71.275772
v -0.477366 6.507330 -82.174210
v -0.477366 -6.383293 -71.510155
v -0.477366 -4.391106 -80.728897
v -0.477366 -12.750481 -77.369522
v -0.477366 -7.281733 -59.127342
v -0.477366 7.601080 -61.783585
v -0.477366 12.796392 -90.689835
vn -0.9319 0.3584 0.0563
vn -0.0000 -0.0000 1.0000
vn 0.9791 -0.1599 -0.1258
vn 0.9902 -0.1376 -0.0240
vn -1.0000 -0.0000 -0.0000
vn -0.9791 -0.1599 -0.1258
vn 0.9285 0.3710 0.0144
vn -0.9840 -0.1700 -0.0528
vn 0.9319 0.3584 0.0563
vn 0.9885 -0.1492 -0.0230
vn -0.9285 0.3710 0.0144
vn 0.9969 -0.0596 -0.0511
vn 0.9885 0.1492 0.0230
vn -0.9902 -0.1376 -0.0240
vn -0.9969 -0.0596 -0.0511
vn -0.8434 -0.5367 -0.0267
vn -0.5174 0.8557 0.0049
vn 0.5174 0.8557 0.0049
vn 0.8434 -0.5367 -0.0267
vn -0.0000 -0.9032 0.4293
vn 0.9840 -0.1700 -0.0528
vn 0.9563 0.1915 -0.2209
vn 1.0000 -0.0000 -0.0000
vt 0.583333 0.677083
vt 0.541667 0.666667
vt 0.552083 0.864583
vt 0.187500 0.416667
vt 0.229167 0.395833
vt 0.239583 0.437500
vt 0.197917 0.437500
vt 0.531250 0.864583
vt 0.489583 0.677083
vt 0.468750 0.447917
vt 0.364583 0.447917
vt 0.427083 0.718750
vt 0.593750 0.302083
vt 0.500000 0.864583
vt 0.177083 0.406250
vt 0.197917 0.375000
vt 0.656250 0.197917
vt 0.020833 0.291667
vt 0.031250 0.083333
vt 0.062500 0.291667
vt 0.395833 0.041667
vt 0.187500 0.020833
vt 0.395833 0.000000
vt 0.395833 0.020833
vt 0.541667 0.041667
vt 0.406250 0.000000
vt 0.802083 0.000000
vt 0.687500 0.666667
vt 0.343750 0.729167
vt 0.208333 0.312500
vt 0.406250 0.229167
s 0
usemtl Material.013
f 497/159/103 492/160/103 494/161/103
f 495/162/104 494/163/104 488/164/104 489/165/104
f 486/166/105 493/167/105 491/160/105
f 493/167/106 499/168/106 491/160/106
f 499/168/107 501/169/107 496/170/107
f 492/160/108 490/167/108 488/166/108
f 498/171/109 497/159/109 491/160/109
f 490/167/110 496/170/110 489/172/110
f 487/173/104 486/174/104 494/163/104 495/162/104
f 491/160/111 497/159/111 494/161/111
f 496/170/112 499/168/112 493/167/112
f 497/159/113 498/171/113 492/160/113
f 500/175/107 498/171/107 497/159/107
f 498/171/114 491/160/114 499/168/114
f 499/168/115 490/167/115 496/170/115
f 490/167/116 492/160/116 499/168/116
f 498/171/117 499/168/117 492/160/117
f 490/167/118 489/172/118 488/166/118
f 494/176/119 492/177/119 488/178/119
f 486/179/120 491/180/120 494/181/120
f 487/172/121 493/167/121 486/166/121
f 495/182/122 489/179/122 496/183/122
f 495/182/122 496/183/122 487/184/122
f 493/167/123 487/172/123 496/170/123
f 500/175/107 497/159/107 506/185/107
f 505/186/107 506/185/107 497/159/107
f 494/161/107 505/186/107 497/159/107
f 504/187/124 496/170/124 495/172/124 487/172/124
f 503/188/125 496/170/125 504/187/125
f 501/169/107 503/188/107 496/170/107
f 501/169/107 499/168/107 502/189/107
f 502/189/107 499/168/107 498/171/107
l 495 504
