# Blender 4.2.1 LTS
# www.blender.org
mtllib guidao.mtl
o Torus
v 1.225054 0.000000 -0.244677
v 1.102474 0.216506 -0.220200
v 0.857314 0.216506 -0.171245
v 0.734734 0.000000 -0.146768
v 0.857314 -0.216506 -0.171245
v 1.102474 -0.216506 -0.220200
v 1.038075 0.000000 -0.695138
v 0.934193 0.216506 -0.625615
v 0.726429 0.216506 -0.486568
v 0.622547 0.000000 -0.417044
v 0.726429 -0.216506 -0.486568
v 0.934193 -0.216506 -0.625615
v 0.692944 0.000000 -1.039756
v 0.623575 0.216506 -0.935771
v 0.484837 0.216506 -0.727800
v 0.415468 0.000000 -0.623815
v 0.484837 -0.216506 -0.727800
v 0.623575 -0.216506 -0.935771
v 0.242206 0.000000 -1.226066
v 0.217911 0.216506 -1.103449
v 0.169321 0.216506 -0.858217
v 0.145025 0.000000 -0.735601
v 0.169321 -0.216506 -0.858217
v 0.217911 -0.216506 -1.103449
v -0.245520 0.000000 -1.225703
v -0.221042 0.216506 -1.103123
v -0.172087 0.216506 -0.857963
v -0.147610 0.000000 -0.735383
v -0.172087 -0.216506 -0.857963
v -0.221042 -0.216506 -1.103123
v -0.695981 0.000000 -1.038724
v -0.626457 0.216506 -0.934842
v -0.487410 0.216506 -0.727078
v -0.417887 0.000000 -0.623195
v -0.487410 -0.216506 -0.727078
v -0.626457 -0.216506 -0.934842
v -1.040599 0.000000 -0.693593
v -0.936613 0.216506 -0.624224
v -0.728643 0.216506 -0.485486
v -0.624658 0.000000 -0.416117
v -0.728643 -0.216506 -0.485486
v -0.936613 -0.216506 -0.624224
v -1.226908 0.000000 -0.242855
v -1.104292 0.216506 -0.218560
v -0.859059 0.216506 -0.169969
v -0.736443 0.000000 -0.145674
v -0.859059 -0.216506 -0.169969
v -1.104292 -0.216506 -0.218560
v -1.226546 0.000000 0.244871
v -1.103966 0.216506 0.220393
v -0.858806 0.216506 0.171439
v -0.736226 0.000000 0.146961
v -0.858806 -0.216506 0.171439
v -1.103966 -0.216506 0.220393
v -1.039567 0.000000 0.695331
v -0.935685 0.216506 0.625808
v -0.727920 0.216506 0.486761
v -0.624038 0.000000 0.417238
v -0.727920 -0.216506 0.486761
v -0.935685 -0.216506 0.625808
v -0.694436 0.000000 1.039949
v -0.625067 0.216506 0.935964
v -0.486329 0.216506 0.727994
v -0.416960 0.000000 0.624008
v -0.486329 -0.216506 0.727994
v -0.625067 -0.216506 0.935964
v -0.243697 0.000000 1.226259
v -0.219402 0.216506 1.103643
v -0.082568 0.216506 0.754218
v -0.146517 0.000000 0.735794
v -0.170812 -0.216506 0.858410
v -0.219402 -0.216506 1.103643
v 0.244028 0.000000 1.225897
v 0.219551 0.216506 1.103317
v 0.082619 0.216506 0.754095
v 0.146119 0.000000 0.735577
v 0.170596 -0.216506 0.858157
v 0.219551 -0.216506 1.103317
v 0.694490 0.000000 1.038917
v 0.624966 0.216506 0.935035
v 0.485919 0.216506 0.727271
v 0.416395 0.000000 0.623389
v 0.485919 -0.216506 0.727271
v 0.624966 -0.216506 0.935035
v 1.039107 0.000000 0.693787
v 0.935122 0.216506 0.624418
v 0.727151 0.216506 0.485680
v 0.623166 0.000000 0.416311
v 0.727151 -0.216506 0.485680
v 0.935122 -0.216506 0.624418
v 1.225417 0.000000 0.243049
v 1.102800 0.216506 0.218754
v 0.857568 0.216506 0.170163
v 0.734952 0.000000 0.145868
v 0.857568 -0.216506 0.170163
v 1.102800 -0.216506 0.218754
v 0.245483 0.000000 -0.049608
v -0.244909 0.000000 -0.049243
v 0.182672 0.262935 0.030180
v -0.181198 0.262935 0.030450
v -0.244405 0.000000 0.146596
v 0.245988 0.000000 0.146231
v -0.180907 0.262935 0.343428
v 0.182963 0.262935 0.343062
v -0.170812 0.216506 0.858410
v 0.170596 0.216506 0.858157
v 0.286569 0.216506 -0.074025
v -0.285555 0.216506 -0.073600
v -0.285015 0.216506 0.171012
v 0.287110 0.216506 0.170587
v -0.180907 2.577514 0.343428
v 0.182963 2.577514 0.343062
v 0.182672 2.577514 0.030180
v -0.181198 2.577514 0.030450
vn 0.8037 0.4927 -0.3336
vn -0.0000 1.0000 -0.0000
vn -0.8037 0.4927 0.3336
vn -0.8037 -0.4927 0.3336
vn -0.0000 -1.0000 -0.0000
vn 0.8037 -0.4927 -0.3336
vn 0.6148 0.4927 -0.6158
vn -0.6148 0.4927 0.6158
vn -0.6148 -0.4927 0.6158
vn 0.6148 -0.4927 -0.6158
vn 0.3324 0.4927 -0.8042
vn -0.3324 0.4927 0.8042
vn -0.3324 -0.4927 0.8042
vn 0.3324 -0.4927 -0.8042
vn -0.0006 0.4927 -0.8702
vn 0.0006 0.4927 0.8702
vn 0.0006 -0.4927 0.8702
vn -0.0006 -0.4927 -0.8702
vn -0.3336 0.4927 -0.8037
vn 0.3336 0.4927 0.8037
vn 0.3336 -0.4927 0.8037
vn -0.3336 -0.4927 -0.8037
vn -0.6158 0.4927 -0.6148
vn 0.6158 0.4927 0.6148
vn 0.6158 -0.4927 0.6148
vn -0.6158 -0.4927 -0.6148
vn -0.8042 0.4927 -0.3324
vn 0.8042 0.4927 0.3324
vn 0.8042 -0.4927 0.3324
vn -0.8042 -0.4927 -0.3324
vn -0.8702 0.4927 0.0006
vn 0.8702 -0.4927 -0.0006
vn -0.8702 -0.4927 0.0006
vn 0.9657 -0.2018 0.1636
vn 0.8702 0.4927 -0.0006
vn 0.1780 -0.0434 -0.9831
vn 0.0007 -0.1119 0.9937
vn 0.0010 -0.0000 1.0000
vn -0.1802 -0.0429 -0.9827
vn -0.0007 -0.1119 -0.9937
vn 0.0001 0.9937 0.1123
vn -0.9667 -0.1994 0.1606
vn -0.0003 0.9133 -0.4072
vn -0.4076 0.9132 0.0006
vn 0.4069 0.9135 -0.0006
vn 0.2650 0.9598 0.0929
vn -0.2643 0.9601 0.0917
vn 1.0000 -0.0000 -0.0009
vn -0.0007 -0.0000 -1.0000
vn -1.0000 -0.0000 0.0009
vt 0.500000 0.500000
vt 0.562500 0.500000
vt 0.562500 0.666667
vt 0.500000 0.666667
vt 0.562500 0.833333
vt 0.500000 0.833333
vt 0.562500 1.000000
vt 0.500000 1.000000
vt 0.500000 -0.000000
vt 0.562500 -0.000000
vt 0.562500 0.166667
vt 0.500000 0.166667
vt 0.562500 0.333333
vt 0.500000 0.333333
vt 0.625000 0.500000
vt 0.625000 0.666667
vt 0.625000 0.833333
vt 0.625000 1.000000
vt 0.625000 -0.000000
vt 0.625000 0.166667
vt 0.625000 0.333333
vt 0.687500 0.500000
vt 0.687500 0.666667
vt 0.687500 0.833333
vt 0.687500 1.000000
vt 0.687500 -0.000000
vt 0.687500 0.166667
vt 0.687500 0.333333
vt 0.750000 0.500000
vt 0.750000 0.666667
vt 0.750000 0.833333
vt 0.750000 1.000000
vt 0.750000 -0.000000
vt 0.750000 0.166667
vt 0.750000 0.333333
vt 0.812500 0.500000
vt 0.812500 0.666667
vt 0.812500 0.833333
vt 0.812500 1.000000
vt 0.812500 -0.000000
vt 0.812500 0.166667
vt 0.812500 0.333333
vt 0.875000 0.500000
vt 0.875000 0.666667
vt 0.875000 0.833333
vt 0.875000 1.000000
vt 0.875000 -0.000000
vt 0.875000 0.166667
vt 0.875000 0.333333
vt 0.937500 0.500000
vt 0.937500 0.666667
vt 0.937500 0.833333
vt 0.937500 1.000000
vt 0.937500 -0.000000
vt 0.937500 0.166667
vt 0.937500 0.333333
vt 1.000000 0.500000
vt 1.000000 0.666667
vt 1.000000 0.833333
vt 0.624454 -0.000000
vt 0.645409 0.332363
vt 0.437500 -0.000000
vt 1.000000 -0.000000
vt 1.000000 0.166667
vt 1.000000 0.333333
vt 0.000000 0.500000
vt 0.062500 0.500000
vt 0.062500 0.666667
vt 0.000000 0.666667
vt 0.062500 0.833333
vt 0.000000 0.833333
vt 0.062500 1.000000
vt 0.000000 1.000000
vt 0.000000 -0.000000
vt 0.062500 -0.000000
vt 0.062500 0.166667
vt 0.000000 0.166667
vt 0.062500 0.333333
vt 0.000000 0.333333
vt 0.125000 0.500000
vt 0.125000 0.666667
vt 0.125000 0.833333
vt 0.125000 1.000000
vt 0.125000 -0.000000
vt 0.125000 0.166667
vt 0.125000 0.333333
vt 0.187500 0.500000
vt 0.187500 0.666667
vt 0.187500 0.833333
vt 0.187500 1.000000
vt 0.187500 -0.000000
vt 0.187500 0.166667
vt 0.187500 0.333333
vt 0.250000 0.500000
vt 0.250000 0.666667
vt 0.250000 0.833333
vt 0.250000 -0.000000
vt 0.292091 0.833333
vt 0.250000 0.166667
vt 0.250000 0.333333
vt 0.312500 0.500000
vt 0.312500 0.666667
vt 0.312500 0.833333
vt 0.312500 1.000000
vt 0.250000 1.000000
vt 0.312500 -0.000000
vt 0.312500 0.166667
vt 0.312500 0.333333
vt 0.375000 0.500000
vt 0.375000 0.666667
vt 0.375000 0.833333
vt 0.375000 1.000000
vt 0.375000 -0.000000
vt 0.375000 0.166667
vt 0.375000 0.333333
vt 0.437500 0.500000
vt 0.437500 0.666667
vt 0.437500 0.833333
vt 0.437500 1.000000
vt 0.437500 0.166667
vt 0.437500 0.333333
vt 0.791242 1.000000
vt 0.791242 0.833333
vt 0.645409 0.833333
vt 0.146258 0.833333
vt 0.172763 0.833333
vt 0.265581 0.833333
vt 0.811954 -0.000000
vt 0.645409 1.000000
vt 0.791242 0.665696
vt 0.234877 0.833333
vt 0.202725 0.833333
vt 0.513608 0.833333
vt 0.498028 0.833333
s 0
f 1/1/1 7/2/1 8/3/1 2/4/1
f 2/4/2 8/3/2 9/5/2 3/6/2
f 3/6/3 9/5/3 10/7/3 4/8/3
f 4/9/4 10/10/4 11/11/4 5/12/4
f 5/12/5 11/11/5 12/13/5 6/14/5
f 6/14/6 12/13/6 7/2/6 1/1/6
f 7/2/7 13/15/7 14/16/7 8/3/7
f 8/3/2 14/16/2 15/17/2 9/5/2
f 9/5/8 15/17/8 16/18/8 10/7/8
f 10/10/9 16/19/9 17/20/9 11/11/9
f 11/11/5 17/20/5 18/21/5 12/13/5
f 12/13/10 18/21/10 13/15/10 7/2/10
f 13/15/11 19/22/11 20/23/11 14/16/11
f 14/16/2 20/23/2 21/24/2 15/17/2
f 15/17/12 21/24/12 22/25/12 16/18/12
f 16/19/13 22/26/13 23/27/13 17/20/13
f 17/20/5 23/27/5 24/28/5 18/21/5
f 18/21/14 24/28/14 19/22/14 13/15/14
f 19/22/15 25/29/15 26/30/15 20/23/15
f 20/23/2 26/30/2 27/31/2 21/24/2
f 21/24/16 27/31/16 28/32/16 22/25/16
f 22/26/17 28/33/17 29/34/17 23/27/17
f 23/27/5 29/34/5 30/35/5 24/28/5
f 24/28/18 30/35/18 25/29/18 19/22/18
f 25/29/19 31/36/19 32/37/19 26/30/19
f 26/30/2 32/37/2 33/38/2 27/31/2
f 27/31/20 33/38/20 34/39/20 28/32/20
f 28/33/21 34/40/21 35/41/21 29/34/21
f 29/34/5 35/41/5 36/42/5 30/35/5
f 30/35/22 36/42/22 31/36/22 25/29/22
f 31/36/23 37/43/23 38/44/23 32/37/23
f 32/37/2 38/44/2 39/45/2 33/38/2
f 33/38/24 39/45/24 40/46/24 34/39/24
f 34/40/25 40/47/25 41/48/25 35/41/25
f 35/41/5 41/48/5 42/49/5 36/42/5
f 36/42/26 42/49/26 37/43/26 31/36/26
f 37/43/27 43/50/27 44/51/27 38/44/27
f 38/44/2 44/51/2 45/52/2 39/45/2
f 39/45/28 45/52/28 46/53/28 40/46/28
f 40/47/29 46/54/29 47/55/29 41/48/29
f 41/48/5 47/55/5 48/56/5 42/49/5
f 42/49/30 48/56/30 43/50/30 37/43/30
f 43/50/31 49/57/31 50/58/31 44/51/31
f 44/51/2 50/58/2 51/59/2 45/52/2
f 102/60/5 97/61/5 4/9/5 94/62/5
f 46/54/32 52/63/32 53/64/32 47/55/32
f 47/55/5 53/64/5 54/65/5 48/56/5
f 48/56/33 54/65/33 49/57/33 43/50/33
f 49/66/3 55/67/3 56/68/3 50/69/3
f 50/69/2 56/68/2 57/70/2 51/71/2
f 51/71/1 57/70/1 58/72/1 52/73/1
f 52/74/6 58/75/6 59/76/6 53/77/6
f 53/77/5 59/76/5 60/78/5 54/79/5
f 54/79/4 60/78/4 55/67/4 49/66/4
f 55/67/8 61/80/8 62/81/8 56/68/8
f 56/68/2 62/81/2 63/82/2 57/70/2
f 57/70/7 63/82/7 64/83/7 58/72/7
f 58/75/10 64/84/10 65/85/10 59/76/10
f 59/76/5 65/85/5 66/86/5 60/78/5
f 60/78/9 66/86/9 61/80/9 55/67/9
f 61/80/12 67/87/12 68/88/12 62/81/12
f 62/81/2 68/88/2 105/89/2 63/82/2
f 63/82/11 105/89/11 70/90/11 64/83/11
f 64/84/14 70/91/14 71/92/14 65/85/14
f 65/85/5 71/92/5 72/93/5 66/86/5
f 66/86/13 72/93/13 67/87/13 61/80/13
f 67/87/16 73/94/16 74/95/16 68/88/16
f 68/88/2 74/95/2 106/96/2 105/89/2
f 106/96/34 76/97/34 102/60/34 110/98/34
f 70/91/18 76/97/18 77/99/18 71/92/18
f 71/92/5 77/99/5 78/100/5 72/93/5
f 72/93/17 78/100/17 73/94/17 67/87/17
f 73/94/20 79/101/20 80/102/20 74/95/20
f 74/95/2 80/102/2 81/103/2 106/96/2
f 106/96/19 81/103/19 82/104/19 76/105/19
f 76/97/22 82/106/22 83/107/22 77/99/22
f 77/99/5 83/107/5 84/108/5 78/100/5
f 78/100/21 84/108/21 79/101/21 73/94/21
f 79/101/24 85/109/24 86/110/24 80/102/24
f 80/102/2 86/110/2 87/111/2 81/103/2
f 81/103/23 87/111/23 88/112/23 82/104/23
f 82/106/26 88/113/26 89/114/26 83/107/26
f 83/107/5 89/114/5 90/115/5 84/108/5
f 84/108/25 90/115/25 85/109/25 79/101/25
f 85/109/28 91/116/28 92/117/28 86/110/28
f 86/110/2 92/117/2 93/118/2 87/111/2
f 87/111/27 93/118/27 94/119/27 88/112/27
f 88/113/30 94/62/30 95/120/30 89/114/30
f 89/114/5 95/120/5 96/121/5 90/115/5
f 90/115/29 96/121/29 91/116/29 85/109/29
f 91/116/35 1/1/35 2/4/35 92/117/35
f 92/117/2 2/4/2 3/6/2 93/118/2
f 98/122/36 46/53/36 45/52/36 108/123/36
f 94/62/33 4/9/33 5/12/33 95/120/33
f 95/120/5 5/12/5 6/14/5 96/121/5
f 96/121/32 6/14/32 1/1/32 91/116/32
f 102/60/37 94/62/37 93/118/37 110/98/37
f 110/98/2 93/118/2 3/6/2 107/124/2
f 51/71/2 109/125/2 108/123/2 45/52/2
f 103/126/38 104/127/38 112/127/38 111/126/38
f 52/63/37 101/128/37 109/125/37 51/71/37
f 76/97/5 70/91/5 101/128/5 102/60/5
f 4/8/39 97/129/39 107/124/39 3/6/39
f 97/129/40 98/122/40 108/123/40 107/124/40
f 52/63/5 46/53/5 98/130/5 101/128/5
f 101/128/5 98/130/5 97/61/5 102/60/5
f 75/131/41 104/127/41 103/126/41 69/132/41
f 105/89/42 109/125/42 101/128/42 70/91/42
f 75/131/2 69/132/2 105/89/2 106/96/2
f 100/133/43 99/134/43 107/124/43 108/123/43
f 103/126/44 100/133/44 108/123/44 109/125/44
f 99/134/45 104/127/45 110/98/45 107/124/45
f 104/127/46 75/131/46 106/96/46 110/98/46
f 69/132/47 103/126/47 109/125/47 105/89/47
f 111/126/2 112/127/2 113/134/2 114/133/2
f 104/127/48 99/134/48 113/134/48 112/127/48
f 99/134/49 100/133/49 114/133/49 113/134/49
f 100/133/50 103/126/50 111/126/50 114/133/50
