# Made in Blockbench 4.11.2
mtllib materials.mtl

o Idioma
v -0.1875 0.125 0.875
v -0.1875 0.1250000000000001 1.375
v -0.1514156081756484 0.0625 0.875
v -0.1514156081756484 0.06250000000000011 1.375
v -0.11533121635129678 0.125 0.875
v -0.11533121635129678 0.1250000000000001 1.375
v -0.1514156081756484 0.1875 0.875
v -0.1514156081756484 0.1875000000000001 1.375
v -0.2235843918243516 0.1875 0.875
v -0.2235843918243516 0.1875000000000001 1.375
v -0.2596687836487032 0.125 0.875
v -0.2596687836487032 0.1250000000000001 1.375
v -0.22358439182435164 0.06250000000000003 0.875
v -0.22358439182435164 0.06250000000000014 1.375
vt 0.0180421875 0.984375
vt 0.009021875 1
vt 0 0.984375
vt 0 0.875
vt 0.01804375 0.875
vt 0.01804375 1
vt 0 1
vt 0.009021875 0.984375
vt 0.0180421875 1
vt 0 1
vt 0.009021875 0.984375
vt 0.0180421875 1
vt 0 1
vt 0 0.875
vt 0.01804375 0.875
vt 0.01804375 1
vt 0 1
vt 0.0180421875 0.984375
vt 0.009021875 1
vt 0 0.984375
vt 0 0.984375
vt 0.01804375 0.984375
vt 0.009021875 1
vt 0 0.875
vt 0.01804375 0.875
vt 0.01804375 1
vt 0 1
vt 0.01804375 1
vt 0 1
vt 0.009021875 0.984375
vt 7.494005416219807e-16 1
vt 0.00902031250000075 0.984375
vt 0.01804218750000075 1
vt 0 0.875
vt 0.01804375 0.875
vt 0.01804375 1
vt 0 1
vt 0.00902031250000075 1
vt 7.494005416219807e-16 0.984375
vt 0.01804218750000075 0.984375
vt 0.00902031250000075 1
vt 7.494005416219807e-16 0.984375
vt 0.01804218750000075 0.984375
vt 0 0.875
vt 0.01804375 0.875
vt 0.01804375 1
vt 0 1
vt 7.494005416219807e-16 1
vt 0.00902031250000075 0.984375
vt 0.01804218750000075 1
vt 0.01804375 1
vt 0 1
vt 0.009021875 0.984375
vt 0 0.875
vt 0.01804375 0.875
vt 0.01804375 1
vt 0 1
vt 0 0.984375
vt 0.01804375 0.984375
vt 0.009021875 1
vn 0 -2.220446049250313e-16 -1
vn 0.8660254037844386 -0.5000000000000001 1.1102230246251568e-16
vn 0 2.220446049250313e-16 1
vn 0 -2.220446049250313e-16 -1
vn 0.8660254037844387 0.5000000000000001 -1.1102230246251568e-16
vn 0 2.220446049250313e-16 1
vn 0 -2.220446049250313e-16 -1
vn -9.61481343191782e-17 1 -2.220446049250313e-16
vn 0 2.220446049250313e-16 1
vn 0 -2.220446049250313e-16 -1
vn -0.8660254037844388 0.5000000000000001 -1.1102230246251568e-16
vn 0 2.220446049250313e-16 1
vn 0 -2.220446049250313e-16 -1
vn -0.8660254037844389 -0.4999999999999997 1.1102230246251559e-16
vn 0 2.220446049250313e-16 1
vn 0 -2.220446049250313e-16 -1
vn -2.884444029575345e-16 -1 2.220446049250313e-16
vn 0 2.220446049250313e-16 1
usemtl none
f 5/1/1 3/2/1 1/3/1
f 3/4/2 5/5/2 6/6/2 4/7/2
f 4/8/3 6/9/3 2/10/3
f 7/11/4 5/12/4 1/13/4
f 5/14/5 7/15/5 8/16/5 6/17/5
f 6/18/6 8/19/6 2/20/6
f 9/21/7 7/22/7 1/23/7
f 7/24/8 9/25/8 10/26/8 8/27/8
f 8/28/9 10/29/9 2/30/9
f 11/31/10 9/32/10 1/33/10
f 9/34/11 11/35/11 12/36/11 10/37/11
f 10/38/12 12/39/12 2/40/12
f 13/41/13 11/42/13 1/43/13
f 11/44/14 13/45/14 14/46/14 12/47/14
f 12/48/15 14/49/15 2/50/15
f 3/51/16 13/52/16 1/53/16
f 13/54/17 3/55/17 4/56/17 14/57/17
f 14/58/18 4/59/18 2/60/18
o Resolucao
v 0.3125 0.1875 1.3125
v 0.3125 0.1875 0.9375
v 0.3125 0.125 1.3125
v 0.3125 0.125 0.9375
v 0.0625 0.1875 1.3125
v 0.0625 0.1875 0.9375
v 0.0625 0.125 1.3125
v 0.0625 0.125 0.9375
v 0.29625 0.1875 0.961875
v 0.07875 0.1875 0.961875
v 0.29625 0.1875 1.288125
v 0.07875 0.1875 1.288125
v 0.29625 0.171875 0.961875
v 0.07875 0.171875 0.961875
v 0.29625 0.171875 1.288125
v 0.07875 0.171875 1.288125
vt 0.09375 0.984375
vt 0.09375 1
vt 0 1
vt 0 0.984375
vt 0.09375 0.984375
vt 0.09375 1
vt 0 1
vt 0 0.984375
vt 0.054375000000000145 0.9184374999999998
vt 0.054375000000000145 0.9999999999999998
vt 1.4224732503009818e-16 0.9999999999999998
vt 1.4224732503009818e-16 0.9184374999999998
vt 0.0625 0.90625
vt 0.0625 1
vt 0 1
vt 0 0.90625
vt 0.0625 0.984375
vt 0.0625 1
vt 0 1
vt 0 0.984375
vt 0.0625 0.984375
vt 0.0625 1
vt 0 1
vt 0 0.984375
vt 0.06249999999999986 0.99390625
vt 0.06249999999999986 0.91234375
vt 0.06656249999999986 0.90625
vt 0.06656249999999986 1
vt 0.0040625 0.99390625
vt 0.0584375 0.99390625
vt 0.0625 1
vt 0 1
vt 0.0040625 0.91234375
vt 0.0040625 0.99390625
vt 0 1
vt 0 0.90625
vt 0.0584375 0.9062500000000002
vt 0.0040625 0.9062500000000002
vt 0 0.9001562500000002
vt 0.0625 0.9001562500000002
vt 0.08156249999999998 0.984375
vt 0 0.984375
vt 0 0.96875
vt 0.08156249999999998 0.96875
vt 0.05437500000000001 1
vt 0 1
vt 0 0.984375
vt 0.05437500000000001 0.984375
vt 0.0815625 0.984375
vt 0 0.984375
vt 0 0.96875
vt 0.0815625 0.96875
vt 0.05437500000000001 0.96875
vt 0 0.96875
vt 0 0.953125
vt 0.05437500000000001 0.953125
vn 1 0 0
vn -1 0 0
vn 0 1 0
vn 0 -1 0
vn 0 0 1
vn 0 0 -1
vn 0 1 0
vn 0 1 0
vn 0 1 0
vn 0 1 0
vn -1 0 0
vn 0 0 1
vn 1 0 0
vn 0 0 -1
usemtl none
f 18/61/19 16/62/19 15/63/19 17/64/19
f 21/65/20 19/66/20 20/67/20 22/68/20
f 29/69/21 27/70/21 28/71/21 30/72/21
f 18/73/22 17/74/22 21/75/22 22/76/22
f 17/77/23 15/78/23 19/79/23 21/80/23
f 22/81/24 20/82/24 16/83/24 18/84/24
f 23/85/25 25/86/25 15/87/25 16/88/25
f 24/89/26 23/90/26 16/91/26 20/92/26
f 26/93/27 24/94/27 20/95/27 19/96/27
f 25/97/28 26/98/28 19/99/28 15/100/28
f 27/101/29 29/102/29 25/103/29 23/104/29
f 28/105/30 27/106/30 23/107/30 24/108/30
f 30/109/31 28/110/31 24/111/31 26/112/31
f 29/113/32 30/114/32 26/115/32 25/116/32
o Painel
v 0.5 0.125 1.5
v 0.5 0.125 -0.5
v 0.5 0 1.5
v 0.5 0 -0.5
v -0.5 0.125 1.5
v -0.5 0.125 -0.5
v -0.5 0 1.5
v -0.5 0 -0.5
vt 1 0.96875
vt 1 1
vt 0.5 1
vt 0.5 0.96875
vt 1 0.921875
vt 1 0.953125
vt 0.5 0.953125
vt 0.5 0.921875
vt 0.234375 0.5
vt 0.234375 1
vt 0 1
vt 0 0.5
vt 0.484375 0.5
vt 0.484375 1
vt 0.25 1
vt 0.25 0.5
vt 0.734375 0.875
vt 0.734375 0.90625
vt 0.5 0.90625
vt 0.5 0.875
vt 0.734375 0.828125
vt 0.734375 0.859375
vt 0.5 0.859375
vt 0.5 0.828125
vn 1 0 0
vn -1 0 0
vn 0 1 0
vn 0 -1 0
vn 0 0 1
vn 0 0 -1
usemtl m_bfc125fb-5f7d-c0a1-a88f-0c51527db092
f 34/117/33 32/118/33 31/119/33 33/120/33
f 37/121/34 35/122/34 36/123/34 38/124/34
f 31/125/35 32/126/35 36/127/35 35/128/35
f 34/129/36 33/130/36 37/131/36 38/132/36
f 33/133/37 31/134/37 35/135/37 37/136/37
f 38/137/38 36/138/38 32/139/38 34/140/38
o Radial
v 0.062499999999999986 0.125 -0.3125
v 0.062499999999999986 0.1875 -0.3125
v 0.07924682452694515 0.125 -0.25
v 0.07924682452694515 0.1875 -0.25
v 0.10825317547305482 0.125 -0.26674682452694515
v 0.10825317547305482 0.1875 -0.26674682452694515
v 0.125 0.125 -0.29575317547305485
v 0.125 0.1875 -0.29575317547305485
v 0.125 0.125 -0.3292468245269452
v 0.125 0.1875 -0.3292468245269452
v 0.10825317547305482 0.125 -0.35825317547305485
v 0.10825317547305482 0.1875 -0.35825317547305485
v 0.07924682452694518 0.125 -0.375
v 0.07924682452694518 0.1875 -0.375
v 0.04575317547305485 0.125 -0.375
v 0.04575317547305485 0.1875 -0.375
v 0.01674682452694517 0.125 -0.35825317547305485
v 0.01674682452694517 0.1875 -0.35825317547305485
v 6.938893903907228e-18 0.125 -0.32924682452694515
v 6.938893903907228e-18 0.1875 -0.32924682452694515
v 0 0.125 -0.29575317547305485
v 0 0.1875 -0.29575317547305485
v 0.016746824526945155 0.125 -0.2667468245269452
v 0.016746824526945155 0.1875 -0.2667468245269452
v 0.045753175473054825 0.125 -0.25
v 0.045753175473054825 0.1875 -0.25
vt 0.12940937979190303 0.9352953101040485
vt 0.11207200540068536 1
vt 0 0.9352953101040484
vt 0 0.953125
vt 0.0669875 0.953125
vt 0.0669875 1
vt 0 1
vt 0 0.8705904513219271
vt 0.06470460545297682 0.8879281408590917
vt 2.0816681711721685e-17 1
vt 0.12940954867807283 0.9352953945470232
vt 0.11207185914090836 1
vt 0 0.9352953945470233
vt 0 0.953125
vt 0.0669875 0.953125
vt 0.0669875 1
vt 0 1
vt 1.3877787807814457e-17 0.870590620208097
vt 0.06470468989595152 0.8879279945993146
vt 0 1
vt 0.125 0.9330125
vt 0.125 1
vt 0 0.96650625
vt 0 0.953125
vt 0.0669875 0.953125
vt 0.0669875 1
vt 0 1
vt 0.125 0.9330125
vt 0.125 1
vt 0 0.96650625
vt 1.3877787807814457e-17 0.870590620208097
vt 0.06470468989595152 0.8879279945993146
vt 0 1
vt 0 0.953125
vt 0.0669875 0.953125
vt 0.0669875 1
vt 0 1
vt 0.12940954867807283 0.9352953945470232
vt 0.11207185914090836 1
vt 0 0.9352953945470233
vt 0 0.8705904513219271
vt 0.06470460545297682 0.8879281408590917
vt 2.0816681711721685e-17 1
vt 0 0.953125
vt 0.0669875 0.953125
vt 0.0669875 1
vt 0 1
vt 0.12940937979190303 0.9352953101040485
vt 0.11207200540068536 1
vt 0 0.9352953101040484
vt 0 0.875
vt 0.0669875 0.875
vt 0.03349375 1
vt 0 0.953125
vt 0.0669875 0.953125
vt 0.0669875 1
vt 0 1
vt 0.0669875 1
vt 0 1
vt 0.03349375 0.875
vt 0 1
vt 0.017337374391217672 0.9352953101040484
vt 0.12940937979190303 1
vt 0 0.953125
vt 0.0669875 0.953125
vt 0.0669875 1
vt 0 1
vt 0.06470460545297682 1
vt 0 0.9826623104628356
vt 0.0647046054529768 0.8705904513219271
vt 0 1
vt 0.01733768953716447 0.9352953945470232
vt 0.12940954867807283 1
vt 0 0.953125
vt 0.0669875 0.953125
vt 0.0669875 1
vt 0 1
vt 0.0647046898959515 1
vt 0 0.9826626256087824
vt 0.06470468989595152 0.870590620208097
vt 0 1
vt 0 0.9330125
vt 0.125 0.96650625
vt 0 0.953125
vt 0.0669875 0.953125
vt 0.0669875 1
vt 0 1
vt 0 1
vt 0 0.9330125
vt 0.125 0.96650625
vt 0.0647046898959515 1
vt 0 0.9826626256087824
vt 0.06470468989595152 0.870590620208097
vt 0 0.953125
vt 0.0669875 0.953125
vt 0.0669875 1
vt 0 1
vt 0 1
vt 0.01733768953716447 0.9352953945470232
vt 0.12940954867807283 1
vt 0.06470460545297682 1
vt 0 0.9826623104628356
vt 0.0647046054529768 0.8705904513219271
vt 0 0.953125
vt 0.0669875 0.953125
vt 0.0669875 1
vt 0 1
vt 0 1
vt 0.017337374391217672 0.9352953101040484
vt 0.12940937979190303 1
vt 0.0669875 1
vt 0 1
vt 0.03349375 0.875
vt 0 0.953125
vt 0.0669875 0.953125
vt 0.0669875 1
vt 0 1
vt 0 0.875
vt 0.0669875 0.875
vt 0.03349375 1
vn 0 -1 0
vn 0.4999999999999999 0 0.8660254037844389
vn 0 1 0
vn 0 -1 0
vn 0.8660254037844386 0 0.4999999999999999
vn 0 1 0
vn 0 -1 0
vn 1 0 0
vn 0 1 0
vn 0 -1 0
vn 0.8660254037844387 0 -0.5
vn 0 1 0
vn 0 -1 0
vn 0.4999999999999999 0 -0.8660254037844387
vn 0 1 0
vn 0 -1 0
vn 2.0717043678169394e-16 0 -1
vn 0 1 0
vn 0 -1 0
vn -0.4999999999999995 0 -0.8660254037844392
vn 0 1 0
vn 0 -1 0
vn -0.8660254037844388 0 -0.4999999999999996
vn 0 1 0
vn 0 -1 0
vn -1 0 -2.0717043678169412e-16
vn 0 1 0
vn 0 -1 0
vn -0.8660254037844392 0 0.4999999999999994
vn 0 1 0
vn 0 -1 0
vn -0.5 0 0.8660254037844387
vn 0 1 0
vn 0 -1 0
vn 0 0 1
vn 0 1 0
usemtl none
f 43/141/39 41/142/39 39/143/39
f 41/144/40 43/145/40 44/146/40 42/147/40
f 42/148/41 44/149/41 40/150/41
f 45/151/42 43/152/42 39/153/42
f 43/154/43 45/155/43 46/156/43 44/157/43
f 44/158/44 46/159/44 40/160/44
f 47/161/45 45/162/45 39/163/45
f 45/164/46 47/165/46 48/166/46 46/167/46
f 46/168/47 48/169/47 40/170/47
f 49/171/48 47/172/48 39/173/48
f 47/174/49 49/175/49 50/176/49 48/177/49
f 48/178/50 50/179/50 40/180/50
f 51/181/51 49/182/51 39/183/51
f 49/184/52 51/185/52 52/186/52 50/187/52
f 50/188/53 52/189/53 40/190/53
f 53/191/54 51/192/54 39/193/54
f 51/194/55 53/195/55 54/196/55 52/197/55
f 52/198/56 54/199/56 40/200/56
f 55/201/57 53/202/57 39/203/57
f 53/204/58 55/205/58 56/206/58 54/207/58
f 54/208/59 56/209/59 40/210/59
f 57/211/60 55/212/60 39/213/60
f 55/214/61 57/215/61 58/216/61 56/217/61
f 56/218/62 58/219/62 40/220/62
f 59/221/63 57/222/63 39/223/63
f 57/224/64 59/225/64 60/226/64 58/227/64
f 58/228/65 60/229/65 40/230/65
f 61/231/66 59/232/66 39/233/66
f 59/234/67 61/235/67 62/236/67 60/237/67
f 60/238/68 62/239/68 40/240/68
f 63/241/69 61/242/69 39/243/69
f 61/244/70 63/245/70 64/246/70 62/247/70
f 62/248/71 64/249/71 40/250/71
f 41/251/72 63/252/72 39/253/72
f 63/254/73 41/255/73 42/256/73 64/257/73
f 64/258/74 42/259/74 40/260/74
o Tecla
v 0.28125 0.125 0.5
v 0.28125 0.1875 0.5
v 0.2992921959121758 0.125 0.53125
v 0.2992921959121758 0.1875 0.53125
v 0.31733439182435164 0.125 0.5
v 0.31733439182435164 0.1875 0.5
v 0.2992921959121758 0.125 0.46875
v 0.2992921959121758 0.1875 0.46875
v 0.2632078040878242 0.125 0.46875
v 0.2632078040878242 0.1875 0.46875
v 0.2451656081756484 0.125 0.5
v 0.2451656081756484 0.1875 0.5
v 0.2632078040878242 0.125 0.53125
v 0.2632078040878242 0.1875 0.53125
vt 0.475075 0.703125
vt 0.466053125 0.71875
vt 0.45703125 0.703125
vt 0.09375 0.375
vt 0.125 0.375
vt 0.125 0.40625
vt 0.09375 0.40625
vt 0.497303125 0.84375
vt 0.506325 0.859375
vt 0.48828125 0.859375
vt 0.466053125 0.6875
vt 0.475075 0.703125
vt 0.45703125 0.703125
vt 0.59375 0.78125
vt 0.625 0.78125
vt 0.625 0.8125
vt 0.59375 0.8125
vt 0.506325 0.859375
vt 0.497303125 0.875
vt 0.48828125 0.859375
vt 0.448009375 0.6875
vt 0.466053125 0.6875
vt 0.45703125 0.703125
vt 0.5625 0.5
vt 0.59375 0.5
vt 0.59375 0.53125
vt 0.5625 0.53125
vt 0.497303125 0.875
vt 0.479259375 0.875
vt 0.48828125 0.859375
vt 0.4389875 0.703125
vt 0.448009375 0.6875
vt 0.45703125 0.703125
vt 0.15625 0.375
vt 0.1875 0.375
vt 0.1875 0.40625
vt 0.15625 0.40625
vt 0.479259375 0.875
vt 0.4702375 0.859375
vt 0.48828125 0.859375
vt 0.448009375 0.71875
vt 0.4389875 0.703125
vt 0.45703125 0.703125
vt 0.59375 0.90625
vt 0.625 0.90625
vt 0.625 0.9375
vt 0.59375 0.9375
vt 0.4702375 0.859375
vt 0.479259375 0.84375
vt 0.48828125 0.859375
vt 0.466053125 0.71875
vt 0.448009375 0.71875
vt 0.45703125 0.703125
vt 0.5625 0.4375
vt 0.59375 0.4375
vt 0.59375 0.46875
vt 0.5625 0.46875
vt 0.479259375 0.84375
vt 0.497303125 0.84375
vt 0.48828125 0.859375
vn 0 -1 0
vn 0.8660254037844386 0 0.5000000000000001
vn 0 1 0
vn 0 -1 0
vn 0.8660254037844387 0 -0.5000000000000001
vn 0 1 0
vn 0 -1 0
vn -9.61481343191782e-17 0 -1
vn 0 1 0
vn 0 -1 0
vn -0.8660254037844388 0 -0.5000000000000001
vn 0 1 0
vn 0 -1 0
vn -0.8660254037844389 0 0.4999999999999997
vn 0 1 0
vn 0 -1 0
vn -2.884444029575345e-16 0 1
vn 0 1 0
usemtl m_617cc193-6db6-a988-0854-8d384e7e9ee4
f 69/261/75 67/262/75 65/263/75
f 67/264/76 69/265/76 70/266/76 68/267/76
f 68/268/77 70/269/77 66/270/77
f 71/271/78 69/272/78 65/273/78
f 69/274/79 71/275/79 72/276/79 70/277/79
f 70/278/80 72/279/80 66/280/80
f 73/281/81 71/282/81 65/283/81
f 71/284/82 73/285/82 74/286/82 72/287/82
f 72/288/83 74/289/83 66/290/83
f 75/291/84 73/292/84 65/293/84
f 73/294/85 75/295/85 76/296/85 74/297/85
f 74/298/86 76/299/86 66/300/86
f 77/301/87 75/302/87 65/303/87
f 75/304/88 77/305/88 78/306/88 76/307/88
f 76/308/89 78/309/89 66/310/89
f 67/311/90 77/312/90 65/313/90
f 77/314/91 67/315/91 68/316/91 78/317/91
f 78/318/92 68/319/92 66/320/92
o cube
v 0.3125 0.1875 0.4375
v 0.3125 0.1875 0.3125
v 0.3125 0.125 0.4375
v 0.3125 0.125 0.3125
v 0.25 0.1875 0.4375
v 0.25 0.1875 0.3125
v 0.25 0.125 0.4375
v 0.25 0.125 0.3125
vt 0.0625 0.96875
vt 0.0625 1
vt 0 1
vt 0 0.96875
vt 0.0625 0.90625
vt 0.0625 0.9375
vt 0 0.9375
vt 0 0.90625
vt 0.125 0.9375
vt 0.125 1
vt 0.09375 1
vt 0.09375 0.9375
vt 0.125 0.84375
vt 0.125 0.90625
vt 0.09375 0.90625
vt 0.09375 0.84375
vt 0.25 0.375
vt 0.25 0.40625
vt 0.21875 0.40625
vt 0.21875 0.375
vt 0.3125 0.375
vt 0.3125 0.40625
vt 0.28125 0.40625
vt 0.28125 0.375
vn 1 0 0
vn -1 0 0
vn 0 1 0
vn 0 -1 0
vn 0 0 1
vn 0 0 -1
usemtl m_617cc193-6db6-a988-0854-8d384e7e9ee4
f 82/321/93 80/322/93 79/323/93 81/324/93
f 85/325/94 83/326/94 84/327/94 86/328/94
f 79/329/95 80/330/95 84/331/95 83/332/95
f 82/333/96 81/334/96 85/335/96 86/336/96
f 81/337/97 79/338/97 83/339/97 85/340/97
f 86/341/98 84/342/98 80/343/98 82/344/98
o Tecla
v 0.15625 0.125 0.5
v 0.15625 0.1875 0.5
v 0.1742921959121758 0.125 0.53125
v 0.1742921959121758 0.1875 0.53125
v 0.1923343918243516 0.125 0.5
v 0.1923343918243516 0.1875 0.5
v 0.1742921959121758 0.125 0.46875
v 0.1742921959121758 0.1875 0.46875
v 0.13820780408782418 0.125 0.46875
v 0.13820780408782418 0.1875 0.46875
v 0.12016560817564839 0.125 0.5
v 0.12016560817564839 0.1875 0.5
v 0.13820780408782418 0.125 0.53125
v 0.13820780408782418 0.1875 0.53125
vt 0.256325 0.515625
vt 0.247303125 0.53125
vt 0.23828125 0.515625
vt 0.46875 0.375
vt 0.5 0.375
vt 0.5 0.40625
vt 0.46875 0.40625
vt 0.341053125 0.5
vt 0.350075 0.515625
vt 0.33203125 0.515625
vt 0.247303125 0.5
vt 0.256325 0.515625
vt 0.23828125 0.515625
vt 0.59375 0.375
vt 0.625 0.375
vt 0.625 0.40625
vt 0.59375 0.40625
vt 0.350075 0.515625
vt 0.341053125 0.53125
vt 0.33203125 0.515625
vt 0.229259375 0.5
vt 0.247303125 0.5
vt 0.23828125 0.515625
vt 0.59375 0.65625
vt 0.625 0.65625
vt 0.625 0.6875
vt 0.59375 0.6875
vt 0.341053125 0.53125
vt 0.323009375 0.53125
vt 0.33203125 0.515625
vt 0.2202375 0.515625
vt 0.229259375 0.5
vt 0.23828125 0.515625
vt 0.53125 0.375
vt 0.5625 0.375
vt 0.5625 0.40625
vt 0.53125 0.40625
vt 0.323009375 0.53125
vt 0.3139875 0.515625
vt 0.33203125 0.515625
vt 0.229259375 0.53125
vt 0.2202375 0.515625
vt 0.23828125 0.515625
vt 0.40625 0.375
vt 0.4375 0.375
vt 0.4375 0.40625
vt 0.40625 0.40625
vt 0.3139875 0.515625
vt 0.323009375 0.5
vt 0.33203125 0.515625
vt 0.247303125 0.53125
vt 0.229259375 0.53125
vt 0.23828125 0.515625
vt 0.34375 0.375
vt 0.375 0.375
vt 0.375 0.40625
vt 0.34375 0.40625
vt 0.323009375 0.5
vt 0.341053125 0.5
vt 0.33203125 0.515625
vn 0 -1 0
vn 0.8660254037844386 0 0.5000000000000001
vn 0 1 0
vn 0 -1 0
vn 0.8660254037844387 0 -0.5000000000000001
vn 0 1 0
vn 0 -1 0
vn -9.61481343191782e-17 0 -1
vn 0 1 0
vn 0 -1 0
vn -0.8660254037844388 0 -0.5000000000000001
vn 0 1 0
vn 0 -1 0
vn -0.8660254037844389 0 0.4999999999999997
vn 0 1 0
vn 0 -1 0
vn -2.884444029575345e-16 0 1
vn 0 1 0
usemtl m_617cc193-6db6-a988-0854-8d384e7e9ee4
f 91/345/99 89/346/99 87/347/99
f 89/348/100 91/349/100 92/350/100 90/351/100
f 90/352/101 92/353/101 88/354/101
f 93/355/102 91/356/102 87/357/102
f 91/358/103 93/359/103 94/360/103 92/361/103
f 92/362/104 94/363/104 88/364/104
f 95/365/105 93/366/105 87/367/105
f 93/368/106 95/369/106 96/370/106 94/371/106
f 94/372/107 96/373/107 88/374/107
f 97/375/108 95/376/108 87/377/108
f 95/378/109 97/379/109 98/380/109 96/381/109
f 96/382/110 98/383/110 88/384/110
f 99/385/111 97/386/111 87/387/111
f 97/388/112 99/389/112 100/390/112 98/391/112
f 98/392/113 100/393/113 88/394/113
f 89/395/114 99/396/114 87/397/114
f 99/398/115 89/399/115 90/400/115 100/401/115
f 100/402/116 90/403/116 88/404/116
o cube
v 0.1875 0.1875 0.4375
v 0.1875 0.1875 0.3125
v 0.1875 0.125 0.4375
v 0.1875 0.125 0.3125
v 0.125 0.1875 0.4375
v 0.125 0.1875 0.3125
v 0.125 0.125 0.4375
v 0.125 0.125 0.3125
vt 0.0625 0.84375
vt 0.0625 0.875
vt 0 0.875
vt 0 0.84375
vt 0.21875 0.96875
vt 0.21875 1
vt 0.15625 1
vt 0.15625 0.96875
vt 0.1875 0.875
vt 0.1875 0.9375
vt 0.15625 0.9375
vt 0.15625 0.875
vt 0.1875 0.78125
vt 0.1875 0.84375
vt 0.15625 0.84375
vt 0.15625 0.78125
vt 0.03125 0.34375
vt 0.03125 0.375
vt 0 0.375
vt 0 0.34375
vt 0.65625 0.96875
vt 0.65625 1
vt 0.625 1
vt 0.625 0.96875
vn 1 0 0
vn -1 0 0
vn 0 1 0
vn 0 -1 0
vn 0 0 1
vn 0 0 -1
usemtl m_617cc193-6db6-a988-0854-8d384e7e9ee4
f 104/405/117 102/406/117 101/407/117 103/408/117
f 107/409/118 105/410/118 106/411/118 108/412/118
f 101/413/119 102/414/119 106/415/119 105/416/119
f 104/417/120 103/418/120 107/419/120 108/420/120
f 103/421/121 101/422/121 105/423/121 107/424/121
f 108/425/122 106/426/122 102/427/122 104/428/122
o Tecla
v 0.03125 0.125 0.5
v 0.03125 0.1875 0.5
v 0.049292195912175804 0.125 0.53125
v 0.049292195912175804 0.1875 0.53125
v 0.06733439182435161 0.125 0.5
v 0.06733439182435161 0.1875 0.5
v 0.049292195912175804 0.125 0.46875
v 0.049292195912175804 0.1875 0.46875
v 0.013207804087824192 0.125 0.46875
v 0.013207804087824192 0.1875 0.46875
v -0.004834391824351608 0.125 0.5
v -0.004834391824351608 0.1875 0.5
v 0.013207804087824179 0.125 0.53125
v 0.013207804087824179 0.1875 0.53125
vt 0.506325 0.578125
vt 0.497303125 0.59375
vt 0.48828125 0.578125
vt 0.0625 0.3125
vt 0.09375 0.3125
vt 0.09375 0.34375
vt 0.0625 0.34375
vt 0.497303125 0.5
vt 0.506325 0.515625
vt 0.48828125 0.515625
vt 0.497303125 0.5625
vt 0.506325 0.578125
vt 0.48828125 0.578125
vt 0.125 0.3125
vt 0.15625 0.3125
vt 0.15625 0.34375
vt 0.125 0.34375
vt 0.506325 0.515625
vt 0.497303125 0.53125
vt 0.48828125 0.515625
vt 0.479259375 0.5625
vt 0.497303125 0.5625
vt 0.48828125 0.578125
vt 0.625 0.71875
vt 0.65625 0.71875
vt 0.65625 0.75
vt 0.625 0.75
vt 0.497303125 0.53125
vt 0.479259375 0.53125
vt 0.48828125 0.515625
vt 0.4702375 0.578125
vt 0.479259375 0.5625
vt 0.48828125 0.578125
vt 0.65625 0.90625
vt 0.6875 0.90625
vt 0.6875 0.9375
vt 0.65625 0.9375
vt 0.479259375 0.53125
vt 0.4702375 0.515625
vt 0.48828125 0.515625
vt 0.479259375 0.59375
vt 0.4702375 0.578125
vt 0.48828125 0.578125
vt 0.625 0.4375
vt 0.65625 0.4375
vt 0.65625 0.46875
vt 0.625 0.46875
vt 0.4702375 0.515625
vt 0.479259375 0.5
vt 0.48828125 0.515625
vt 0.497303125 0.59375
vt 0.479259375 0.59375
vt 0.48828125 0.578125
vt 0.625 0.5
vt 0.65625 0.5
vt 0.65625 0.53125
vt 0.625 0.53125
vt 0.479259375 0.5
vt 0.497303125 0.5
vt 0.48828125 0.515625
vn 0 -1 0
vn 0.8660254037844386 0 0.5000000000000001
vn 0 1 0
vn 0 -1 0
vn 0.8660254037844387 0 -0.5000000000000001
vn 0 1 0
vn 0 -1 0
vn -9.61481343191782e-17 0 -1
vn 0 1 0
vn 0 -1 0
vn -0.8660254037844388 0 -0.5000000000000001
vn 0 1 0
vn 0 -1 0
vn -0.8660254037844389 0 0.4999999999999997
vn 0 1 0
vn 0 -1 0
vn -2.884444029575345e-16 0 1
vn 0 1 0
usemtl m_617cc193-6db6-a988-0854-8d384e7e9ee4
f 113/429/123 111/430/123 109/431/123
f 111/432/124 113/433/124 114/434/124 112/435/124
f 112/436/125 114/437/125 110/438/125
f 115/439/126 113/440/126 109/441/126
f 113/442/127 115/443/127 116/444/127 114/445/127
f 114/446/128 116/447/128 110/448/128
f 117/449/129 115/450/129 109/451/129
f 115/452/130 117/453/130 118/454/130 116/455/130
f 116/456/131 118/457/131 110/458/131
f 119/459/132 117/460/132 109/461/132
f 117/462/133 119/463/133 120/464/133 118/465/133
f 118/466/134 120/467/134 110/468/134
f 121/469/135 119/470/135 109/471/135
f 119/472/136 121/473/136 122/474/136 120/475/136
f 120/476/137 122/477/137 110/478/137
f 111/479/138 121/480/138 109/481/138
f 121/482/139 111/483/139 112/484/139 122/485/139
f 122/486/140 112/487/140 110/488/140
o cube
v 0.0625 0.1875 0.4375
v 0.0625 0.1875 0.3125
v 0.0625 0.125 0.4375
v 0.0625 0.125 0.3125
v 0 0.1875 0.4375
v 0 0.1875 0.3125
v 0 0.125 0.4375
v 0 0.125 0.3125
vt 0.0625 0.78125
vt 0.0625 0.8125
vt 0 0.8125
vt 0 0.78125
vt 0.28125 0.90625
vt 0.28125 0.9375
vt 0.21875 0.9375
vt 0.21875 0.90625
vt 0.125 0.75
vt 0.125 0.8125
vt 0.09375 0.8125
vt 0.09375 0.75
vt 0.25 0.8125
vt 0.25 0.875
vt 0.21875 0.875
vt 0.21875 0.8125
vt 0.6875 0.84375
vt 0.6875 0.875
vt 0.65625 0.875
vt 0.65625 0.84375
vt 0.21875 0.3125
vt 0.21875 0.34375
vt 0.1875 0.34375
vt 0.1875 0.3125
vn 1 0 0
vn -1 0 0
vn 0 1 0
vn 0 -1 0
vn 0 0 1
vn 0 0 -1
usemtl m_617cc193-6db6-a988-0854-8d384e7e9ee4
f 126/489/141 124/490/141 123/491/141 125/492/141
f 129/493/142 127/494/142 128/495/142 130/496/142
f 123/497/143 124/498/143 128/499/143 127/500/143
f 126/501/144 125/502/144 129/503/144 130/504/144
f 125/505/145 123/506/145 127/507/145 129/508/145
f 130/509/146 128/510/146 124/511/146 126/512/146
o Tecla
v -0.09375 0.125 0.5
v -0.09375 0.1875 0.5
v -0.0757078040878242 0.125 0.53125
v -0.0757078040878242 0.1875 0.53125
v -0.05766560817564839 0.125 0.5
v -0.05766560817564839 0.1875 0.5
v -0.0757078040878242 0.125 0.46875
v -0.0757078040878242 0.1875 0.46875
v -0.1117921959121758 0.125 0.46875
v -0.1117921959121758 0.1875 0.46875
v -0.1298343918243516 0.125 0.5
v -0.1298343918243516 0.1875 0.5
v -0.11179219591217582 0.125 0.53125
v -0.11179219591217582 0.1875 0.53125
vt 0.037575 0.484375
vt 0.028553125000000002 0.5
vt 0.01953125 0.484375
vt 0.65625 0.65625
vt 0.6875 0.65625
vt 0.6875 0.6875
vt 0.65625 0.6875
vt 0.528553125 0.90625
vt 0.537575 0.921875
vt 0.51953125 0.921875
vt 0.028553125000000002 0.46875
vt 0.037575 0.484375
vt 0.01953125 0.484375
vt 0.65625 0.59375
vt 0.6875 0.59375
vt 0.6875 0.625
vt 0.65625 0.625
vt 0.537575 0.921875
vt 0.528553125 0.9375
vt 0.51953125 0.921875
vt 0.010509375 0.46875
vt 0.028553125000000002 0.46875
vt 0.01953125 0.484375
vt 0.65625 0.78125
vt 0.6875 0.78125
vt 0.6875 0.8125
vt 0.65625 0.8125
vt 0.528553125 0.9375
vt 0.510509375 0.9375
vt 0.51953125 0.921875
vt 0.0014874999999999992 0.484375
vt 0.010509375 0.46875
vt 0.01953125 0.484375
vt 0.375 0.3125
vt 0.40625 0.3125
vt 0.40625 0.34375
vt 0.375 0.34375
vt 0.510509375 0.9375
vt 0.5014875 0.921875
vt 0.51953125 0.921875
vt 0.010509375 0.5
vt 0.0014874999999999992 0.484375
vt 0.01953125 0.484375
vt 0.3125 0.3125
vt 0.34375 0.3125
vt 0.34375 0.34375
vt 0.3125 0.34375
vt 0.5014875 0.921875
vt 0.510509375 0.90625
vt 0.51953125 0.921875
vt 0.028553125000000002 0.5
vt 0.010509375 0.5
vt 0.01953125 0.484375
vt 0.25 0.3125
vt 0.28125 0.3125
vt 0.28125 0.34375
vt 0.25 0.34375
vt 0.510509375 0.90625
vt 0.528553125 0.90625
vt 0.51953125 0.921875
vn 0 -1 0
vn 0.8660254037844386 0 0.5000000000000001
vn 0 1 0
vn 0 -1 0
vn 0.8660254037844387 0 -0.5000000000000001
vn 0 1 0
vn 0 -1 0
vn -9.61481343191782e-17 0 -1
vn 0 1 0
vn 0 -1 0
vn -0.8660254037844388 0 -0.5000000000000001
vn 0 1 0
vn 0 -1 0
vn -0.8660254037844389 0 0.4999999999999997
vn 0 1 0
vn 0 -1 0
vn -2.884444029575345e-16 0 1
vn 0 1 0
usemtl m_617cc193-6db6-a988-0854-8d384e7e9ee4
f 135/513/147 133/514/147 131/515/147
f 133/516/148 135/517/148 136/518/148 134/519/148
f 134/520/149 136/521/149 132/522/149
f 137/523/150 135/524/150 131/525/150
f 135/526/151 137/527/151 138/528/151 136/529/151
f 136/530/152 138/531/152 132/532/152
f 139/533/153 137/534/153 131/535/153
f 137/536/154 139/537/154 140/538/154 138/539/154
f 138/540/155 140/541/155 132/542/155
f 141/543/156 139/544/156 131/545/156
f 139/546/157 141/547/157 142/548/157 140/549/157
f 140/550/158 142/551/158 132/552/158
f 143/553/159 141/554/159 131/555/159
f 141/556/160 143/557/160 144/558/160 142/559/160
f 142/560/161 144/561/161 132/562/161
f 133/563/162 143/564/162 131/565/162
f 143/566/163 133/567/163 134/568/163 144/569/163
f 144/570/164 134/571/164 132/572/164
o cube
v -0.0625 0.1875 0.4375
v -0.0625 0.1875 0.3125
v -0.0625 0.125 0.4375
v -0.0625 0.125 0.3125
v -0.125 0.1875 0.4375
v -0.125 0.1875 0.3125
v -0.125 0.125 0.4375
v -0.125 0.125 0.3125
vt 0.28125 0.75
vt 0.28125 0.78125
vt 0.21875 0.78125
vt 0.21875 0.75
vt 0.0625 0.71875
vt 0.0625 0.75
vt 0 0.75
vt 0 0.71875
vt 0.1875 0.6875
vt 0.1875 0.75
vt 0.15625 0.75
vt 0.15625 0.6875
vt 0.125 0.65625
vt 0.125 0.71875
vt 0.09375 0.71875
vt 0.09375 0.65625
vt 0.46875 0.3125
vt 0.46875 0.34375
vt 0.4375 0.34375
vt 0.4375 0.3125
vt 0.53125 0.3125
vt 0.53125 0.34375
vt 0.5 0.34375
vt 0.5 0.3125
vn 1 0 0
vn -1 0 0
vn 0 1 0
vn 0 -1 0
vn 0 0 1
vn 0 0 -1
usemtl m_617cc193-6db6-a988-0854-8d384e7e9ee4
f 148/573/165 146/574/165 145/575/165 147/576/165
f 151/577/166 149/578/166 150/579/166 152/580/166
f 145/581/167 146/582/167 150/583/167 149/584/167
f 148/585/168 147/586/168 151/587/168 152/588/168
f 147/589/169 145/590/169 149/591/169 151/592/169
f 152/593/170 150/594/170 146/595/170 148/596/170
o Tecla
v -0.21875 0.125 0.5
v -0.21875 0.1875 0.5
v -0.2007078040878242 0.125 0.53125
v -0.2007078040878242 0.1875 0.53125
v -0.1826656081756484 0.125 0.5
v -0.1826656081756484 0.1875 0.5
v -0.2007078040878242 0.125 0.46875
v -0.2007078040878242 0.1875 0.46875
v -0.23679219591217582 0.125 0.46875
v -0.23679219591217582 0.1875 0.46875
v -0.25483439182435164 0.125 0.5
v -0.25483439182435164 0.1875 0.5
v -0.23679219591217582 0.125 0.53125
v -0.23679219591217582 0.1875 0.53125
vt 0.537575 0.796875
vt 0.528553125 0.8125
vt 0.51953125 0.796875
vt 0 0.28125
vt 0.03125 0.28125
vt 0.03125 0.3125
vt 0 0.3125
vt 0.528553125 0.625
vt 0.537575 0.640625
vt 0.51953125 0.640625
vt 0.528553125 0.78125
vt 0.537575 0.796875
vt 0.51953125 0.796875
vt 0.6875 0.71875
vt 0.71875 0.71875
vt 0.71875 0.75
vt 0.6875 0.75
vt 0.537575 0.640625
vt 0.528553125 0.65625
vt 0.51953125 0.640625
vt 0.510509375 0.78125
vt 0.528553125 0.78125
vt 0.51953125 0.796875
vt 0.5625 0.3125
vt 0.59375 0.3125
vt 0.59375 0.34375
vt 0.5625 0.34375
vt 0.528553125 0.65625
vt 0.510509375 0.65625
vt 0.51953125 0.640625
vt 0.5014875 0.796875
vt 0.510509375 0.78125
vt 0.51953125 0.796875
vt 0.6875 0.96875
vt 0.71875 0.96875
vt 0.71875 1
vt 0.6875 1
vt 0.510509375 0.65625
vt 0.5014875 0.640625
vt 0.51953125 0.640625
vt 0.510509375 0.8125
vt 0.5014875 0.796875
vt 0.51953125 0.796875
vt 0.625 0.3125
vt 0.65625 0.3125
vt 0.65625 0.34375
vt 0.625 0.34375
vt 0.5014875 0.640625
vt 0.510509375 0.625
vt 0.51953125 0.640625
vt 0.528553125 0.8125
vt 0.510509375 0.8125
vt 0.51953125 0.796875
vt 0.65625 0.375
vt 0.6875 0.375
vt 0.6875 0.40625
vt 0.65625 0.40625
vt 0.510509375 0.625
vt 0.528553125 0.625
vt 0.51953125 0.640625
vn 0 -1 0
vn 0.8660254037844386 0 0.5000000000000001
vn 0 1 0
vn 0 -1 0
vn 0.8660254037844387 0 -0.5000000000000001
vn 0 1 0
vn 0 -1 0
vn -9.61481343191782e-17 0 -1
vn 0 1 0
vn 0 -1 0
vn -0.8660254037844388 0 -0.5000000000000001
vn 0 1 0
vn 0 -1 0
vn -0.8660254037844389 0 0.4999999999999997
vn 0 1 0
vn 0 -1 0
vn -2.884444029575345e-16 0 1
vn 0 1 0
usemtl m_617cc193-6db6-a988-0854-8d384e7e9ee4
f 157/597/171 155/598/171 153/599/171
f 155/600/172 157/601/172 158/602/172 156/603/172
f 156/604/173 158/605/173 154/606/173
f 159/607/174 157/608/174 153/609/174
f 157/610/175 159/611/175 160/612/175 158/613/175
f 158/614/176 160/615/176 154/616/176
f 161/617/177 159/618/177 153/619/177
f 159/620/178 161/621/178 162/622/178 160/623/178
f 160/624/179 162/625/179 154/626/179
f 163/627/180 161/628/180 153/629/180
f 161/630/181 163/631/181 164/632/181 162/633/181
f 162/634/182 164/635/182 154/636/182
f 165/637/183 163/638/183 153/639/183
f 163/640/184 165/641/184 166/642/184 164/643/184
f 164/644/185 166/645/185 154/646/185
f 155/647/186 165/648/186 153/649/186
f 165/650/187 155/651/187 156/652/187 166/653/187
f 166/654/188 156/655/188 154/656/188
o cube
v -0.1875 0.1875 0.4375
v -0.1875 0.1875 0.3125
v -0.1875 0.125 0.4375
v -0.1875 0.125 0.3125
v -0.25 0.1875 0.4375
v -0.25 0.1875 0.3125
v -0.25 0.125 0.4375
v -0.25 0.125 0.3125
vt 0.3125 0.96875
vt 0.3125 1
vt 0.25 1
vt 0.25 0.96875
vt 0.34375 0.84375
vt 0.34375 0.875
vt 0.28125 0.875
vt 0.28125 0.84375
vt 0.25 0.65625
vt 0.25 0.71875
vt 0.21875 0.71875
vt 0.21875 0.65625
vt 0.3125 0.65625
vt 0.3125 0.71875
vt 0.28125 0.71875
vt 0.28125 0.65625
vt 0.71875 0.53125
vt 0.71875 0.5625
vt 0.6875 0.5625
vt 0.6875 0.53125
vt 0.71875 0.46875
vt 0.71875 0.5
vt 0.6875 0.5
vt 0.6875 0.46875
vn 1 0 0
vn -1 0 0
vn 0 1 0
vn 0 -1 0
vn 0 0 1
vn 0 0 -1
usemtl m_617cc193-6db6-a988-0854-8d384e7e9ee4
f 170/657/189 168/658/189 167/659/189 169/660/189
f 173/661/190 171/662/190 172/663/190 174/664/190
f 167/665/191 168/666/191 172/667/191 171/668/191
f 170/669/192 169/670/192 173/671/192 174/672/192
f 169/673/193 167/674/193 171/675/193 173/676/193
f 174/677/194 172/678/194 168/679/194 170/680/194
o Tecla
v -0.21875 0.125 0.75
v -0.21875 0.1875 0.75
v -0.2007078040878242 0.125 0.78125
v -0.2007078040878242 0.1875 0.78125
v -0.1826656081756484 0.125 0.75
v -0.1826656081756484 0.1875 0.75
v -0.2007078040878242 0.125 0.71875
v -0.2007078040878242 0.1875 0.71875
v -0.23679219591217582 0.125 0.71875
v -0.23679219591217582 0.1875 0.71875
v -0.25483439182435164 0.125 0.75
v -0.25483439182435164 0.1875 0.75
v -0.23679219591217582 0.125 0.78125
v -0.23679219591217582 0.1875 0.78125
vt 0.568825 0.984375
vt 0.559803125 1
vt 0.55078125 0.984375
vt 0.125 0.25
vt 0.15625 0.25
vt 0.15625 0.28125
vt 0.125 0.28125
vt 0.122303125 0.4375
vt 0.131325 0.453125
vt 0.11328125 0.453125
vt 0.559803125 0.96875
vt 0.568825 0.984375
vt 0.55078125 0.984375
vt 0.1875 0.25
vt 0.21875 0.25
vt 0.21875 0.28125
vt 0.1875 0.28125
vt 0.131325 0.453125
vt 0.122303125 0.46875
vt 0.11328125 0.453125
vt 0.541759375 0.96875
vt 0.559803125 0.96875
vt 0.55078125 0.984375
vt 0.6875 0.3125
vt 0.71875 0.3125
vt 0.71875 0.34375
vt 0.6875 0.34375
vt 0.122303125 0.46875
vt 0.104259375 0.46875
vt 0.11328125 0.453125
vt 0.5327375 0.984375
vt 0.541759375 0.96875
vt 0.55078125 0.984375
vt 0.71875 0.84375
vt 0.75 0.84375
vt 0.75 0.875
vt 0.71875 0.875
vt 0.104259375 0.46875
vt 0.0952375 0.453125
vt 0.11328125 0.453125
vt 0.541759375 1
vt 0.5327375 0.984375
vt 0.55078125 0.984375
vt 0.71875 0.90625
vt 0.75 0.90625
vt 0.75 0.9375
vt 0.71875 0.9375
vt 0.0952375 0.453125
vt 0.104259375 0.4375
vt 0.11328125 0.453125
vt 0.559803125 1
vt 0.541759375 1
vt 0.55078125 0.984375
vt 0.0625 0.25
vt 0.09375 0.25
vt 0.09375 0.28125
vt 0.0625 0.28125
vt 0.104259375 0.4375
vt 0.122303125 0.4375
vt 0.11328125 0.453125
vn 0 -1 0
vn 0.8660254037844386 0 0.5000000000000001
vn 0 1 0
vn 0 -1 0
vn 0.8660254037844387 0 -0.5000000000000001
vn 0 1 0
vn 0 -1 0
vn -9.61481343191782e-17 0 -1
vn 0 1 0
vn 0 -1 0
vn -0.8660254037844388 0 -0.5000000000000001
vn 0 1 0
vn 0 -1 0
vn -0.8660254037844389 0 0.4999999999999997
vn 0 1 0
vn 0 -1 0
vn -2.884444029575345e-16 0 1
vn 0 1 0
usemtl m_617cc193-6db6-a988-0854-8d384e7e9ee4
f 179/681/195 177/682/195 175/683/195
f 177/684/196 179/685/196 180/686/196 178/687/196
f 178/688/197 180/689/197 176/690/197
f 181/691/198 179/692/198 175/693/198
f 179/694/199 181/695/199 182/696/199 180/697/199
f 180/698/200 182/699/200 176/700/200
f 183/701/201 181/702/201 175/703/201
f 181/704/202 183/705/202 184/706/202 182/707/202
f 182/708/203 184/709/203 176/710/203
f 185/711/204 183/712/204 175/713/204
f 183/714/205 185/715/205 186/716/205 184/717/205
f 184/718/206 186/719/206 176/720/206
f 187/721/207 185/722/207 175/723/207
f 185/724/208 187/725/208 188/726/208 186/727/208
f 186/728/209 188/729/209 176/730/209
f 177/731/210 187/732/210 175/733/210
f 187/734/211 177/735/211 178/736/211 188/737/211
f 188/738/212 178/739/212 176/740/212
o cube
v -0.1875 0.1875 0.6875
v -0.1875 0.1875 0.5625
v -0.1875 0.125 0.6875
v -0.1875 0.125 0.5625
v -0.25 0.1875 0.6875
v -0.25 0.1875 0.5625
v -0.25 0.125 0.6875
v -0.25 0.125 0.5625
vt 0.0625 0.65625
vt 0.0625 0.6875
vt 0 0.6875
vt 0 0.65625
vt 0.375 0.90625
vt 0.375 0.9375
vt 0.3125 0.9375
vt 0.3125 0.90625
vt 0.34375 0.75
vt 0.34375 0.8125
vt 0.3125 0.8125
vt 0.3125 0.75
vt 0.1875 0.59375
vt 0.1875 0.65625
vt 0.15625 0.65625
vt 0.15625 0.59375
vt 0.75 0.78125
vt 0.75 0.8125
vt 0.71875 0.8125
vt 0.71875 0.78125
vt 0.28125 0.25
vt 0.28125 0.28125
vt 0.25 0.28125
vt 0.25 0.25
vn 1 0 0
vn -1 0 0
vn 0 1 0
vn 0 -1 0
vn 0 0 1
vn 0 0 -1
usemtl m_617cc193-6db6-a988-0854-8d384e7e9ee4
f 192/741/213 190/742/213 189/743/213 191/744/213
f 195/745/214 193/746/214 194/747/214 196/748/214
f 189/749/215 190/750/215 194/751/215 193/752/215
f 192/753/216 191/754/216 195/755/216 196/756/216
f 191/757/217 189/758/217 193/759/217 195/760/217
f 196/761/218 194/762/218 190/763/218 192/764/218
o Tecla
v -0.09375 0.125 0.75
v -0.09375 0.1875 0.75
v -0.0757078040878242 0.125 0.78125
v -0.0757078040878242 0.1875 0.78125
v -0.05766560817564839 0.125 0.75
v -0.05766560817564839 0.1875 0.75
v -0.0757078040878242 0.125 0.71875
v -0.0757078040878242 0.1875 0.71875
v -0.1117921959121758 0.125 0.71875
v -0.1117921959121758 0.1875 0.71875
v -0.1298343918243516 0.125 0.75
v -0.1298343918243516 0.1875 0.75
v -0.11179219591217582 0.125 0.78125
v -0.11179219591217582 0.1875 0.78125
vt 0.225075 0.453125
vt 0.216053125 0.46875
vt 0.20703125 0.453125
vt 0.71875 0.59375
vt 0.75 0.59375
vt 0.75 0.625
vt 0.71875 0.625
vt 0.559803125 0.71875
vt 0.568825 0.734375
vt 0.55078125 0.734375
vt 0.216053125 0.4375
vt 0.225075 0.453125
vt 0.20703125 0.453125
vt 0.5 0.25
vt 0.53125 0.25
vt 0.53125 0.28125
vt 0.5 0.28125
vt 0.568825 0.734375
vt 0.559803125 0.75
vt 0.55078125 0.734375
vt 0.198009375 0.4375
vt 0.216053125 0.4375
vt 0.20703125 0.453125
vt 0.3125 0.25
vt 0.34375 0.25
vt 0.34375 0.28125
vt 0.3125 0.28125
vt 0.559803125 0.75
vt 0.541759375 0.75
vt 0.55078125 0.734375
vt 0.1889875 0.453125
vt 0.198009375 0.4375
vt 0.20703125 0.453125
vt 0.4375 0.25
vt 0.46875 0.25
vt 0.46875 0.28125
vt 0.4375 0.28125
vt 0.541759375 0.75
vt 0.5327375 0.734375
vt 0.55078125 0.734375
vt 0.198009375 0.46875
vt 0.1889875 0.453125
vt 0.20703125 0.453125
vt 0.375 0.25
vt 0.40625 0.25
vt 0.40625 0.28125
vt 0.375 0.28125
vt 0.5327375 0.734375
vt 0.541759375 0.71875
vt 0.55078125 0.734375
vt 0.216053125 0.46875
vt 0.198009375 0.46875
vt 0.20703125 0.453125
vt 0.71875 0.65625
vt 0.75 0.65625
vt 0.75 0.6875
vt 0.71875 0.6875
vt 0.541759375 0.71875
vt 0.559803125 0.71875
vt 0.55078125 0.734375
vn 0 -1 0
vn 0.8660254037844386 0 0.5000000000000001
vn 0 1 0
vn 0 -1 0
vn 0.8660254037844387 0 -0.5000000000000001
vn 0 1 0
vn 0 -1 0
vn -9.61481343191782e-17 0 -1
vn 0 1 0
vn 0 -1 0
vn -0.8660254037844388 0 -0.5000000000000001
vn 0 1 0
vn 0 -1 0
vn -0.8660254037844389 0 0.4999999999999997
vn 0 1 0
vn 0 -1 0
vn -2.884444029575345e-16 0 1
vn 0 1 0
usemtl m_617cc193-6db6-a988-0854-8d384e7e9ee4
f 201/765/219 199/766/219 197/767/219
f 199/768/220 201/769/220 202/770/220 200/771/220
f 200/772/221 202/773/221 198/774/221
f 203/775/222 201/776/222 197/777/222
f 201/778/223 203/779/223 204/780/223 202/781/223
f 202/782/224 204/783/224 198/784/224
f 205/785/225 203/786/225 197/787/225
f 203/788/226 205/789/226 206/790/226 204/791/226
f 204/792/227 206/793/227 198/794/227
f 207/795/228 205/796/228 197/797/228
f 205/798/229 207/799/229 208/800/229 206/801/229
f 206/802/230 208/803/230 198/804/230
f 209/805/231 207/806/231 197/807/231
f 207/808/232 209/809/232 210/810/232 208/811/232
f 208/812/233 210/813/233 198/814/233
f 199/815/234 209/816/234 197/817/234
f 209/818/235 199/819/235 200/820/235 210/821/235
f 210/822/236 200/823/236 198/824/236
o cube
v -0.0625 0.1875 0.6875
v -0.0625 0.1875 0.5625
v -0.0625 0.125 0.6875
v -0.0625 0.125 0.5625
v -0.125 0.1875 0.6875
v -0.125 0.1875 0.5625
v -0.125 0.125 0.6875
v -0.125 0.125 0.5625
vt 0.40625 0.96875
vt 0.40625 1
vt 0.34375 1
vt 0.34375 0.96875
vt 0.40625 0.6875
vt 0.40625 0.71875
vt 0.34375 0.71875
vt 0.34375 0.6875
vt 0.375 0.59375
vt 0.375 0.65625
vt 0.34375 0.65625
vt 0.34375 0.59375
vt 0.03125 0.5625
vt 0.03125 0.625
vt 0 0.625
vt 0 0.5625
vt 0.59375 0.25
vt 0.59375 0.28125
vt 0.5625 0.28125
vt 0.5625 0.25
vt 0.75 0.40625
vt 0.75 0.4375
vt 0.71875 0.4375
vt 0.71875 0.40625
vn 1 0 0
vn -1 0 0
vn 0 1 0
vn 0 -1 0
vn 0 0 1
vn 0 0 -1
usemtl m_617cc193-6db6-a988-0854-8d384e7e9ee4
f 214/825/237 212/826/237 211/827/237 213/828/237
f 217/829/238 215/830/238 216/831/238 218/832/238
f 211/833/239 212/834/239 216/835/239 215/836/239
f 214/837/240 213/838/240 217/839/240 218/840/240
f 213/841/241 211/842/241 215/843/241 217/844/241
f 218/845/242 216/846/242 212/847/242 214/848/242
o Tecla
v 0.03125 0.125 0.75
v 0.03125 0.1875 0.75
v 0.049292195912175804 0.125 0.78125
v 0.049292195912175804 0.1875 0.78125
v 0.06733439182435161 0.125 0.75
v 0.06733439182435161 0.1875 0.75
v 0.049292195912175804 0.125 0.71875
v 0.049292195912175804 0.1875 0.71875
v 0.013207804087824192 0.125 0.71875
v 0.013207804087824192 0.1875 0.71875
v -0.004834391824351608 0.125 0.75
v -0.004834391824351608 0.1875 0.75
v 0.013207804087824179 0.125 0.78125
v 0.013207804087824179 0.1875 0.78125
vt 0.318825 0.453125
vt 0.309803125 0.46875
vt 0.30078125 0.453125
vt 0.75 0.96875
vt 0.78125 0.96875
vt 0.78125 1
vt 0.75 1
vt 0.403553125 0.4375
vt 0.412575 0.453125
vt 0.39453125 0.453125
vt 0.309803125 0.4375
vt 0.318825 0.453125
vt 0.30078125 0.453125
vt 0.75 0.53125
vt 0.78125 0.53125
vt 0.78125 0.5625
vt 0.75 0.5625
vt 0.412575 0.453125
vt 0.403553125 0.46875
vt 0.39453125 0.453125
vt 0.291759375 0.4375
vt 0.309803125 0.4375
vt 0.30078125 0.453125
vt 0.625 0.25
vt 0.65625 0.25
vt 0.65625 0.28125
vt 0.625 0.28125
vt 0.403553125 0.46875
vt 0.385509375 0.46875
vt 0.39453125 0.453125
vt 0.2827375 0.453125
vt 0.291759375 0.4375
vt 0.30078125 0.453125
vt 0.75 0.71875
vt 0.78125 0.71875
vt 0.78125 0.75
vt 0.75 0.75
vt 0.385509375 0.46875
vt 0.3764875 0.453125
vt 0.39453125 0.453125
vt 0.291759375 0.46875
vt 0.2827375 0.453125
vt 0.30078125 0.453125
vt 0 0.21875
vt 0.03125 0.21875
vt 0.03125 0.25
vt 0 0.25
vt 0.3764875 0.453125
vt 0.385509375 0.4375
vt 0.39453125 0.453125
vt 0.309803125 0.46875
vt 0.291759375 0.46875
vt 0.30078125 0.453125
vt 0.6875 0.25
vt 0.71875 0.25
vt 0.71875 0.28125
vt 0.6875 0.28125
vt 0.385509375 0.4375
vt 0.403553125 0.4375
vt 0.39453125 0.453125
vn 0 -1 0
vn 0.8660254037844386 0 0.5000000000000001
vn 0 1 0
vn 0 -1 0
vn 0.8660254037844387 0 -0.5000000000000001
vn 0 1 0
vn 0 -1 0
vn -9.61481343191782e-17 0 -1
vn 0 1 0
vn 0 -1 0
vn -0.8660254037844388 0 -0.5000000000000001
vn 0 1 0
vn 0 -1 0
vn -0.8660254037844389 0 0.4999999999999997
vn 0 1 0
vn 0 -1 0
vn -2.884444029575345e-16 0 1
vn 0 1 0
usemtl m_617cc193-6db6-a988-0854-8d384e7e9ee4
f 223/849/243 221/850/243 219/851/243
f 221/852/244 223/853/244 224/854/244 222/855/244
f 222/856/245 224/857/245 220/858/245
f 225/859/246 223/860/246 219/861/246
f 223/862/247 225/863/247 226/864/247 224/865/247
f 224/866/248 226/867/248 220/868/248
f 227/869/249 225/870/249 219/871/249
f 225/872/250 227/873/250 228/874/250 226/875/250
f 226/876/251 228/877/251 220/878/251
f 229/879/252 227/880/252 219/881/252
f 227/882/253 229/883/253 230/884/253 228/885/253
f 228/886/254 230/887/254 220/888/254
f 231/889/255 229/890/255 219/891/255
f 229/892/256 231/893/256 232/894/256 230/895/256
f 230/896/257 232/897/257 220/898/257
f 221/899/258 231/900/258 219/901/258
f 231/902/259 221/903/259 222/904/259 232/905/259
f 232/906/260 222/907/260 220/908/260
o cube
v 0.0625 0.1875 0.6875
v 0.0625 0.1875 0.5625
v 0.0625 0.125 0.6875
v 0.0625 0.125 0.5625
v 0 0.1875 0.6875
v 0 0.1875 0.5625
v 0 0.125 0.6875
v 0 0.125 0.5625
vt 0.125 0.59375
vt 0.125 0.625
vt 0.0625 0.625
vt 0.0625 0.59375
vt 0.4375 0.84375
vt 0.4375 0.875
vt 0.375 0.875
vt 0.375 0.84375
vt 0.40625 0.75
vt 0.40625 0.8125
vt 0.375 0.8125
vt 0.375 0.75
vt 0.25 0.5625
vt 0.25 0.625
vt 0.21875 0.625
vt 0.21875 0.5625
vt 0.78125 0.46875
vt 0.78125 0.5
vt 0.75 0.5
vt 0.75 0.46875
vt 0.78125 0.34375
vt 0.78125 0.375
vt 0.75 0.375
vt 0.75 0.34375
vn 1 0 0
vn -1 0 0
vn 0 1 0
vn 0 -1 0
vn 0 0 1
vn 0 0 -1
usemtl m_617cc193-6db6-a988-0854-8d384e7e9ee4
f 236/909/261 234/910/261 233/911/261 235/912/261
f 239/913/262 237/914/262 238/915/262 240/916/262
f 233/917/263 234/918/263 238/919/263 237/920/263
f 236/921/264 235/922/264 239/923/264 240/924/264
f 235/925/265 233/926/265 237/927/265 239/928/265
f 240/929/266 238/930/266 234/931/266 236/932/266
o Tecla
v 0.15625 0.125 0.75
v 0.15625 0.1875 0.75
v 0.1742921959121758 0.125 0.78125
v 0.1742921959121758 0.1875 0.78125
v 0.1923343918243516 0.125 0.75
v 0.1923343918243516 0.1875 0.75
v 0.1742921959121758 0.125 0.71875
v 0.1742921959121758 0.1875 0.71875
v 0.13820780408782418 0.125 0.71875
v 0.13820780408782418 0.1875 0.71875
v 0.12016560817564839 0.125 0.75
v 0.12016560817564839 0.1875 0.75
v 0.13820780408782418 0.125 0.78125
v 0.13820780408782418 0.1875 0.78125
vt 0.506325 0.453125
vt 0.497303125 0.46875
vt 0.48828125 0.453125
vt 0.78125 0.90625
vt 0.8125 0.90625
vt 0.8125 0.9375
vt 0.78125 0.9375
vt 0.028553125000000002 0.40625
vt 0.037575 0.421875
vt 0.01953125 0.421875
vt 0.497303125 0.4375
vt 0.506325 0.453125
vt 0.48828125 0.453125
vt 0.78125 0.84375
vt 0.8125 0.84375
vt 0.8125 0.875
vt 0.78125 0.875
vt 0.037575 0.421875
vt 0.028553125000000002 0.4375
vt 0.01953125 0.421875
vt 0.479259375 0.4375
vt 0.497303125 0.4375
vt 0.48828125 0.453125
vt 0.75 0.28125
vt 0.78125 0.28125
vt 0.78125 0.3125
vt 0.75 0.3125
vt 0.028553125000000002 0.4375
vt 0.010509375 0.4375
vt 0.01953125 0.421875
vt 0.4702375 0.453125
vt 0.479259375 0.4375
vt 0.48828125 0.453125
vt 0.125 0.1875
vt 0.15625 0.1875
vt 0.15625 0.21875
vt 0.125 0.21875
vt 0.010509375 0.4375
vt 0.0014874999999999992 0.421875
vt 0.01953125 0.421875
vt 0.479259375 0.46875
vt 0.4702375 0.453125
vt 0.48828125 0.453125
vt 0.0625 0.1875
vt 0.09375 0.1875
vt 0.09375 0.21875
vt 0.0625 0.21875
vt 0.0014874999999999992 0.421875
vt 0.010509375 0.40625
vt 0.01953125 0.421875
vt 0.497303125 0.46875
vt 0.479259375 0.46875
vt 0.48828125 0.453125
vt 0.75 0.21875
vt 0.78125 0.21875
vt 0.78125 0.25
vt 0.75 0.25
vt 0.010509375 0.40625
vt 0.028553125000000002 0.40625
vt 0.01953125 0.421875
vn 0 -1 0
vn 0.8660254037844386 0 0.5000000000000001
vn 0 1 0
vn 0 -1 0
vn 0.8660254037844387 0 -0.5000000000000001
vn 0 1 0
vn 0 -1 0
vn -9.61481343191782e-17 0 -1
vn 0 1 0
vn 0 -1 0
vn -0.8660254037844388 0 -0.5000000000000001
vn 0 1 0
vn 0 -1 0
vn -0.8660254037844389 0 0.4999999999999997
vn 0 1 0
vn 0 -1 0
vn -2.884444029575345e-16 0 1
vn 0 1 0
usemtl m_617cc193-6db6-a988-0854-8d384e7e9ee4
f 245/933/267 243/934/267 241/935/267
f 243/936/268 245/937/268 246/938/268 244/939/268
f 244/940/269 246/941/269 242/942/269
f 247/943/270 245/944/270 241/945/270
f 245/946/271 247/947/271 248/948/271 246/949/271
f 246/950/272 248/951/272 242/952/272
f 249/953/273 247/954/273 241/955/273
f 247/956/274 249/957/274 250/958/274 248/959/274
f 248/960/275 250/961/275 242/962/275
f 251/963/276 249/964/276 241/965/276
f 249/966/277 251/967/277 252/968/277 250/969/277
f 250/970/278 252/971/278 242/972/278
f 253/973/279 251/974/279 241/975/279
f 251/976/280 253/977/280 254/978/280 252/979/280
f 252/980/281 254/981/281 242/982/281
f 243/983/282 253/984/282 241/985/282
f 253/986/283 243/987/283 244/988/283 254/989/283
f 254/990/284 244/991/284 242/992/284
o cube
v 0.1875 0.1875 0.6875
v 0.1875 0.1875 0.5625
v 0.1875 0.125 0.6875
v 0.1875 0.125 0.5625
v 0.125 0.1875 0.6875
v 0.125 0.1875 0.5625
v 0.125 0.125 0.6875
v 0.125 0.125 0.5625
vt 0.46875 0.90625
vt 0.46875 0.9375
vt 0.40625 0.9375
vt 0.40625 0.90625
vt 0.46875 0.625
vt 0.46875 0.65625
vt 0.40625 0.65625
vt 0.40625 0.625
vt 0.3125 0.5625
vt 0.3125 0.625
vt 0.28125 0.625
vt 0.28125 0.5625
vt 0.4375 0.53125
vt 0.4375 0.59375
vt 0.40625 0.59375
vt 0.40625 0.53125
vt 0.21875 0.1875
vt 0.21875 0.21875
vt 0.1875 0.21875
vt 0.1875 0.1875
vt 0.8125 0.78125
vt 0.8125 0.8125
vt 0.78125 0.8125
vt 0.78125 0.78125
vn 1 0 0
vn -1 0 0
vn 0 1 0
vn 0 -1 0
vn 0 0 1
vn 0 0 -1
usemtl m_617cc193-6db6-a988-0854-8d384e7e9ee4
f 258/993/285 256/994/285 255/995/285 257/996/285
f 261/997/286 259/998/286 260/999/286 262/1000/286
f 255/1001/287 256/1002/287 260/1003/287 259/1004/287
f 258/1005/288 257/1006/288 261/1007/288 262/1008/288
f 257/1009/289 255/1010/289 259/1011/289 261/1012/289
f 262/1013/290 260/1014/290 256/1015/290 258/1016/290
o Tecla
v 0.28125 0.125 0.75
v 0.28125 0.1875 0.75
v 0.2992921959121758 0.125 0.78125
v 0.2992921959121758 0.1875 0.78125
v 0.31733439182435164 0.125 0.75
v 0.31733439182435164 0.1875 0.75
v 0.2992921959121758 0.125 0.71875
v 0.2992921959121758 0.1875 0.71875
v 0.2632078040878242 0.125 0.71875
v 0.2632078040878242 0.1875 0.71875
v 0.2451656081756484 0.125 0.75
v 0.2451656081756484 0.1875 0.75
v 0.2632078040878242 0.125 0.78125
v 0.2632078040878242 0.1875 0.78125
vt 0.600075 0.859375
vt 0.591053125 0.875
vt 0.58203125 0.859375
vt 0.375 0.1875
vt 0.40625 0.1875
vt 0.40625 0.21875
vt 0.375 0.21875
vt 0.591053125 0.5625
vt 0.600075 0.578125
vt 0.58203125 0.578125
vt 0.591053125 0.84375
vt 0.600075 0.859375
vt 0.58203125 0.859375
vt 0.4375 0.1875
vt 0.46875 0.1875
vt 0.46875 0.21875
vt 0.4375 0.21875
vt 0.600075 0.578125
vt 0.591053125 0.59375
vt 0.58203125 0.578125
vt 0.573009375 0.84375
vt 0.591053125 0.84375
vt 0.58203125 0.859375
vt 0.25 0.1875
vt 0.28125 0.1875
vt 0.28125 0.21875
vt 0.25 0.21875
vt 0.591053125 0.59375
vt 0.573009375 0.59375
vt 0.58203125 0.578125
vt 0.5639875 0.859375
vt 0.573009375 0.84375
vt 0.58203125 0.859375
vt 0.78125 0.59375
vt 0.8125 0.59375
vt 0.8125 0.625
vt 0.78125 0.625
vt 0.573009375 0.59375
vt 0.5639875 0.578125
vt 0.58203125 0.578125
vt 0.573009375 0.875
vt 0.5639875 0.859375
vt 0.58203125 0.859375
vt 0.78125 0.65625
vt 0.8125 0.65625
vt 0.8125 0.6875
vt 0.78125 0.6875
vt 0.5639875 0.578125
vt 0.573009375 0.5625
vt 0.58203125 0.578125
vt 0.591053125 0.875
vt 0.573009375 0.875
vt 0.58203125 0.859375
vt 0.3125 0.1875
vt 0.34375 0.1875
vt 0.34375 0.21875
vt 0.3125 0.21875
vt 0.573009375 0.5625
vt 0.591053125 0.5625
vt 0.58203125 0.578125
vn 0 -1 0
vn 0.8660254037844386 0 0.5000000000000001
vn 0 1 0
vn 0 -1 0
vn 0.8660254037844387 0 -0.5000000000000001
vn 0 1 0
vn 0 -1 0
vn -9.61481343191782e-17 0 -1
vn 0 1 0
vn 0 -1 0
vn -0.8660254037844388 0 -0.5000000000000001
vn 0 1 0
vn 0 -1 0
vn -0.8660254037844389 0 0.4999999999999997
vn 0 1 0
vn 0 -1 0
vn -2.884444029575345e-16 0 1
vn 0 1 0
usemtl m_617cc193-6db6-a988-0854-8d384e7e9ee4
f 267/1017/291 265/1018/291 263/1019/291
f 265/1020/292 267/1021/292 268/1022/292 266/1023/292
f 266/1024/293 268/1025/293 264/1026/293
f 269/1027/294 267/1028/294 263/1029/294
f 267/1030/295 269/1031/295 270/1032/295 268/1033/295
f 268/1034/296 270/1035/296 264/1036/296
f 271/1037/297 269/1038/297 263/1039/297
f 269/1040/298 271/1041/298 272/1042/298 270/1043/298
f 270/1044/299 272/1045/299 264/1046/299
f 273/1047/300 271/1048/300 263/1049/300
f 271/1050/301 273/1051/301 274/1052/301 272/1053/301
f 272/1054/302 274/1055/302 264/1056/302
f 275/1057/303 273/1058/303 263/1059/303
f 273/1060/304 275/1061/304 276/1062/304 274/1063/304
f 274/1064/305 276/1065/305 264/1066/305
f 265/1067/306 275/1068/306 263/1069/306
f 275/1070/307 265/1071/307 266/1072/307 276/1073/307
f 276/1074/308 266/1075/308 264/1076/308
o cube
v 0.3125 0.1875 0.6875
v 0.3125 0.1875 0.5625
v 0.3125 0.125 0.6875
v 0.3125 0.125 0.5625
v 0.25 0.1875 0.6875
v 0.25 0.1875 0.5625
v 0.25 0.125 0.6875
v 0.25 0.125 0.5625
vt 0.5 0.96875
vt 0.5 1
vt 0.4375 1
vt 0.4375 0.96875
vt 0.125 0.53125
vt 0.125 0.5625
vt 0.0625 0.5625
vt 0.0625 0.53125
vt 0.1875 0.5
vt 0.1875 0.5625
vt 0.15625 0.5625
vt 0.15625 0.5
vt 0.46875 0.75
vt 0.46875 0.8125
vt 0.4375 0.8125
vt 0.4375 0.75
vt 0.53125 0.1875
vt 0.53125 0.21875
vt 0.5 0.21875
vt 0.5 0.1875
vt 0.59375 0.1875
vt 0.59375 0.21875
vt 0.5625 0.21875
vt 0.5625 0.1875
vn 1 0 0
vn -1 0 0
vn 0 1 0
vn 0 -1 0
vn 0 0 1
vn 0 0 -1
usemtl m_617cc193-6db6-a988-0854-8d384e7e9ee4
f 280/1077/309 278/1078/309 277/1079/309 279/1080/309
f 283/1081/310 281/1082/310 282/1083/310 284/1084/310
f 277/1085/311 278/1086/311 282/1087/311 281/1088/311
f 280/1089/312 279/1090/312 283/1091/312 284/1092/312
f 279/1093/313 277/1094/313 281/1095/313 283/1096/313
f 284/1097/314 282/1098/314 278/1099/314 280/1100/314
o cuboid
v 0.5 0.1875 -0.125
v 0.5 0.1875 -0.5
v 0.5 0.125 -0.125
v 0.5 0.125 -0.5
v 0.25 0.1875 -0.125
v 0.25 0.1875 -0.5
v 0.25 0.125 -0.125
v 0.25 0.125 -0.5
vt 0.25 1
vt 0 1
vt 0 0.875
vt 0.25 0.875
vt 0.25 0.875
vt 0.25 1
vt 0 1
vt 0 0.875
vt 0 0.75
vt 0.25 0.75
vt 0.25 1
vt 0 1
vt 0.25 0.75
vt 0.25 1
vt 0 1
vt 0 0.75
vt 0.25 0.875
vt 0.25 1
vt 0 1
vt 0 0.875
vt 0.25 1
vt 0 1
vt 0 0.875
vt 0.25 0.875
vn 1 0 0
vn -1 0 0
vn 0 1 0
vn 0 -1 0
vn 0 0 1
vn 0 0 -1
usemtl none
f 286/1101/315 285/1102/315 287/1103/315 288/1104/315
f 291/1105/316 289/1106/316 290/1107/316 292/1108/316
f 289/1109/317 285/1110/317 286/1111/317 290/1112/317
f 288/1113/318 287/1114/318 291/1115/318 292/1116/318
f 287/1117/319 285/1118/319 289/1119/319 291/1120/319
f 290/1121/320 286/1122/320 288/1123/320 292/1124/320