# Made in Blockbench 4.12.2
mtllib RadioVideo.mtl

o corpo
v 0.4375 0.9312499999999999 0.359375
v 0.234375 0.9312499999999999 0.359375
v 0.234375 0 0.359375
v 0.4375 0 0.359375
v 0.234375 0 0.0859375
v 0.234375 0.9312499999999999 0.0859375
v 0.4375 0.9312499999999999 0.0859375
v 0.4375 0 0.0859375
v 0.234375 0.7906249999999999 0.0859375
v 0.234375 0.7906249999999999 0.359375
v 0.234375 0.7906249999999999 0.5
v 0.4375 0.7906249999999999 0.5
v 0.4375 0.7906249999999999 0.359375
v 0.4375 0.7906249999999999 0.0859375
v 0.4375 0.7906249999999999 -0.0625
v 0.234375 0.7906249999999999 -0.0625
v 0.234375 0.1328125 0.359375
v 0.234375 0.1328125 0.0859375
v 0.234375 0.1328125 -0.0625
v 0.4375 0.1328125 -0.0625
v 0.4375 0.1328125 0.0859375
v 0.4375 0.1328125 0.359375
v 0.4375 0.1328125 0.5
v 0.234375 0.1328125 0.5
v 0.3359375 0.12387793624161075 0.5125
v 0.3359375 0.799349832214765 0.5125
v 0.3359375 0.9437499999999999 0.365625
v 0.3359375 0.9437499999999999 0.08003472222222222
v 0.3359375 0.799349832214765 -0.07500000000000001
v 0.3359375 0.12387793624161075 -0.07500000000000001
v 0.3359375 -0.012499999999999956 0.08003472222222222
v 0.3359375 -0.012499999999999956 0.365625
vt 0.125 0.9612068965517242
vt 0.125 0.7866379310344828
vt 0.3680555555555556 0.7866379310344828
vt 0.3680555555555556 0.9612068965517242
vt 0.13194444444444445 0.9612068965517242
vt 0.13194444444444445 0.7866379310344828
vt 0.375 0.7866379310344828
vt 0.375 0.9612068965517242
vt 0.5 0.8680555555555556
vt 0.25 0.8680555555555556
vt 0.25 0.625
vt 0.5 0.625
vt 0.5 0.875
vt 0.25 0.875
vt 0.25 0.6319444444444444
vt 0.5 0.6319444444444444
vt 0.5 0.9612068965517242
vt 0.25 0.9612068965517242
vt 0.25 0.7866379310344828
vt 0.5 0.7866379310344828
vt 0 0.7866379310344828
vt 0.25 0.7866379310344828
vt 0.25 0.9612068965517242
vt 0 0.9612068965517242
vt 0.375 0.9612068965517242
vt 0.375 0.7866379310344828
vt 0.5 0.7866379310344828
vt 0.5 0.9612068965517242
vt 0 0.9612068965517242
vt 0 0.7866379310344828
vt 0.125 0.7866379310344828
vt 0.125 0.9612068965517242
vt 0 0.9612068965517242
vt 0 0.7866379310344828
vt 0.13194444444444445 0.7866379310344828
vt 0.13194444444444445 0.9612068965517242
vt 0.3680555555555556 0.9612068965517242
vt 0.3680555555555556 0.7866379310344828
vt 0.5 0.7866379310344828
vt 0.5 0.9612068965517242
vt 0.13194444444444445 1
vt 0.13194444444444445 0.9612068965517242
vt 0.375 0.9612068965517242
vt 0.375 1
vt 0.125 1
vt 0.125 0.9612068965517242
vt 0.3680555555555556 0.9612068965517242
vt 0.3680555555555556 1
vt 0.375 0.75
vt 0.375 0.7866379310344828
vt 0.13194444444444445 0.7866379310344828
vt 0.13194444444444445 0.75
vt 0.3680555555555556 0.75
vt 0.3680555555555556 0.7866379310344828
vt 0.125 0.7866379310344828
vt 0.125 0.75
vt 0.1015625 1
vt 0.05078125 1
vt 0.05078125 0.9005625
vt 0.1015625 0.9005625
vt 0 0.8977625
vt 0.05078125 0.8977625
vt 0.05078125 1
vt 0 1
vt 0.1015625 1
vt 0.05078125 1
vt 0.05078125 0.903284375
vt 0.1015625 0.903284375
vt 0 0.900409375
vt 0.05078125 0.900409375
vt 0.05078125 1
vt 0 1
vt 0.07421875 1
vt 0 0.9296875
vt 0.07421875 0.9296875
vt 0 0.9296875
vt 0.0703125 0.9296875
vt 0 1
vt 0.0703125 1
vt 0 1
vt 0 0.93359375
vt 0 1
vt 0.07421875 0.93359375
vt 0.07421875 1
vt 0.07421875 0.9296875
vt 0 1
vt 0 0.9296875
vt 0 0.9296875
vt 0.0703125 0.9296875
vt 0.0703125 1
vt 0.07421875 1
vt 0 1
vt 0 0.93359375
vt 0 1
vt 0.0703125 0.93359375
vt 0.0703125 1
vt 0 0.7866379310344828
vt 0.25 0.7866379310344828
vt 0.25 0.9612068965517242
vt 0 0.9612068965517242
vt 0 0.9005625
vt 0.05078125 0.9005625
vt 0.05078125 1
vt 0 1
vt 0 0.625
vt 0.25 0.625
vt 0.25 0.8680555555555556
vt 0 0.8680555555555556
vt 0.1015625 1
vt 0.05078125 1
vt 0.05078125 0.8977625
vt 0.1015625 0.8977625
vt 0.5 0.9612068965517242
vt 0.25 0.9612068965517242
vt 0.25 0.7866379310344828
vt 0.5 0.7866379310344828
vt 0.1015625 1
vt 0.05078125 1
vt 0.05078125 0.900409375
vt 0.1015625 0.900409375
vt 0 0.6319444444444444
vt 0.25 0.6319444444444444
vt 0.25 0.875
vt 0 0.875
vt 0 0.903284375
vt 0.05078125 0.903284375
vt 0.05078125 1
vt 0 1
vn 1 0 0
vn -1 0 0
vn 0.12215520134321575 0.9925110109136315 0
vn 0.12215520134321575 -0.9925110109136315 0
vn 0.12215520134321572 0 0.9925110109136315
vn 0.12215520134321628 0 -0.9925110109136315
vn -1 0 0
vn 1 0 0
vn -1 0 0
vn 1 0 0
vn -1 0 0
vn 1 0 0
vn -1 0 0
vn 1 0 0
vn 0.12980032628121915 0.7070563821930468 0.6951425376837252
vn 0.145192257576266 0.7240045087574964 -0.6743416638757564
vn 0.14661027723917272 -0.7248899151447408 0.6730824893943562
vn 0.12969347886834168 -0.744498395192983 -0.6549059024730957
vn -1 0 0
vn -1 0 0
vn -1 0 0
vn -1 0 0
vn 1 0 0
vn 1 0 0
vn 1 0 0
vn 1 0 0
vn -0.12215520134321572 0 0.9925110109136315
vn -0.145964397602741 0.7054517111906476 0.6935649052616893
vn -0.12215520134321575 0.9925110109136315 0
vn -0.12859814098859504 0.7256826702222635 -0.6759047124213317
vn -0.1221552013432163 0 -0.9925110109136315
vn -0.14576876188698404 -0.7428199334524527 -0.653429425817073
vn -0.12215520134321575 -0.9925110109136315 0
vn -0.13092790144030023 -0.7265003059233693 0.6745777865581477
usemtl none
f 13/1/1 22/2/1 21/3/1 14/4/1
f 9/5/2 18/6/2 17/7/2 10/8/2
f 7/9/3 28/10/3 27/11/3 1/12/3
f 4/13/4 32/14/4 31/15/4 8/16/4
f 12/17/5 26/18/5 25/19/5 23/20/5
f 20/21/6 30/22/6 29/23/6 15/24/6
f 10/25/7 17/26/7 24/27/7 11/28/7
f 12/29/8 23/30/8 22/31/8 13/32/8
f 16/33/9 19/34/9 18/35/9 9/36/9
f 14/37/10 21/38/10 20/39/10 15/40/10
f 6/41/11 9/42/11 10/43/11 2/44/11
f 1/45/12 13/46/12 14/47/12 7/48/12
f 3/49/13 17/50/13 18/51/13 5/52/13
f 8/53/14 21/54/14 22/55/14 4/56/14
f 1/57/15 27/58/15 26/59/15 12/60/15
f 15/61/16 29/62/16 28/63/16 7/64/16
f 23/65/17 25/66/17 32/67/17 4/68/17
f 8/69/18 31/70/18 30/71/18 20/72/18
f 6/73/19 16/74/19 9/75/19
f 10/76/20 11/77/20 2/78/20
f 24/79/21 17/80/21 3/81/21
f 19/82/22 5/83/22 18/84/22
f 15/85/23 7/86/23 14/87/23
f 12/88/24 13/89/24 1/90/24
f 20/91/25 21/92/25 8/93/25
f 23/94/26 4/95/26 22/96/26
f 24/97/27 25/98/27 26/99/27 11/100/27
f 11/101/28 26/102/28 27/103/28 2/104/28
f 2/105/29 27/106/29 28/107/29 6/108/29
f 6/109/30 28/110/30 29/111/30 16/112/30
f 16/113/31 29/114/31 30/115/31 19/116/31
f 19/117/32 30/118/32 31/119/32 5/120/32
f 5/121/33 31/122/33 32/123/33 3/124/33
f 3/125/34 32/126/34 25/127/34 24/128/34
o antena
v 0.32499999999999996 0.8125 0
v 0.3477044540001675 0.8125 0.031249999999999997
v 0.3477044540001675 1.0131944444444443 0.024999999999999994
v 0.36173657826827954 0.8125 -0.01193643785156578
v 0.36173657826827954 1.0131944444444443 -0.010461012992192096
v 0.32499999999999996 0.8125 -0.038627124296868424
v 0.32499999999999996 1.0131944444444443 -0.032377124296868426
v 0.28826342173172037 0.8125 -0.01193643785156579
v 0.28826342173172037 1.0131944444444443 -0.010461012992192103
v 0.30229554599983244 0.8125 0.031249999999999993
v 0.30229554599983244 1.0131944444444443 0.024999999999999994
v 0.36173657826827954 1.0979166666666667 -0.010461012992192096
v 0.32499999999999996 1.0979166666666667 -0.032377124296868426
v 0.28826342173172037 1.0979166666666667 -0.010461012992192103
v 0.30229554599983244 1.0979166666666667 0.024999999999999994
v 0.3477044540001675 1.0979166666666667 0.024999999999999994
v 0.28826342173172037 1.2640625 -0.010461012992192103
v 0.32499999999999996 1.2640625 -0.032377124296868426
v 0.32499999999999996 1.165625 -0.032377124296868426
v 0.28826342173172037 1.165625 -0.010461012992192103
v 0.36173657826827954 1.2640625 -0.010461012992192096
v 0.36173657826827954 1.165625 -0.010461012992192096
v 0.3477044540001675 1.2640625 0.024999999999999994
v 0.3477044540001675 1.165625 0.024999999999999994
v 0.30229554599983244 1.2640625 0.024999999999999994
v 0.30229554599983244 1.165625 0.024999999999999994
v 0.32499999999999996 1.278125 -0.0006598300562505256
vt 0.015625564130312432 0.9772951759926843
vt 0.01562556413031243 0.9999999999999989
vt 0 0.9886476514379119
vt 0 0.875
vt 0.022706249999999997 0.875
vt 0.022706249999999997 1
vt 0 1
vt 0 0.98253125
vt 0.022706249999999997 0.98253125
vt 0.011353125 1
vt 0 0.9806875
vt 0.01836875 0.99403125
vt 0 1
vt 0 0.875
vt 0.022706249999999997 0.875
vt 0.022706249999999997 1
vt 0 1
vt 0 0.98253125
vt 0.022706249999999997 0.98253125
vt 0.011353125 1
vt 0 0.99403125
vt 0.01836875 0.9806875
vt 0.01836875 1
vt 0 0.875
vt 0.022706249999999997 0.875
vt 0.022706249999999997 1
vt 0 1
vt 0 0.98253125
vt 0.022706249999999997 0.98253125
vt 0.011353125 1
vt 0.013345436509390903 1
vt 0 0.9816313212892995
vt 0.019314164572277 0.9816313212892995
vt 0 0.875
vt 0.022706249999999997 0.875
vt 0.022706249999999997 1
vt 0 1
vt 0 0.98253125
vt 0.022706249999999997 0.98253125
vt 0.011353125 1
vt 0.022706249999999997 1
vt 0 1
vt 0.011353125 0.984375
vt 0 0.875
vt 0.022706249999999997 0.875
vt 0.022706249999999997 1
vt 0 1
vt 0 0.98253125
vt 0.022706249999999997 0.98253125
vt 0.011353125 1
vt 0.022706249999999997 1
vt 0 1
vt 0 0.96875
vt 0.022706249999999997 0.96875
vt 0.022706249999999997 1
vt 0 1
vt 0 0.96875
vt 0.022706249999999997 0.96875
vt 0.022706249999999997 1
vt 0 1
vt 0 0.96875
vt 0.022706249999999997 0.96875
vt 0.022706249999999997 1
vt 0 1
vt 0 0.96875
vt 0.022706249999999997 0.96875
vt 0.022706249999999997 1
vt 0 1
vt 0 0.96875
vt 0.022706249999999997 0.96875
vt 0.022706249999999997 1
vt 0 1
vt 0 0.9453125
vt 0.022706249999999997 0.9453125
vt 0.022706249999999997 1
vt 0 1
vt 0 0.9453125
vt 0.022706249999999997 0.9453125
vt 0.022706249999999997 1
vt 0 1
vt 0 0.9453125
vt 0.022706249999999997 0.9453125
vt 0.022706249999999997 1
vt 0 1
vt 0 0.9453125
vt 0.022706249999999997 0.9453125
vt 0.022706249999999997 1
vt 0 1
vt 0 0.9453125
vt 0.022706249999999997 0.9453125
vt 0.022706249999999997 0.96875
vt 0 0.96875
vt 0 0.950521875
vt 0.022706249999999997 0.950521875
vt 0.022706249999999997 0.96875
vt 0 0.96875
vt 0 0.950521875
vt 0.022706249999999997 0.950521875
vt 0.022706249999999997 0.96875
vt 0 0.96875
vt 0 0.950521875
vt 0.022706249999999997 0.950521875
vt 0.022706249999999997 0.96875
vt 0 0.96875
vt 0 0.950521875
vt 0.022706249999999997 0.950521875
vt 0.022706249999999997 0.96875
vt 0 0.96875
vt 0 0.950521875
vt 0.022706249999999997 0.950521875
vn 0 -1 0
vn 0.9510540621351786 -0.0022717628294136095 0.309016196970034
vn 0.3887725817098248 0.9083992966388144 0.153839518904555
vn 0 -1 0
vn 0.587598791888815 0.02518630859106649 -0.8087603536464684
vn 0.2350292432043209 0.8885680698583291 -0.3939645162537453
vn 0 -1 0
vn -0.5877748565395519 0.005947462458690468 -0.8090026858485772
vn -0.23502924320432086 0.8885680698583294 -0.3939645162537454
vn 0 -1 0
vn -0.95101248106932 0.0096229210317118 0.30900268646274576
vn -0.3887725817098248 0.9083992966388145 0.1538395189045548
vn 0 -1 0
vn -7.636752269154415e-17 0.031126778546313294 0.9995154444316151
vn 0 0.8769423368399483 0.48059560740573887
vn 0.5123311408033464 0 -0.8587879844077594
vn -0.5123311408033461 0 -0.8587879844077594
vn -0.9298472274688633 0 0.3679458296658194
vn 0 0 1
vn 0.9298472274688631 0 0.3679458296658198
vn 0.5123311408033464 0 -0.8587879844077593
vn -0.5123311408033461 0 -0.8587879844077593
vn -0.9298472274688634 0 0.3679458296658194
vn 0 0 1
vn 0.9298472274688632 0 0.3679458296658199
vn -0.5123311408033462 0 -0.8587879844077595
vn 0.5123311408033464 0 -0.8587879844077594
vn 0.9298472274688631 0 0.3679458296658198
vn 0 0 1
vn -0.9298472274688634 0 0.3679458296658194
usemtl none
f 36/129/35 34/130/35 33/131/35
f 34/132/36 36/133/36 37/134/36 35/135/36
f 55/136/37 53/137/37 59/138/37
f 38/139/38 36/140/38 33/141/38
f 36/142/39 38/143/39 39/144/39 37/145/39
f 53/146/40 50/147/40 59/148/40
f 40/149/41 38/150/41 33/151/41
f 38/152/42 40/153/42 41/154/42 39/155/42
f 50/156/43 49/157/43 59/158/43
f 42/159/44 40/160/44 33/161/44
f 40/162/45 42/163/45 43/164/45 41/165/45
f 49/166/46 57/167/46 59/168/46
f 34/169/47 42/170/47 33/171/47
f 42/172/48 34/173/48 35/174/48 43/175/48
f 57/176/49 55/177/49 59/178/49
f 45/179/50 44/180/50 37/181/50 39/182/50
f 46/183/51 45/184/51 39/185/51 41/186/51
f 47/187/52 46/188/52 41/189/52 43/190/52
f 48/191/53 47/192/53 43/193/53 35/194/53
f 44/195/54 48/196/54 35/197/54 37/198/54
f 50/199/55 53/200/55 54/201/55 51/202/55
f 49/203/56 50/204/56 51/205/56 52/206/56
f 57/207/57 49/208/57 52/209/57 58/210/57
f 55/211/58 57/212/58 58/213/58 56/214/58
f 53/215/59 55/216/59 56/217/59 54/218/59
f 52/219/60 51/220/60 45/221/60 46/222/60
f 51/223/61 54/224/61 44/225/61 45/226/61
f 54/227/62 56/228/62 48/229/62 44/230/62
f 56/231/63 58/232/63 47/233/63 48/234/63
f 58/235/64 52/236/64 46/237/64 47/238/64
o Tela
v 0.23437500000000033 0.7687500000000003 0.37812500000000004
v 0.23437500000000033 0.7687500000000003 0.06562499999999999
v 0.23437500000000033 0.5812500000000003 0.37812500000000004
v 0.23437500000000033 0.5812500000000003 0.06562499999999999
v 0.21875000000000006 0.7687500000000003 0.37812500000000004
v 0.21875000000000006 0.7687500000000003 0.06562499999999999
v 0.21875000000000006 0.5812500000000003 0.37812500000000004
v 0.21875000000000006 0.5812500000000003 0.06562499999999999
v 0.23437500000000033 0.7816941738241595 0.3910691738241593
v 0.23437500000000033 0.7816941738241595 0.05268082617584077
v 0.21562500000000007 0.7816941738241595 0.3910691738241593
v 0.21562500000000007 0.7816941738241595 0.05268082617584077
v 0.23437500000000033 0.568305826175841 0.05268082617584077
v 0.21562500000000007 0.568305826175841 0.05268082617584077
v 0.23437500000000033 0.568305826175841 0.3910691738241593
v 0.21562500000000007 0.568305826175841 0.3910691738241593
vt 0.03125 1
vt 0 1
vt 0 0.96875
vt 0.03125 0.96875
vt 0.03125 0.96875
vt 0.03125 1
vt 0 1
vt 0 0.96875
vt 0 0.96875
vt 0.03125 0.96875
vt 0.03125 1
vt 0 1
vt 0.03125 0.96875
vt 0.03125 1
vt 0 1
vt 0 0.96875
vt 0.03125 0.96875
vt 0.03125 1
vt 0 1
vt 0 0.96875
vt 0.03125 1
vt 0 1
vt 0 0.96875
vt 0.03125 0.96875
vt 0.20044375 0.9999999999999989
vt 0 0.9999999999999989
vt 0.022096875000000016 0.9779031249999989
vt 0.17834687500000002 0.9779031249999989
vt 0.20044375 0.9999999999999989
vt 0 0.9999999999999989
vt 0.022096874999999988 0.9779031249999989
vt 0.178346875 0.9779031249999989
vt 0.022096875000000002 0.86205625
vt 0.022096875000000002 1
vt 0 0.9779031250000001
vt 0 0.8841531250000001
vt 4.371503159461554e-16 1
vt 4.371503159461554e-16 0.86205625
vt 0.02209687500000044 0.8841531250000001
vt 0.02209687500000044 0.9779031250000001
vt 0 0.977903125
vt 0.20044375 0.977903125
vt 0.17834687500000002 1
vt 0.022096875000000016 1
vt 0 0.977903125
vt 0.20044375 0.977903125
vt 0.178346875 1
vt 0.022096874999999988 1
vt 1.1379786002407855e-15 1
vt 1.1379786002407855e-15 0.86205625
vt 0.022096875000001154 0.8841531250000001
vt 0.022096875000001154 0.9779031250000001
vt 0.02209687500000143 0.86205625
vt 0.02209687500000143 1
vt 1.4155343563970746e-15 0.9779031250000001
vt 1.4155343563970746e-15 0.8841531250000001
vn 1 0 0
vn -1 0 0
vn 0 1 0
vn 0 -1 0
vn 0 0 1
vn 0 0 -1
vn 1 0 0
vn -0.9720728853909808 -0.23467915435260406 0
vn 1 0 0
vn -0.9720728853909806 0 0.23467915435260447
vn 1 0 0
vn -0.9720728853909808 0.23467915435260406 0
vn 1 0 0
vn -0.9720728853909807 0 -0.23467915435260397
usemtl none
f 61/239/65 60/240/65 62/241/65 63/242/65
f 66/243/66 64/244/66 65/245/66 67/246/66
f 70/247/67 68/248/67 69/249/67 71/250/67
f 72/251/68 74/252/68 75/253/68 73/254/68
f 74/255/69 68/256/69 70/257/69 75/258/69
f 71/259/70 69/260/70 72/261/70 73/262/70
f 69/263/71 68/264/71 60/265/71 61/266/71
f 70/267/72 71/268/72 65/269/72 64/270/72
f 72/271/73 69/272/73 61/273/73 63/274/73
f 71/275/74 73/276/74 67/277/74 65/278/74
f 74/279/75 72/280/75 63/281/75 62/282/75
f 73/283/76 75/284/76 66/285/76 67/286/76
f 68/287/77 74/288/77 62/289/77 60/290/77
f 75/291/78 70/292/78 64/293/78 66/294/78
o Dpad
v 0.234375 0.459375 0.3749999999999999
v 0.234375 0.459375 0.33124999999999993
v 0.234375 0.415625 0.3749999999999999
v 0.234375 0.415625 0.33124999999999993
v 0.21875 0.459375 0.3749999999999999
v 0.21875 0.459375 0.33124999999999993
v 0.21875 0.415625 0.3749999999999999
v 0.21875 0.415625 0.33124999999999993
v 0.234375 0.459375 0.4218749999999999
v 0.21875 0.459375 0.4218749999999999
v 0.234375 0.415625 0.4218749999999999
v 0.21875 0.415625 0.4218749999999999
v 0.234375 0.503125 0.3749999999999999
v 0.234375 0.503125 0.33124999999999993
v 0.21875 0.503125 0.3749999999999999
v 0.21875 0.503125 0.33124999999999993
v 0.234375 0.459375 0.28437499999999993
v 0.234375 0.415625 0.28437499999999993
v 0.21875 0.459375 0.28437499999999993
v 0.21875 0.415625 0.28437499999999993
v 0.234375 0.371875 0.3749999999999999
v 0.21875 0.371875 0.3749999999999999
v 0.234375 0.371875 0.33124999999999993
v 0.21875 0.371875 0.33124999999999993
vt 0.03125 1
vt 0 1
vt 0 0.96875
vt 0.03125 0.96875
vt 0.03125 0.96875
vt 0.03125 1
vt 0 1
vt 0 0.96875
vt 0 0.96875
vt 0.03125 0.96875
vt 0.03125 1
vt 0 1
vt 0.03125 0.96875
vt 0.03125 1
vt 0 1
vt 0 0.96875
vt 0.03125 0.96875
vt 0.03125 1
vt 0 1
vt 0 0.96875
vt 0.03125 1
vt 0 1
vt 0 0.96875
vt 0.03125 0.96875
vt 7.077671781985373e-16 0.9999999999999993
vt 7.077671781985373e-16 0.9781249999999992
vt 0.03125000000000071 0.9781249999999992
vt 0.03125000000000071 0.9999999999999993
vt 0 0.96875
vt 0.0078125 0.96875
vt 0.0078125 1
vt 0 1
vt 0.03125 0.9781249999999992
vt 0.03125 0.9999999999999993
vt 0 0.9999999999999993
vt 0 0.9781249999999992
vt 0.0078125 0.9999999999999993
vt 0 0.9999999999999993
vt 0 0.9687499999999993
vt 0.0078125 0.9687499999999993
vt 0.0078125 0.9999999999999993
vt 0 0.9999999999999993
vt 0 0.9687499999999993
vt 0.0078125 0.9687499999999993
vt 0.05312500000000071 0.9999999999999993
vt 0.03125000000000071 0.9999999999999993
vt 0.03125000000000071 0.9687499999999993
vt 0.05312500000000071 0.9687499999999993
vt 0.0078125 1
vt 0 1
vt 0 0.96875
vt 0.0078125 0.96875
vt 0.02187500000000071 0.9999999999999993
vt 7.112366251504909e-16 0.9999999999999993
vt 7.112366251504909e-16 0.9687499999999993
vt 0.02187500000000071 0.9687499999999993
vt 0.0078125 0.9999999999999993
vt 0 0.9999999999999993
vt 0 0.9687499999999993
vt 0.0078125 0.9687499999999993
vt 0.03125 0.9781249999999992
vt 0.03125 0.9999999999999993
vt 0 0.9999999999999993
vt 0 0.9781249999999992
vt 0 0.96875
vt 0.0078125 0.96875
vt 0.0078125 1
vt 0 1
vt 7.077671781985373e-16 0.9999999999999993
vt 7.077671781985373e-16 0.9781249999999992
vt 0.03125000000000071 0.9781249999999992
vt 0.03125000000000071 0.9999999999999993
vt 0.03125000000000071 0.96875
vt 0.05312500000000071 0.96875
vt 0.05312500000000071 1
vt 0.03125000000000071 1
vt 0 0.96875
vt 0.0078125 0.96875
vt 0.0078125 1
vt 0 1
vt 7.112366251504909e-16 0.96875
vt 0.02187500000000071 0.96875
vt 0.02187500000000071 1
vt 7.112366251504909e-16 1
vt 0 0.96875
vt 0.0078125 0.96875
vt 0.0078125 1
vt 0 1
vn 1 0 0
vn -1 0 0
vn 0 1 0
vn 0 -1 0
vn 0 0 1
vn 0 0 -1
vn 1 0 0
vn 0 1 0
vn -1 0 0
vn 0 -1 0
vn 0 0 1
vn 1 0 0
vn 0 0 -1
vn -1 0 0
vn 0 1 0
vn 1 0 0
vn 0 -1 0
vn -1 0 0
vn 1 0 0
vn 0 0 1
vn -1 0 0
vn 0 0 -1
usemtl none
f 77/295/79 76/296/79 78/297/79 79/298/79
f 82/299/80 80/300/80 81/301/80 83/302/80
f 90/303/81 88/304/81 89/305/81 91/306/81
f 98/307/82 96/308/82 97/309/82 99/310/82
f 86/311/83 84/312/83 85/313/83 87/314/83
f 94/315/84 92/316/84 93/317/84 95/318/84
f 84/319/85 86/320/85 78/321/85 76/322/85
f 85/323/86 84/324/86 76/325/86 80/326/86
f 87/327/87 85/328/87 80/329/87 82/330/87
f 86/331/88 87/332/88 82/333/88 78/334/88
f 88/335/89 90/336/89 80/337/89 76/338/89
f 89/339/90 88/340/90 76/341/90 77/342/90
f 91/343/91 89/344/91 77/345/91 81/346/91
f 90/347/92 91/348/92 81/349/92 80/350/92
f 92/351/93 94/352/93 81/353/93 77/354/93
f 93/355/94 92/356/94 77/357/94 79/358/94
f 95/359/95 93/360/95 79/361/95 83/362/95
f 94/363/96 95/364/96 83/365/96 81/366/96
f 96/367/97 98/368/97 79/369/97 78/370/97
f 97/371/98 96/372/98 78/373/98 82/374/98
f 99/375/99 97/376/99 82/377/99 83/378/99
f 98/379/100 99/380/100 83/381/100 79/382/100
o B. desliga
v 0.31128079771240413 0.625 -0.052173145794472506
v 0.30720185420552754 0.625 -0.08315579771240408
v 0.31128079771240413 0.5625 -0.052173145794472506
v 0.30720185420552754 0.5625 -0.08315579771240408
v 0.2802981457944726 0.625 -0.048094202287595894
v 0.276219202287596 0.625 -0.07907685420552747
v 0.2802981457944726 0.5625 -0.048094202287595894
v 0.276219202287596 0.5625 -0.07907685420552747
vt 0.015625 1
vt 0 1
vt 0 0.96875
vt 0.015625 0.96875
vt 0.015625 0.96875
vt 0.015625 1
vt 0 1
vt 0 0.96875
vt 0 0.984375
vt 0.015625 0.984375
vt 0.015625 1
vt 0 1
vt 0.015625 0.984375
vt 0.015625 1
vt 0 1
vt 0 0.984375
vt 0.015625 0.96875
vt 0.015625 1
vt 0 1
vt 0 0.96875
vt 0.015625 1
vt 0 1
vt 0 0.96875
vt 0.015625 0.96875
vn 0.9914448613738104 0 -0.13052619222005157
vn -0.9914448613738104 0 0.13052619222005157
vn 0 1 0
vn 0 -1 0
vn 0.13052619222005157 0 0.9914448613738104
vn -0.13052619222005157 0 -0.9914448613738104
usemtl none
f 101/383/101 100/384/101 102/385/101 103/386/101
f 106/387/102 104/388/102 105/389/102 107/390/102
f 104/391/103 100/392/103 101/393/103 105/394/103
f 103/395/104 102/396/104 106/397/104 107/398/104
f 102/399/105 100/400/105 104/401/105 106/402/105
f 105/403/106 101/404/106 103/405/106 107/406/106
o botão central
v 0.23437500000000008 0.28125 0.13749999999999998
v 0.20312500000000008 0.28124999999999994 0.13749999999999998
v 0.23437500000000008 0.28794872981077807 0.16249999999999998
v 0.20312500000000008 0.287948729810778 0.16249999999999998
v 0.23437500000000006 0.29955127018922195 0.1558012701892219
v 0.20312500000000006 0.2995512701892219 0.1558012701892219
v 0.23437500000000006 0.30625 0.14419872981077805
v 0.20312500000000006 0.30624999999999997 0.14419872981077805
v 0.23437500000000006 0.30625 0.1308012701892219
v 0.20312500000000006 0.30624999999999997 0.1308012701892219
v 0.23437500000000006 0.29955127018922195 0.11919872981077806
v 0.20312500000000006 0.2995512701892219 0.11919872981077806
v 0.23437500000000008 0.28794872981077807 0.11249999999999999
v 0.20312500000000008 0.287948729810778 0.11249999999999999
v 0.23437500000000008 0.27455127018922193 0.11249999999999999
v 0.20312500000000008 0.2745512701892219 0.11249999999999999
v 0.2343750000000001 0.2629487298107781 0.11919872981077805
v 0.2031250000000001 0.26294872981077805 0.11919872981077805
v 0.2343750000000001 0.25625 0.1308012701892219
v 0.2031250000000001 0.25625 0.1308012701892219
v 0.2343750000000001 0.25625 0.14419872981077803
v 0.2031250000000001 0.25625 0.14419872981077803
v 0.2343750000000001 0.26294872981077805 0.1558012701892219
v 0.2031250000000001 0.262948729810778 0.1558012701892219
v 0.23437500000000008 0.27455127018922193 0.16249999999999998
v 0.20312500000000008 0.2745512701892219 0.16249999999999998
vt 0.016175067619642276 0.9919124661901788
vt 0.014009553102258472 1
vt 0 0.9919124661901788
vt 4.544975507059235e-16 0.96875
vt 0.008375000000000455 0.96875
vt 0.008375000000000455 1
vt 4.544975507059235e-16 1
vt 3.469446951953614e-18 0.9838236041946916
vt 0.008086869771514339 0.9859915971717483
vt 0 1
vt 0.016176395805308427 0.9919131302284857
vt 0.01400840282825161 1
vt 0 0.9919131302284857
vt 4.544975507059235e-16 0.96875
vt 0.008375000000000455 0.96875
vt 0.008375000000000455 1
vt 4.544975507059235e-16 1
vt 1.734723475976807e-18 0.9838249323803577
vt 0.008087533809821138 0.9859904468977415
vt 0 1
vt 0.015625 0.9916249999999995
vt 0.015625 0.9999999999999996
vt 0 0.9958124999999995
vt 4.544975507059235e-16 0.96875
vt 0.008375000000000455 0.96875
vt 0.008375000000000455 1
vt 4.544975507059235e-16 1
vt 0.015625 0.9916249999999995
vt 0.015625 0.9999999999999996
vt 0 0.9958124999999995
vt 1.734723475976807e-18 0.9838249323803577
vt 0.008087533809821138 0.9859904468977415
vt 0 1
vt 4.544975507059235e-16 0.96875
vt 0.008375000000000455 0.96875
vt 0.008375000000000455 1
vt 4.544975507059235e-16 1
vt 0.016176395805308427 0.9919131302284857
vt 0.01400840282825161 1
vt 0 0.9919131302284857
vt 3.469446951953614e-18 0.9838236041946916
vt 0.008086869771514339 0.9859915971717483
vt 0 1
vt 4.544975507059235e-16 0.96875
vt 0.008375000000000455 0.96875
vt 0.008375000000000455 1
vt 4.544975507059235e-16 1
vt 0.016175067619642276 0.9919124661901788
vt 0.014009553102258472 1
vt 0 0.9919124661901788
vt 4.544975507059235e-16 0.984375
vt 0.008375000000000455 0.984375
vt 0.004187500000000455 1
vt 4.544975507059235e-16 0.96875
vt 0.008375000000000455 0.96875
vt 0.008375000000000455 1
vt 4.544975507059235e-16 1
vt 0.008375000000000455 1
vt 4.544975507059235e-16 1
vt 0.004187500000000455 0.984375
vt 0 1
vt 0.002165514517383803 0.9919124661901788
vt 0.016175067619642276 1
vt 4.544975507059235e-16 0.96875
vt 0.008375000000000455 0.96875
vt 0.008375000000000455 1
vt 4.544975507059235e-16 1
vt 0.008086869771514335 1
vt 0 0.9978320070229432
vt 0.008086869771514339 0.9838236041946916
vt 0 1
vt 0.002167992977056818 0.9919131302284857
vt 0.016176395805308427 1
vt 4.544975507059235e-16 0.96875
vt 0.008375000000000455 0.96875
vt 0.008375000000000455 1
vt 4.544975507059235e-16 1
vt 0.008087533809821136 1
vt 0 0.9978344854826162
vt 0.008087533809821138 0.9838249323803577
vt 0 0.9999999999999996
vt 0 0.9916249999999995
vt 0.015625 0.9958124999999995
vt 4.544975507059235e-16 0.96875
vt 0.008375000000000455 0.96875
vt 0.008375000000000455 1
vt 4.544975507059235e-16 1
vt 0 0.9999999999999996
vt 0 0.9916249999999995
vt 0.015625 0.9958124999999995
vt 0.008087533809821136 1
vt 0 0.9978344854826162
vt 0.008087533809821138 0.9838249323803577
vt 4.544975507059235e-16 0.96875
vt 0.008375000000000455 0.96875
vt 0.008375000000000455 1
vt 4.544975507059235e-16 1
vt 0 1
vt 0.002167992977056818 0.9919131302284857
vt 0.016176395805308427 1
vt 0.008086869771514335 1
vt 0 0.9978320070229432
vt 0.008086869771514339 0.9838236041946916
vt 4.544975507059235e-16 0.96875
vt 0.008375000000000455 0.96875
vt 0.008375000000000455 1
vt 4.544975507059235e-16 1
vt 0 1
vt 0.002165514517383803 0.9919124661901788
vt 0.016175067619642276 1
vt 0.008375000000000455 1
vt 4.544975507059235e-16 1
vt 0.004187500000000455 0.984375
vt 4.544975507059235e-16 0.96875
vt 0.008375000000000455 0.96875
vt 0.008375000000000455 1
vt 4.544975507059235e-16 1
vt 4.544975507059235e-16 0.984375
vt 0.008375000000000455 0.984375
vt 0.004187500000000455 1
vn 1 1.3322676295501878e-15 0
vn -6.661338147750941e-16 0.5000000000000001 0.8660254037844386
vn -1 -1.3322676295501878e-15 0
vn 1 1.3322676295501878e-15 0
vn -1.1537776118301386e-15 0.8660254037844388 0.5000000000000001
vn -1 -1.3322676295501878e-15 0
vn 1 1.3322676295501878e-15 0
vn -1.3322676295501878e-15 1 0
vn -1 -1.3322676295501878e-15 0
vn 1 1.3322676295501878e-15 0
vn -1.1537776118301384e-15 0.8660254037844387 -0.4999999999999999
vn -1 -1.3322676295501878e-15 0
vn 1 1.3322676295501878e-15 0
vn -6.661338147750937e-16 0.4999999999999999 -0.8660254037844387
vn -1 -1.3322676295501878e-15 0
vn 1 1.3322676295501878e-15 0
vn -6.900161668100609e-31 5.179260919542347e-16 -1
vn -1 -1.3322676295501878e-15 0
vn 1 1.3322676295501878e-15 0
vn 6.661338147750937e-16 -0.49999999999999983 -0.8660254037844387
vn -1 -1.3322676295501878e-15 0
vn 1 1.3322676295501878e-15 0
vn 1.1537776118301384e-15 -0.8660254037844387 -0.49999999999999994
vn -1 -1.3322676295501878e-15 0
vn 1 1.3322676295501878e-15 0
vn 1.3322676295501878e-15 -1 0
vn -1 -1.3322676295501878e-15 0
vn 1 1.3322676295501878e-15 0
vn 1.153777611830139e-15 -0.8660254037844392 0.49999999999999906
vn -1 -1.3322676295501878e-15 0
vn 1 1.3322676295501878e-15 0
vn 6.661338147750941e-16 -0.5000000000000001 0.8660254037844388
vn -1 -1.3322676295501878e-15 0
vn 1 1.3322676295501878e-15 0
vn 0 0 1
vn -1 -1.3322676295501878e-15 0
usemtl none
f 112/407/107 110/408/107 108/409/107
f 110/410/108 112/411/108 113/412/108 111/413/108
f 111/414/109 113/415/109 109/416/109
f 114/417/110 112/418/110 108/419/110
f 112/420/111 114/421/111 115/422/111 113/423/111
f 113/424/112 115/425/112 109/426/112
f 116/427/113 114/428/113 108/429/113
f 114/430/114 116/431/114 117/432/114 115/433/114
f 115/434/115 117/435/115 109/436/115
f 118/437/116 116/438/116 108/439/116
f 116/440/117 118/441/117 119/442/117 117/443/117
f 117/444/118 119/445/118 109/446/118
f 120/447/119 118/448/119 108/449/119
f 118/450/120 120/451/120 121/452/120 119/453/120
f 119/454/121 121/455/121 109/456/121
f 122/457/122 120/458/122 108/459/122
f 120/460/123 122/461/123 123/462/123 121/463/123
f 121/464/124 123/465/124 109/466/124
f 124/467/125 122/468/125 108/469/125
f 122/470/126 124/471/126 125/472/126 123/473/126
f 123/474/127 125/475/127 109/476/127
f 126/477/128 124/478/128 108/479/128
f 124/480/129 126/481/129 127/482/129 125/483/129
f 125/484/130 127/485/130 109/486/130
f 128/487/131 126/488/131 108/489/131
f 126/490/132 128/491/132 129/492/132 127/493/132
f 127/494/133 129/495/133 109/496/133
f 130/497/134 128/498/134 108/499/134
f 128/500/135 130/501/135 131/502/135 129/503/135
f 129/504/136 131/505/136 109/506/136
f 132/507/137 130/508/137 108/509/137
f 130/510/138 132/511/138 133/512/138 131/513/138
f 131/514/139 133/515/139 109/516/139
f 110/517/140 132/518/140 108/519/140
f 132/520/141 110/521/141 111/522/141 133/523/141
f 133/524/142 111/525/142 109/526/142
o radial meio
v 0.23437500000000008 0.28125 0.13749999999999998
v 0.21875000000000008 0.28125 0.13749999999999998
v 0.23437500000000006 0.3030208718850287 0.21874999999999997
v 0.21875000000000006 0.3030208718850287 0.21874999999999997
v 0.23437500000000003 0.34072912811497125 0.19697912811497126
v 0.21875000000000003 0.34072912811497125 0.19697912811497126
v 0.234375 0.3625 0.1592708718850287
v 0.21875 0.3625 0.1592708718850287
v 0.234375 0.3625 0.11572912811497126
v 0.21875 0.3625 0.11572912811497126
v 0.23437500000000003 0.3407291281149713 0.07802087188502871
v 0.21875000000000003 0.34072912811497125 0.07802087188502871
v 0.23437500000000006 0.30302087188502874 0.056249999999999994
v 0.21875000000000006 0.30302087188502874 0.056249999999999994
v 0.2343750000000002 0.2 0.15927087188502867
v 0.2187500000000002 0.19999999999999998 0.15927087188502867
v 0.23437500000000017 0.2217708718850287 0.19697912811497126
v 0.21875000000000017 0.2217708718850287 0.19697912811497126
v 0.2343750000000001 0.25947912811497126 0.21874999999999997
v 0.2187500000000001 0.25947912811497126 0.21874999999999997
v 0.21875000000000008 0.28125 0.05624999999999998
v 0.2187500000000002 0.19999999999999998 0.13749999999999996
v 0.23437500000000008 0.28125 0.05624999999999998
v 0.2343750000000002 0.2 0.13749999999999996
vt 0.04852962227630925 0.9757351888618454
vt 0.04202644959808421 1
vt 0 0.9757351888618454
vt 0 0.96875
vt 0.025118749999999995 0.96875
vt 0.025118749999999995 1
vt 0 1
vt 6.938893903907228e-18 0.951471621442803
vt 0.024265433013648162 0.9579724733187711
vt 0 1
vt 0.04852837855719708 0.9757345669863519
vt 0.042027526681228895 1
vt 0 0.9757345669863519
vt 0 0.96875
vt 0.025118749999999995 0.96875
vt 0.025118749999999995 1
vt 0 1
vt 3.469446951953614e-18 0.9514703777236908
vt 0.024264811138154624 0.9579735504019158
vt 0 1
vt 0.046875 0.97488125
vt 0.046875 1
vt 0 0.987440625
vt 0 0.96875
vt 0.025118749999999995 0.96875
vt 0.025118749999999995 1
vt 0 1
vt 0.046875 0.97488125
vt 0.046875 1
vt 0 0.987440625
vt 3.469446951953614e-18 0.9514703777236908
vt 0.024264811138154624 0.9579735504019158
vt 0 1
vt 0 0.96875
vt 0.025118749999999995 0.96875
vt 0.025118749999999995 1
vt 0 1
vt 0.04852837855719708 0.9757345669863519
vt 0.042027526681228895 1
vt 0 0.9757345669863519
vt 6.938893903907228e-18 0.951471621442803
vt 0.024265433013648162 0.9579724733187711
vt 0 1
vt 0 0.96875
vt 0.025118749999999995 0.96875
vt 0.025118749999999995 1
vt 0 1
vt 0.04852962227630925 0.9757351888618454
vt 0.04202644959808421 1
vt 0 0.9757351888618454
vt 0.046875 0.987440625
vt 0 0.987440625
vt 0 0.97488125
vt 0.02426481113815462 1
vt 0 0.9934968273217749
vt 0.024264811138154624 0.9514703777236908
vt 0 0.96875
vt 0.025118749999999995 0.96875
vt 0.025118749999999995 1
vt 0 1
vt 0 1
vt 0.00650085187596821 0.9757345669863519
vt 0.04852837855719708 1
vt 0.024265433013648155 1
vt 0 0.9934991481240318
vt 0.024265433013648162 0.951471621442803
vt 0 0.96875
vt 0.025118749999999995 0.96875
vt 0.025118749999999995 1
vt 0 1
vt 0 1
vt 0.00650317267822504 0.9757351888618454
vt 0.04852962227630925 1
vt 0.025118749999999995 1
vt 0 1
vt 0.012559375 0.953125
vt 0 0.96875
vt 0.025118749999999995 0.96875
vt 0.025118749999999995 1
vt 0 1
vt 0 0.953125
vt 0.025118749999999995 0.953125
vt 0.012559375 1
vt 0.025118749999999995 1
vt 0.012559374999999998 1
vt 0.012559375 0.953125
vt 0.012559375 1
vt 0.012559374999999998 0.953125
vt 0.025118749999999995 0.953125
vt 0 1
vt 0 0.987440625
vt 0.046875 0.987440625
vt 0 1
vt 0 0.9921875
vt 0.046875 0.9921875
vt 0.046875 1
vt 0 1
vt 0 0.9921875
vt 0.046875 0.9921875
vt 0.046875 1
vt 0.012559375 0.9921875
vt 0.012559375 1
vt 0 1
vt 0 0.9921875
vt 0 1
vt 0 0.9921875
vt 0.012559375 0.9921875
vt 0.012559375 1
vn 1 1.3322676295501878e-15 0
vn -6.661338147750935e-16 0.49999999999999967 0.8660254037844389
vn -1 -1.3322676295501878e-15 0
vn 1 1.3322676295501878e-15 0
vn -1.1537776118301386e-15 0.8660254037844388 0.5000000000000001
vn -1 -1.3322676295501878e-15 0
vn 1 1.3322676295501878e-15 0
vn -1.3322676295501878e-15 1 0
vn -1 -1.3322676295501878e-15 0
vn 1 1.3322676295501878e-15 0
vn -1.1537776118301384e-15 0.8660254037844387 -0.5000000000000001
vn -1 -1.3322676295501878e-15 0
vn 1 1.3322676295501878e-15 0
vn -6.661338147750941e-16 0.5000000000000001 -0.8660254037844387
vn -1 -1.3322676295501878e-15 0
vn -1 -1.3322676295501878e-15 0
vn 1 1.3322676295501878e-15 0
vn 1.1537776118301388e-15 -0.8660254037844389 0.4999999999999995
vn -1 -1.3322676295501878e-15 0
vn 1 1.3322676295501878e-15 0
vn 6.661338147750941e-16 -0.5000000000000001 0.8660254037844388
vn -1 -1.3322676295501878e-15 0
vn 1 1.3322676295501878e-15 0
vn 0 0 1
vn -1 -1.3322676295501878e-15 0
vn -1 -1.3322676295501878e-15 0
vn 1 1.3322676295501878e-15 0
vn 1 1.3322676295501878e-15 0
vn 1.3322676295501878e-15 -1 -3.4160708450004814e-16
vn -2.27556030352215e-31 1.7080354225002412e-16 -1
vn -8.49250666843152e-31 6.374474977898274e-16 -1
vn 1.3322676295501878e-15 -1 0
usemtl none
f 138/527/143 136/528/143 134/529/143
f 136/530/144 138/531/144 139/532/144 137/533/144
f 137/534/145 139/535/145 135/536/145
f 140/537/146 138/538/146 134/539/146
f 138/540/147 140/541/147 141/542/147 139/543/147
f 139/544/148 141/545/148 135/546/148
f 142/547/149 140/548/149 134/549/149
f 140/550/150 142/551/150 143/552/150 141/553/150
f 141/554/151 143/555/151 135/556/151
f 144/557/152 142/558/152 134/559/152
f 142/560/153 144/561/153 145/562/153 143/563/153
f 143/564/154 145/565/154 135/566/154
f 146/567/155 144/568/155 134/569/155
f 144/570/156 146/571/156 147/572/156 145/573/156
f 145/574/157 147/575/157 135/576/157
f 135/577/158 155/578/158 149/579/158
f 150/580/159 148/581/159 134/582/159
f 148/583/160 150/584/160 151/585/160 149/586/160
f 149/587/161 151/588/161 135/589/161
f 152/590/162 150/591/162 134/592/162
f 150/593/163 152/594/163 153/595/163 151/596/163
f 151/597/164 153/598/164 135/599/164
f 136/600/165 152/601/165 134/602/165
f 152/603/166 136/604/166 137/605/166 153/606/166
f 153/607/167 137/608/167 135/609/167
f 147/610/168 154/611/168 135/612/168
f 134/613/169 156/614/169 146/615/169
f 148/616/170 157/617/170 134/618/170
f 154/619/171 156/620/171 134/621/171 135/622/171
f 135/623/172 134/624/172 157/625/172 155/626/172
f 156/627/173 154/628/173 147/629/173 146/630/173
f 155/631/174 157/632/174 148/633/174 149/634/174
o radial externo
v 0.23437499999999986 0.45 0.09228357377724802
v 0.21874999999999986 0.45 0.09228357377724802
v 0.23437499999999997 0.3715778554442015 0.11329672407969099
v 0.21874999999999997 0.37157785544420147 0.11329672407969099
v 0.23437499999999992 0.40478357377724805 0.01396642622275196
v 0.21874999999999994 0.40478357377724805 0.01396642622275196
v 0.234375 0.3473745795238925 0.07137542047610748
v 0.21875 0.3473745795238925 0.07137542047610748
v 0.23437500000000003 0.326466426222752 -0.03125
v 0.21875000000000003 0.326466426222752 -0.03125
v 0.23437500000000006 0.305453275920309 0.047172144555798504
v 0.21875000000000006 0.305453275920309 0.047172144555798504
v 0.23437500000000017 0.23603357377724812 -0.03125000000000003
v 0.21875000000000017 0.2360335737772481 -0.03125000000000003
v 0.23437500000000014 0.2570467240796911 0.04717214455579849
v 0.21875000000000014 0.25704672407969104 0.04717214455579849
v 0.23437500000000025 0.157716426222752 0.013966426222751932
v 0.21875000000000025 0.15771642622275195 0.013966426222751932
v 0.2343750000000002 0.2151254204761075 0.07137542047610745
v 0.2187500000000002 0.2151254204761075 0.07137542047610745
v 0.23437500000000033 0.11249999999999999 0.09228357377724805
v 0.21875000000000033 0.11249999999999999 0.09228357377724805
v 0.23437500000000022 0.19092214455579853 0.11329672407969102
v 0.21875000000000022 0.19092214455579848 0.11329672407969102
v 0.23437500000000033 0.11249999999999999 0.18271642622275186
v 0.21875000000000033 0.11249999999999999 0.18271642622275186
v 0.23437500000000022 0.19092214455579853 0.16170327592030892
v 0.21875000000000022 0.19092214455579848 0.16170327592030892
v 0.23437500000000025 0.15771642622275195 0.261033573777248
v 0.21875000000000025 0.15771642622275195 0.261033573777248
v 0.2343750000000002 0.2151254204761075 0.20362457952389246
v 0.2187500000000002 0.21512542047610744 0.20362457952389246
v 0.23437500000000017 0.23603357377724807 0.30625
v 0.21875000000000017 0.23603357377724804 0.30625
v 0.23437500000000014 0.25704672407969104 0.22782785544420148
v 0.21875000000000014 0.25704672407969104 0.22782785544420148
v 0.21875000000000008 0.28125 0.30625
v 0.21875000000000008 0.28125 0.22782785544420148
v 0.23437500000000008 0.28125 0.22782785544420148
v 0.23437500000000008 0.28125 0.30625
v 0.21874999999999986 0.45 0.13749999999999998
v 0.21874999999999997 0.37157785544420147 0.13749999999999998
v 0.23437499999999997 0.3715778554442015 0.13749999999999998
v 0.23437499999999986 0.45 0.13749999999999998
vt 0.0502375 1
vt 0.02511875 1
vt 0.02511875 0.96875
vt 0.0502375 0.96875
vt 0 0.96875
vt 0.009259375 0.96875
vt 0.009259375 1
vt 0 1
vt 0.05919375 0.9497625
vt 0.05919375 0.97488125
vt 0 0.97488125
vt 0 0.965621875
vt 0 0.984140625
vt 0 0.97488125
vt 0.05919375 0.97488125
vt 0.05919375 1
vt 0 0.96875
vt 0.0502375 0.96875
vt 0.0502375 1
vt 0 1
vt 0.01851875 1
vt 0 1
vt 0 0.96875
vt 0.01851875 0.96875
vt 0.0343797196631202 1
vt 0.015861149749635386 1
vt 0 0.9408040538389588
vt 0.050242305365801584 0.9408071103148511
vt 0.05919498114311794 0.9497576945412285
vt 0.05919498114311793 1
vt 0 0.9841352491117206
vt 0.0000011265717602543246 0.965616679232503
vt 0 0.96875
vt 0.0502375 0.96875
vt 0.0502375 1
vt 0 1
vt 0.01851875 1
vt 0 1
vt 0 0.96875
vt 0.01851875 0.96875
vt 0.034381155616166184 1
vt 0.01586258570268137 1
vt 0 0.9408071103148511
vt 0.05024230536580159 0.9408040538389588
vt 0.059194981143117935 0.9497576945412285
vt 0.05919498114311795 1
vt 0.0000011265717602612635 0.9841410153087254
vt 0 0.9656224454295079
vt 0 0.96875
vt 0.0502375 0.96875
vt 0.0502375 1
vt 0 1
vt 0.01851875 1
vt 0 1
vt 0 0.96875
vt 0.01851875 0.96875
vt 0.034378124999999995 1
vt 0.015859375 1
vt 0 0.94080625
vt 0.0502375 0.94080625
vt 0.0502375 1
vt 0 1
vt 0.015859375 0.94080625
vt 0.034378124999999995 0.94080625
vt 0 0.96875
vt 0.0502375 0.96875
vt 0.0502375 1
vt 0 1
vt 0.01851875 1
vt 0 1
vt 0 0.96875
vt 0.01851875 0.96875
vt 0.05919594616104125 0.9656202803368799
vt 0.059195946161041235 0.9841388502503646
vt 0 1
vt 0.0000030564758923129487 0.9497576946341985
vt 0.05024230545877151 1
vt 0 1
vt 0.015864750888279405 0.9408050188568821
vt 0.03438332076749689 0.9408061454286423
vt 0 0.96875
vt 0.0502375 0.96875
vt 0.0502375 1
vt 0 1
vt 0.01851875 1
vt 0 1
vt 0 0.96875
vt 0.01851875 0.96875
vt 0.05919594616104123 0.9656188443838338
vt 0.05919594616104122 0.9841374142973186
vt 0.0000030564758922713153 1
vt 0 0.9497576946341985
vt 0.0502423054587715 1
vt 0 1
vt 0.01585898469127462 0.9408061454286423
vt 0.03437755457049211 0.9408050188568821
vt 0 0.96875
vt 0.0502375 0.96875
vt 0.0502375 1
vt 0 1
vt 0.01851875 1
vt 0 1
vt 0 0.96875
vt 0.01851875 0.96875
vt 0.05919375 0.965621875
vt 0.05919375 0.984140625
vt 0 1
vt 0 0.9497625
vt 0 1
vt 0 0.9497625
vt 0.05919375 0.965621875
vt 0.05919375 0.984140625
vt 0 0.96875
vt 0.0502375 0.96875
vt 0.0502375 1
vt 0 1
vt 0.01851875 1
vt 0 1
vt 0 0.96875
vt 0.01851875 0.96875
vt 0.01586258570268139 0.9408040538389588
vt 0.0343811556161662 0.9408040538389588
vt 0.050242305365801584 1
vt 0 0.9999969435241077
vt 1.3877787807814457e-17 1
vt 0 0.9497576945412285
vt 0.059194981143117956 0.9656224454295079
vt 0.0591938545713577 0.9841410153087253
vt 0 0.96875
vt 0.0502375 0.96875
vt 0.0502375 1
vt 0 1
vt 0.01851875 1
vt 0 1
vt 0 0.96875
vt 0.01851875 0.96875
vt 0.015861149749635345 0.9408040538389587
vt 0.03437971966312016 0.9408040538389587
vt 0.05024230536580159 0.9999969435241076
vt 0 1
vt 0 1
vt 2.7755575615628914e-17 0.9497576945412285
vt 0.05919385457135771 0.9656166792325032
vt 0.059194981143117956 0.9841352491117206
vt 0 0.94080625
vt 0.02511875 0.94080625
vt 0.025118749999999995 1
vt 0.015859375 1
vt 0.01851875 1
vt 0.009259375 1
vt 0.009259375 0.96875
vt 0.01851875 0.96875
vt 0.015859375 0.94080625
vt 0.025118749999999995 0.94080625
vt 0.02511875 1
vt 0 1
vt 0 0.96875
vt 0.02511875 0.96875
vt 0.02511875 1
vt 0 1
vt 0.0392125 1
vt 0 1
vt 0 0.9921875
vt 0.0392125 0.9921875
vt 0.039212500000000004 1
vt 0 1
vt 0 0.9921875
vt 0.039212500000000004 0.9921875
vn -1.3322676295501878e-15 1 0
vn 1.3322676295501878e-15 -1 0
vn 1 1.3322676295501878e-15 0
vn -1 -1.3322676295501878e-15 0
vn -1.1537776118301384e-15 0.8660254037844386 -0.5000000000000001
vn 1.1537776118301384e-15 -0.8660254037844387 0.5000000000000002
vn 1 1.3322676295501878e-15 0
vn -1 -1.3322676295501878e-15 0
vn -6.661338147750942e-16 0.5000000000000002 -0.8660254037844386
vn 6.661338147750943e-16 -0.5000000000000002 0.8660254037844387
vn 1 1.3322676295501878e-15 0
vn -1 -1.3322676295501878e-15 0
vn -4.08898469220777e-31 3.0691916560250954e-16 -1
vn 3.8195092943189983e-31 -2.866923439105531e-16 1
vn 1 1.3322676295501878e-15 0
vn -1 -1.3322676295501878e-15 0
vn 6.661338147750936e-16 -0.4999999999999998 -0.8660254037844388
vn -6.661338147750932e-16 0.49999999999999956 0.8660254037844392
vn 1 1.3322676295501878e-15 0
vn -1 -1.3322676295501878e-15 0
vn 1.1537776118301384e-15 -0.8660254037844386 -0.5000000000000001
vn -1.1537776118301384e-15 0.8660254037844387 0.49999999999999983
vn 1 1.3322676295501878e-15 0
vn -1 -1.3322676295501878e-15 0
vn 1.3322676295501878e-15 -1 0
vn -1.3322676295501878e-15 1 0
vn 1 1.3322676295501878e-15 0
vn -1 -1.3322676295501878e-15 0
vn 1.1537776118301386e-15 -0.8660254037844388 0.4999999999999998
vn -1.1537776118301388e-15 0.8660254037844389 -0.49999999999999956
vn 1 1.3322676295501878e-15 0
vn -1 -1.3322676295501878e-15 0
vn 6.661338147750941e-16 -0.5000000000000001 0.8660254037844386
vn -6.661338147750941e-16 0.5000000000000001 -0.8660254037844386
vn 1 1.3322676295501878e-15 0
vn -1 -1.3322676295501878e-15 0
vn -1 -1.3322676295501878e-15 0
vn 0 0 -1
vn 1 1.3322676295501878e-15 0
vn 0 0 1
vn 0 0 1
vn -1.3322676295501878e-15 1 -8.848130771239114e-17
usemtl none
f 159/635/175 198/636/175 201/637/175 158/638/175
f 160/639/176 200/640/176 199/641/176 161/642/176
f 158/643/177 201/644/177 200/645/177 160/646/177
f 161/647/178 199/648/178 198/649/178 159/650/178
f 158/651/179 162/652/179 163/653/179 159/654/179
f 161/655/180 165/656/180 164/657/180 160/658/180
f 160/659/181 164/660/181 162/661/181 158/662/181
f 159/663/182 163/664/182 165/665/182 161/666/182
f 162/667/183 166/668/183 167/669/183 163/670/183
f 165/671/184 169/672/184 168/673/184 164/674/184
f 164/675/185 168/676/185 166/677/185 162/678/185
f 163/679/186 167/680/186 169/681/186 165/682/186
f 166/683/187 170/684/187 171/685/187 167/686/187
f 169/687/188 173/688/188 172/689/188 168/690/188
f 168/691/189 172/692/189 170/693/189 166/694/189
f 167/695/190 171/696/190 173/697/190 169/698/190
f 170/699/191 174/700/191 175/701/191 171/702/191
f 173/703/192 177/704/192 176/705/192 172/706/192
f 172/707/193 176/708/193 174/709/193 170/710/193
f 171/711/194 175/712/194 177/713/194 173/714/194
f 174/715/195 178/716/195 179/717/195 175/718/195
f 177/719/196 181/720/196 180/721/196 176/722/196
f 176/723/197 180/724/197 178/725/197 174/726/197
f 175/727/198 179/728/198 181/729/198 177/730/198
f 178/731/199 182/732/199 183/733/199 179/734/199
f 181/735/200 185/736/200 184/737/200 180/738/200
f 180/739/201 184/740/201 182/741/201 178/742/201
f 179/743/202 183/744/202 185/745/202 181/746/202
f 182/747/203 186/748/203 187/749/203 183/750/203
f 185/751/204 189/752/204 188/753/204 184/754/204
f 184/755/205 188/756/205 186/757/205 182/758/205
f 183/759/206 187/760/206 189/761/206 185/762/206
f 186/763/207 190/764/207 191/765/207 187/766/207
f 189/767/208 193/768/208 192/769/208 188/770/208
f 188/771/209 192/772/209 190/773/209 186/774/209
f 187/775/210 191/776/210 193/777/210 189/778/210
f 191/779/211 194/780/211 195/781/211 193/782/211
f 193/783/212 195/784/212 196/785/212 192/786/212
f 192/787/213 196/788/213 197/789/213 190/790/213
f 190/791/214 197/792/214 194/793/214 191/794/214
f 198/795/215 199/796/215 200/797/215 201/798/215
f 195/799/216 194/800/216 197/801/216 196/802/216