# Blender 4.3.2
# www.blender.org
mtllib longerNecker.mtl
o Sphere
v 0.009151 12.643385 -0.936454
v 0.009151 11.897153 -1.012575
v 0.009151 11.150921 -0.936454
v -0.027247 11.053549 -0.177899
v 0.163603 13.989730 -0.154285
v 0.260091 13.392468 -0.583540
v 0.358982 12.644066 -0.865647
v 0.388007 11.897153 -0.936454
v 0.358982 11.151601 -0.865647
v 0.245167 10.634753 -0.581551
v 0.109728 11.030506 -0.148235
v 0.273192 14.063913 -0.070060
v 0.515331 13.544007 -0.350169
v 0.652964 12.753359 -0.588006
v 0.696865 11.971134 -0.667389
v 0.631263 11.260895 -0.586954
v 0.458414 10.888191 -0.339119
v 0.255892 11.428047 -0.066630
v 0.341868 14.141265 0.054199
v 0.647835 13.815975 -0.070698
v 0.850303 13.238344 -0.159899
v 0.927651 12.566577 -0.190402
v 0.836960 12.026877 -0.153781
v 0.636985 11.785742 -0.066205
v 0.340810 11.759139 0.054777
v 0.366840 14.188254 0.184309
v 0.688019 13.911296 0.186227
v 0.902624 13.502293 0.186227
v 0.977983 13.019841 0.186227
v 0.902624 12.537389 0.186227
v 0.688019 12.128386 0.186227
v 0.366840 11.855099 0.186227
v 0.338001 14.214456 0.303842
v 0.634732 13.911296 0.408487
v 0.833001 13.502293 0.476624
v 0.902624 13.019841 0.500550
v 0.833001 12.537389 0.476624
v 0.634732 12.128386 0.408487
v 0.338001 11.855099 0.306513
v 0.255876 14.236668 0.405178
v 0.482983 13.911296 0.596910
v 0.634732 13.502293 0.722811
v 0.688019 13.019841 0.767021
v 0.634732 12.537389 0.722811
v 0.482983 12.128386 0.596910
v 0.255876 11.855099 0.408487
v 0.132966 14.251509 0.472888
v 0.255875 13.911296 0.722811
v 0.338001 13.502293 0.887307
v 0.366840 13.019841 0.945071
v 0.338001 12.537389 0.887307
v 0.255875 12.128386 0.722811
v 0.132966 11.855099 0.476624
v -0.012017 14.256721 0.496665
v -0.012017 13.911296 0.767021
v -0.012017 13.502293 0.945071
v -0.012017 13.019841 1.007594
v -0.012017 12.537389 0.945071
v -0.012017 12.128386 0.767021
v -0.012017 11.855099 0.500550
v -0.012016 14.281001 0.186226
v -0.156999 14.251509 0.472888
v -0.279909 13.911296 0.722810
v -0.362035 13.502293 0.887307
v -0.390873 13.019841 0.945071
v -0.362035 12.537389 0.887307
v -0.279909 12.128386 0.722810
v -0.156999 11.855099 0.476624
v -0.279909 14.236668 0.405178
v -0.507017 13.911296 0.596910
v -0.658765 13.502293 0.722810
v -0.712053 13.019841 0.767021
v -0.658765 12.537389 0.722810
v -0.507017 12.128386 0.596910
v -0.279909 11.855099 0.408487
v -0.362034 14.214456 0.303842
v -0.658765 13.911296 0.408487
v -0.857034 13.502293 0.476623
v -0.926657 13.019841 0.500550
v -0.857034 12.537389 0.476623
v -0.658765 12.128386 0.408487
v -0.362034 11.855099 0.306513
v -0.390873 14.188254 0.184308
v -0.712052 13.911296 0.186226
v -0.926657 13.502293 0.186226
v -1.002016 13.019841 0.186226
v -0.926657 12.537389 0.186226
v -0.712052 12.128386 0.186226
v -0.390873 11.855099 0.186226
v -0.358845 14.141432 0.054640
v -0.649449 13.813820 -0.068698
v -0.848669 13.229065 -0.156901
v -0.898035 12.548883 -0.187201
v -0.831009 12.015721 -0.155215
v -0.661360 11.769600 -0.063995
v -0.360003 11.755565 0.055249
v -0.271186 14.064002 -0.065369
v -0.495853 13.563709 -0.360063
v -0.658931 12.753359 -0.588123
v -0.699223 11.971134 -0.667389
v -0.650914 11.260895 -0.587573
v -0.517953 10.925154 -0.341618
v -0.287556 11.386343 -0.061340
v -0.130195 14.008667 -0.165369
v -0.283785 13.392468 -0.583540
v -0.341053 12.644066 -0.865647
v -0.369705 11.897153 -0.936454
v -0.341053 11.151601 -0.865647
v -0.289693 10.634753 -0.582554
v -0.161998 11.103242 -0.156244
v 0.008224 14.001212 -0.187425
v -0.010386 13.349992 -0.667389
v -0.011105 10.592277 -0.667389
v -0.033162 10.333241 0.033036
v 0.055917 10.333754 0.054928
v 0.158190 10.332590 0.119726
v 0.213540 10.331272 0.209526
v 0.230683 10.329562 0.307771
v 0.212948 10.329773 0.391715
v 0.162103 10.329785 0.463359
v 0.082556 10.329799 0.513401
v -0.013888 10.498062 0.666893
v -0.013888 10.224405 0.304539
v -0.110333 10.329799 0.513401
v -0.189880 10.329785 0.463359
v -0.240725 10.329773 0.391715
v -0.257996 10.329526 0.309962
v -0.236923 10.331354 0.208496
v -0.185730 10.332673 0.115005
v -0.105560 10.332322 0.046238
v 0.365854 11.032533 0.246680
v -0.391859 11.032533 0.246680
v 0.131979 11.032533 0.576225
v -0.363021 11.032533 0.383182
v 0.339824 10.988339 0.097510
v 0.108741 10.645569 -0.132869
v 0.254905 10.832788 -0.040263
v -0.162984 10.679067 -0.141958
v -0.028234 10.656181 -0.166532
v -0.013003 11.032533 0.603377
v -0.360989 10.986693 0.098046
v -0.288542 10.812990 -0.034260
v -0.157985 11.032533 0.576225
v -0.280895 11.032533 0.498903
v 0.337015 11.032533 0.383182
v 0.254889 11.032533 0.498903
v -0.029119 10.503462 -0.103016
v 0.107856 10.504009 -0.069352
v 0.254020 10.502398 0.023253
v 0.338939 10.500345 0.161027
v 0.364968 10.498062 0.310197
v 0.336130 10.498062 0.446699
v 0.254004 10.498062 0.562420
v 0.131094 10.498062 0.639742
v -0.013888 10.329804 0.531463
v -0.158871 10.498062 0.639742
v -0.281781 10.498062 0.562419
v -0.363906 10.498062 0.446699
v -0.392745 10.498062 0.310197
v -0.361875 10.500431 0.161563
v -0.289428 10.502268 0.029257
v -0.163870 10.502279 -0.078441
v -0.038976 10.268044 0.185268
v -0.002093 10.268270 0.193695
v 0.051301 10.264282 0.227066
v 0.073642 10.263941 0.263354
v 0.080983 10.262478 0.304935
v 0.075681 10.261709 0.330487
v 0.059826 10.260082 0.353156
v 0.028612 10.258317 0.373045
v -0.013888 10.257566 0.381099
v -0.056388 10.258317 0.373045
v -0.087602 10.260082 0.353156
v -0.103454 10.261715 0.330491
v -0.107877 10.261645 0.309558
v -0.097489 10.264388 0.260592
v -0.069966 10.266497 0.210663
v -0.009798 8.660043 0.205494
v -0.009798 10.352221 0.205494
v 0.047474 8.660043 0.226550
v 0.047474 10.352221 0.226550
v 0.077948 8.660043 0.279865
v 0.077948 10.352221 0.279865
v 0.067365 8.660043 0.340494
v 0.067365 10.352221 0.340494
v 0.020676 8.660043 0.380066
v 0.020676 10.352221 0.380066
v -0.040272 8.660043 0.380066
v -0.040272 10.352221 0.380066
v -0.086961 8.660043 0.340494
v -0.086961 10.352221 0.340494
v -0.097545 8.660043 0.279865
v -0.097545 10.352221 0.279865
v -0.067071 8.660043 0.226550
v -0.067071 10.352221 0.226550
v -0.009798 6.861006 0.225900
v 0.034488 6.861006 0.242182
v 0.058053 6.861006 0.283409
v 0.049869 6.861006 0.330291
v 0.013766 6.861006 0.360890
v -0.033363 6.861006 0.360890
v -0.069465 6.861006 0.330291
v -0.077649 6.861006 0.283409
v -0.054085 6.861006 0.242182
v -0.009798 4.863298 0.242904
v 0.023668 4.863298 0.255207
v 0.041475 4.863298 0.286362
v 0.035291 4.863298 0.321789
v 0.008009 4.863298 0.344912
v -0.027605 4.863298 0.344912
v -0.054887 4.863298 0.321789
v -0.061072 4.863298 0.286362
v -0.043265 4.863298 0.255207
v -0.009797 2.783019 0.258953
v 0.013456 2.783019 0.267502
v 0.025829 2.783019 0.289148
v 0.021532 2.783019 0.313764
v 0.002575 2.783019 0.329831
v -0.022170 2.783019 0.329831
v -0.041126 2.783019 0.313764
v -0.045423 2.783019 0.289148
v -0.033051 2.783019 0.267502
v 0.060298 2.783626 0.217320
v 0.106045 2.688478 0.171110
v 0.106045 2.570868 0.171110
v 0.060298 2.475720 0.217320
v 0.090958 2.783626 0.292088
v 0.155655 2.688478 0.292088
v 0.155655 2.570868 0.292088
v 0.090958 2.475720 0.292088
v 0.060298 2.783626 0.366857
v 0.106045 2.688478 0.413066
v 0.106045 2.570868 0.413066
v 0.060298 2.475720 0.366857
v -0.013723 2.783626 0.397827
v -0.013723 2.688478 0.463177
v -0.013723 2.570868 0.463177
v -0.013723 2.475720 0.397827
v -0.087744 2.783626 0.366857
v -0.133492 2.688478 0.413066
v -0.133492 2.570868 0.413066
v -0.087744 2.475720 0.366857
v -0.013723 2.439376 0.292088
v -0.013723 2.819970 0.292088
v -0.118405 2.783626 0.292088
v -0.183101 2.688478 0.292088
v -0.183101 2.570868 0.292088
v -0.118405 2.475720 0.292088
v -0.087744 2.783626 0.217320
v -0.133492 2.688478 0.171110
v -0.133492 2.570868 0.171110
v -0.087744 2.475720 0.217320
v -0.013723 2.783626 0.186350
v -0.013723 2.688478 0.120999
v -0.013723 2.570868 0.120999
v -0.013723 2.475720 0.186350
v -0.709037 7.252728 -0.442285
v -0.137208 10.908163 -0.052012
v -0.683925 7.216033 -0.389440
v -0.112096 10.871469 0.000833
v -0.698544 7.200850 -0.330183
v -0.126715 10.856285 0.060090
v -0.746054 7.214280 -0.292241
v -0.174226 10.869715 0.098032
v -0.804224 7.250041 -0.293367
v -0.232396 10.905477 0.096906
v -0.845836 7.291400 -0.333035
v -0.274008 10.946836 0.057238
v -0.851419 7.319005 -0.392683
v -0.279591 10.974440 -0.002409
v -0.818361 7.319937 -0.444401
v -0.246533 10.975372 -0.054128
v -0.762130 7.293764 -0.463991
v -0.190301 10.949198 -0.073718
v -0.543665 3.630922 -0.335300
v -0.516429 3.630922 -0.288174
v -0.525553 3.630922 -0.234390
v -0.566769 3.630922 -0.199113
v -0.620790 3.630922 -0.198850
v -0.662341 3.630922 -0.233723
v -0.671979 3.225229 -0.287416
v -0.645194 3.225229 -0.334805
v -0.594519 3.630922 -0.353716
v -0.549092 -4.006811 -0.328698
v -0.524785 -4.006811 -0.286641
v -0.532928 -4.006811 -0.238642
v -0.569710 -4.006811 -0.207160
v -0.617921 -4.006811 -0.206925
v -0.655003 -4.006811 -0.238047
v -0.663604 -0.952230 -0.285965
v -0.639699 -0.952230 -0.328256
v -0.594475 -4.006811 -0.345133
v -0.567973 -12.854829 -0.305744
v -0.553856 -12.854829 -0.281318
v -0.558585 -12.854829 -0.253439
v -0.579949 -12.854829 -0.235154
v -0.607950 -12.854829 -0.235017
v -0.629488 -12.854829 -0.253093
v -0.634483 -12.854829 -0.280925
v -0.620600 -12.854829 -0.305488
v -0.594333 -12.854829 -0.315290
v -0.583879 -23.019337 -0.286457
v -0.578332 -23.019337 -0.276859
v -0.580190 -23.019337 -0.265905
v -0.588585 -23.019337 -0.258720
v -0.599587 -23.019337 -0.258667
v -0.608050 -23.019337 -0.265769
v -0.610013 -23.019337 -0.276705
v -0.604558 -23.019337 -0.286357
v -0.594237 -23.019337 -0.290208
v -0.906630 7.257566 0.074936
v -0.196242 10.895696 0.140020
v -0.859724 7.219707 0.109116
v -0.149336 10.857838 0.174200
v -0.844485 7.204144 0.168188
v -0.134097 10.842275 0.233272
v -0.868043 7.218159 0.224510
v -0.157655 10.856290 0.289594
v -0.919375 7.255194 0.251729
v -0.208988 10.893325 0.316813
v -0.974462 7.297920 0.237109
v -0.264075 10.936052 0.302193
v -1.007529 7.326347 0.187490
v -0.297142 10.964477 0.252574
v -1.003102 7.327169 0.126091
v -0.292715 10.965300 0.191175
v -0.963254 7.300007 0.081639
v -0.252867 10.938135 0.146723
v -0.733848 3.631194 0.088599
v -0.687562 3.630048 0.116732
v -0.670006 3.629613 0.168338
v -0.689396 3.630094 0.219270
v -0.736657 3.631264 0.245697
v -0.789676 3.632577 0.235252
v -0.823646 3.633418 0.192824
v -0.822670 3.633393 0.138264
v -0.787206 3.632516 0.097103
v -0.784222 -4.005895 0.097022
v -0.742915 -4.006919 0.122129
v -0.727248 -4.007306 0.168184
v -0.744552 -4.006878 0.213638
v -0.786729 -4.005833 0.237221
v -0.834046 -4.004662 0.227900
v -0.864361 -4.003910 0.190035
v -0.863491 -4.003933 0.141345
v -0.831841 -4.004715 0.104611
v -0.846354 -12.853074 0.126313
v -0.822362 -12.853667 0.140896
v -0.813263 -12.853894 0.167645
v -0.823313 -12.853644 0.194045
v -0.847810 -12.853038 0.207743
v -0.875292 -12.852357 0.202329
v -0.892900 -12.851920 0.180337
v -0.892394 -12.851933 0.152056
v -0.874012 -12.852387 0.130721
v -0.916021 -23.016659 0.150945
v -0.906594 -23.016891 0.156675
v -0.903019 -23.016979 0.167186
v -0.906968 -23.016880 0.177559
v -0.916593 -23.016644 0.182941
v -0.927392 -23.016373 0.180814
v -0.934310 -23.016205 0.172173
v -0.934112 -23.016212 0.161061
v -0.926889 -23.016388 0.152677
v -0.791388 7.252728 0.812767
v -0.249433 10.908163 0.381187
v -0.733913 7.216033 0.804672
v -0.191958 10.871469 0.373091
v -0.682472 7.200850 0.836758
v -0.140517 10.856285 0.405177
v -0.661135 7.214280 0.894013
v -0.119180 10.869716 0.462432
v -0.679885 7.250041 0.949646
v -0.137930 10.905477 0.518065
v -0.729950 7.291400 0.977626
v -0.187995 10.946836 0.546045
v -0.787903 7.319005 0.964861
v -0.245948 10.974440 0.533280
v -0.826627 7.319937 0.917323
v -0.284672 10.975372 0.485743
v -0.828004 7.293764 0.857257
v -0.286049 10.949198 0.425676
v -0.640202 3.630922 0.686167
v -0.587475 3.630922 0.674288
v -0.539525 3.630922 0.699422
v -0.518787 3.630922 0.749810
v -0.534965 3.630922 0.801874
v -0.580490 3.630922 0.831252
v -0.634060 3.630922 0.824199
v -0.670608 3.630922 0.784015
v -0.673034 3.630922 0.729502
v -0.635626 -4.006811 0.693396
v -0.588571 -4.006811 0.682795
v -0.545778 -4.006811 0.705226
v -0.527271 -4.006811 0.750193
v -0.541709 -4.006811 0.796657
v -0.582337 -4.006811 0.822876
v -0.630144 -4.006811 0.816581
v -0.662761 -4.006811 0.780719
v -0.664926 -4.006811 0.732070
v -0.619720 -12.854829 0.718545
v -0.592389 -12.854829 0.712387
v -0.567535 -12.854829 0.725416
v -0.556785 -12.854829 0.751534
v -0.565171 -12.854829 0.778520
v -0.588769 -12.854829 0.793748
v -0.616536 -12.854829 0.790093
v -0.635480 -12.854829 0.769263
v -0.636738 -12.854829 0.741007
v -0.606366 -23.019337 0.739716
v -0.595627 -23.019337 0.737296
v -0.585861 -23.019337 0.742415
v -0.581638 -23.019337 0.752678
v -0.584933 -23.019337 0.763281
v -0.594205 -23.019337 0.769265
v -0.605115 -23.019337 0.767829
v -0.612559 -23.019337 0.759644
v -0.613053 -23.019337 0.748541
v 0.706261 7.252728 0.882663
v 0.134432 10.908163 0.492390
v 0.681149 7.216033 0.829819
v 0.109320 10.871469 0.439545
v 0.695768 7.200850 0.770562
v 0.123939 10.856285 0.380288
v 0.743278 7.214280 0.732619
v 0.171449 10.869716 0.342346
v 0.801448 7.250041 0.733745
v 0.229620 10.905477 0.343472
v 0.843060 7.291400 0.773413
v 0.271232 10.946836 0.383140
v 0.848643 7.319005 0.833061
v 0.276815 10.974440 0.442788
v 0.815585 7.319937 0.884780
v 0.243756 10.975372 0.494506
v 0.759354 7.293764 0.904369
v 0.187525 10.949198 0.514096
v 0.540889 3.630922 0.775678
v 0.513652 3.630922 0.728552
v 0.522777 3.630922 0.674768
v 0.563992 3.630922 0.639491
v 0.618014 3.630922 0.639228
v 0.659565 3.630922 0.674101
v 0.669203 3.630922 0.727794
v 0.642417 3.630922 0.775183
v 0.591742 3.630922 0.794094
v 0.546316 -4.006811 0.769076
v 0.522009 -4.006811 0.727020
v 0.530151 -4.006811 0.679020
v 0.566934 -4.006811 0.647538
v 0.615145 -4.006811 0.647303
v 0.652226 -4.006811 0.678426
v 0.660827 -4.006811 0.726343
v 0.636923 -4.006811 0.768634
v 0.591699 -4.006811 0.785511
v 0.565197 -12.854829 0.746123
v 0.551079 -12.854829 0.721696
v 0.555809 -12.854829 0.693817
v 0.577173 -12.854829 0.675532
v 0.605174 -12.854829 0.675395
v 0.626712 -12.854829 0.693472
v 0.631707 -12.854829 0.721303
v 0.617823 -12.854829 0.745866
v 0.591556 -12.854829 0.755668
v 0.581103 -23.019337 0.726836
v 0.575556 -23.019337 0.717238
v 0.577414 -23.019337 0.706283
v 0.585809 -23.019337 0.699098
v 0.596811 -23.019337 0.699045
v 0.605274 -23.019337 0.706148
v 0.607237 -23.019337 0.717083
v 0.601781 -23.019337 0.726735
v 0.591460 -23.019337 0.730586
v 0.903853 7.257566 0.365442
v 0.193466 10.895696 0.300359
v 0.856948 7.219707 0.331262
v 0.146560 10.857838 0.266178
v 0.841708 7.204144 0.272190
v 0.131321 10.842275 0.207106
v 0.865267 7.218159 0.215868
v 0.154879 10.856290 0.150784
v 0.916598 7.255194 0.188649
v 0.206211 10.893325 0.123565
v 0.971686 7.297920 0.203269
v 0.261299 10.936052 0.138186
v 1.004753 7.326347 0.252888
v 0.294365 10.964477 0.187804
v 1.000326 7.327169 0.314287
v 0.289939 10.965300 0.249204
v 0.960478 7.300007 0.358739
v 0.250091 10.938135 0.293655
v 0.731071 3.631194 0.351779
v 0.684785 3.630048 0.323646
v 0.667230 3.629613 0.272040
v 0.686619 3.630094 0.221108
v 0.733881 3.631264 0.194681
v 0.786900 3.632577 0.205126
v 0.820870 3.633418 0.247555
v 0.819894 3.633393 0.302114
v 0.784430 3.632516 0.343275
v 0.781446 -4.005895 0.343356
v 0.740139 -4.006919 0.318249
v 0.724472 -4.007306 0.272194
v 0.741775 -4.006878 0.226741
v 0.783953 -4.005833 0.203157
v 0.831270 -4.004662 0.212478
v 0.861585 -4.003910 0.250343
v 0.860714 -4.003933 0.299033
v 0.829065 -4.004715 0.335767
v 0.843578 -12.853074 0.314065
v 0.819586 -12.853667 0.299482
v 0.810486 -12.853894 0.272733
v 0.820536 -12.853644 0.246333
v 0.845034 -12.853038 0.232635
v 0.872516 -12.852357 0.238049
v 0.890124 -12.851920 0.260041
v 0.889618 -12.851933 0.288322
v 0.871236 -12.852387 0.309657
v 0.913245 -23.016659 0.289433
v 0.903818 -23.016891 0.283703
v 0.900242 -23.016979 0.273192
v 0.904191 -23.016880 0.262819
v 0.913817 -23.016644 0.257437
v 0.924615 -23.016373 0.259564
v 0.931534 -23.016205 0.268205
v 0.931335 -23.016212 0.279318
v 0.924112 -23.016388 0.287701
v 0.788612 7.252728 -0.372389
v 0.246657 10.908163 0.059191
v 0.731137 7.216033 -0.364293
v 0.189182 10.871469 0.067287
v 0.679696 7.200850 -0.396380
v 0.137741 10.856285 0.035201
v 0.658359 7.214280 -0.453635
v 0.116404 10.869716 -0.022054
v 0.677109 7.250041 -0.509268
v 0.135154 10.905477 -0.077687
v 0.727173 7.291400 -0.537248
v 0.185218 10.946836 -0.105667
v 0.785126 7.319005 -0.524482
v 0.243171 10.974440 -0.092902
v 0.823851 7.319937 -0.476945
v 0.281896 10.975372 -0.045365
v 0.825227 7.293764 -0.416879
v 0.283273 10.949198 0.014702
v 0.637426 3.630922 -0.245789
v 0.584699 3.630922 -0.233909
v 0.536748 3.630922 -0.259044
v 0.516011 3.630922 -0.309432
v 0.532189 3.630922 -0.361495
v 0.577714 3.630922 -0.390874
v 0.631283 3.630922 -0.383821
v 0.667832 3.630922 -0.343637
v 0.670258 3.630922 -0.289124
v 0.632850 -4.006811 -0.253018
v 0.585794 -4.006811 -0.242417
v 0.543001 -4.006811 -0.264847
v 0.524494 -4.006811 -0.309815
v 0.538933 -4.006811 -0.356279
v 0.579561 -4.006811 -0.382497
v 0.627368 -4.006811 -0.376203
v 0.659985 -4.006811 -0.340341
v 0.662150 -4.006811 -0.291692
v 0.616943 -12.854829 -0.278167
v 0.589613 -12.854829 -0.272009
v 0.564758 -12.854829 -0.285037
v 0.554009 -12.854829 -0.311155
v 0.562395 -12.854829 -0.338142
v 0.585992 -12.854829 -0.353370
v 0.613760 -12.854829 -0.349714
v 0.632704 -12.854829 -0.328885
v 0.633961 -12.854829 -0.300629
v 0.603590 -23.019337 -0.299337
v 0.592851 -23.019337 -0.296918
v 0.583085 -23.019337 -0.302037
v 0.578861 -23.019337 -0.312299
v 0.582157 -23.019337 -0.322903
v 0.591428 -23.019337 -0.328887
v 0.602339 -23.019337 -0.327450
v 0.609783 -23.019337 -0.319266
v 0.610277 -23.019337 -0.308163
v -0.062793 7.261223 1.254467
v -0.110909 10.882798 0.513941
v -0.037068 7.222062 1.202394
v -0.085183 10.843637 0.461869
v 0.018142 7.205709 1.177701
v -0.029973 10.827285 0.437176
v 0.077003 7.219814 1.191942
v 0.028888 10.841390 0.451417
v 0.111973 7.257779 1.238453
v 0.063858 10.879356 0.497928
v 0.106690 7.301840 1.295471
v 0.058575 10.923417 0.554946
v 0.063625 7.331380 1.336317
v 0.015510 10.952955 0.595792
v 0.002930 7.332575 1.341879
v -0.045186 10.954150 0.601353
v -0.046997 7.304869 1.309553
v -0.095112 10.926443 0.569028
v -0.081293 3.631164 1.101955
v -0.061336 3.628772 1.051261
v -0.013779 3.627552 1.025382
v 0.039125 3.628073 1.036425
v 0.072622 3.630093 1.079225
v 0.071038 3.632664 1.133754
v 0.035115 3.634585 1.174497
v -0.018339 3.634957 1.182392
v -0.064312 3.633607 1.153742
v -0.072802 -4.004325 1.196918
v -0.054991 -4.006460 1.151677
v -0.012550 -4.007547 1.128582
v 0.034663 -4.007083 1.138437
v 0.064557 -4.005280 1.176633
v 0.063144 -4.002986 1.225297
v 0.031085 -4.001271 1.261658
v -0.016619 -4.000938 1.268703
v -0.057647 -4.002144 1.243135
v -0.043270 -12.849713 1.307517
v -0.032925 -12.850951 1.281240
v -0.008275 -12.851588 1.267826
v 0.019148 -12.851315 1.273550
v 0.036510 -12.850268 1.295735
v 0.035690 -12.848935 1.323999
v 0.017069 -12.847941 1.345118
v -0.010638 -12.847745 1.349210
v -0.034468 -12.848449 1.334360
v -0.018430 -23.011211 1.434333
v -0.014365 -23.011696 1.424008
v -0.004679 -23.011948 1.418737
v 0.006095 -23.011845 1.420987
v 0.012918 -23.011429 1.429704
v 0.012595 -23.010902 1.440809
v 0.005279 -23.010513 1.449108
v -0.005608 -23.010437 1.450715
v -0.014971 -23.010712 1.444880
v -0.969100 12.626979 -0.072107
v -1.123917 12.680382 -0.013900
v -1.229405 12.923151 0.106894
v -1.245273 13.262560 0.244134
v -1.165459 13.568964 0.345401
v -1.020449 13.725327 0.372013
v -0.865633 13.671925 0.313806
v -0.760144 13.429154 0.193012
v -0.744277 13.089746 0.055772
v -0.824091 12.783342 -0.045495
v -0.958678 12.929512 0.114585
v -1.093836 12.976806 0.141206
v -1.196150 13.184904 0.223830
v -1.226540 13.474319 0.330898
v -1.173396 13.734507 0.421513
v -1.057020 13.866082 0.461064
v -0.921862 13.818789 0.434442
v -0.819548 13.610691 0.351818
v -0.789159 13.321275 0.244750
v -0.842302 13.061088 0.154135
v -1.080297 12.331351 -0.319184
v -1.201395 12.509965 -0.305160
v -1.260563 12.802839 -0.215695
v -1.235202 13.098106 -0.084961
v -1.134999 13.282984 0.037106
v -0.998227 13.286856 0.103880
v -0.877129 13.108242 0.089856
v -0.817961 12.815368 0.000390
v -0.843322 12.520101 -0.130344
v -0.943525 12.335223 -0.252410
v -1.095800 12.779014 -0.058724
v -1.217852 12.974958 -0.001309
v -1.249447 13.295885 0.114191
v -1.178517 13.619210 0.243658
v -1.032154 13.821435 0.337640
v -0.866264 13.825316 0.360240
v -0.744212 13.629372 0.302824
v -0.712617 13.308446 0.187325
v -0.783548 12.985121 0.057858
v -0.929911 12.782896 -0.036124
v -1.021167 13.057032 0.115160
v -1.128894 13.224523 0.141940
v -1.169291 13.501844 0.225639
v -1.126928 13.783069 0.334285
v -1.017987 13.960778 0.426380
v -0.884078 13.967093 0.466747
v -0.776351 13.799603 0.439966
v -0.735954 13.522281 0.356267
v -0.778317 13.241056 0.247621
v -0.887258 13.063347 0.155526
v 1.071228 12.331351 -0.319184
v 1.192325 12.509965 -0.305160
v 1.251494 12.802839 -0.215695
v 1.226133 13.098106 -0.084961
v 1.125929 13.282984 0.037106
v 0.989157 13.286856 0.103880
v 0.868059 13.108242 0.089856
v 0.808891 12.815368 0.000390
v 0.834252 12.520101 -0.130344
v 0.934456 12.335223 -0.252410
v 1.086731 12.779014 -0.058724
v 1.208783 12.974958 -0.001309
v 1.240378 13.295885 0.114191
v 1.169447 13.619210 0.243658
v 1.023084 13.821435 0.337640
v 0.857194 13.825316 0.360240
v 0.735142 13.629372 0.302824
v 0.703547 13.308446 0.187325
v 0.774478 12.985121 0.057858
v 0.920841 12.782896 -0.036124
v 1.012097 13.057032 0.115160
v 1.119824 13.224523 0.141940
v 1.160222 13.501844 0.225639
v 1.117859 13.783069 0.334285
v 1.008917 13.960778 0.426380
v 0.875008 13.967093 0.466747
v 0.767281 13.799603 0.439966
v 0.726884 13.522281 0.356267
v 0.769247 13.241056 0.247621
v 0.878189 13.063347 0.155526
vn 0.1828 0.7917 -0.5829
vn 0.9781 0.0229 0.2067
vn 0.2523 -0.4673 -0.8474
vn 0.1966 0.0998 -0.9754
vn 0.1745 0.5867 -0.7907
vn -0.1569 -0.7364 0.6581
vn 0.1968 -0.0999 -0.9754
vn 0.2018 0.3613 -0.9104
vn 0.6504 0.1049 -0.7523
vn 0.3054 0.5747 -0.7593
vn 0.2290 -0.5322 0.8151
vn 0.7006 -0.1186 -0.7036
vn 0.5478 0.3421 -0.7634
vn -0.0106 0.7572 -0.6531
vn -0.9795 -0.0232 -0.2000
vn 0.7820 -0.4856 -0.3906
vn 0.3293 -0.3518 0.8762
vn 0.9587 -0.1429 -0.2460
vn 0.6740 0.3260 -0.6629
vn 0.1099 0.8154 -0.5684
vn 0.9854 -0.0227 -0.1688
vn 0.8748 -0.3460 0.3391
vn 0.8412 0.1102 -0.5294
vn 0.3901 0.5912 -0.7059
vn 0.8463 0.3905 -0.3625
vn 0.2193 0.9034 -0.3684
vn -0.9781 0.0262 0.2066
vn 0.7728 -0.4299 0.4669
vn 0.9542 0.1333 -0.2678
vn 0.6077 0.7068 -0.3622
vn 0.4338 -0.6354 0.6388
vn 0.9860 -0.1583 0.0533
vn 0.1828 0.1157 0.9763
vn 0.8662 -0.4545 0.2077
vn 0.9614 0.1502 0.2305
vn 0.6710 0.7340 0.1050
vn 0.6404 -0.7526 0.1535
vn 0.9614 -0.1502 0.2305
vn 0.8662 0.4545 0.2077
vn 0.2342 0.9599 -0.1539
vn 0.5885 0.6895 0.4221
vn 0.5292 -0.7337 0.4262
vn 0.7709 -0.1420 0.6209
vn 0.7016 0.4342 0.5650
vn 0.2027 0.9780 -0.0500
vn 0.5299 0.0992 0.8423
vn 0.7016 -0.4342 0.5650
vn 0.7709 0.1420 0.6209
vn 0.3418 -0.7092 0.6166
vn 0.4806 -0.1325 0.8669
vn 0.4423 0.4097 0.7978
vn 0.1374 0.9900 0.0324
vn -0.8135 0.0700 0.5773
vn 0.4423 -0.4097 0.7978
vn 0.4806 0.1325 0.8669
vn 0.3915 0.6428 0.6585
vn 0.0486 0.9958 0.0779
vn 0.8675 -0.0781 -0.4912
vn 0.1496 -0.3947 0.9066
vn 0.1615 0.1268 0.9787
vn 0.1358 0.6142 0.7774
vn 0.1173 -0.6933 0.7110
vn 0.1615 -0.1268 0.9787
vn 0.1496 0.3947 0.9066
vn -0.1496 -0.3947 0.9066
vn -0.1615 0.1268 0.9787
vn -0.1358 0.6142 0.7774
vn -0.1173 -0.6933 0.7110
vn -0.1615 -0.1268 0.9787
vn -0.1496 0.3947 0.9066
vn -0.0486 0.9958 0.0779
vn 0.2064 -0.3888 -0.8979
vn -0.3418 -0.7092 0.6166
vn -0.4806 -0.1325 0.8669
vn -0.4423 0.4097 0.7978
vn -0.1374 0.9900 0.0324
vn 0.6141 -0.2073 -0.7615
vn -0.4423 -0.4097 0.7978
vn -0.4806 0.1325 0.8669
vn -0.3915 0.6428 0.6585
vn -0.7709 -0.1420 0.6209
vn -0.7016 0.4342 0.5650
vn -0.2027 0.9780 -0.0500
vn -0.6938 -0.1792 -0.6975
vn -0.7016 -0.4342 0.5650
vn -0.7709 0.1420 0.6209
vn -0.5885 0.6895 0.4221
vn -0.5292 -0.7337 0.4262
vn -0.1953 -0.3519 -0.9154
vn -0.8662 -0.4545 0.2077
vn -0.9614 0.1502 0.2305
vn -0.6710 0.7340 0.1050
vn -0.6404 -0.7526 0.1535
vn -0.9614 -0.1502 0.2305
vn -0.8662 0.4545 0.2077
vn -0.2342 0.9599 -0.1539
vn -0.9306 0.1089 -0.3495
vn -0.6002 0.6890 -0.4062
vn -0.4149 -0.6243 0.6619
vn -0.9868 -0.1409 -0.0800
vn -0.8202 0.3795 -0.4281
vn -0.2183 0.8994 -0.3787
vn -0.1828 0.1163 0.9762
vn -0.8076 -0.4154 0.4185
vn -0.3604 -0.3455 0.8664
vn -0.9648 -0.1109 -0.2386
vn -0.6845 0.3256 -0.6523
vn -0.0990 0.8017 -0.5895
vn -0.8932 -0.0688 -0.4444
vn -0.9083 -0.3089 0.2820
vn -0.8748 0.0893 -0.4762
vn -0.3883 0.5964 -0.7025
vn -0.5510 0.3289 -0.7670
vn -0.1017 0.8027 -0.5876
vn -0.5298 0.1010 0.8421
vn -0.7703 -0.4481 -0.4537
vn -0.6242 0.1041 -0.7743
vn -0.3118 0.5841 -0.7494
vn -0.1416 -0.5638 0.8136
vn -0.6644 -0.1116 -0.7390
vn 0.8137 0.0673 0.5774
vn -0.2436 -0.4485 -0.8599
vn -0.1965 0.0998 -0.9754
vn -0.1347 0.5850 -0.7997
vn 0.0263 -0.7031 0.7106
vn -0.1967 -0.0998 -0.9754
vn -0.2024 0.3515 -0.9141
vn -0.0527 0.7980 -0.6004
vn 0.0876 -0.9294 -0.3585
vn 0.1497 -0.9247 -0.3500
vn 0.3206 -0.9245 -0.2061
vn 0.3710 -0.9235 -0.0980
vn 0.3718 -0.9270 0.0493
vn 0.3368 -0.9263 0.1691
vn 0.2454 -0.9207 0.3035
vn 0.0912 -0.9138 0.3958
vn -0.0912 -0.9138 0.3958
vn -0.2454 -0.9207 0.3035
vn -0.3369 -0.9263 0.1689
vn -0.3635 -0.9282 0.0799
vn -0.3712 -0.9194 -0.1303
vn -0.3253 -0.9201 -0.2182
vn -0.1989 -0.9331 -0.2996
vn 0.7968 0.0601 0.6012
vn -0.5067 0.0995 0.8563
vn -0.8849 -0.0229 -0.4652
vn -0.1722 0.1205 0.9777
vn -0.1769 -0.0303 -0.9838
vn -0.6573 -0.0299 -0.7531
vn 0.5641 -0.0363 -0.8249
vn 0.2211 -0.0339 -0.9747
vn 0.8587 -0.0271 -0.5118
vn -0.7967 0.0620 0.6011
vn 0.5068 0.0983 0.8564
vn 0.1722 0.1201 0.9777
vn -0.9755 0.0194 0.2191
vn 0.9843 -0.0126 -0.1763
vn -0.9777 -0.0124 -0.2095
vn 0.9755 0.0171 0.2191
vn 0.1908 -0.6158 -0.7644
vn 0.4169 -0.6154 -0.6689
vn 0.6670 -0.6152 -0.4202
vn 0.7746 -0.6156 -0.1451
vn 0.7702 -0.6166 0.1633
vn 0.6411 -0.6180 0.4550
vn 0.4180 -0.6195 0.6645
vn 0.1443 -0.6204 0.7709
vn -0.1443 -0.6204 0.7709
vn -0.4180 -0.6195 0.6645
vn -0.6411 -0.6180 0.4550
vn -0.7702 -0.6166 0.1634
vn -0.7696 -0.6155 -0.1702
vn -0.6878 -0.6153 -0.3852
vn -0.5137 -0.6155 -0.5977
vn -0.1352 -0.6162 -0.7759
vn 0.0991 -0.9157 -0.3895
vn 0.1983 -0.9107 -0.3622
vn 0.3505 -0.9084 -0.2279
vn 0.4059 -0.9093 -0.0917
vn 0.4097 -0.9086 0.0816
vn 0.3532 -0.9057 0.2343
vn 0.2405 -0.9021 0.3583
vn 0.0854 -0.8994 0.4288
vn -0.0854 -0.8994 0.4288
vn -0.2405 -0.9021 0.3583
vn -0.3532 -0.9057 0.2343
vn -0.4101 -0.9076 0.0894
vn -0.4030 -0.9083 -0.1119
vn -0.3512 -0.9114 -0.2146
vn -0.2541 -0.9156 -0.3116
vn -0.0604 -0.9167 -0.3949
vn 0.3451 -0.0000 -0.9386
vn 0.8682 -0.0000 -0.4962
vn 0.9851 -0.0000 0.1720
vn 0.6466 -0.0000 0.7629
vn -0.0000 -0.0000 1.0000
vn -0.6466 -0.0000 0.7629
vn -0.9851 -0.0000 0.1720
vn -0.0000 1.0000 -0.0000
vn -0.8682 -0.0000 -0.4962
vn -0.3451 -0.0000 -0.9386
vn -0.8681 -0.0106 -0.4962
vn -0.6466 -0.0080 0.7628
vn -0.9850 -0.0106 0.1720
vn -0.6465 -0.0106 0.7628
vn -0.0000 -0.0107 0.9999
vn 0.6465 -0.0106 0.7628
vn 0.3450 -0.0106 -0.9385
vn 0.9850 -0.0106 0.1720
vn 0.8681 -0.0106 -0.4962
vn -0.3450 -0.0106 -0.9385
vn -0.0000 -0.0072 1.0000
vn 0.9851 -0.0079 0.1720
vn -0.9851 -0.0079 0.1720
vn 0.6466 -0.0080 0.7628
vn 0.3451 -0.0080 -0.9385
vn -0.8682 -0.0079 -0.4962
vn -0.0000 -0.0080 1.0000
vn 0.8682 -0.0079 -0.4962
vn -0.3451 -0.0080 -0.9385
vn -0.0000 -1.0000 -0.0000
vn 0.8682 -0.0072 -0.4962
vn -0.3451 -0.0072 -0.9386
vn -0.6466 -0.0072 0.7628
vn 0.9851 -0.0072 0.1720
vn -0.9851 -0.0072 0.1720
vn 0.6466 -0.0072 0.7628
vn 0.3451 -0.0072 -0.9386
vn -0.8682 -0.0072 -0.4962
vn 0.3260 -0.5352 -0.7793
vn 0.3260 0.5352 -0.7793
vn 0.1348 -0.9371 -0.3221
vn 0.3860 -0.0000 -0.9225
vn 0.1348 0.9371 -0.3221
vn 0.7831 -0.5325 -0.3211
vn 0.7831 0.5325 -0.3211
vn 0.3250 -0.9363 -0.1333
vn 0.9252 -0.0000 -0.3794
vn 0.3251 0.9362 -0.1333
vn 0.7831 -0.5325 0.3211
vn 0.7831 0.5325 0.3211
vn 0.3250 -0.9363 0.1333
vn 0.9252 -0.0000 0.3794
vn 0.3251 0.9362 0.1333
vn 0.3260 -0.5352 0.7793
vn 0.3260 0.5352 0.7793
vn 0.1348 -0.9371 0.3221
vn 0.3860 -0.0000 0.9225
vn 0.1348 0.9371 0.3221
vn -0.3260 -0.5352 0.7793
vn -0.3260 0.5352 0.7793
vn -0.1348 -0.9371 0.3221
vn -0.3860 -0.0000 0.9225
vn -0.1348 0.9371 0.3221
vn -0.7831 -0.5325 0.3211
vn -0.7831 0.5325 0.3211
vn -0.3250 -0.9363 0.1333
vn -0.9252 -0.0000 0.3794
vn -0.3251 0.9362 0.1333
vn -0.7831 -0.5325 -0.3211
vn -0.7831 0.5325 -0.3211
vn -0.3250 -0.9363 -0.1333
vn -0.9252 -0.0000 -0.3794
vn -0.3251 0.9362 -0.1333
vn -0.3260 -0.5352 -0.7793
vn -0.3260 0.5352 -0.7793
vn -0.1348 -0.9371 -0.3221
vn -0.3860 -0.0000 -0.9225
vn -0.1348 0.9371 -0.3221
vn 0.8753 -0.0861 -0.4758
vn 0.9658 -0.1718 0.1942
vn 0.5835 -0.1759 0.7929
vn -0.0770 -0.0939 0.9926
vn -0.6755 0.0270 0.7368
vn -0.9785 0.1365 0.1548
vn -0.8294 0.1860 -0.5268
vn 0.4902 0.8076 0.3279
vn -0.2654 0.1433 -0.9534
vn 0.4012 0.0350 -0.9153
vn -0.8547 -0.0504 -0.5166
vn -0.6429 -0.0011 0.7660
vn -0.9655 -0.0384 0.2577
vn -0.6713 -0.0141 0.7411
vn 0.0006 0.0261 0.9997
vn 0.8897 0.0279 -0.4556
vn 0.6403 0.0518 0.7664
vn 0.9759 0.0523 0.2120
vn 0.3561 -0.0116 -0.9344
vn -0.2189 -0.0373 -0.9750
vn 0.0049 -0.0032 1.0000
vn 0.9859 -0.0010 0.1673
vn 0.3405 -0.0011 -0.9402
vn -0.9898 -0.0014 0.1424
vn 0.6503 -0.0011 0.7597
vn -0.8706 -0.0019 -0.4921
vn 0.0049 -0.0011 1.0000
vn 0.8658 -0.0010 -0.5004
vn -0.3824 -0.0014 -0.9240
vn 0.6502 -0.0023 0.7597
vn 0.8658 -0.0031 -0.5004
vn -0.4482 -0.0027 -0.8939
vn -0.6429 -0.0032 0.7660
vn 0.9859 -0.0031 0.1673
vn 0.3405 -0.0032 -0.9402
vn -0.9974 -0.0027 0.0717
vn 0.6502 -0.0032 0.7597
vn -0.8706 -0.0023 -0.4921
vn 0.0049 -0.0023 1.0000
vn 0.8658 -0.0023 -0.5004
vn -0.3496 -0.0023 -0.9369
vn -0.6429 -0.0023 0.7660
vn 0.9859 -0.0023 0.1673
vn 0.3405 -0.0023 -0.9402
vn -0.9843 -0.0023 0.1767
vn 0.5380 -0.0901 -0.8381
vn 0.9404 -0.1784 -0.2896
vn 0.8904 -0.1813 0.4175
vn 0.4111 -0.0965 0.9065
vn -0.2356 0.0286 0.9714
vn -0.7841 0.1423 0.6041
vn -0.9790 0.1924 -0.0680
vn 0.6030 0.7959 0.0541
vn -0.6900 0.1474 -0.7086
vn -0.0911 0.0356 -0.9952
vn -0.9977 -0.0493 -0.0468
vn -0.1933 0.0002 0.9811
vn -0.8138 -0.0405 0.5798
vn -0.2307 -0.0127 0.9729
vn 0.4847 0.0229 0.8744
vn 0.5627 0.0245 -0.8263
vn 0.9295 0.0456 0.3660
vn 0.9596 0.0461 -0.2777
vn -0.1411 -0.0107 -0.9899
vn -0.7566 -0.0391 -0.6527
vn 0.4879 -0.0063 0.8729
vn 0.9467 -0.0071 -0.3221
vn -0.1574 -0.0001 -0.9875
vn -0.7806 0.0039 0.6250
vn 0.9345 -0.0070 0.3558
vn -0.9998 0.0053 -0.0179
vn 0.4880 -0.0042 0.8729
vn 0.5193 -0.0044 -0.8546
vn -0.7575 0.0038 -0.6528
vn 0.9345 -0.0083 0.3558
vn 0.5193 -0.0065 -0.8546
vn -0.7576 0.0017 -0.6527
vn -0.1933 -0.0019 0.9811
vn 0.9467 -0.0092 -0.3221
vn -0.1574 -0.0022 -0.9875
vn -0.7806 0.0018 0.6250
vn 0.9345 -0.0091 0.3558
vn -0.9998 0.0032 -0.0179
vn -0.0248 -0.9997 0.0001
vn -0.9998 0.0041 -0.0179
vn 0.4879 -0.0054 0.8729
vn 0.5193 -0.0056 -0.8546
vn -0.7576 0.0025 -0.6528
vn -0.1933 -0.0011 0.9811
vn 0.9467 -0.0083 -0.3221
vn -0.1574 -0.0013 -0.9875
vn -0.7806 0.0027 0.6250
vn -0.1931 -0.0868 -0.9773
vn 0.4840 -0.1730 -0.8578
vn 0.9353 -0.1750 -0.3075
vn 0.9239 -0.0931 0.3712
vn 0.5046 0.0271 0.8629
vn -0.1500 0.1378 0.9790
vn -0.7600 0.1862 0.6227
vn 0.4647 0.8078 -0.3627
vn -0.9891 0.1420 -0.0392
vn -0.7557 0.0348 -0.6540
vn -0.7580 -0.0560 0.6498
vn 0.5422 -0.0011 0.8402
vn -0.1858 -0.0460 0.9815
vn 0.5100 -0.0141 0.8601
vn 0.9534 0.0258 0.3006
vn -0.1692 0.0281 -0.9852
vn 0.9279 0.0515 -0.3691
vn 0.5043 0.0526 -0.8619
vn -0.7870 -0.0115 -0.6169
vn -0.9981 -0.0438 0.0431
vn 0.9550 -0.0031 0.2967
vn 0.4643 -0.0011 -0.8857
vn -0.7971 -0.0010 -0.6039
vn -0.1305 -0.0011 0.9914
vn 0.9247 -0.0010 -0.3806
vn -0.7398 -0.0011 0.6728
vn 0.9550 -0.0010 0.2967
vn -0.2198 -0.0011 -0.9755
vn -0.9990 -0.0010 0.0445
vn 0.9247 -0.0023 -0.3806
vn -0.2198 -0.0032 -0.9755
vn -0.9990 -0.0031 0.0445
vn 0.5422 -0.0032 0.8402
vn 0.4643 -0.0032 -0.8857
vn -0.7971 -0.0031 -0.6039
vn -0.1305 -0.0032 0.9914
vn 0.9247 -0.0031 -0.3806
vn -0.7398 -0.0032 0.6728
vn 0.0001 -1.0000 -0.0000
vn -0.7398 -0.0023 0.6728
vn 0.9550 -0.0023 0.2967
vn -0.2198 -0.0023 -0.9755
vn -0.9990 -0.0023 0.0445
vn 0.5422 -0.0023 0.8402
vn 0.4643 -0.0023 -0.8857
vn -0.7971 -0.0023 -0.6039
vn -0.1305 -0.0023 0.9914
vn -0.8753 -0.0861 0.4758
vn -0.9658 -0.1718 -0.1942
vn -0.5835 -0.1759 -0.7929
vn 0.0770 -0.0939 -0.9926
vn 0.6755 0.0270 -0.7368
vn 0.9785 0.1365 -0.1548
vn 0.8294 0.1860 0.5268
vn -0.4902 0.8076 -0.3279
vn 0.2654 0.1433 0.9534
vn -0.4012 0.0350 0.9153
vn 0.8545 -0.0559 0.5165
vn 0.6429 -0.0011 -0.7660
vn 0.9915 -0.0456 -0.1220
vn 0.6713 -0.0141 -0.7411
vn -0.0006 0.0261 -0.9997
vn -0.8897 0.0279 0.4556
vn -0.6403 0.0518 -0.7664
vn -0.9759 0.0523 -0.2120
vn -0.3561 -0.0116 0.9344
vn 0.3480 -0.0441 0.9364
vn -0.0049 -0.0032 -1.0000
vn -0.9859 -0.0010 -0.1673
vn -0.3405 -0.0011 0.9402
vn 0.9843 -0.0010 -0.1767
vn -0.6503 -0.0011 -0.7597
vn 0.8706 -0.0010 0.4921
vn -0.0049 -0.0011 -1.0000
vn -0.8658 -0.0010 0.5004
vn 0.3496 -0.0011 0.9369
vn -0.6502 -0.0023 -0.7597
vn -0.8658 -0.0031 0.5004
vn 0.3496 -0.0032 0.9369
vn 0.6429 -0.0032 -0.7660
vn -0.9859 -0.0031 -0.1673
vn -0.3405 -0.0032 0.9402
vn 0.9843 -0.0031 -0.1767
vn -0.6502 -0.0032 -0.7597
vn 0.8706 -0.0031 0.4921
vn -0.0001 -1.0000 -0.0000
vn 0.8706 -0.0023 0.4921
vn -0.0049 -0.0023 -1.0000
vn -0.8658 -0.0023 0.5004
vn 0.3496 -0.0023 0.9369
vn 0.6429 -0.0023 -0.7660
vn -0.9859 -0.0023 -0.1673
vn -0.3405 -0.0023 0.9402
vn 0.9843 -0.0023 -0.1767
vn -0.5380 -0.0901 0.8381
vn -0.9404 -0.1784 0.2896
vn -0.8904 -0.1813 -0.4175
vn -0.4111 -0.0965 -0.9065
vn 0.2356 0.0286 -0.9714
vn 0.7841 0.1423 -0.6041
vn 0.9790 0.1924 0.0680
vn -0.6030 0.7959 -0.0541
vn 0.6900 0.1474 0.7086
vn 0.0911 0.0356 0.9952
vn 0.9977 -0.0493 0.0468
vn 0.1933 0.0002 -0.9811
vn 0.8138 -0.0405 -0.5798
vn 0.2307 -0.0127 -0.9729
vn -0.4847 0.0229 -0.8744
vn -0.5627 0.0245 0.8263
vn -0.9295 0.0456 -0.3660
vn -0.9596 0.0461 0.2777
vn 0.1411 -0.0107 0.9899
vn 0.7566 -0.0391 0.6527
vn -0.4879 -0.0063 -0.8729
vn -0.9467 -0.0071 0.3221
vn 0.1574 -0.0001 0.9875
vn 0.7806 0.0039 -0.6250
vn -0.9345 -0.0070 -0.3558
vn 0.9998 0.0053 0.0179
vn -0.4880 -0.0042 -0.8729
vn -0.5193 -0.0044 0.8546
vn 0.7575 0.0038 0.6528
vn -0.9345 -0.0083 -0.3558
vn -0.5193 -0.0065 0.8546
vn 0.7576 0.0017 0.6527
vn 0.1933 -0.0019 -0.9811
vn -0.9467 -0.0092 0.3221
vn 0.1574 -0.0022 0.9875
vn 0.7806 0.0018 -0.6250
vn -0.9345 -0.0091 -0.3558
vn 0.9998 0.0032 0.0179
vn 0.0248 -0.9997 -0.0001
vn 0.9998 0.0041 0.0179
vn -0.4879 -0.0054 -0.8729
vn -0.5193 -0.0056 0.8546
vn 0.7576 0.0025 0.6528
vn 0.1933 -0.0011 -0.9811
vn -0.9467 -0.0083 0.3221
vn 0.1574 -0.0013 0.9875
vn 0.7806 0.0027 -0.6250
vn 0.1931 -0.0868 0.9773
vn -0.4840 -0.1730 0.8578
vn -0.9353 -0.1750 0.3075
vn -0.9239 -0.0931 -0.3712
vn -0.5046 0.0271 -0.8629
vn 0.1500 0.1378 -0.9790
vn 0.7600 0.1862 -0.6227
vn -0.4647 0.8078 0.3627
vn 0.9891 0.1420 0.0392
vn 0.7557 0.0348 0.6540
vn 0.7580 -0.0560 -0.6498
vn -0.5422 -0.0011 -0.8402
vn 0.1858 -0.0460 -0.9815
vn -0.5100 -0.0141 -0.8601
vn -0.9534 0.0258 -0.3006
vn 0.1692 0.0281 0.9852
vn -0.9279 0.0515 0.3691
vn -0.5043 0.0526 0.8619
vn 0.7870 -0.0115 0.6169
vn 0.9981 -0.0438 -0.0431
vn -0.9550 -0.0031 -0.2967
vn -0.4643 -0.0011 0.8857
vn 0.7971 -0.0010 0.6039
vn 0.1305 -0.0011 -0.9914
vn -0.9247 -0.0010 0.3806
vn 0.7398 -0.0011 -0.6728
vn -0.9550 -0.0010 -0.2967
vn 0.2198 -0.0011 0.9755
vn 0.9990 -0.0010 -0.0445
vn -0.9247 -0.0023 0.3806
vn 0.2198 -0.0032 0.9755
vn 0.9990 -0.0031 -0.0445
vn -0.5422 -0.0032 -0.8402
vn -0.4643 -0.0032 0.8857
vn 0.7971 -0.0031 0.6039
vn 0.1305 -0.0032 -0.9914
vn -0.9247 -0.0031 0.3806
vn 0.7398 -0.0032 -0.6728
vn 0.7398 -0.0023 -0.6728
vn -0.9550 -0.0023 -0.2967
vn 0.2198 -0.0023 0.9755
vn 0.9990 -0.0023 -0.0445
vn -0.5422 -0.0023 -0.8402
vn -0.4643 -0.0023 0.8857
vn 0.7971 -0.0023 0.6039
vn 0.1305 -0.0023 -0.9914
vn -0.9183 -0.0910 -0.3853
vn -0.4464 -0.1850 -0.8755
vn 0.2735 -0.1892 -0.9431
vn 0.8328 -0.1002 -0.5444
vn 0.9971 0.0278 0.0709
vn 0.7316 0.1459 0.6659
vn 0.0933 0.2006 0.9752
vn -0.0407 0.7888 -0.6133
vn -0.5956 0.1533 0.7885
vn -0.9681 0.0378 0.2477
vn 0.1164 -0.0439 0.9922
vn 0.9996 -0.0007 0.0291
vn 0.7108 -0.0370 0.7024
vn 0.9977 -0.0132 0.0669
vn 0.7895 0.0183 -0.6135
vn -0.9101 0.0228 -0.4138
vn 0.2155 0.0398 -0.9757
vn -0.4354 0.0415 -0.8993
vn -0.9551 -0.0078 0.2963
vn -0.5290 -0.0335 0.8480
vn 0.7877 -0.0108 -0.6160
vn -0.4782 -0.0119 -0.8782
vn -0.9503 0.0028 0.3115
vn 0.7502 0.0072 0.6611
vn 0.2045 -0.0132 -0.9788
vn 0.1462 0.0112 0.9892
vn 0.7877 -0.0087 -0.6161
vn -0.9306 -0.0056 -0.3661
vn -0.5291 0.0095 0.8485
vn 0.2045 -0.0145 -0.9788
vn -0.9306 -0.0077 -0.3660
vn -0.5290 0.0074 0.8486
vn 0.9996 -0.0028 0.0292
vn -0.4782 -0.0141 -0.8781
vn -0.9502 0.0007 0.3115
vn 0.7502 0.0050 0.6612
vn 0.2045 -0.0153 -0.9788
vn 0.1462 0.0091 0.9892
vn -0.0000 -0.9989 0.0472
vn 0.1462 0.0100 0.9892
vn 0.7877 -0.0100 -0.6160
vn -0.9306 -0.0068 -0.3660
vn -0.5290 0.0082 0.8486
vn 0.9996 -0.0019 0.0291
vn -0.4782 -0.0132 -0.8781
vn -0.9502 0.0016 0.3115
vn 0.7502 0.0059 0.6612
vn 0.4046 0.3410 -0.8485
vn 0.1187 0.3466 -0.9305
vn 0.2605 0.3135 -0.9131
vn 0.4046 -0.3410 0.8485
vn 0.1187 -0.3466 0.9305
vn 0.2605 -0.3135 0.9131
vt 0.750000 0.875000
vt 0.718750 1.000000
vt 0.687500 0.875000
vt 0.500000 0.125000
vt 0.437500 0.125000
vt 0.437500 0.125000
vt 0.750000 0.250000
vt 0.750000 0.375000
vt 0.687500 0.375000
vt 0.687500 0.250000
vt 0.750000 0.500000
vt 0.750000 0.625000
vt 0.687500 0.625000
vt 0.687500 0.500000
vt 0.750000 0.750000
vt 0.687500 0.750000
vt 0.750000 0.125000
vt 0.687500 0.125000
vt 0.625000 0.625000
vt 0.625000 0.500000
vt 0.625000 0.875000
vt 0.625000 0.750000
vt 0.625000 0.250000
vt 0.625000 0.125000
vt 0.625000 0.375000
vt 0.656250 1.000000
vt 1.000000 0.125000
vt 0.937500 0.125000
vt 0.937500 0.125000
vt 0.562500 0.250000
vt 0.562500 0.125000
vt 0.562500 0.500000
vt 0.562500 0.375000
vt 0.562500 0.750000
vt 0.562500 0.625000
vt 0.593750 1.000000
vt 0.562500 0.875000
vt 0.500000 0.750000
vt 0.500000 0.625000
vt 0.531250 1.000000
vt 0.500000 0.875000
vt 0.062500 0.125000
vt 0.000000 0.125000
vt 0.500000 0.375000
vt 0.500000 0.250000
vt 0.500000 0.500000
vt 0.312500 0.125000
vt 0.250000 0.125000
vt 0.312500 0.125000
vt 0.437500 0.375000
vt 0.437500 0.250000
vt 0.437500 0.625000
vt 0.437500 0.500000
vt 0.437500 0.875000
vt 0.437500 0.750000
vt 0.468750 1.000000
vt 0.375000 0.875000
vt 0.375000 0.750000
vt 0.375000 0.250000
vt 0.375000 0.125000
vt 0.375000 0.500000
vt 0.375000 0.375000
vt 0.375000 0.625000
vt 0.406250 1.000000
vt 0.375000 0.125000
vt 0.312500 0.250000
vt 0.312500 0.500000
vt 0.312500 0.375000
vt 0.312500 0.750000
vt 0.312500 0.625000
vt 0.343750 1.000000
vt 0.312500 0.875000
vt 0.125000 0.125000
vt 0.125000 0.125000
vt 0.281250 1.000000
vt 0.250000 0.875000
vt 0.250000 0.375000
vt 0.250000 0.250000
vt 0.250000 0.625000
vt 0.250000 0.500000
vt 0.250000 0.750000
vt 0.187500 0.375000
vt 0.187500 0.250000
vt 0.187500 0.625000
vt 0.187500 0.500000
vt 0.187500 0.875000
vt 0.187500 0.750000
vt 0.187500 0.125000
vt 0.218750 1.000000
vt 0.125000 0.250000
vt 0.125000 0.500000
vt 0.125000 0.375000
vt 0.125000 0.750000
vt 0.125000 0.625000
vt 0.156250 1.000000
vt 0.125000 0.875000
vt 0.062500 0.500000
vt 0.062500 0.375000
vt 0.062500 0.750000
vt 0.062500 0.625000
vt 0.093750 1.000000
vt 0.062500 0.875000
vt 0.875000 0.125000
vt 0.812500 0.125000
vt 0.062500 0.250000
vt 0.000000 0.375000
vt 0.000000 0.250000
vt 0.000000 0.625000
vt 0.000000 0.500000
vt 0.000000 0.875000
vt 0.000000 0.750000
vt 0.031250 1.000000
vt 1.000000 0.500000
vt 1.000000 0.625000
vt 0.937500 0.625000
vt 0.937500 0.500000
vt 1.000000 0.750000
vt 1.000000 0.875000
vt 0.937500 0.875000
vt 0.937500 0.750000
vt 1.000000 0.250000
vt 0.937500 0.250000
vt 1.000000 0.375000
vt 0.937500 0.375000
vt 0.968750 1.000000
vt 0.875000 0.250000
vt 0.875000 0.500000
vt 0.875000 0.375000
vt 0.875000 0.750000
vt 0.875000 0.625000
vt 0.906250 1.000000
vt 0.875000 0.875000
vt 0.812500 0.750000
vt 0.812500 0.625000
vt 0.843750 1.000000
vt 0.812500 0.875000
vt 0.812500 0.375000
vt 0.812500 0.250000
vt 0.812500 0.500000
vt 0.781250 1.000000
vt 0.718750 0.000000
vt 0.780663 0.037566
vt 0.676539 0.032847
vt 0.656250 0.000000
vt 0.605351 0.031902
vt 0.593750 0.000000
vt 0.542243 0.031262
vt 0.531250 0.000000
vt 0.477269 0.031142
vt 0.468750 0.000000
vt 0.420243 0.029952
vt 0.406250 0.000000
vt 0.361272 0.027896
vt 0.343750 0.000000
vt 0.295413 0.026312
vt 0.281250 0.000000
vt 0.225362 0.026311
vt 0.218750 0.000000
vt 0.155679 0.027895
vt 0.156250 0.000000
vt 0.090679 0.029952
vt 0.093750 0.000000
vt 0.034666 0.031135
vt 0.031250 0.000000
vt 0.025081 0.031135
vt 0.968750 0.000000
vt 0.978636 0.030642
vt 0.908994 0.031605
vt 0.906250 0.000000
vt 0.837868 0.034868
vt 0.843750 0.000000
vt 0.782009 0.037566
vt 0.680675 0.081436
vt 0.764510 0.083779
vt 0.615144 0.081011
vt 0.552411 0.080718
vt 0.489108 0.080665
vt 0.428336 0.080034
vt 0.366888 0.079013
vt 0.303256 0.078281
vt 0.238320 0.078281
vt 0.173562 0.079013
vt 0.110359 0.080034
vt 0.049327 0.080665
vt 0.011895 0.080665
vt 0.924757 0.080824
vt 0.989605 0.080419
vt 0.859543 0.082319
vt 0.798090 0.083779
vt 1.000000 1.000000
vt 0.888889 1.000000
vt 0.888889 0.500000
vt 0.777778 1.000000
vt 0.777778 0.500000
vt 0.666667 1.000000
vt 0.666667 0.500000
vt 0.555556 1.000000
vt 0.555556 0.500000
vt 0.444444 1.000000
vt 0.444444 0.500000
vt 0.333333 1.000000
vt 0.333333 0.500000
vt 0.222222 1.000000
vt 0.222222 0.500000
vt 0.404269 0.433851
vt 0.250000 0.490000
vt 0.095731 0.433851
vt 0.013646 0.291676
vt 0.042154 0.130000
vt 0.167915 0.024474
vt 0.332085 0.024474
vt 0.457846 0.130000
vt 0.486354 0.291676
vt 0.111111 1.000000
vt 0.111111 0.500000
vt 0.000000 1.000000
vt 0.000000 0.500000
vt 0.750000 0.490000
vt 0.904269 0.433851
vt 0.986354 0.291676
vt 0.957846 0.130000
vt 0.832085 0.024474
vt 0.667915 0.024474
vt 0.542154 0.130000
vt 0.513646 0.291676
vt 0.595731 0.433851
vt 0.750000 0.200000
vt 0.750000 0.400000
vt 0.625000 0.400000
vt 0.625000 0.200000
vt 0.750000 0.600000
vt 0.750000 0.800000
vt 0.625000 0.800000
vt 0.625000 0.600000
vt 0.687500 0.000000
vt 0.687500 1.000000
vt 0.500000 0.400000
vt 0.500000 0.200000
vt 0.500000 0.800000
vt 0.500000 0.600000
vt 0.562500 0.000000
vt 0.562500 1.000000
vt 0.375000 0.400000
vt 0.375000 0.200000
vt 0.375000 0.800000
vt 0.375000 0.600000
vt 0.437500 0.000000
vt 0.437500 1.000000
vt 0.250000 0.400000
vt 0.250000 0.200000
vt 0.250000 0.800000
vt 0.250000 0.600000
vt 0.312500 0.000000
vt 0.312500 1.000000
vt 0.125000 0.400000
vt 0.125000 0.200000
vt 0.125000 0.800000
vt 0.125000 0.600000
vt 0.187500 0.000000
vt 0.187500 1.000000
vt 0.000000 0.400000
vt 0.000000 0.200000
vt 0.000000 0.800000
vt 0.000000 0.600000
vt 0.062500 0.000000
vt 0.062500 1.000000
vt 1.000000 0.200000
vt 1.000000 0.400000
vt 0.875000 0.400000
vt 0.875000 0.200000
vt 1.000000 0.600000
vt 1.000000 0.800000
vt 0.875000 0.800000
vt 0.875000 0.600000
vt 0.937500 0.000000
vt 0.937500 1.000000
vt 0.812500 0.000000
vt 0.812500 1.000000
vt 0.500000 1.000000
vt 0.206107 0.904508
vt 0.024472 0.654508
vt 0.024472 0.345491
vt 0.206107 0.095491
vt 0.500000 0.000000
vt 0.793893 0.095491
vt 0.975528 0.345491
vt 0.975528 0.654508
vt 0.793893 0.904508
s 0
f 111/1/1 61/2/1 5/3/1
f 131/4/2 145/5/2 152/6/2 151/4/2
f 113/7/3 3/8/3 9/9/3 10/10/3
f 2/11/4 1/12/4 7/13/4 8/14/4
f 112/15/5 111/1/5 5/3/5 6/16/5
f 4/17/6 113/7/6 10/10/6 11/18/6
f 3/8/7 2/11/7 8/14/7 9/9/7
f 1/12/8 112/15/8 6/16/8 7/13/8
f 8/14/9 7/13/9 14/19/9 15/20/9
f 6/16/10 5/3/10 12/21/10 13/22/10
f 11/18/11 10/10/11 17/23/11 18/24/11
f 9/9/12 8/14/12 15/20/12 16/25/12
f 7/13/13 6/16/13 13/22/13 14/19/13
f 5/3/14 61/26/14 12/21/14
f 132/27/15 141/28/15 160/29/15 159/27/15
f 10/10/16 9/9/16 16/25/16 17/23/16
f 18/24/17 17/23/17 24/30/17 25/31/17
f 16/25/18 15/20/18 22/32/18 23/33/18
f 14/19/19 13/22/19 20/34/19 21/35/19
f 12/21/20 61/36/20 19/37/20
f 135/31/21 131/4/21 151/4/21 150/31/21
f 17/23/22 16/25/22 23/33/22 24/30/22
f 15/20/23 14/19/23 21/35/23 22/32/23
f 13/22/24 12/21/24 19/37/24 20/34/24
f 21/35/25 20/34/25 27/38/25 28/39/25
f 19/37/26 61/40/26 26/41/26
f 134/42/27 132/43/27 159/43/27 158/42/27
f 24/30/28 23/33/28 30/44/28 31/45/28
f 22/32/29 21/35/29 28/39/29 29/46/29
f 20/34/30 19/37/30 26/41/30 27/38/30
f 25/31/31 24/30/31 31/45/31 32/4/31
f 23/33/32 22/32/32 29/46/32 30/44/32
f 133/47/33 140/48/33 122/48/33 154/49/33
f 31/45/34 30/44/34 37/50/34 38/51/34
f 29/46/35 28/39/35 35/52/35 36/53/35
f 27/38/36 26/41/36 33/54/36 34/55/36
f 32/4/37 31/45/37 38/51/37 39/6/37
f 30/44/38 29/46/38 36/53/38 37/50/38
f 28/39/39 27/38/39 34/55/39 35/52/39
f 26/41/40 61/56/40 33/54/40
f 34/55/41 33/54/41 40/57/41 41/58/41
f 39/6/42 38/51/42 45/59/42 46/60/42
f 37/50/43 36/53/43 43/61/43 44/62/43
f 35/52/44 34/55/44 41/58/44 42/63/44
f 33/54/45 61/64/45 40/57/45
f 146/65/46 133/47/46 154/49/46 153/60/46
f 38/51/47 37/50/47 44/62/47 45/59/47
f 36/53/48 35/52/48 42/63/48 43/61/48
f 46/60/49 45/59/49 52/66/49 53/49/49
f 44/62/50 43/61/50 50/67/50 51/68/50
f 42/63/51 41/58/51 48/69/51 49/70/51
f 40/57/52 61/71/52 47/72/52
f 144/73/53 134/42/53 158/42/53 157/74/53
f 45/59/54 44/62/54 51/68/54 52/66/54
f 43/61/55 42/63/55 49/70/55 50/67/55
f 41/58/56 40/57/56 47/72/56 48/69/56
f 47/72/57 61/75/57 54/76/57
f 137/24/58 135/31/58 150/31/58 149/24/58
f 52/66/59 51/68/59 58/77/59 59/78/59
f 50/67/60 49/70/60 56/79/60 57/80/60
f 48/69/61 47/72/61 54/76/61 55/81/61
f 53/49/62 52/66/62 59/78/62 60/48/62
f 51/68/63 50/67/63 57/80/63 58/77/63
f 49/70/64 48/69/64 55/81/64 56/79/64
f 59/78/65 58/77/65 66/82/65 67/83/65
f 57/80/66 56/79/66 64/84/66 65/85/66
f 55/81/67 54/76/67 62/86/67 63/87/67
f 60/48/68 59/78/68 67/83/68 68/88/68
f 58/77/69 57/80/69 65/85/69 66/82/69
f 56/79/70 55/81/70 63/87/70 64/84/70
f 54/76/71 61/89/71 62/86/71
f 139/17/72 136/18/72 148/18/72 147/17/72
f 68/88/73 67/83/73 74/90/73 75/74/73
f 66/82/74 65/85/74 72/91/74 73/92/74
f 64/84/75 63/87/75 70/93/75 71/94/75
f 62/86/76 61/95/76 69/96/76
f 136/18/77 137/24/77 149/24/77 148/18/77
f 67/83/78 66/82/78 73/92/78 74/90/78
f 65/85/79 64/84/79 71/94/79 72/91/79
f 63/87/80 62/86/80 69/96/80 70/93/80
f 73/92/81 72/91/81 79/97/81 80/98/81
f 71/94/82 70/93/82 77/99/82 78/100/82
f 69/96/83 61/101/83 76/102/83
f 142/103/84 138/104/84 162/104/84 161/103/84
f 74/90/85 73/92/85 80/98/85 81/105/85
f 72/91/86 71/94/86 78/100/86 79/97/86
f 70/93/87 69/96/87 76/102/87 77/99/87
f 75/74/88 74/90/88 81/105/88 82/42/88
f 138/104/89 139/17/89 147/17/89 162/104/89
f 81/105/90 80/98/90 87/106/90 88/107/90
f 79/97/91 78/100/91 85/108/91 86/109/91
f 77/99/92 76/102/92 83/110/92 84/111/92
f 82/42/93 81/105/93 88/107/93 89/43/93
f 80/98/94 79/97/94 86/109/94 87/106/94
f 78/100/95 77/99/95 84/111/95 85/108/95
f 76/102/96 61/112/96 83/110/96
f 86/113/97 85/114/97 92/115/97 93/116/97
f 84/117/98 83/118/98 90/119/98 91/120/98
f 89/27/99 88/121/99 95/122/99 96/29/99
f 87/123/100 86/113/100 93/116/100 94/124/100
f 85/114/101 84/117/101 91/120/101 92/115/101
f 83/118/102 61/125/102 90/119/102
f 140/48/103 143/88/103 156/88/103 122/48/103
f 88/121/104 87/123/104 94/124/104 95/122/104
f 96/29/105 95/122/105 102/126/105 103/103/105
f 94/124/106 93/116/106 100/127/106 101/128/106
f 92/115/107 91/120/107 98/129/107 99/130/107
f 90/119/108 61/131/108 97/132/108
f 141/28/109 142/103/109 161/103/109 160/29/109
f 95/122/110 94/124/110 101/128/110 102/126/110
f 93/116/111 92/115/111 99/130/111 100/127/111
f 91/120/112 90/119/112 97/132/112 98/129/112
f 99/130/113 98/129/113 105/133/113 106/134/113
f 97/132/114 61/135/114 104/136/114
f 143/88/115 144/73/115 157/74/115 156/88/115
f 102/126/116 101/128/116 108/137/116 109/138/116
f 100/127/117 99/130/117 106/134/117 107/139/117
f 98/129/118 97/132/118 104/136/118 105/133/118
f 103/103/119 102/126/119 109/138/119 110/104/119
f 101/128/120 100/127/120 107/139/120 108/137/120
f 145/5/121 146/65/121 153/60/121 152/6/121
f 109/138/122 108/137/122 3/8/122 113/7/122
f 107/139/123 106/134/123 1/12/123 2/11/123
f 105/133/124 104/136/124 111/1/124 112/15/124
f 110/104/125 109/138/125 113/7/125 4/17/125
f 108/137/126 107/139/126 2/11/126 3/8/126
f 106/134/127 105/133/127 112/15/127 1/12/127
f 104/136/128 61/140/128 111/1/128
f 123/141/129 163/142/129 164/143/129
f 123/144/130 164/143/130 165/145/130
f 123/146/131 165/145/131 166/147/131
f 123/148/132 166/147/132 167/149/132
f 123/150/133 167/149/133 168/151/133
f 123/152/134 168/151/134 169/153/134
f 123/154/135 169/153/135 170/155/135
f 123/156/136 170/155/136 171/157/136
f 123/158/137 171/157/137 172/159/137
f 123/160/138 172/159/138 173/161/138
f 123/162/139 173/161/139 174/163/139
f 123/164/140 174/163/140 175/165/140
f 123/166/141 175/167/141 176/168/141
f 123/169/142 176/168/142 177/170/142
f 123/171/143 177/170/143 163/172/143
f 39/6/144 46/60/144 146/65/144 145/5/144
f 68/88/145 75/74/145 144/73/145 143/88/145
f 96/29/146 103/103/146 142/103/146 141/28/146
f 60/48/147 68/88/147 143/88/147 140/48/147
f 110/104/148 4/17/148 139/17/148 138/104/148
f 103/103/149 110/104/149 138/104/149 142/103/149
f 11/18/150 18/24/150 137/24/150 136/18/150
f 4/17/151 11/18/151 136/18/151 139/17/151
f 18/24/152 25/31/152 135/31/152 137/24/152
f 75/74/153 82/42/153 134/42/153 144/73/153
f 46/60/154 53/49/154 133/47/154 146/65/154
f 53/49/155 60/48/155 140/48/155 133/47/155
f 82/42/156 89/43/156 132/43/156 134/42/156
f 25/31/157 32/4/157 131/4/157 135/31/157
f 89/27/158 96/29/158 141/28/158 132/27/158
f 32/4/159 39/6/159 145/5/159 131/4/159
f 115/173/160 114/174/160 147/17/160 148/18/160
f 116/175/161 115/173/161 148/18/161 149/24/161
f 117/176/162 116/175/162 149/24/162 150/31/162
f 118/177/163 117/176/163 150/31/163 151/4/163
f 119/178/164 118/177/164 151/4/164 152/6/164
f 120/179/165 119/178/165 152/6/165 153/60/165
f 121/180/166 120/179/166 153/60/166 154/49/166
f 155/181/167 121/180/167 154/49/167 122/48/167
f 124/182/168 155/181/168 122/48/168 156/88/168
f 125/183/169 124/182/169 156/88/169 157/74/169
f 126/184/170 125/183/170 157/74/170 158/42/170
f 127/185/171 126/184/171 158/42/171 159/43/171
f 128/186/172 127/187/172 159/27/172 160/29/172
f 129/188/173 128/186/173 160/29/173 161/103/173
f 130/189/174 129/188/174 161/103/174 162/104/174
f 114/174/175 130/189/175 162/104/175 147/17/175
f 164/143/176 163/142/176 114/174/176 115/173/176
f 165/145/177 164/143/177 115/173/177 116/175/177
f 166/147/178 165/145/178 116/175/178 117/176/178
f 167/149/179 166/147/179 117/176/179 118/177/179
f 168/151/180 167/149/180 118/177/180 119/178/180
f 169/153/181 168/151/181 119/178/181 120/179/181
f 170/155/182 169/153/182 120/179/182 121/180/182
f 171/157/183 170/155/183 121/180/183 155/181/183
f 172/159/184 171/157/184 155/181/184 124/182/184
f 173/161/185 172/159/185 124/182/185 125/183/185
f 174/163/186 173/161/186 125/183/186 126/184/186
f 175/165/187 174/163/187 126/184/187 127/185/187
f 176/168/188 175/167/188 127/187/188 128/186/188
f 177/170/189 176/168/189 128/186/189 129/188/189
f 163/172/190 177/170/190 129/188/190 130/189/190
f 163/172/191 130/189/191 114/174/191
f 178/113/192 179/190/192 181/191/192 180/192/192
f 180/192/193 181/191/193 183/193/193 182/194/193
f 182/194/194 183/193/194 185/195/194 184/196/194
f 184/196/195 185/195/195 187/197/195 186/198/195
f 186/198/196 187/197/196 189/199/196 188/200/196
f 188/200/197 189/199/197 191/201/197 190/202/197
f 190/202/198 191/201/198 193/203/198 192/204/198
f 181/205/199 179/206/199 195/207/199 193/208/199 191/209/199 189/210/199 187/211/199 185/212/199 183/213/199
f 192/204/200 193/203/200 195/214/200 194/215/200
f 194/215/201 195/214/201 179/216/201 178/217/201
f 192/204/202 194/215/202 204/215/202 203/204/202
f 201/200/203 202/202/203 211/202/203 210/200/203
f 190/202/204 192/204/204 203/204/204 202/202/204
f 188/200/205 190/202/205 202/202/205 201/200/205
f 186/198/206 188/200/206 201/200/206 200/198/206
f 184/196/207 186/198/207 200/198/207 199/196/207
f 178/113/208 180/192/208 197/192/208 196/113/208
f 182/194/209 184/196/209 199/196/209 198/194/209
f 180/192/210 182/194/210 198/194/210 197/192/210
f 194/215/211 178/217/211 196/217/211 204/215/211
f 209/198/212 210/200/212 219/200/212 218/198/212
f 198/194/213 199/196/213 208/196/213 207/194/213
f 202/202/214 203/204/214 212/204/214 211/202/214
f 199/196/215 200/198/215 209/198/215 208/196/215
f 196/113/216 197/192/216 206/192/216 205/113/216
f 203/204/217 204/215/217 213/215/217 212/204/217
f 200/198/218 201/200/218 210/200/218 209/198/218
f 197/192/219 198/194/219 207/194/219 206/192/219
f 204/215/220 196/217/220 205/217/220 213/215/220
f 214/218/221 215/219/221 216/220/221 217/221/221 218/222/221 219/223/221 220/224/221 221/225/221 222/226/221
f 206/192/222 207/194/222 216/194/222 215/192/222
f 213/215/223 205/217/223 214/217/223 222/215/223
f 210/200/224 211/202/224 220/202/224 219/200/224
f 207/194/225 208/196/225 217/196/225 216/194/225
f 211/202/226 212/204/226 221/204/226 220/202/226
f 208/196/227 209/198/227 218/198/227 217/196/227
f 205/113/228 206/192/228 215/192/228 214/113/228
f 212/204/229 213/215/229 222/215/229 221/204/229
f 256/227/230 255/228/230 225/229/230 226/230/230
f 254/231/231 253/232/231 223/233/231 224/234/231
f 243/235/232 256/227/232 226/230/232
f 255/228/233 254/231/233 224/234/233 225/229/233
f 253/232/234 244/236/234 223/233/234
f 226/230/235 225/229/235 229/237/235 230/238/235
f 224/234/236 223/233/236 227/239/236 228/240/236
f 243/241/237 226/230/237 230/238/237
f 225/229/238 224/234/238 228/240/238 229/237/238
f 223/233/239 244/242/239 227/239/239
f 230/238/240 229/237/240 233/243/240 234/244/240
f 228/240/241 227/239/241 231/245/241 232/246/241
f 243/247/242 230/238/242 234/244/242
f 229/237/243 228/240/243 232/246/243 233/243/243
f 227/239/244 244/248/244 231/245/244
f 234/244/245 233/243/245 237/249/245 238/250/245
f 232/246/246 231/245/246 235/251/246 236/252/246
f 243/253/247 234/244/247 238/250/247
f 233/243/248 232/246/248 236/252/248 237/249/248
f 231/245/249 244/254/249 235/251/249
f 238/250/250 237/249/250 241/255/250 242/256/250
f 236/252/251 235/251/251 239/257/251 240/258/251
f 243/259/252 238/250/252 242/256/252
f 237/249/253 236/252/253 240/258/253 241/255/253
f 235/251/254 244/260/254 239/257/254
f 242/256/255 241/255/255 247/261/255 248/262/255
f 240/258/256 239/257/256 245/263/256 246/264/256
f 243/265/257 242/256/257 248/262/257
f 241/255/258 240/258/258 246/264/258 247/261/258
f 239/257/259 244/266/259 245/263/259
f 248/267/260 247/268/260 251/269/260 252/270/260
f 246/271/261 245/272/261 249/273/261 250/274/261
f 243/275/262 248/267/262 252/270/262
f 247/268/263 246/271/263 250/274/263 251/269/263
f 245/272/264 244/276/264 249/273/264
f 252/270/265 251/269/265 255/228/265 256/227/265
f 250/274/266 249/273/266 253/232/266 254/231/266
f 243/277/267 252/270/267 256/227/267
f 251/269/268 250/274/268 254/231/268 255/228/268
f 249/273/269 244/278/269 253/232/269
f 257/113/270 258/190/270 260/191/270 259/192/270
f 259/192/271 260/191/271 262/193/271 261/194/271
f 261/194/272 262/193/272 264/195/272 263/196/272
f 263/196/273 264/195/273 266/197/273 265/198/273
f 265/198/274 266/197/274 268/199/274 267/200/274
f 267/200/275 268/199/275 270/201/275 269/202/275
f 269/202/276 270/201/276 272/203/276 271/204/276
f 260/205/277 258/206/277 274/207/277 272/208/277 270/209/277 268/210/277 266/211/277 264/212/277 262/213/277
f 271/204/278 272/203/278 274/214/278 273/215/278
f 273/215/279 274/214/279 258/216/279 257/217/279
f 269/202/280 271/204/280 282/204/280 281/202/280
f 279/198/281 280/200/281 289/200/281 288/198/281
f 267/200/282 269/202/282 281/202/282 280/200/282
f 265/198/283 267/200/283 280/200/283 279/198/283
f 263/196/284 265/198/284 279/198/284 278/196/284
f 257/113/285 259/192/285 276/192/285 275/113/285
f 261/194/286 263/196/286 278/196/286 277/194/286
f 259/192/287 261/194/287 277/194/287 276/192/287
f 273/215/288 257/217/288 275/217/288 283/215/288
f 271/204/289 273/215/289 283/215/289 282/204/289
f 287/196/290 288/198/290 297/198/290 296/196/290
f 276/192/291 277/194/291 286/194/291 285/192/291
f 283/215/292 275/217/292 284/217/292 292/215/292
f 280/200/293 281/202/293 290/202/293 289/200/293
f 277/194/294 278/196/294 287/196/294 286/194/294
f 281/202/295 282/204/295 291/204/295 290/202/295
f 278/196/296 279/198/296 288/198/296 287/196/296
f 275/113/297 276/192/297 285/192/297 284/113/297
f 282/204/298 283/215/298 292/215/298 291/204/298
f 295/194/299 296/196/299 305/196/299 304/194/299
f 284/113/300 285/192/300 294/192/300 293/113/300
f 291/204/301 292/215/301 301/215/301 300/204/301
f 288/198/302 289/200/302 298/200/302 297/198/302
f 285/192/303 286/194/303 295/194/303 294/192/303
f 292/215/304 284/217/304 293/217/304 301/215/304
f 289/200/305 290/202/305 299/202/305 298/200/305
f 286/194/306 287/196/306 296/196/306 295/194/306
f 290/202/307 291/204/307 300/204/307 299/202/307
f 302/218/221 303/219/221 304/220/221 305/221/221 306/222/221 307/223/221 308/224/221 309/225/221 310/226/221
f 299/202/307 300/204/307 309/204/307 308/202/307
f 296/196/308 297/198/308 306/198/308 305/196/308
f 293/113/309 294/192/309 303/192/309 302/113/309
f 300/204/310 301/215/310 310/215/310 309/204/310
f 297/198/311 298/200/311 307/200/311 306/198/311
f 294/192/312 295/194/312 304/194/312 303/192/312
f 301/215/313 293/217/313 302/217/313 310/215/313
f 298/200/314 299/202/314 308/202/314 307/200/314
f 311/113/315 312/190/315 314/191/315 313/192/315
f 313/192/316 314/191/316 316/193/316 315/194/316
f 315/194/317 316/193/317 318/195/317 317/196/317
f 317/196/318 318/195/318 320/197/318 319/198/318
f 319/198/319 320/197/319 322/199/319 321/200/319
f 321/200/320 322/199/320 324/201/320 323/202/320
f 323/202/321 324/201/321 326/203/321 325/204/321
f 314/205/322 312/206/322 328/207/322 326/208/322 324/209/322 322/210/322 320/211/322 318/212/322 316/213/322
f 325/204/323 326/203/323 328/214/323 327/215/323
f 327/215/324 328/214/324 312/216/324 311/217/324
f 323/202/325 325/204/325 336/204/325 335/202/325
f 333/198/326 334/200/326 343/200/326 342/198/326
f 321/200/327 323/202/327 335/202/327 334/200/327
f 319/198/328 321/200/328 334/200/328 333/198/328
f 317/196/329 319/198/329 333/198/329 332/196/329
f 311/113/330 313/192/330 330/192/330 329/113/330
f 315/194/331 317/196/331 332/196/331 331/194/331
f 313/192/332 315/194/332 331/194/332 330/192/332
f 327/215/333 311/217/333 329/217/333 337/215/333
f 325/204/334 327/215/334 337/215/334 336/204/334
f 341/196/335 342/198/335 351/198/335 350/196/335
f 330/192/336 331/194/336 340/194/336 339/192/336
f 337/215/337 329/217/337 338/217/337 346/215/337
f 334/200/338 335/202/338 344/202/338 343/200/338
f 331/194/339 332/196/339 341/196/339 340/194/339
f 335/202/340 336/204/340 345/204/340 344/202/340
f 332/196/341 333/198/341 342/198/341 341/196/341
f 329/113/342 330/192/342 339/192/342 338/113/342
f 336/204/343 337/215/343 346/215/343 345/204/343
f 349/194/344 350/196/344 359/196/344 358/194/344
f 338/113/345 339/192/345 348/192/345 347/113/345
f 345/204/346 346/215/346 355/215/346 354/204/346
f 342/198/347 343/200/347 352/200/347 351/198/347
f 339/192/348 340/194/348 349/194/348 348/192/348
f 346/215/349 338/217/349 347/217/349 355/215/349
f 343/200/350 344/202/350 353/202/350 352/200/350
f 340/194/351 341/196/351 350/196/351 349/194/351
f 344/202/352 345/204/352 354/204/352 353/202/352
f 356/218/353 357/219/353 358/220/353 359/221/353 360/222/353 361/223/353 362/224/353 363/225/353 364/226/353
f 353/202/354 354/204/354 363/204/354 362/202/354
f 350/196/355 351/198/355 360/198/355 359/196/355
f 347/113/356 348/192/356 357/192/356 356/113/356
f 354/204/357 355/215/357 364/215/357 363/204/357
f 351/198/358 352/200/358 361/200/358 360/198/358
f 348/192/359 349/194/359 358/194/359 357/192/359
f 355/215/360 347/217/360 356/217/360 364/215/360
f 352/200/361 353/202/361 362/202/361 361/200/361
f 365/113/362 366/190/362 368/191/362 367/192/362
f 367/192/363 368/191/363 370/193/363 369/194/363
f 369/194/364 370/193/364 372/195/364 371/196/364
f 371/196/365 372/195/365 374/197/365 373/198/365
f 373/198/366 374/197/366 376/199/366 375/200/366
f 375/200/367 376/199/367 378/201/367 377/202/367
f 377/202/368 378/201/368 380/203/368 379/204/368
f 368/205/369 366/206/369 382/207/369 380/208/369 378/209/369 376/210/369 374/211/369 372/212/369 370/213/369
f 379/204/370 380/203/370 382/214/370 381/215/370
f 381/215/371 382/214/371 366/216/371 365/217/371
f 377/202/372 379/204/372 390/204/372 389/202/372
f 387/198/373 388/200/373 397/200/373 396/198/373
f 375/200/374 377/202/374 389/202/374 388/200/374
f 373/198/375 375/200/375 388/200/375 387/198/375
f 371/196/376 373/198/376 387/198/376 386/196/376
f 365/113/377 367/192/377 384/192/377 383/113/377
f 369/194/378 371/196/378 386/196/378 385/194/378
f 367/192/379 369/194/379 385/194/379 384/192/379
f 381/215/380 365/217/380 383/217/380 391/215/380
f 379/204/381 381/215/381 391/215/381 390/204/381
f 395/196/382 396/198/382 405/198/382 404/196/382
f 384/192/383 385/194/383 394/194/383 393/192/383
f 391/215/384 383/217/384 392/217/384 400/215/384
f 388/200/385 389/202/385 398/202/385 397/200/385
f 385/194/386 386/196/386 395/196/386 394/194/386
f 389/202/387 390/204/387 399/204/387 398/202/387
f 386/196/388 387/198/388 396/198/388 395/196/388
f 383/113/389 384/192/389 393/192/389 392/113/389
f 390/204/390 391/215/390 400/215/390 399/204/390
f 403/194/391 404/196/391 413/196/391 412/194/391
f 392/113/392 393/192/392 402/192/392 401/113/392
f 399/204/393 400/215/393 409/215/393 408/204/393
f 396/198/394 397/200/394 406/200/394 405/198/394
f 393/192/395 394/194/395 403/194/395 402/192/395
f 400/215/396 392/217/396 401/217/396 409/215/396
f 397/200/397 398/202/397 407/202/397 406/200/397
f 394/194/398 395/196/398 404/196/398 403/194/398
f 398/202/399 399/204/399 408/204/399 407/202/399
f 410/218/400 411/219/400 412/220/400 413/221/400 414/222/400 415/223/400 416/224/400 417/225/400 418/226/400
f 407/202/401 408/204/401 417/204/401 416/202/401
f 404/196/402 405/198/402 414/198/402 413/196/402
f 401/113/403 402/192/403 411/192/403 410/113/403
f 408/204/404 409/215/404 418/215/404 417/204/404
f 405/198/405 406/200/405 415/200/405 414/198/405
f 402/192/406 403/194/406 412/194/406 411/192/406
f 409/215/407 401/217/407 410/217/407 418/215/407
f 406/200/408 407/202/408 416/202/408 415/200/408
f 419/113/409 420/190/409 422/191/409 421/192/409
f 421/192/410 422/191/410 424/193/410 423/194/410
f 423/194/411 424/193/411 426/195/411 425/196/411
f 425/196/412 426/195/412 428/197/412 427/198/412
f 427/198/413 428/197/413 430/199/413 429/200/413
f 429/200/414 430/199/414 432/201/414 431/202/414
f 431/202/415 432/201/415 434/203/415 433/204/415
f 422/205/416 420/206/416 436/207/416 434/208/416 432/209/416 430/210/416 428/211/416 426/212/416 424/213/416
f 433/204/417 434/203/417 436/214/417 435/215/417
f 435/215/418 436/214/418 420/216/418 419/217/418
f 431/202/419 433/204/419 444/204/419 443/202/419
f 441/198/420 442/200/420 451/200/420 450/198/420
f 429/200/421 431/202/421 443/202/421 442/200/421
f 427/198/422 429/200/422 442/200/422 441/198/422
f 425/196/423 427/198/423 441/198/423 440/196/423
f 419/113/424 421/192/424 438/192/424 437/113/424
f 423/194/425 425/196/425 440/196/425 439/194/425
f 421/192/426 423/194/426 439/194/426 438/192/426
f 435/215/427 419/217/427 437/217/427 445/215/427
f 433/204/428 435/215/428 445/215/428 444/204/428
f 449/196/429 450/198/429 459/198/429 458/196/429
f 438/192/430 439/194/430 448/194/430 447/192/430
f 445/215/431 437/217/431 446/217/431 454/215/431
f 442/200/432 443/202/432 452/202/432 451/200/432
f 439/194/433 440/196/433 449/196/433 448/194/433
f 443/202/434 444/204/434 453/204/434 452/202/434
f 440/196/435 441/198/435 450/198/435 449/196/435
f 437/113/436 438/192/436 447/192/436 446/113/436
f 444/204/437 445/215/437 454/215/437 453/204/437
f 457/194/438 458/196/438 467/196/438 466/194/438
f 446/113/439 447/192/439 456/192/439 455/113/439
f 453/204/440 454/215/440 463/215/440 462/204/440
f 450/198/441 451/200/441 460/200/441 459/198/441
f 447/192/442 448/194/442 457/194/442 456/192/442
f 454/215/443 446/217/443 455/217/443 463/215/443
f 451/200/444 452/202/444 461/202/444 460/200/444
f 448/194/445 449/196/445 458/196/445 457/194/445
f 452/202/446 453/204/446 462/204/446 461/202/446
f 464/218/447 465/219/447 466/220/447 467/221/447 468/222/447 469/223/447 470/224/447 471/225/447 472/226/447
f 461/202/448 462/204/448 471/204/448 470/202/448
f 458/196/449 459/198/449 468/198/449 467/196/449
f 455/113/450 456/192/450 465/192/450 464/113/450
f 462/204/451 463/215/451 472/215/451 471/204/451
f 459/198/452 460/200/452 469/200/452 468/198/452
f 456/192/453 457/194/453 466/194/453 465/192/453
f 463/215/454 455/217/454 464/217/454 472/215/454
f 460/200/455 461/202/455 470/202/455 469/200/455
f 473/113/456 474/190/456 476/191/456 475/192/456
f 475/192/457 476/191/457 478/193/457 477/194/457
f 477/194/458 478/193/458 480/195/458 479/196/458
f 479/196/459 480/195/459 482/197/459 481/198/459
f 481/198/460 482/197/460 484/199/460 483/200/460
f 483/200/461 484/199/461 486/201/461 485/202/461
f 485/202/462 486/201/462 488/203/462 487/204/462
f 476/205/463 474/206/463 490/207/463 488/208/463 486/209/463 484/210/463 482/211/463 480/212/463 478/213/463
f 487/204/464 488/203/464 490/214/464 489/215/464
f 489/215/465 490/214/465 474/216/465 473/217/465
f 485/202/466 487/204/466 498/204/466 497/202/466
f 495/198/467 496/200/467 505/200/467 504/198/467
f 483/200/468 485/202/468 497/202/468 496/200/468
f 481/198/469 483/200/469 496/200/469 495/198/469
f 479/196/470 481/198/470 495/198/470 494/196/470
f 473/113/471 475/192/471 492/192/471 491/113/471
f 477/194/472 479/196/472 494/196/472 493/194/472
f 475/192/473 477/194/473 493/194/473 492/192/473
f 489/215/474 473/217/474 491/217/474 499/215/474
f 487/204/475 489/215/475 499/215/475 498/204/475
f 503/196/476 504/198/476 513/198/476 512/196/476
f 492/192/477 493/194/477 502/194/477 501/192/477
f 499/215/478 491/217/478 500/217/478 508/215/478
f 496/200/479 497/202/479 506/202/479 505/200/479
f 493/194/480 494/196/480 503/196/480 502/194/480
f 497/202/481 498/204/481 507/204/481 506/202/481
f 494/196/482 495/198/482 504/198/482 503/196/482
f 491/113/483 492/192/483 501/192/483 500/113/483
f 498/204/484 499/215/484 508/215/484 507/204/484
f 511/194/485 512/196/485 521/196/485 520/194/485
f 500/113/486 501/192/486 510/192/486 509/113/486
f 507/204/487 508/215/487 517/215/487 516/204/487
f 504/198/488 505/200/488 514/200/488 513/198/488
f 501/192/489 502/194/489 511/194/489 510/192/489
f 508/215/490 500/217/490 509/217/490 517/215/490
f 505/200/491 506/202/491 515/202/491 514/200/491
f 502/194/492 503/196/492 512/196/492 511/194/492
f 506/202/493 507/204/493 516/204/493 515/202/493
f 518/218/494 519/219/494 520/220/494 521/221/494 522/222/494 523/223/494 524/224/494 525/225/494 526/226/494
f 515/202/495 516/204/495 525/204/495 524/202/495
f 512/196/496 513/198/496 522/198/496 521/196/496
f 509/113/497 510/192/497 519/192/497 518/113/497
f 516/204/498 517/215/498 526/215/498 525/204/498
f 513/198/499 514/200/499 523/200/499 522/198/499
f 510/192/500 511/194/500 520/194/500 519/192/500
f 517/215/501 509/217/501 518/217/501 526/215/501
f 514/200/502 515/202/502 524/202/502 523/200/502
f 527/113/503 528/190/503 530/191/503 529/192/503
f 529/192/504 530/191/504 532/193/504 531/194/504
f 531/194/505 532/193/505 534/195/505 533/196/505
f 533/196/506 534/195/506 536/197/506 535/198/506
f 535/198/507 536/197/507 538/199/507 537/200/507
f 537/200/508 538/199/508 540/201/508 539/202/508
f 539/202/509 540/201/509 542/203/509 541/204/509
f 530/205/510 528/206/510 544/207/510 542/208/510 540/209/510 538/210/510 536/211/510 534/212/510 532/213/510
f 541/204/511 542/203/511 544/214/511 543/215/511
f 543/215/512 544/214/512 528/216/512 527/217/512
f 539/202/513 541/204/513 552/204/513 551/202/513
f 549/198/514 550/200/514 559/200/514 558/198/514
f 537/200/515 539/202/515 551/202/515 550/200/515
f 535/198/516 537/200/516 550/200/516 549/198/516
f 533/196/517 535/198/517 549/198/517 548/196/517
f 527/113/518 529/192/518 546/192/518 545/113/518
f 531/194/519 533/196/519 548/196/519 547/194/519
f 529/192/520 531/194/520 547/194/520 546/192/520
f 543/215/521 527/217/521 545/217/521 553/215/521
f 541/204/522 543/215/522 553/215/522 552/204/522
f 557/196/523 558/198/523 567/198/523 566/196/523
f 546/192/524 547/194/524 556/194/524 555/192/524
f 553/215/525 545/217/525 554/217/525 562/215/525
f 550/200/526 551/202/526 560/202/526 559/200/526
f 547/194/527 548/196/527 557/196/527 556/194/527
f 551/202/528 552/204/528 561/204/528 560/202/528
f 548/196/529 549/198/529 558/198/529 557/196/529
f 545/113/530 546/192/530 555/192/530 554/113/530
f 552/204/531 553/215/531 562/215/531 561/204/531
f 565/194/532 566/196/532 575/196/532 574/194/532
f 554/113/533 555/192/533 564/192/533 563/113/533
f 561/204/534 562/215/534 571/215/534 570/204/534
f 558/198/535 559/200/535 568/200/535 567/198/535
f 555/192/536 556/194/536 565/194/536 564/192/536
f 562/215/537 554/217/537 563/217/537 571/215/537
f 559/200/538 560/202/538 569/202/538 568/200/538
f 556/194/539 557/196/539 566/196/539 565/194/539
f 560/202/540 561/204/540 570/204/540 569/202/540
f 572/218/447 573/219/447 574/220/447 575/221/447 576/222/447 577/223/447 578/224/447 579/225/447 580/226/447
f 569/202/541 570/204/541 579/204/541 578/202/541
f 566/196/542 567/198/542 576/198/542 575/196/542
f 563/113/543 564/192/543 573/192/543 572/113/543
f 570/204/544 571/215/544 580/215/544 579/204/544
f 567/198/545 568/200/545 577/200/545 576/198/545
f 564/192/546 565/194/546 574/194/546 573/192/546
f 571/215/547 563/217/547 572/217/547 580/215/547
f 568/200/548 569/202/548 578/202/548 577/200/548
f 581/113/549 582/190/549 584/191/549 583/192/549
f 583/192/550 584/191/550 586/193/550 585/194/550
f 585/194/551 586/193/551 588/195/551 587/196/551
f 587/196/552 588/195/552 590/197/552 589/198/552
f 589/198/553 590/197/553 592/199/553 591/200/553
f 591/200/554 592/199/554 594/201/554 593/202/554
f 593/202/555 594/201/555 596/203/555 595/204/555
f 584/205/556 582/206/556 598/207/556 596/208/556 594/209/556 592/210/556 590/211/556 588/212/556 586/213/556
f 595/204/557 596/203/557 598/214/557 597/215/557
f 597/215/558 598/214/558 582/216/558 581/217/558
f 593/202/559 595/204/559 606/204/559 605/202/559
f 603/198/560 604/200/560 613/200/560 612/198/560
f 591/200/561 593/202/561 605/202/561 604/200/561
f 589/198/562 591/200/562 604/200/562 603/198/562
f 587/196/563 589/198/563 603/198/563 602/196/563
f 581/113/564 583/192/564 600/192/564 599/113/564
f 585/194/565 587/196/565 602/196/565 601/194/565
f 583/192/566 585/194/566 601/194/566 600/192/566
f 597/215/567 581/217/567 599/217/567 607/215/567
f 595/204/568 597/215/568 607/215/568 606/204/568
f 611/196/569 612/198/569 621/198/569 620/196/569
f 600/192/570 601/194/570 610/194/570 609/192/570
f 607/215/571 599/217/571 608/217/571 616/215/571
f 604/200/572 605/202/572 614/202/572 613/200/572
f 601/194/573 602/196/573 611/196/573 610/194/573
f 605/202/574 606/204/574 615/204/574 614/202/574
f 602/196/575 603/198/575 612/198/575 611/196/575
f 599/113/576 600/192/576 609/192/576 608/113/576
f 606/204/577 607/215/577 616/215/577 615/204/577
f 619/194/578 620/196/578 629/196/578 628/194/578
f 608/113/579 609/192/579 618/192/579 617/113/579
f 615/204/580 616/215/580 625/215/580 624/204/580
f 612/198/581 613/200/581 622/200/581 621/198/581
f 609/192/582 610/194/582 619/194/582 618/192/582
f 616/215/583 608/217/583 617/217/583 625/215/583
f 613/200/584 614/202/584 623/202/584 622/200/584
f 610/194/585 611/196/585 620/196/585 619/194/585
f 614/202/586 615/204/586 624/204/586 623/202/586
f 626/218/587 627/219/587 628/220/587 629/221/587 630/222/587 631/223/587 632/224/587 633/225/587 634/226/587
f 623/202/588 624/204/588 633/204/588 632/202/588
f 620/196/589 621/198/589 630/198/589 629/196/589
f 617/113/590 618/192/590 627/192/590 626/113/590
f 624/204/591 625/215/591 634/215/591 633/204/591
f 621/198/592 622/200/592 631/200/592 630/198/592
f 618/192/593 619/194/593 628/194/593 627/192/593
f 625/215/594 617/217/594 626/217/594 634/215/594
f 622/200/595 623/202/595 632/202/595 631/200/595
f 655/279/596 656/280/596 657/281/596 658/282/596 659/283/596 660/284/596 661/285/596 662/286/596 663/287/596 664/288/596
f 665/279/597 666/280/597 667/281/597 668/282/597 669/283/597 670/284/597 671/285/597 672/286/597 673/287/597 674/288/597
f 675/279/598 676/280/598 677/281/598 678/282/598 679/283/598 680/284/598 681/285/598 682/286/598 683/287/598 684/288/598
f 685/279/599 686/280/599 687/281/599 688/282/599 689/283/599 690/284/599 691/285/599 692/286/599 693/287/599 694/288/599
f 695/279/600 696/280/600 697/281/600 698/282/600 699/283/600 700/284/600 701/285/600 702/286/600 703/287/600 704/288/600
f 705/279/601 706/280/601 707/281/601 708/282/601 709/283/601 710/284/601 711/285/601 712/286/601 713/287/601 714/288/601
