# Made in Blockbench 4.9.4
mtllib barco.mtl

o cabine
v 0.828125 1.734375 0.4375
v 0.828125 1.734375 -0.4375
v 0.828125 0.28125 0.4375
v 0.828125 0.28125 -0.4375
v -0.90625 1.734375 0.4375
v -0.90625 1.734375 -0.4375
v -0.90625 0.28125 0.4375
v -0.90625 0.28125 -0.4375
v 0.0859375 1.734375 0.4375
v 0.0859375 1.734375 -0.4375
v 0.0859375 0.28125 -0.4375
v 0.0859375 0.28125 0.4375
v 0.10186343080937953 0.3416868656355941 -0.4375
v 0.10186343080937953 0.3416868656355941 0.4375
v 1.0764563106796117 1.8177083333333333 -0.564236111111111
v -0.06864381067961167 1.8177083333333333 0.564236111111111
v -0.06864381067961167 1.8177083333333333 -0.564236111111111
v 1.0764563106796117 1.8177083333333333 0.564236111111111
v 1.125 1.734375 -0.625
v -0.1171875 1.734375 -0.625
v -0.1171875 1.734375 0.625
v 1.125 1.734375 0.625
v -0.814453125 0.28125 -0.375
v 0.07270551801801806 0.28125 -0.375
v 0.07270551801801806 0.28125 0.375
v -0.814453125 0.28125 0.375
v 0.736328125 0.28125 0.375
v 0.736328125 0.28125 -0.375
v -0.814453125 1.65625 -0.375
v 0.07270551801801806 1.65625 -0.375
v 0.07270551801801806 1.65625 0.375
v -0.814453125 1.65625 0.375
v 0.736328125 1.65625 0.375
v 0.736328125 1.65625 -0.375
v -0.658203125 0.28515625 0.4375
v -0.162109375 0.28515625 0.4375
v -0.162109375 1.23046875 0.4375
v -0.658203125 1.23046875 0.4375
v -0.6707884642454955 1.234375 0.375
v -0.13345914273648646 1.234375 0.375
v -0.13345914273648646 0.28125 0.375
v -0.6707884642454955 0.28125 0.375
v 0.736328125 1.55625 0.37946428571428575
v 0.736328125 1.55625 -0.37946428571428575
v 0.736328125 0.875 -0.37946428571428575
v 0.736328125 0.875 0.37946428571428575
v 0.828125 1.55859375 0.4375
v 0.828125 0.89453125 0.4375
v 0.828125 1.55859375 -0.4375
v 0.828125 0.89453125 -0.4375
v 0.14173616976351355 1.55625 -0.375
v 0.14173616976351355 0.875 -0.375
v 0.14066436748636107 0.89453125 0.4375
v 0.14066436748636107 1.55859375 0.4375
v 0.13236116976351353 1.55625 0.375
v 0.13236116976351353 0.875 0.375
v 0.14691436748636108 1.55859375 -0.4375
v 0.14691436748636108 0.89453125 -0.4375
vt 0.5703125 0.4453125
vt 0.5703125 0.53515625
vt 0.515625 0.53515625
vt 0.515625 0.4453125
vt 0.0703125 0.50390625
vt 0 0.50390625
vt 0 0.43359375
vt 0.0703125 0.43359375
vt 0.6207275390625 0.83984375
vt 0.5792509765625 0.83984375
vt 0.5792509765625 0.79296875
vt 0.6207275390625 0.79296875
vt 0.30078125 0.38671875
vt 0.36328125 0.38671875
vt 0.36328125 0.44140625
vt 0.30078125 0.44140625
vt 0.10888671875 0.828125
vt 0.046875 0.828125
vt 0.046875 0.7373046875
vt 0.10888671875 0.7373046875
vt 0.5238037109375 0.79296875
vt 0.5792509765625 0.79296875
vt 0.5792509765625 0.83984375
vt 0.5238037109375 0.83984375
vt 0.570940625 0.90625
vt 0.499371875 0.90625
vt 0.496337890625 0.8984375
vt 0.573974609375 0.8984375
vt 0.23057734375 0.859375
vt 0.16004765625 0.859375
vt 0.15625 0.8515625
vt 0.234375 0.8515625
vt 0.570940625 0.62890625
vt 0.499371875 0.62890625
vt 0.496337890625 0.62109375
vt 0.573974609375 0.62109375
vt 0.57042109375 0.91796875
vt 0.49989140625 0.91796875
vt 0.49609375 0.91015625
vt 0.57421875 0.91015625
vt 0.492431640625 0.921875
vt 0.570068359375 0.921875
vt 0.551513671875 0.93359375
vt 0.505126953125 0.93359375
vt 0.492431640625 1
vt 0.492431640625 0.921875
vt 0.505126953125 0.93359375
vt 0.505126953125 0.98828125
vt 0.570068359375 1
vt 0.492431640625 1
vt 0.505126953125 0.98828125
vt 0.551513671875 0.98828125
vt 0.570068359375 0.921875
vt 0.570068359375 1
vt 0.551513671875 0.98828125
vt 0.551513671875 0.93359375
vt 0.577298046875 0.54296875
vt 0.52185078125 0.54296875
vt 0.51611328125 0.5390625
vt 0.578125 0.5390625
vt 0.52185078125 0.58984375
vt 0.577298046875 0.58984375
vt 0.578125 0.59375
vt 0.51611328125 0.59375
vt 0.52185078125 0.54296875
vt 0.52185078125 0.58984375
vt 0.51611328125 0.59375
vt 0.51611328125 0.5390625
vt 0.577298046875 0.58984375
vt 0.618774609375 0.58984375
vt 0.62451171875 0.59375
vt 0.578125 0.59375
vt 0.618774609375 0.54296875
vt 0.577298046875 0.54296875
vt 0.578125 0.5390625
vt 0.62451171875 0.5390625
vt 0.618774609375 0.58984375
vt 0.618774609375 0.54296875
vt 0.62451171875 0.5390625
vt 0.62451171875 0.59375
vt 0.3565934860412959 0.53125
vt 0.3011462204162959 0.53125
vt 0.3011462204162959 0.4453125
vt 0.3565934860412959 0.4453125
vt 0.15234375 0.44921875
vt 0.10546875 0.44921875
vt 0.10546875 0.36328125
vt 0.15234375 0.36328125
vt 0.234496875 0.440673828125
vt 0.203491015625 0.440673828125
vt 0.18798828125 0.4404296875
vt 0.25 0.4404296875
vt 0.234496875 0.499755859375
vt 0.234496875 0.440673828125
vt 0.25 0.4404296875
vt 0.25 0.53125
vt 0.203491015625 0.499755859375
vt 0.234496875 0.499755859375
vt 0.25 0.53125
vt 0.18798828125 0.53125
vt 0.203491015625 0.440673828125
vt 0.203491015625 0.499755859375
vt 0.18798828125 0.53125
vt 0.18798828125 0.4404296875
vt 0.21097812499990687 0.9267575244020562
vt 0.24456132812490688 0.9267575244020562
vt 0.25354062499990687 0.9531247119020562
vt 0.1980929687499069 0.9531247119020562
vt 0.21097812499990687 0.8671872119020562
vt 0.21097812499990687 0.9267575244020562
vt 0.1980929687499069 0.9531247119020562
vt 0.1980929687499069 0.8671872119020562
vt 0.010552148437500002 1
vt 0.04413535156250001 1
vt 0.057020507812499996 1
vt 0.0015732421875000006 1
vt 0.24456132812490688 0.9267575244020562
vt 0.24456132812490688 0.8671872119020562
vt 0.25354062499990687 0.8671872119020562
vt 0.25354062499990687 0.9531247119020562
vt 0.41796875 0.479736328125
vt 0.421875 0.4794921875
vt 0.421875 0.5390625
vt 0.41796875 0.538818359375
vt 0.37109375 0.441162109375
vt 0.3671875 0.44140625
vt 0.3671875 0.3818359375
vt 0.37109375 0.382080078125
vt 0.0335833984375 0.99609375
vt 0.0343697265625 1
vt 0.0007865234374999988 1
vt 0.0025775390624999985 0.99609375
vt 0.27120546875 0.8359375
vt 0.31863828125 0.8359375
vt 0.318359375 0.84375
vt 0.271484375 0.84375
vt 0.28738828125 0.43359375
vt 0.23995546875 0.43359375
vt 0.240234375 0.39453125
vt 0.287109375 0.39453125
vt 0.0546875 0.86328125
vt 0.109375 0.86328125
vt 0.109375 0.875
vt 0.0546875 0.875
vt 0.25390625 0.57421875
vt 0.19921875 0.57421875
vt 0.19921875 0.53515625
vt 0.25390625 0.53515625
vt 0.3609079391662959 0.525
vt 0.39807082343445743 0.5249782634651459
vt 0.3980725295837041 0.5312345135373737
vt 0.3565971378280692 0.5312447099512565
vt 0.3609079391662959 0.482421875
vt 0.3609079391662959 0.525
vt 0.3565934860412959 0.53125
vt 0.3565934860412959 0.4453125
vt 0.39807082979129593 0.482421875
vt 0.3609079391662959 0.482421875
vt 0.3565934860412959 0.4453125
vt 0.39806887666629587 0.4453125
vt 0.25342031249999997 0.520263671875
vt 0.29638671875 0.520263671875
vt 0.29638671875 0.53125
vt 0.25 0.53125
vt 0.25342031249999997 0.478759765625
vt 0.25342031249999997 0.520263671875
vt 0.25 0.53125
vt 0.25 0.4404296875
vt 0.29638671875 0.478759765625
vt 0.25342031249999997 0.478759765625
vt 0.25 0.4404296875
vt 0.29638671875 0.4404296875
vt 0.15661562501417803 0.9468757498987845
vt 0.19436445312490688 0.9468747119020562
vt 0.1980931406183365 0.953125
vt 0.1566177499660517 0.9531245779677162
vt 0.19436445312490688 0.9042965869020562
vt 0.15661562500009313 0.904296705480248
vt 0.15661746155189687 0.8671861585992959
vt 0.19809285218405454 0.8671883720650706
vt 0.19436445312490688 0.9468747119020562
vt 0.19436445312490688 0.9042965869020562
vt 0.1980929687499069 0.8671872119020562
vt 0.1980929687499069 0.9531247119020562
vt 0.0430640625 0.775634765625
vt 0.00048828125 0.775634765625
vt 0.00048828125 0.7373046875
vt 0.046875 0.7373046875
vt 0.0430640625 0.817138671875
vt 0.0430640625 0.775634765625
vt 0.046875 0.7373046875
vt 0.046875 0.828125
vt 0.00048828125 0.817138671875
vt 0.0430640625 0.817138671875
vt 0.046875 0.828125
vt 0.00048828125 0.828125
vt 0.5612683814083089 0.3864341778879665
vt 0.5553064679981907 0.3899010560060666
vt 0.517613767897015 0.3878432941409298
vt 0.5183834274031941 0.3837917255727439
vt 0.5597845568170625 0.441101562189554
vt 0.5540195092166911 0.43731640625
vt 0.5553064679981907 0.3899010560060666
vt 0.5612683515712374 0.386434195238351
vt 0.5172093529666911 0.44140625
vt 0.5168566185916911 0.43731640625
vt 0.5540195092166911 0.43731640625
vt 0.5597839623416911 0.441101171875
vt 0.41015625 0.46240234375
vt 0.4140625 0.461181640625
vt 0.4140625 0.503759765625
vt 0.41015625 0.50390625
vt 0.40234375 0.461181640625
vt 0.40625 0.46240234375
vt 0.40625 0.50390625
vt 0.40234375 0.503759765625
vt 0.23211908635886724 0.42582260853166787
vt 0.23179564885886722 0.42973159290666785
vt 0.18921986760886722 0.42973159290666785
vt 0.19495736760886723 0.4261015147816678
vt 0.18919284459381147 0.37504409958317875
vt 0.19493408941609597 0.3786686068249052
vt 0.19495752763518306 0.42610141353408115
vt 0.18921986760886722 0.42973159290666785
vt 0.23215932478136805 0.375
vt 0.23268215540618853 0.37890847932938976
vt 0.19493408941609597 0.3786686068249052
vt 0.1891929423109901 0.3750441612730444
vn -1 0 0
vn 0 1 0
vn 0 -1 0
vn 0 1 0
vn 0 0 -1
vn 0 -1 0
vn 0 0.5891721574494426 -0.808007530216377
vn -0.8640830132963309 0.5033493281337852 0
vn 0 0.5891721574494426 0.808007530216377
vn 0.8640830132963309 0.5033493281337852 0
vn 0 -1 0
vn 0 -1 0
vn 0 -1 0
vn 0 -1 0
vn 0 -1 0
vn 0 -1 0
vn 0 -1 0
vn 0 -1 0
vn 0 -1 0
vn 0 -1 0
vn 0 0 1
vn 1 0 0
vn 0 0 1
vn 0 0 1
vn 0 0 1
vn 0 0 1
vn 0 0 -1
vn 0 0 -1
vn 0 0 0
vn 0 0 -1
vn 0.9803224156956976 0 -0.1974030427439049
vn -0.9090405875591338 0 -0.41670758352848
vn 0 -0.9980525784828886 -0.06237828615518054
vn -1 0 0
vn -1 0 0
vn 1 0 0
vn 1 0 0
vn 0.007500468575847401 -0.04459718275702927 0.9989768937574477
vn 0 0 1
vn 0.007507935733943535 -0.0008728887528040713 0.9999714340751142
vn 0 0 1
vn 0 0 1
vn 0 0 1
vn 0.007391332139064745 0.004409347360233346 -0.9999629622466358
vn 0.007391195086230934 0.00751837910196173 -0.9999444205609013
vn 0 0 -1
vn 0 0 -1
vn 0 0 -1
vn 0 0 -1
vn 0.0023826304242019402 0.9466200334666747 -0.3223427295780275
vn -0.20810764446485863 0.9781059289848356 0
vn 0.0022407576677502703 0.9544247129113698 0.2984433721648446
vn 0.9912904056264806 0 -0.1316940838188546
vn 0.9965854114359725 0 0.0825682609299331
vn 0 -0.9992976157091806 -0.037473660589095695
vn 0.02552359710457359 -0.9996742199290944 0
vn -0.0002772624049068912 -0.9992961972629727 0.037510442030467765
usemtl m_2f88162b-3bec-932f-d54d-123f0508844e
f 7/1/1 5/2/1 6/3/1 8/4/1
f 15/5/2 17/6/2 16/7/2 18/8/2
f 33/9/3 31/10/3 30/11/3 34/12/3
f 5/13/4 9/14/4 10/15/4 6/16/4
f 6/17/5 10/18/5 11/19/5 8/20/5
f 29/21/6 30/22/6 31/23/6 32/24/6
f 17/25/7 15/26/7 19/27/7 20/28/7
f 16/29/8 17/30/8 20/31/8 21/32/8
f 18/33/9 16/34/9 21/35/9 22/36/9
f 15/37/10 18/38/10 22/39/10 19/40/10
f 20/41/11 19/42/11 2/43/11 10/44/11
f 21/45/12 20/46/12 10/47/12 9/48/12
f 22/49/13 21/50/13 9/51/13 1/52/13
f 19/53/14 22/54/14 1/55/14 2/56/14
f 24/57/15 23/58/15 8/59/15 11/60/15
f 26/61/16 25/62/16 12/63/16 7/64/16
f 23/65/17 26/66/17 7/67/17 8/68/17
f 25/69/18 27/70/18 3/71/18 12/72/18
f 28/73/19 24/74/19 11/75/19 4/76/19
f 27/77/20 28/78/20 4/79/20 3/80/20
f 30/81/21 29/82/21 23/83/21 24/84/21
f 29/85/22 32/86/22 26/87/22 23/88/22
f 36/89/23 35/90/23 7/91/23 12/92/23
f 37/93/24 36/94/24 12/95/24 9/96/24
f 38/97/25 37/98/25 9/99/25 5/100/25
f 35/101/26 38/102/26 5/103/26 7/104/26
f 40/105/27 39/106/27 32/107/27 31/108/27
f 41/109/28 40/110/28 31/111/28 25/112/28
f 42/113/29 41/114/29 25/115/29 26/116/29
f 39/117/30 42/118/30 26/119/30 32/120/30
f 35/121/31 42/122/31 39/123/31 38/124/31
f 37/125/32 40/126/32 41/127/32 36/128/32
f 38/129/33 39/130/33 40/131/33 37/132/33
f 44/133/34 43/134/34 33/135/34 34/136/34
f 46/137/35 45/138/35 28/139/35 27/140/35
f 47/141/36 49/142/36 2/143/36 1/144/36
f 50/145/37 48/146/37 3/147/37 4/148/37
f 51/149/38 44/150/38 34/151/38 30/152/38
f 52/153/39 51/154/39 30/155/39 24/156/39
f 45/157/40 52/158/40 24/159/40 28/160/40
f 54/161/41 47/162/41 1/163/41 9/164/41
f 53/165/42 54/166/42 9/167/42 12/168/42
f 48/169/43 53/170/43 12/171/43 3/172/43
f 43/173/44 55/174/44 31/175/44 33/176/44
f 56/177/45 46/178/45 27/179/45 25/180/45
f 55/181/46 56/182/46 25/183/46 31/184/46
f 58/185/47 50/186/47 4/187/47 11/188/47
f 57/189/48 58/190/48 11/191/48 10/192/48
f 49/193/49 57/194/49 10/195/49 2/196/49
f 48/197/50 46/198/50 56/199/50 53/200/50
f 50/201/51 45/202/51 46/203/51 48/204/51
f 58/205/52 52/206/52 45/207/52 50/208/52
f 53/209/53 56/210/53 55/211/53 54/212/53
f 52/213/54 58/214/54 57/215/54 51/216/54
f 51/217/55 57/218/55 49/219/55 44/220/55
f 47/221/56 43/222/56 44/223/56 49/224/56
f 54/225/57 55/226/57 43/227/57 47/228/57
o casco
v -2.671875 0.890625 1.03125
v -2.671875 0.890625 -1.03125
v -2.53125 0.03125 0.769806338028169
v -2.53125 0.03125 -0.769806338028169
v -0.8906250000000006 0.8125 1.296875
v -0.8906250000000006 0.8125 -1.296875
v 1.0156249999999998 0.8125 1.2857142857142856
v 1.0156249999999998 0.8125 -1.2857142857142856
v -0.8906250000000006 0.03125 -1.119718309859155
v 1.0156249999999998 0.03125 -0.9597585513078472
v -0.8906250000000006 0.03125 1.119718309859155
v 1.0156249999999998 0.03125 0.9597585513078472
v 1.0218749999999999 0.8125 1.0653698979591837
v 1.0218749999999999 0.8125 -1.0653698979591837
v -1.0218750000000008 0.8125 1.1218998015873014
v -1.0218750000000008 0.8125 -1.1218998015873014
v -2.5546875 0.890625 0.8921130952380952
v -2.5546875 0.890625 -0.8921130952380952
v 1.0347426470588235 0.34375 0.9764498184227951
v 1.0347426470588235 0.34375 -0.9764498184227951
v -1.1909926470588243 0.34375 1.0598591549295775
v -1.1909926470588243 0.34375 -1.0598591549295775
v -2.5308593750000004 0.34375 0.6427156690140844
v -2.5308593750000004 0.34375 -0.6427156690140844
v -2.12109375 -0.359375 -0.3849031690140845
v -0.8906250000000006 -0.359375 -0.5598591549295775
v -0.8906250000000006 -0.359375 0.5598591549295775
v -2.12109375 -0.359375 0.3849031690140845
v 0.8906249999999998 -0.359375 -0.4798792756539236
v 0.8906249999999998 -0.359375 0.4798792756539236
v -2.7421875 0.890625 0
v -2.859375 0.890625 0
v -2.53125 0.03125 0
v -2.12109375 -0.359375 0
v -0.8906250000000006 -0.359375 0
v 0.8906249999999998 -0.359375 0
v 2.859375 0.03125 0
v 3 1.140625 0
v 2.7652343750000004 0.28125 0
v -1.1909926470588243 0.34375 0
v -2.5308593750000004 0.34375 0
v 2.12109375 -0.359375 0
v 2.8515625 1.140625 0
vt 0.04126928173560031 0.914306640625
vt 0.08938217236060031 0.914306640625
vt 0.08938217236060031 0.971799609375
vt 0.02492904736060031 0.96761953125
vt 0.4268791015625 0.5403351562500001
vt 0.4268791015625 0.500165234375
vt 0.5106208984375 0.500165234375
vt 0.5106208984375 0.56640625
vt 0.5177030997696705 0.8316099834228334
vt 0.4050419587120949 0.8306675474846323
vt 0.4049761407007836 0.7805998655789015
vt 0.5095659809181148 0.775625955852742
vt 0.4050419587120949 0.8306675474846323
vt 0.28589938058709496 0.8306675474846323
vt 0.28578023996209495 0.7777601256096324
vt 0.40497711496209493 0.7813409849846324
vt 0.10542712227857232 0.6168837532067479
vt 0.10542712227857232 0.651874768831748
vt 0.028522825403572316 0.651874768831748
vt 0.028522825403572316 0.627818128206748
vt 0.21675524727857232 0.621882190706748
vt 0.21675524727857232 0.651874768831748
vt 0.10542712227857232 0.651874768831748
vt 0.10542712227857232 0.6168837532067479
vt 0.2529494684687651 0.6710601679237802
vt 0.35757393798720344 0.6778616332958911
vt 0.3566343292869365 0.7279205752955542
vt 0.24412142898931993 0.7268988472749259
vt 0.35757393798720344 0.6778616332958911
vt 0.4771333129872034 0.6778616332958911
vt 0.4754297973622034 0.7307417114208912
vt 0.3566481567372034 0.7271838989208912
vt 0.24317983280989444 0.8469629077288066
vt 0.11544545780989443 0.8434297046038066
vt 0.12364858280989444 0.8324937671038066
vt 0.24278920780989444 0.8331914233538066
vt 0.11526814692687425 0.9890458038734027
vt 0.24301005566691541 0.9857963681663725
vt 0.2425888386247685 0.9995669507969259
vt 0.12344695777586752 0.9999999374249858
vt 0.11544545780989443 0.8434297046038066
vt 0.019529268751306117 0.8578498809503132
vt 0.012208147667149255 0.8491511783507388
vt 0.12363506546662559 0.832511787653433
vt 0.01935931135706409 0.9745758509661033
vt 0.11526814692687425 0.9890458038734027
vt 0.12344700449697074 1
vt 0.012038612740150889 0.983238782205021
vt 0.012162230915447048 0.9780574206450939
vt 0.0004664402335158302 0.9136001254477885
vt 0.007790658518858046 0.9136027343767221
vt 0.01948954679950507 0.9693639363757189
vt 0.5583474169233579 0.8514440298243537
vt 0.6975536669233579 0.8514440298243537
vt 0.6871360887983579 0.8810506704493537
vt 0.5593591356733578 0.8812315298243537
vt 0.4236238039470919 0.7383468943364611
vt 0.562830053947092 0.7383468943364611
vt 0.561818335197092 0.768160175586461
vt 0.434041382072092 0.767928144336461
vt 0.6975536669233579 0.8514440298243537
vt 0.785118508735056 0.8464655995943717
vt 0.7840381912720574 0.8840457144539886
vt 0.6878573131881031 0.8790009587926754
vt 0.33595148946566755 0.7359073118859766
vt 0.4236238039470919 0.7383468943364611
vt 0.4340493191569372 0.7679506820979503
vt 0.33820326942954826 0.7704497174784278
vt 0.19495967692954652 0.566087855100047
vt 0.13814110432045348 0.5703121826840021
vt 0.13814110432045348 0.5336695312499999
vt 0.1775605087216427 0.5336691220200674
vt 0.10542677667097919 0.6168837376895734
vt 0.028204765172113372 0.6252856040121288
vt 0.0023689071649814764 0.5911619241584085
vt 0.10576906215116258 0.5744894004595205
vt 0.028522825403572316 0.675931409456748
vt 0.1054271157984603 0.6868657835353954
vt 0.10433801696686244 0.7295184216275505
vt 0.0016130858424323047 0.7089538847734345
vt 0.06532553173560031 0.87890625
vt 0.08938217236060031 0.87890625
vt 0.08938217236060031 0.914306640625
vt 0.04126928173560031 0.914306640625
vt 0.21675524727857232 0.621882190706748
vt 0.10542677667097919 0.6168837376895734
vt 0.10577124734212323 0.57421875
vt 0.2249494141575677 0.5833801161117772
vt 0.1054271157984603 0.6868657835353954
vt 0.2168605604182014 0.685600745761369
vt 0.22376095710713123 0.7244467926414252
vt 0.1043405619931689 0.7294187501534515
vt 0.019529268751306117 0.8578498809503132
vt 0.007790658518858046 0.9136027343767221
vt 0.0004664402335158302 0.9136001254477885
vt 0.012208148064679708 0.8491511788230708
vt 0.1547584526393997 0.9676197326841992
vt 0.08938217236060031 0.971799609375
vt 0.08938217236060034 0.9143066782047073
vt 0.13681596167816845 0.9143071003677861
vt 0.13749506298560032 0.914306640625
vt 0.08938217236060031 0.914306640625
vt 0.08938217236060032 0.87890625
vt 0.11343881298560032 0.87890625
vt 0.028522825403572316 0.675931409456748
vt 0.028522825403572316 0.651874768831748
vt 0.10542712227857232 0.651874768831748
vt 0.10542712227857232 0.6868657844567481
vt 0.10542712227857232 0.6868657844567481
vt 0.10542712227857232 0.651874768831748
vt 0.21675524727857232 0.651874768831748
vt 0.21675524727857232 0.681867346956748
vt 0.5106208984375 0.43392421875
vt 0.5106208984375 0.500165234375
vt 0.4268791015625 0.500165234375
vt 0.4268791015625 0.45999531250000003
vt 0.0979711824454535 0.5336695312499999
vt 0.13814110432045348 0.5336695312499999
vt 0.13814110432045348 0.5703125
vt 0.08238407307045349 0.566088671875
vt 0.34153954995877334 0.94140625
vt 0.42408545004122666 0.94140625
vt 0.3633348115450104 0.9972917180818226
vt 0.5604309980364219 0.6328125
vt 0.6056530547964105 0.658892391678032
vt 0.4771333129872034 0.6778616332958911
vt 0.47839148703861045 0.639002451819368
vt 0.15788621707522008 0.7549503630153429
vt 0.20399270309300768 0.73046875
vt 0.28599225412929125 0.7399519574337599
vt 0.2852731132771169 0.7776694603215084
vt 0.42581899126494405 0.890625
vt 0.43489481830457577 0.8374119808238448
vt 0.5583474169233579 0.8514440298243537
vt 0.5593548598418949 0.881105638780325
vt 0.5618183375563093 0.768160106065154
vt 0.562830053947092 0.7383468943364611
vt 0.6862919318830719 0.7244027761873189
vt 0.6952985105343324 0.77734375
vt 0.2708638671875 0.66796875
vt 0.2708638671875 0.53548671875
vt 0.4099724609375 0.5406996093750001
vt 0.4099724609375 0.662755859375
vt 0.4099724609375 0.5406996093750001
vt 0.5181986328125 0.601727734375
vt 0.4099724609375 0.662755859375
vt 0.15788621707522008 0.7549503630153429
vt 0.28578023946499853 0.7777599048613512
vt 0.28589938058709496 0.8306675474846323
vt 0.1385469002303294 0.8189839173706366
vt 0.4754297887769364 0.7307419779224615
vt 0.4771333129872034 0.6778616332958911
vt 0.6056530547964105 0.658892391678032
vt 0.6230660710106801 0.723476384475946
vt 0.3574437240133796 0.916784871079073
vt 0.36672105976648417 0.9167970522051024
vt 0.2425888386247685 0.9995669507969259
vt 0.24299698359395872 0.9862237251885039
vt 0.36672105976648417 0.9167970522051024
vt 0.3574437240133796 0.916784871079073
vt 0.24317983280989444 0.8469629077288066
vt 0.24280648944599248 0.833800687434443
vn -0.9342183861793727 -0.3567015656321241 0
vn 0 1 0
vn -0.1532964217511104 -0.21853223493746632 -0.9637135826434853
vn 0.005403284252288982 -0.38504747253990107 -0.922880950290948
vn 0 -1 0
vn 0 -1 0
vn -0.20364054980662963 -0.2165121694642183 0.9548052193763666
vn 0.07721194046405912 -0.38390359530356327 0.9201393078022332
vn 0 1 0
vn 0 1 0
vn 0.04517544860490728 0.998254208399528 0.038048840402528865
vn 0.05727853895925874 0.9974332951731928 0.04296499336249437
vn 0 1 0
vn -0.03705702274253076 0.14424691611471951 -0.988847614274744
vn -0.03680033925555082 0.18527108178064486 0.9819981472928073
vn 0.27124112321531874 0.409133917799565 -0.8712276914692686
vn 0.2972045578208382 0.019120752917815065 0.9546223586415604
vn 0.9153531347925098 0.3537186042305336 0.1923844787053482
vn -0.0935995850497038 -0.7469246886966359 -0.658287647684473
vn -0.08109210569009016 -0.8174084253561084 0.5703223093581338
vn -0.6896551724137931 -0.7241379310344828 0
vn 0.025684173418721847 -0.8198388155256017 -0.5720180414929021
vn 0.028136214955215857 -0.7788104299603753 0.626628013731376
vn 0 1 0
vn -0.9210262753514851 -0.3516645778614761 0.1674593227911791
vn -0.6896551724137931 -0.7241379310344828 0
vn 0 -1 0
vn 0 -1 0
vn 0 1 0
vn 0.9327777705127783 0.3604519813195802 0
vn 0 -1 0
vn 0.3478906685885158 -0.6575133636322948 0.6683174839505406
vn 0.2995191039924112 -0.5660911065456572 -0.7680033629050699
vn -0.4894841253494559 0.04917090531919514 -0.8706247831878948
vn -0.4816958908226878 0.1505437400393948 0.8633108658527868
vn 0 1 0
vn 0.03609336893766286 0.9993484220824737 0
vn 0.43303135644802976 -0.34707871739457163 -0.8318775199898832
vn 0.43303135644802976 -0.3470787173945716 0.8318775199898832
vn 0 0.9689434422976285 -0.24728244100304064
vn 0 0.9556985692927237 0.2943471498959032
usemtl m_2f88162b-3bec-932f-d54d-123f0508844e
f 62/229/58 91/230/58 90/231/58 60/232/58
f 82/233/59 99/234/59 98/235/59 80/236/59
f 60/237/60 64/238/60 67/239/60 62/240/60
f 64/241/61 66/242/61 68/243/61 67/244/61
f 84/245/62 93/246/62 92/247/62 83/248/62
f 87/249/63 94/250/63 93/251/63 84/252/63
f 61/253/64 69/254/64 63/255/64 59/256/64
f 69/257/65 70/258/65 65/259/65 63/260/65
f 71/261/66 73/262/66 63/263/66 65/264/66
f 74/265/67 72/266/67 66/267/67 64/268/67
f 73/269/68 75/270/68 59/271/68 63/272/68
f 76/273/69 74/274/69 64/275/69 60/276/69
f 60/277/70 90/278/70 89/279/70 76/280/70
f 77/281/71 79/282/71 73/283/71 71/284/71
f 80/285/72 78/286/72 72/287/72 74/288/72
f 79/289/73 81/290/73 75/291/73 73/292/73
f 82/293/74 80/294/74 74/295/74 76/296/74
f 76/297/75 89/298/75 99/299/75 82/300/75
f 84/301/76 83/302/76 62/303/76 67/304/76
f 86/305/77 85/306/77 69/307/77 61/308/77
f 83/309/78 92/310/78 91/311/78 62/312/78
f 87/313/79 84/314/79 67/315/79 68/316/79
f 85/317/80 88/318/80 70/319/80 69/320/80
f 75/321/81 89/322/81 90/323/81 59/324/81
f 59/325/82 90/326/82 91/327/82 61/328/82
f 61/329/83 91/330/83 92/331/83 86/332/83
f 86/333/84 92/334/84 93/335/84 85/336/84
f 85/337/85 93/338/85 94/339/85 88/340/85
f 79/341/86 98/342/86 99/343/86 81/344/86
f 81/345/87 99/346/87 89/347/87 75/348/87
f 87/349/88 100/350/88 88/351/88
f 100/352/89 95/353/89 70/354/89 88/355/89
f 95/356/90 100/357/90 87/358/90 68/359/90
f 101/360/91 97/361/91 77/362/91 71/363/91
f 72/364/92 78/365/92 97/366/92 101/367/92
f 80/368/93 79/369/93 77/370/93 78/371/93
f 77/372/94 97/373/94 78/374/94
f 95/375/95 68/376/95 66/377/95 96/378/95
f 65/379/96 70/380/96 95/381/96 96/382/96
f 101/383/97 96/384/97 66/385/97 72/386/97
f 96/387/98 101/388/98 71/389/98 65/390/98
o cuboid
v -0.90625 1.375 0.25
v -0.90625 1.375 -0.25
v -0.90625 0.6875 0.25
v -0.90625 0.6875 -0.25
v -1.03125 1.375 0.25
v -1.03125 1.375 -0.25
v -1.03125 0.6875 0.25
v -1.03125 0.6875 -0.25
v -0.90625 0.6875 -0.08333333333333337
v -1.03125 0.6875 -0.08333333333333337
v -0.90625 0.6875 0.08333333333333331
v -1.03125 0.6875 0.08333333333333331
v -1.03125 1.375 -0.08333333333333337
v -1.03125 1.375 0.08333333333333331
v -0.90625 1.375 -0.08333333333333337
v -0.90625 1.375 0.08333333333333331
v -0.90625 0.6875 -0.17708333333333334
v -0.90625 0.6875 -0.09375000000000003
v -0.9375 0.6875 -0.09375000000000003
v -0.9375 0.6875 -0.17708333333333334
v -0.90625 0.6875 -0.0729166666666667
v -0.90625 0.6875 0.010416666666666644
v -0.9375 0.6875 0.010416666666666644
v -0.9375 0.6875 -0.0729166666666667
v -0.9375 0.6875 0.20833333333333331
v -0.90625 0.6875 0.12499999999999999
v -0.9375 0.6875 0.12499999999999999
v -0.90625 0.6875 0.20833333333333331
v -0.9375 0.234375 0.20833333333333331
v -0.90625 0.234375 0.12499999999999999
v -0.9375 0.234375 0.12499999999999999
v -0.90625 0.234375 0.20833333333333331
v -0.90625 0.46875 -0.0729166666666667
v -0.90625 0.375 0.010416666666666644
v -0.9375 0.375 0.010416666666666644
v -0.9375 0.46875 -0.0729166666666667
v -0.90625 0.578125 -0.17708333333333334
v -0.90625 0.484375 -0.09375000000000003
v -0.9375 0.484375 -0.09375000000000003
v -0.9375 0.578125 -0.17708333333333334
v -0.90625 0.5772272600731301 -0.25504641575106207
v -0.90625 0.484375 -0.17171308241772876
v -0.9375 0.484375 -0.17171308241772876
v -0.9375 0.5772272600731301 -0.25504641575106207
v -0.90625 0.2386066853446105 -0.2546854672901999
v -0.90625 0.23950442527148064 -0.1713521339568665
v -0.9375 0.23950442527148064 -0.1713521339568665
v -0.9375 0.2386066853446105 -0.2546854672901999
v -0.90625 0.46875 -0.15087974908439544
v -0.90625 0.375 -0.06754641575106209
v -0.9375 0.375 -0.06754641575106209
v -0.9375 0.46875 -0.15087974908439544
v -0.90625 0.23972726007313 -0.15088125
v -0.90625 0.23972726007313 -0.06738449816879082
v -0.9375 0.23972726007313 -0.06738449816879082
v -0.9375 0.23972726007313 -0.15088125
vt 0.14453125 0.78125
vt 0.134114453125 0.78125
vt 0.134114453125 0.73828125
vt 0.14453125 0.73828125
vt 0.23828125 0.890625
vt 0.23828125 0.901041796875
vt 0.23046875 0.901041796875
vt 0.23046875 0.890625
vt 0.0078125 0.9921875
vt 0.0078125 0.98828125
vt 0.01171875 0.98828125
vt 0.01171875 0.9921875
vt 0.02734375 0.8984375
vt 0.02734375 0.94140625
vt 0.01953125 0.94140625
vt 0.01953125 0.8984375
vt 0.2265625 0.921875
vt 0.21875 0.921875
vt 0.21875 0.87890625
vt 0.2265625 0.87890625
vt 0.09375 0.9765625
vt 0.09375 0.98046875
vt 0.08984375 0.98046875
vt 0.08984375 0.9765625
vt 0.04296875 0.99609375
vt 0.04296875 1
vt 0.0390625 1
vt 0.0390625 0.99609375
vt 0.11328125 0.73828125
vt 0.123698046875 0.73828125
vt 0.123698046875 0.78125
vt 0.11328125 0.78125
vt 0.123698046875 0.73828125
vt 0.134114453125 0.73828125
vt 0.134114453125 0.78125
vt 0.123698046875 0.78125
vt 0.23046875 0.921875
vt 0.23046875 0.911458203125
vt 0.23828125 0.911458203125
vt 0.23828125 0.921875
vt 0.23046875 0.911458203125
vt 0.23046875 0.901041796875
vt 0.23828125 0.901041796875
vt 0.23828125 0.911458203125
vt 0 0.990234375
vt 0 0.995442578125
vt 0 1
vt 0 0.989583203125
vt 0.279296875 0.494140625
vt 0.28125 0.494140625
vt 0.28125 0.49479179687499997
vt 0.2734375 0.49479179687499997
vt 0.279296875 0.48893242187499997
vt 0.279296875 0.494140625
vt 0.2734375 0.49479179687499997
vt 0.2734375 0.484375
vt 0.28125 0.48893242187499997
vt 0.279296875 0.48893242187499997
vt 0.2734375 0.484375
vt 0.28125 0.484375
vt 0 0.994140625
vt 0 0.99934921875
vt 0 1
vt 0 0.98958359375
vt 0.279296875 0.500651171875
vt 0.28125 0.500651171875
vt 0.28125 0.505208203125
vt 0.2734375 0.505208203125
vt 0.279296875 0.49544257812500003
vt 0.279296875 0.500651171875
vt 0.2734375 0.505208203125
vt 0.2734375 0.49479179687499997
vt 0.28125 0.49544257812500003
vt 0.279296875 0.49544257812500003
vt 0.2734375 0.49479179687499997
vt 0.28125 0.49479179687499997
vt 0.279296875 0.5078125
vt 0.279296875 0.513020703125
vt 0.2734375 0.515625
vt 0.2734375 0.505208203125
vt 0.28125 0.5078125
vt 0.279296875 0.5078125
vt 0.2734375 0.505208203125
vt 0.28125 0.505208203125
vt 0 0.9921875
vt 0 0.997395703125
vt 0 1
vt 0 0.989583203125
vt 0.279296875 0.513020703125
vt 0.28125 0.513020703125
vt 0.28125 0.515625
vt 0.2734375 0.515625
vt 0 0.96484375
vt 0.00390625 0.96484375
vt 0.00390625 0.9921875
vt 0 0.9921875
vt 0 0.83984375
vt 0.00390625 0.83984375
vt 0.00390625 0.8671875
vt 0 0.8671875
vt 0.14453125 0.890625
vt 0.1484375 0.890625
vt 0.1484375 0.91796875
vt 0.14453125 0.91796875
vt 0.03515625 0.78515625
vt 0.0390625 0.78515625
vt 0.0390625 0.8125
vt 0.03515625 0.8125
vt 0.38363125 0.5
vt 0.38883984375 0.505859375
vt 0.38883984375 0.51953125
vt 0.38363125 0.51953125
vt 0.11328125 0.85546875
vt 0.1171875 0.85546875
vt 0.1171875 0.875
vt 0.11328125 0.875
vt 0.26350390625 0.501953125
vt 0.2687125 0.49609375
vt 0.2687125 0.515625
vt 0.26350390625 0.515625
vt 0.03125 0.8984375
vt 0.03515625 0.8984375
vt 0.03515625 0.9140625
vt 0.03125 0.9140625
vt 0.2547251953125 0.5810546875
vt 0.2599333984375 0.5869140625
vt 0.2599333984375 0.59375
vt 0.2547251953125 0.59375
vt 0.0078125 0.83203125
vt 0.01171875 0.83203125
vt 0.01171875 0.84375
vt 0.0078125 0.84375
vt 0.3728791015625 0.5126953125
vt 0.3780873046875 0.5068359375
vt 0.3780873046875 0.51953125
vt 0.3728791015625 0.51953125
vt 0.1171875 0.9765625
vt 0.12109375 0.9765625
vt 0.12109375 0.984375
vt 0.1171875 0.984375
vt 0.2595978515625 0.5810546875
vt 0.2648060546875 0.5868578125
vt 0.2599333984375 0.5869140625
vt 0.2547251953125 0.5810546875
vt 0.046875 0.99609375
vt 0.05078125 0.99609375
vt 0.05078125 1
vt 0.046875 1
vt 0.3680064453125 0.5126390625
vt 0.3732146484375 0.5068359375
vt 0.3780873046875 0.5068359375
vt 0.3728791015625 0.5126953125
vt 0.09765625 0.9765625
vt 0.1015625 0.9765625
vt 0.1015625 0.98046875
vt 0.09765625 0.98046875
vt 0.2595751953125 0.565750390625
vt 0.2647837890625 0.565694140625
vt 0.2648060546875 0.5868578125
vt 0.2595978515625 0.5810546875
vt 0.12109375 0.8125
vt 0.125 0.8125
vt 0.125 0.828125
vt 0.12109375 0.828125
vt 0.3680287109375 0.491475390625
vt 0.3732373046875 0.491531640625
vt 0.3732146484375 0.5068359375
vt 0.3680064453125 0.5126390625
vt 0.11328125 0.80859375
vt 0.1171875 0.80859375
vt 0.1171875 0.828125
vt 0.11328125 0.828125
vt 0.38850390625 0.5
vt 0.3937125 0.505859375
vt 0.38883984375 0.505859375
vt 0.38363125 0.5
vt 0.0546875 0.99609375
vt 0.05859375 0.99609375
vt 0.05859375 1
vt 0.0546875 1
vt 0.25863125 0.501953125
vt 0.26383984375 0.49609375
vt 0.2687125 0.49609375
vt 0.26350390625 0.501953125
vt 0.06640625 1
vt 0.0625 1
vt 0.0625 0.99609375
vt 0.06640625 0.99609375
vt 0.388494140625 0.4915453125
vt 0.3937125 0.4915453125
vt 0.3937125 0.505859375
vt 0.38850390625 0.5
vt 0.125 0.9765625
vt 0.12890625 0.9765625
vt 0.12890625 0.984375
vt 0.125 0.984375
vt 0.25863125 0.4876390625
vt 0.263849609375 0.4876390625
vt 0.26383984375 0.49609375
vt 0.25863125 0.501953125
vt 0.13671875 0.88671875
vt 0.140625 0.88671875
vt 0.140625 0.90234375
vt 0.13671875 0.90234375
vn -1 0 0
vn 0 1 0
vn 0 -1 0
vn 0 0 1
vn 0 0 -1
vn 0 -0.9999419775879977 0.010772254054010832
vn 0 -1 0
vn -1 0 0
vn -1 0 0
vn 0 1 0
vn 0 1 0
vn 0 0 0
vn 0 -1 0
vn 0 -1 0
vn 0 -1 0
vn 0 0 0
vn 0 -1 0
vn 0 -1 0
vn 0 -1 0
vn 0 -1 0
vn 0 -1 0
vn 0 0 0
vn 0 -1 0
vn -1 0 0
vn 0 0 -1
vn 1 0 0
vn 0 0 1
vn 1 0 0
vn 0 0 1
vn -1 0 0
vn 0 0 -1
vn 1 0 0
vn 0 0 1
vn -1 0 0
vn 0 0 -1
vn 1 0 0
vn 0 -1 0
vn -1 0 0
vn 0 0.9999337097133256 -0.011514172959748286
vn 1 0 0
vn 0 0.0014740361071598105 0.9999989136081873
vn -1 0 0
vn 0 -0.0010659371660823563 -0.9999994318888177
vn 1 0 0
vn 0 -1 0
vn -1 0 0
vn 0 1 0
vn 1 0 0
vn 0 0.0011969704048725167 0.9999992836306685
vn -1 0 0
vn 0 0.000006553565838043165 -0.9999999999785254
usemtl m_2f88162b-3bec-932f-d54d-123f0508844e
f 106/391/99 115/392/99 113/393/99 108/394/99
f 102/395/100 117/396/100 115/397/100 106/398/100
f 130/399/101 132/400/101 131/401/101 133/402/101
f 104/403/102 102/404/102 106/405/102 108/406/102
f 107/407/103 103/408/103 105/409/103 109/410/103
f 146/411/104 147/412/104 148/413/104 149/414/104
f 154/415/105 155/416/105 156/417/105 157/418/105
f 109/419/106 111/420/106 114/421/106 107/422/106
f 111/423/107 113/424/107 115/425/107 114/426/107
f 107/427/108 114/428/108 116/429/108 103/430/108
f 114/431/109 115/432/109 117/433/109 116/434/109
f 119/435/110 118/436/110 105/437/110 110/438/110
f 120/439/111 119/440/111 110/441/111 111/442/111
f 121/443/112 120/444/112 111/445/112 109/446/112
f 118/447/113 121/448/113 109/449/113 105/450/113
f 123/451/114 122/452/114 110/453/114 112/454/114
f 124/455/115 123/456/115 112/457/115 113/458/115
f 125/459/116 124/460/116 113/461/116 111/462/116
f 122/463/117 125/464/117 111/465/117 110/466/117
f 128/467/118 126/468/118 108/469/118 113/470/118
f 127/471/119 128/472/119 113/473/119 112/474/119
f 129/475/120 127/476/120 112/477/120 104/478/120
f 126/479/121 129/480/121 104/481/121 108/482/121
f 132/483/122 130/484/122 126/485/122 128/486/122
f 131/487/123 132/488/123 128/489/123 127/490/123
f 133/491/124 131/492/124 127/493/124 129/494/124
f 130/495/125 133/496/125 129/497/125 126/498/125
f 135/499/126 134/500/126 122/501/126 123/502/126
f 136/503/127 135/504/127 123/505/127 124/506/127
f 137/507/128 136/508/128 124/509/128 125/510/128
f 134/511/129 137/512/129 125/513/129 122/514/129
f 139/515/130 138/516/130 118/517/130 119/518/130
f 140/519/131 139/520/131 119/521/131 120/522/131
f 141/523/132 140/524/132 120/525/132 121/526/132
f 138/527/133 141/528/133 121/529/133 118/530/133
f 143/531/134 142/532/134 138/533/134 139/534/134
f 144/535/135 143/536/135 139/537/135 140/538/135
f 145/539/136 144/540/136 140/541/136 141/542/136
f 142/543/137 145/544/137 141/545/137 138/546/137
f 147/547/138 146/548/138 142/549/138 143/550/138
f 148/551/139 147/552/139 143/553/139 144/554/139
f 149/555/140 148/556/140 144/557/140 145/558/140
f 146/559/141 149/560/141 145/561/141 142/562/141
f 151/563/142 150/564/142 134/565/142 135/566/142
f 152/567/143 151/568/143 135/569/143 136/570/143
f 153/571/144 152/572/144 136/573/144 137/574/144
f 150/575/145 153/576/145 137/577/145 134/578/145
f 155/579/146 154/580/146 150/581/146 151/582/146
f 156/583/147 155/584/147 151/585/147 152/586/147
f 157/587/148 156/588/148 152/589/148 153/590/148
f 154/591/149 157/592/149 153/593/149 150/594/149
o braco garra
v -0.203125 2.125 0.234375
v -0.203125 2.125 -0.234375
v -0.203125 1.734375 0.234375
v -0.203125 1.734375 -0.234375
v -0.703125 2.125 0.234375
v -0.703125 2.125 -0.234375
v -0.703125 1.734375 0.234375
v -0.703125 1.734375 -0.234375
v -0.265625 2.125 0.1796875
v -0.265625 2.125 -0.1796875
v -0.640625 2.125 0.1796875
v -0.640625 2.125 -0.1796875
v -0.265625 2.609375 0.4140625
v -0.265625 2.25 -0.1796875
v -0.640625 2.609375 0.4140625
v -0.640625 2.25 -0.1796875
v -0.265625 2.617911552885341 -0.005472875418438744
v -0.265625 2.305411552885341 -0.20859787541843874
v -0.640625 2.617911552885341 -0.005472875418438744
v -0.640625 2.305411552885341 -0.20859787541843874
v -0.265625 4.166957306866253 -2.116985573850606
v -0.265625 3.8544573068662533 -2.3201105738506094
v -0.640625 4.166957306866253 -2.116985573850606
v -0.640625 3.8544573068662533 -2.3201105738506094
v -0.640625 2.3046875 0.1796875
v -0.265625 2.3046875 0.1796875
v -0.265625 2.1875 -0.1796875
v -0.640625 2.1875 -0.1796875
v -0.640625 2.608422326936172 0.4921816912338668
v -0.640625 2.303734826936172 0.6171816912338668
v -0.265625 2.303734826936172 0.6171816912338668
v -0.265625 2.608422326936172 0.4921816912338668
vt 0.19140625 0.98046875
vt 0.16015625 0.98046875
vt 0.16015625 0.95703125
vt 0.19140625 0.95703125
vt 0.2265625 0.95703125
vt 0.2265625 0.98046875
vt 0.1953125 0.98046875
vt 0.1953125 0.95703125
vt 0.18359375 0.91015625
vt 0.18359375 0.94140625
vt 0.15234375 0.94140625
vt 0.15234375 0.91015625
vt 0.4921875 0.89453125
vt 0.4921875 0.91796875
vt 0.4609375 0.91796875
vt 0.4609375 0.89453125
vt 0.03125 0.53125
vt 0 0.53125
vt 0 0.5078125
vt 0.03125 0.5078125
vt 0.02734375 0.78662109375
vt 0.00390625 0.78662109375
vt 0 0.783203125
vt 0.03125 0.783203125
vt 0.02734375 0.80908203125
vt 0.02734375 0.78662109375
vt 0.03125 0.783203125
vt 0.03125 0.8125
vt 0.00390625 0.80908203125
vt 0.02734375 0.80908203125
vt 0.03125 0.8125
vt 0 0.8125
vt 0.00390625 0.78662109375
vt 0.00390625 0.80908203125
vt 0 0.8125
vt 0 0.783203125
vt 0.25390625 0.9609375
vt 0.25390625 0.97265625
vt 0.23046875 0.97265625
vt 0.23046875 0.9609375
vt 0.3544982421875 0.837221484375
vt 0.3544982421875 0.841127734375
vt 0.3320373046875 0.848451953125
vt 0.3320373046875 0.837221484375
vt 0.0234375 0.71875
vt 0.0234375 0.72265625
vt 0 0.72265625
vt 0 0.71875
vt 0.1562439453125 0.454408984375
vt 0.1562439453125 0.465639453125
vt 0.1337830078125 0.458315234375
vt 0.1337830078125 0.454408984375
vt 0.09960937500000001 0.3167949218749999
vt 0.07617187500000001 0.3167949218749999
vt 0.07617187500000001 0.2905683593749999
vt 0.09960937500000001 0.2905683593749999
vt 0.3563052734375 0.848497265625
vt 0.3436099609375 0.868028515625
vt 0.3173888671875 0.867494921875
vt 0.3544982421875 0.845033984375
vt 0.0234375 0.73046875
vt 0 0.73046875
vt 0 0.7265625
vt 0.0234375 0.7265625
vt 0.14467128906249999 0.48521601562500005
vt 0.13197597656249999 0.46568476562500005
vt 0.1337830078125 0.462221484375
vt 0.1708923828125 0.484682421875
vt 0.09960937499999999 0.48046875
vt 0.07617187499999999 0.48046875
vt 0.07617187500000001 0.3167949218749999
vt 0.09960937500000001 0.3167949218749999
vt 0.4882748046875 0.9453125
vt 0.4755794921875 0.96484375
vt 0.3436099609375 0.868028515625
vt 0.3563052734375 0.848497265625
vt 0.18359375 0.4609375
vt 0.16015625 0.4609375
vt 0.16015625 0.296875
vt 0.18359375 0.296875
vt 0.012701757812499992 0.58203125
vt 0.0000064453124999919176 0.5625
vt 0.13197597656249999 0.46568476562500005
vt 0.14467128906249999 0.48521601562500005
vt 0.37109375 0.9140625
vt 0.39453125 0.9140625
vt 0.39453125 0.9375
vt 0.37109375 0.9375
vt 0.11328125 0.8046875
vt 0.11328125 0.78515625
vt 0.13671875 0.78515625
vt 0.13671875 0.8046875
vt 0.3173888671875 0.867494921875
vt 0.3320373046875 0.848451953125
vt 0.3544982421875 0.841127734375
vt 0.3544982421875 0.845033984375
vt 0 0.7265625
vt 0 0.72265625
vt 0.0234375 0.72265625
vt 0.0234375 0.7265625
vt 0.1337830078125 0.462221484375
vt 0.1337830078125 0.458315234375
vt 0.1562439453125 0.465639453125
vt 0.1708923828125 0.484682421875
vt 0.1835873046875 0.465580078125
vt 0.1757748046875 0.484623046875
vt 0.1708923828125 0.484682421875
vt 0.1562439453125 0.465639453125
vt 0 0.64453125
vt 0.0234375 0.64453125
vt 0.0234375 0.671875
vt 0 0.671875
vt 0.3125064453125 0.867435546875
vt 0.3046939453125 0.848392578125
vt 0.3320373046875 0.848451953125
vt 0.3173888671875 0.867494921875
vt 0.07617187500000001 0.2856855468749999
vt 0.09960937500000001 0.2856855468749999
vt 0.09960937500000001 0.2905683593749999
vt 0.07617187500000001 0.2905683593749999
vn 1 0 0
vn -1 0 0
vn 0 -1 0
vn 0 0 1
vn 0 0 -1
vn 0 1 0
vn 0 1 0
vn 0 1 0
vn 0 1 0
vn 0 0 1
vn 1 0 0
vn 0 0 -1
vn -1 0 0
vn 0 0.9997930511248978 0.020343424548672665
vn 1 0 0
vn 0 -0.4625660066950198 -0.8865848461654549
vn -1 0 0
vn 0 0.8062951563396131 0.5915134156240914
vn 1 0 0
vn 0 -0.8062951563396135 -0.5915134156240908
vn -1 0 0
vn 0 0.544988350595421 -0.8384436163006329
vn 0 0.379556356256306 0.925168618374746
vn 1 0 0
vn 0 0 -1
vn -1 0 0
vn -1 0 0
vn 0 -0.9999976291086639 -0.0021775621807844673
vn 1 0 0
vn 0 0.9999256477934956 0.012194215216999291
usemtl m_2f88162b-3bec-932f-d54d-123f0508844e
f 159/595/150 158/596/150 160/597/150 161/598/150
f 164/599/151 162/600/151 163/601/151 165/602/151
f 161/603/152 160/604/152 164/605/152 165/606/152
f 160/607/153 158/608/153 162/609/153 164/610/153
f 163/611/154 159/612/154 161/613/154 165/614/154
f 166/615/155 168/616/155 162/617/155 158/618/155
f 167/619/156 166/620/156 158/621/156 159/622/156
f 169/623/157 167/624/157 159/625/157 163/626/157
f 168/627/158 169/628/158 163/629/158 162/630/158
f 166/631/159 183/632/159 182/633/159 168/634/159
f 167/635/160 184/636/160 183/637/160 166/638/160
f 169/639/161 185/640/161 184/641/161 167/642/161
f 168/643/162 182/644/162 185/645/162 169/646/162
f 174/647/163 176/648/163 172/649/163 170/650/163
f 175/651/164 174/652/164 170/653/164 171/654/164
f 177/655/165 175/656/165 171/657/165 173/658/165
f 176/659/166 177/660/166 173/661/166 172/662/166
f 178/663/167 180/664/167 176/665/167 174/666/167
f 179/667/168 178/668/168 174/669/168 175/670/168
f 181/671/169 179/672/169 175/673/169 177/674/169
f 180/675/170 181/676/170 177/677/170 176/678/170
f 179/679/171 181/680/171 180/681/171 178/682/171
f 186/683/172 187/684/172 188/685/172 189/686/172
f 170/687/173 183/688/173 184/689/173 171/690/173
f 171/691/174 184/692/174 185/693/174 173/694/174
f 173/695/175 185/696/175 182/697/175 172/698/175
f 187/699/176 186/700/176 172/701/176 182/702/176
f 188/703/177 187/704/177 182/705/177 183/706/177
f 189/707/178 188/708/178 183/709/178 170/710/178
f 186/711/179 189/712/179 170/713/179 172/714/179
o base garra
v -0.453125 3.515625 -2.3125
v -0.453125 4.015625 -2.3125
v -0.24601821881345246 3.515625 -1.8125
v -0.2719065664617709 4.015625 -1.90625
v 0.046875 3.515625 -2.1053932188134525
v -0.015625 4.015625 -2.14422574028593
v 0.046875 3.515625 -2.5196067811865475
v -0.015625 4.015625 -2.48077425971407
v -0.2460182188134524 3.515625 -2.8125
v -0.2719065664617708 4.015625 -2.71875
v -0.6602317811865475 3.515625 -2.8125
v -0.6343434335382291 4.015625 -2.71875
v -0.9531249999999999 3.515625 -2.519606781186548
v -0.8906249999999999 4.015625 -2.48077425971407
v -0.953125 3.515625 -2.1053932188134525
v -0.890625 4.015625 -2.14422574028593
v -0.6602317811865479 3.515625 -1.8125
v -0.6343434335382294 4.015625 -1.90625
vt 0.453125 0.42700664062500004
vt 0.434819140625 0.4453125
vt 0.421875 0.4140625
vt 0.40770546875 0.96875
vt 0.43359375 0.96875
vt 0.43254765625 0.99988515625
vt 0.4107046875 1
vt 0.296482421875 0.890625
vt 0.3125 0.9054984375
vt 0.28515625 0.916015625
vt 0.453125 0.40111835937499996
vt 0.453125 0.42700664062500004
vt 0.421875 0.4140625
vt 0.125727734375 0.8515625
vt 0.151616015625 0.8515625
vt 0.1491890625 0.8828125
vt 0.1281546875 0.8828125
vt 0.3125 0.9054984375
vt 0.3125 0.9265328125
vt 0.28515625 0.916015625
vt 0.434819140625 0.3828125
vt 0.453125 0.40111835937499996
vt 0.421875 0.4140625
vt 0.0234375 0.86328125
vt 0.04932578125 0.86328125
vt 0.0463265625 0.89453125
vt 0.024483593749999998 0.894396484375
vt 0.3125 0.9265328125
vt 0.296482421875 0.94140625
vt 0.28515625 0.916015625
vt 0.408930859375 0.3828125
vt 0.434819140625 0.3828125
vt 0.421875 0.4140625
vt 0.395258984375 0.8359375
vt 0.421147265625 0.8359375
vt 0.419529296875 0.8671875
vt 0.396876953125 0.8671875
vt 0.296482421875 0.94140625
vt 0.273830078125 0.94140625
vt 0.28515625 0.916015625
vt 0.390625 0.40111835937499996
vt 0.408930859375 0.3828125
vt 0.421875 0.4140625
vt 0.43895546875 0.96875
vt 0.46484375 0.96875
vt 0.46379765625 0.99988515625
vt 0.4419546875 1
vt 0.273830078125 0.94140625
vt 0.2578125 0.9265328125
vt 0.28515625 0.916015625
vt 0.390625 0.42700664062500004
vt 0.390625 0.40111835937499996
vt 0.421875 0.4140625
vt 0.223383984375 0.6328125
vt 0.249272265625 0.6328125
vt 0.2468453125 0.6640625
vt 0.2258109375 0.6640625
vt 0.2578125 0.9265328125
vt 0.2578125 0.9054984375
vt 0.28515625 0.916015625
vt 0.408930859375 0.4453125
vt 0.390625 0.42700664062500004
vt 0.421875 0.4140625
vt 0.140625 0.49609375
vt 0.16651328125 0.49609375
vt 0.1635140625 0.52734375
vt 0.14167109375 0.5272089843750001
vt 0.2578125 0.9054984375
vt 0.273830078125 0.890625
vt 0.28515625 0.916015625
vt 0.434819140625 0.4453125
vt 0.408930859375 0.4453125
vt 0.421875 0.4140625
vt 0.231196484375 0.59765625
vt 0.257084765625 0.59765625
vt 0.255466796875 0.62890625
vt 0.232814453125 0.62890625
vt 0.273830078125 0.890625
vt 0.296482421875 0.890625
vt 0.28515625 0.916015625
vn 0 -1 0
vn 0.6999559641388177 0.14185660553177104 0.6999559641388177
vn 0 1 0
vn 0 -1 0
vn 0.9922778767136679 0.12403473458920848 0
vn 0 1 0
vn 0 -1 0
vn 0.6971979673667758 0.1668232255990545 -0.6971979673667756
vn 0 1 0
vn 0 -1 0
vn 2.6344075407537733e-16 0.18428853505018544 -0.9828721869343219
vn 0 1 0
vn 0 -1 0
vn -0.6999559641388174 0.14185660553177115 -0.6999559641388179
vn 0 1 0
vn 0 -1 0
vn -0.9922778767136679 0.12403473458920837 -1.329808878350276e-16
vn 0 1 0
vn 0 -1 0
vn -0.6971979673667758 0.16682322559905458 0.6971979673667754
vn 0 1 0
vn 0 -1 0
vn -2.6344075407537713e-16 0.18428853505018541 0.9828721869343219
vn 0 1 0
usemtl m_2f88162b-3bec-932f-d54d-123f0508844e
f 194/715/180 192/716/180 190/717/180
f 192/718/181 194/719/181 195/720/181 193/721/181
f 193/722/182 195/723/182 191/724/182
f 196/725/183 194/726/183 190/727/183
f 194/728/184 196/729/184 197/730/184 195/731/184
f 195/732/185 197/733/185 191/734/185
f 198/735/186 196/736/186 190/737/186
f 196/738/187 198/739/187 199/740/187 197/741/187
f 197/742/188 199/743/188 191/744/188
f 200/745/189 198/746/189 190/747/189
f 198/748/190 200/749/190 201/750/190 199/751/190
f 199/752/191 201/753/191 191/754/191
f 202/755/192 200/756/192 190/757/192
f 200/758/193 202/759/193 203/760/193 201/761/193
f 201/762/194 203/763/194 191/764/194
f 204/765/195 202/766/195 190/767/195
f 202/768/196 204/769/196 205/770/196 203/771/196
f 203/772/197 205/773/197 191/774/197
f 206/775/198 204/776/198 190/777/198
f 204/778/199 206/779/199 207/780/199 205/781/199
f 205/782/200 207/783/200 191/784/200
f 192/785/201 206/786/201 190/787/201
f 206/788/202 192/789/202 193/790/202 207/791/202
f 207/792/203 193/793/203 191/794/203
o topo garra
v -0.25 4.21875 -2.09375
v -0.25 4.21875 -2.46875
v -0.25 3.8125 -2.09375
v -0.25 3.8125 -2.46875
v -0.625 4.21875 -2.09375
v -0.625 4.21875 -2.46875
v -0.625 3.8125 -2.09375
v -0.625 3.8125 -2.46875
v -0.4375 4.21875 -2.546875
v -0.4375 3.8125 -2.546875
v -0.4375 3.8125 -2.015625
v -0.4375 4.21875 -2.015625
v -0.171875 4.21875 -2.28125
v -0.171875 3.8125 -2.28125
v -0.4375 3.8125 -2.28125
v -0.703125 3.8125 -2.28125
v -0.703125 4.21875 -2.28125
v -0.4375 4.21875 -2.28125
vt 0.2265625 0.68359375
vt 0.23828125 0.68359375
vt 0.23828125 0.7109375
vt 0.2265625 0.7109375
vt 0.34765625 1
vt 0.3359375 1
vt 0.3359375 0.97265625
vt 0.34765625 0.97265625
vt 0.322265625 0.7451171875
vt 0.3271484375 0.7568359375
vt 0.310546875 0.7568359375
vt 0.310546875 0.740234375
vt 0.314453125 0.998046875
vt 0.314453125 0.9814453125
vt 0.3310546875 0.9814453125
vt 0.326171875 0.9931640625
vt 0.46875 0.671875
vt 0.45703125 0.671875
vt 0.45703125 0.64453125
vt 0.46875 0.64453125
vt 0.40234375 0.5078125
vt 0.4140625 0.5078125
vt 0.4140625 0.53515625
vt 0.40234375 0.53515625
vt 0.48046875 1
vt 0.46875 1
vt 0.46875 0.97265625
vt 0.48046875 0.97265625
vt 0.302734375 0.9931640625
vt 0.2978515625 0.9814453125
vt 0.314453125 0.9814453125
vt 0.314453125 0.998046875
vt 0.171875 0.5
vt 0.18359375 0.5
vt 0.18359375 0.52734375
vt 0.171875 0.52734375
vt 0.310546875 0.740234375
vt 0.310546875 0.7568359375
vt 0.2939453125 0.7568359375
vt 0.298828125 0.7451171875
vt 0.265625 0.6640625
vt 0.25390625 0.6640625
vt 0.25390625 0.63671875
vt 0.265625 0.63671875
vt 0.326171875 0.9697265625
vt 0.3310546875 0.9814453125
vt 0.314453125 0.9814453125
vt 0.314453125 0.96484375
vt 0.314453125 0.96484375
vt 0.314453125 0.9814453125
vt 0.2978515625 0.9814453125
vt 0.302734375 0.9697265625
vt 0 0.61328125
vt 0.01171875 0.61328125
vt 0.01171875 0.640625
vt 0 0.640625
vt 0.298828125 0.7685546875
vt 0.2939453125 0.7568359375
vt 0.310546875 0.7568359375
vt 0.310546875 0.7734375
vt 0.310546875 0.7734375
vt 0.310546875 0.7568359375
vt 0.3271484375 0.7568359375
vt 0.322265625 0.7685546875
vn 0.9230769230769231 0 0.38461538461538464
vn -0.9230769230769231 0 0.38461538461538464
vn 0 1 0
vn 0 -1 0
vn 0.38461538461538464 0 0.9230769230769231
vn 0.38461538461538464 0 -0.9230769230769231
vn -0.38461538461538464 0 -0.9230769230769231
vn 0 -1 0
vn -0.38461538461538464 0 0.9230769230769231
vn 0 1 0
vn 0.9230769230769231 0 -0.38461538461538464
vn 0 -1 0
vn 0 -1 0
vn -0.9230769230769231 0 -0.38461538461538464
vn 0 1 0
vn 0 1 0
usemtl m_2f88162b-3bec-932f-d54d-123f0508844e
f 210/795/204 221/796/204 220/797/204 208/798/204
f 212/799/205 224/800/205 223/801/205 214/802/205
f 208/803/206 220/804/206 225/805/206 219/806/206
f 218/807/207 222/808/207 221/809/207 210/810/207
f 208/811/208 219/812/208 218/813/208 210/814/208
f 211/815/209 217/816/209 216/817/209 209/818/209
f 213/819/210 216/820/210 217/821/210 215/822/210
f 214/823/211 223/824/211 222/825/211 218/826/211
f 214/827/212 218/828/212 219/829/212 212/830/212
f 219/831/213 225/832/213 224/833/213 212/834/213
f 209/835/214 220/836/214 221/837/214 211/838/214
f 211/839/215 221/840/215 222/841/215 217/842/215
f 217/843/216 222/844/216 223/845/216 215/846/216
f 215/847/217 223/848/217 224/849/217 213/850/217
f 213/851/218 224/852/218 225/853/218 216/854/218
f 216/855/219 225/856/219 220/857/219 209/858/219