# Blender 4.4.1
# www.blender.org
mtllib barcor.mtl
o base_garra
v -0.881013 7.464079 -4.496203
v -0.881013 8.436232 -4.496203
v -0.478334 7.464079 -3.524051
v -0.528669 8.436232 -3.706330
v 0.091139 7.464079 -4.093524
v -0.030380 8.436232 -4.169027
v 0.091139 7.464079 -4.898882
v -0.030380 8.436232 -4.823380
v -0.478334 7.464079 -5.468355
v -0.528669 8.436232 -5.286077
v -1.283691 7.464079 -5.468355
v -1.233356 8.436232 -5.286077
v -1.853165 7.464079 -4.898882
v -1.731646 8.436232 -4.823380
v -1.853165 7.464079 -4.093524
v -1.731646 8.436232 -4.169027
v -1.283691 7.464079 -3.524051
v -1.233356 8.436232 -3.706330
vn -0.0000 -1.0000 -0.0000
vn 0.7000 0.1419 0.7000
vn 0.7000 0.1418 0.6999
vn 0.6999 0.1419 0.7000
vn -0.0000 1.0000 -0.0000
vn 0.9923 0.1240 -0.0000
vn 0.6972 0.1668 -0.6972
vn -0.0000 0.1843 -0.9829
vn -0.6999 0.1419 -0.7000
vn -0.7000 0.1419 -0.7000
vn -0.7000 0.1418 -0.7000
vn -0.9923 0.1240 -0.0000
vn -0.6972 0.1668 0.6972
vn -0.0000 0.1843 0.9829
vt 0.453125 0.427007
vt 0.434819 0.445312
vt 0.421875 0.414062
vt 0.407705 0.968750
vt 0.433594 0.968750
vt 0.432548 0.999885
vt 0.410705 1.000000
vt 0.296482 0.890625
vt 0.312500 0.905498
vt 0.285156 0.916016
vt 0.453125 0.401118
vt 0.125728 0.851562
vt 0.151616 0.851562
vt 0.149189 0.882812
vt 0.128155 0.882812
vt 0.312500 0.926533
vt 0.434819 0.382812
vt 0.023438 0.863281
vt 0.049326 0.863281
vt 0.046327 0.894531
vt 0.024484 0.894396
vt 0.296482 0.941406
vt 0.408931 0.382812
vt 0.395259 0.835938
vt 0.421147 0.835938
vt 0.419529 0.867188
vt 0.396877 0.867188
vt 0.273830 0.941406
vt 0.390625 0.401118
vt 0.438955 0.968750
vt 0.464844 0.968750
vt 0.463798 0.999885
vt 0.441955 1.000000
vt 0.257812 0.926533
vt 0.390625 0.427007
vt 0.223384 0.632812
vt 0.249272 0.632812
vt 0.246845 0.664062
vt 0.225811 0.664062
vt 0.257812 0.905498
vt 0.408931 0.445312
vt 0.140625 0.496094
vt 0.166513 0.496094
vt 0.163514 0.527344
vt 0.141671 0.527209
vt 0.273830 0.890625
vt 0.231196 0.597656
vt 0.257085 0.597656
vt 0.255467 0.628906
vt 0.232814 0.628906
s 0
usemtl m_2f88162b-3bec-932f-d54d-123f0508844e
f 5/1/1 3/2/1 1/3/1
f 3/4/2 5/5/2 6/6/3 4/7/4
f 4/8/5 6/9/5 2/10/5
f 7/11/1 5/1/1 1/3/1
f 5/12/6 7/13/6 8/14/6 6/15/6
f 6/9/5 8/16/5 2/10/5
f 9/17/1 7/11/1 1/3/1
f 7/18/7 9/19/7 10/20/7 8/21/7
f 8/16/5 10/22/5 2/10/5
f 11/23/1 9/17/1 1/3/1
f 9/24/8 11/25/8 12/26/8 10/27/8
f 10/22/5 12/28/5 2/10/5
f 13/29/1 11/23/1 1/3/1
f 11/30/9 13/31/10 14/32/11 12/33/9
f 12/28/5 14/34/5 2/10/5
f 15/35/1 13/29/1 1/3/1
f 13/36/12 15/37/12 16/38/12 14/39/12
f 14/34/5 16/40/5 2/10/5
f 17/41/1 15/35/1 1/3/1
f 15/42/13 17/43/13 18/44/13 16/45/13
f 16/40/5 18/46/5 2/10/5
f 3/2/1 17/41/1 1/3/1
f 17/47/14 3/48/14 4/49/14 18/50/14
f 18/46/5 4/8/5 2/10/5
o braco_garra
v -0.394937 4.760282 0.455696
v -0.394937 4.760282 -0.455697
v -0.394937 4.000789 0.455696
v -0.394937 4.000789 -0.455696
v -1.367089 4.760282 0.455696
v -1.367089 4.760282 -0.455697
v -1.367089 4.000789 0.455696
v -1.367089 4.000789 -0.455696
v -0.516456 4.760282 0.349367
v -0.516456 4.760282 -0.349367
v -1.245570 4.760282 0.349367
v -1.245570 4.760282 -0.349367
v -0.516456 5.702055 0.805063
v -0.516456 5.003320 -0.349367
v -1.245570 5.702055 0.805063
v -1.245570 5.003320 -0.349367
v -0.516456 5.718652 -0.010641
v -0.516456 5.111057 -0.405578
v -1.245570 5.718652 -0.010641
v -1.245570 5.111057 -0.405578
v -0.516456 8.730468 -4.116064
v -0.516456 8.122872 -4.511001
v -1.245570 8.730468 -4.116064
v -1.245570 8.122872 -4.511001
v -1.245570 5.109649 0.349367
v -0.516456 5.109649 0.349367
v -0.516456 4.881801 -0.349367
v -1.245570 4.881801 -0.349367
v -1.245570 5.700202 0.956950
v -1.245570 5.107797 1.199988
v -0.516456 5.107797 1.199988
v -0.516456 5.700202 0.956950
vn 1.0000 -0.0000 -0.0000
vn -1.0000 -0.0000 -0.0000
vn -0.0000 -1.0000 -0.0000
vn -0.0000 -0.0000 1.0000
vn -0.0000 -0.0000 -1.0000
vn -0.0000 1.0000 -0.0000
vn -0.0000 0.9998 0.0203
vn -0.0000 -0.4626 -0.8866
vn -0.0000 0.8063 0.5915
vn -0.0000 -0.8063 -0.5915
vn -0.0000 0.5450 -0.8384
vn -0.0000 0.3796 0.9252
vn -0.0000 -1.0000 -0.0022
vn -0.0000 0.9999 0.0122
vt 0.191406 0.980469
vt 0.160156 0.980469
vt 0.160156 0.957031
vt 0.191406 0.957031
vt 0.226562 0.957031
vt 0.226562 0.980469
vt 0.195312 0.980469
vt 0.195312 0.957031
vt 0.183594 0.910156
vt 0.183594 0.941406
vt 0.152344 0.941406
vt 0.152344 0.910156
vt 0.492188 0.894531
vt 0.492188 0.917969
vt 0.460938 0.917969
vt 0.460938 0.894531
vt 0.031250 0.531250
vt 0.000000 0.531250
vt 0.000000 0.507812
vt 0.031250 0.507812
vt 0.027344 0.786621
vt 0.003906 0.786621
vt 0.000000 0.783203
vt 0.031250 0.783203
vt 0.027344 0.809082
vt 0.031250 0.812500
vt 0.003906 0.809082
vt 0.000000 0.812500
vt 0.253906 0.960938
vt 0.253906 0.972656
vt 0.230469 0.972656
vt 0.230469 0.960938
vt 0.354498 0.837222
vt 0.354498 0.841128
vt 0.332037 0.848452
vt 0.332037 0.837222
vt 0.023438 0.718750
vt 0.023438 0.722656
vt 0.000000 0.722656
vt 0.000000 0.718750
vt 0.156244 0.454409
vt 0.156244 0.465639
vt 0.133783 0.458315
vt 0.133783 0.454409
vt 0.099609 0.316795
vt 0.076172 0.316795
vt 0.076172 0.290568
vt 0.099609 0.290568
vt 0.356305 0.848497
vt 0.343610 0.868029
vt 0.317389 0.867495
vt 0.354498 0.845034
vt 0.023438 0.730469
vt 0.000000 0.730469
vt 0.000000 0.726562
vt 0.023438 0.726562
vt 0.144671 0.485216
vt 0.131976 0.465685
vt 0.133783 0.462221
vt 0.170892 0.484682
vt 0.099609 0.480469
vt 0.076172 0.480469
vt 0.488275 0.945312
vt 0.475580 0.964844
vt 0.183594 0.460938
vt 0.160156 0.460938
vt 0.160156 0.296875
vt 0.183594 0.296875
vt 0.012702 0.582031
vt 0.000006 0.562500
vt 0.371094 0.914062
vt 0.394531 0.914062
vt 0.394531 0.937500
vt 0.371094 0.937500
vt 0.113281 0.804688
vt 0.113281 0.785156
vt 0.136719 0.785156
vt 0.136719 0.804688
vt 0.183587 0.465580
vt 0.175775 0.484623
vt 0.000000 0.644531
vt 0.023438 0.644531
vt 0.023438 0.671875
vt 0.000000 0.671875
vt 0.312506 0.867436
vt 0.304694 0.848393
vt 0.076172 0.285686
vt 0.099609 0.285686
s 0
usemtl m_2f88162b-3bec-932f-d54d-123f0508844e
f 20/51/15 19/52/15 21/53/15 22/54/15
f 25/55/16 23/56/16 24/57/16 26/58/16
f 22/59/17 21/60/17 25/61/17 26/62/17
f 21/63/18 19/64/18 23/65/18 25/66/18
f 24/67/19 20/68/19 22/69/19 26/70/19
f 27/71/20 29/72/20 23/73/20 19/74/20
f 28/75/20 27/71/20 19/74/20 20/76/20
f 30/77/20 28/75/20 20/76/20 24/78/20
f 29/72/20 30/77/20 24/78/20 23/73/20
f 27/79/18 44/80/18 43/81/18 29/82/18
f 28/83/15 45/84/15 44/85/15 27/86/15
f 30/87/19 46/88/19 45/89/19 28/90/19
f 29/91/16 43/92/16 46/93/16 30/94/16
f 35/95/21 37/96/21 33/97/21 31/98/21
f 36/99/15 35/100/15 31/101/15 32/102/15
f 38/103/22 36/104/22 32/105/22 34/106/22
f 37/107/16 38/108/16 34/109/16 33/110/16
f 39/111/23 41/112/23 37/96/23 35/95/23
f 40/113/15 39/114/15 35/100/15 36/99/15
f 42/115/24 40/116/24 36/117/24 38/118/24
f 41/119/16 42/120/16 38/108/16 37/107/16
f 40/121/25 42/122/25 41/123/25 39/124/25
f 47/125/26 48/126/26 49/127/26 50/128/26
f 31/101/15 44/85/15 45/84/15 32/102/15
f 32/105/19 45/89/19 46/88/19 34/106/19
f 34/109/16 46/93/16 43/92/16 33/110/16
f 48/129/16 47/130/16 33/110/16 43/92/16
f 49/131/27 48/132/27 43/133/27 44/134/27
f 50/135/15 49/136/15 44/85/15 31/101/15
f 47/137/28 50/138/28 31/98/28 33/97/28
o cabine
v 1.610127 4.000789 0.850633
v 1.610127 4.000789 -0.850633
v 1.610127 1.175472 0.850633
v 1.610127 1.175472 -0.850633
v -1.762025 4.000789 0.850633
v -1.762025 4.000789 -0.850633
v -1.762025 1.175472 0.850633
v -1.762025 1.175472 -0.850633
v 0.167089 4.000789 0.850633
v 0.167089 4.000789 -0.850633
v 0.167089 1.175472 -0.850633
v 0.167089 1.175472 0.850633
v 2.092958 4.162814 -1.097047
v -0.133464 4.162814 1.097046
v -0.133464 4.162814 -1.097047
v 2.092958 4.162814 1.097046
v 2.187342 4.000789 -1.215190
v -0.227848 4.000789 -1.215190
v -0.227848 4.000789 1.215190
v 2.187342 4.000789 1.215190
v -1.583544 1.175472 -0.729114
v 0.141362 1.175472 -0.729114
v 0.141362 1.175472 0.729114
v -1.583544 1.175472 0.729114
v 1.431646 1.175472 0.729114
v 1.431646 1.175472 -0.729114
v -1.583544 3.848890 -0.729114
v 0.141362 3.848890 -0.729114
v 0.141362 3.848890 0.729114
v -1.583544 3.848890 0.729114
v 1.431646 3.848890 0.729114
v 1.431646 3.848890 -0.729114
v -1.279747 1.183067 0.850633
v -0.315190 1.183067 0.850633
v -0.315190 3.021042 0.850633
v -1.279747 3.021042 0.850633
v -1.304217 3.028636 0.729114
v -0.259485 3.028636 0.729114
v -0.259485 1.175472 0.729114
v -1.304217 1.175472 0.729114
v 1.431646 3.654459 0.737794
v 1.431646 3.654459 -0.737794
v 1.431646 2.329902 -0.737794
v 1.431646 2.329902 0.737794
v 1.610127 3.659016 0.850633
v 1.610127 2.367877 0.850633
v 1.610127 3.659016 -0.850633
v 1.610127 2.367877 -0.850633
v 0.275578 3.654459 -0.729114
v 0.275578 2.329902 -0.729114
v 0.273494 2.367877 0.850633
v 0.273494 3.659016 0.850633
v 0.257350 3.654459 0.729114
v 0.257350 2.329902 0.729114
v 0.285646 3.659016 -0.850633
v 0.285646 2.367877 -0.850633
vn -1.0000 -0.0000 -0.0000
vn -0.0000 1.0000 -0.0000
vn -0.0000 -1.0000 -0.0000
vn -0.0000 -0.0000 -1.0000
vn -0.0000 0.5892 -0.8080
vn -0.8641 0.5033 -0.0000
vn -0.0000 0.5892 0.8080
vn 0.8641 0.5033 -0.0000
vn -0.0000 -0.0000 1.0000
vn 1.0000 -0.0000 -0.0000
vn 0.9803 -0.0000 -0.1974
vn -0.9090 -0.0000 -0.4167
vn -0.0000 -0.9981 -0.0624
vn 0.0075 -0.0446 0.9990
vn 0.0075 -0.0009 1.0000
vn 0.0074 0.0044 -1.0000
vn 0.0074 0.0075 -0.9999
vn 0.0024 0.9466 -0.3223
vn 0.0024 0.9466 -0.3224
vn -0.2081 0.9781 -0.0000
vn 0.0022 0.9544 0.2984
vn 0.0022 0.9544 0.2985
vn 0.9913 -0.0000 -0.1317
vn 0.9966 -0.0000 0.0826
vn -0.0000 -0.9993 -0.0375
vn 0.0255 -0.9997 -0.0000
vn -0.0003 -0.9993 0.0377
vt 0.570312 0.445312
vt 0.570312 0.535156
vt 0.515625 0.535156
vt 0.515625 0.445312
vt 0.070312 0.503906
vt 0.000000 0.503906
vt 0.000000 0.433594
vt 0.070312 0.433594
vt 0.620728 0.839844
vt 0.579251 0.839844
vt 0.579251 0.792969
vt 0.620728 0.792969
vt 0.300781 0.386719
vt 0.363281 0.386719
vt 0.363281 0.441406
vt 0.300781 0.441406
vt 0.108887 0.828125
vt 0.046875 0.828125
vt 0.046875 0.738381
vt 0.108887 0.738381
vt 0.523804 0.792969
vt 0.523804 0.839844
vt 0.570941 0.906250
vt 0.499372 0.906250
vt 0.496338 0.898438
vt 0.573975 0.898438
vt 0.230577 0.859375
vt 0.160048 0.859375
vt 0.156250 0.851562
vt 0.234375 0.851562
vt 0.570941 0.628906
vt 0.499372 0.628906
vt 0.496338 0.621094
vt 0.573975 0.621094
vt 0.570421 0.917969
vt 0.499891 0.917969
vt 0.496094 0.910156
vt 0.574219 0.910156
vt 0.492432 0.921875
vt 0.570068 0.921875
vt 0.551514 0.933594
vt 0.505127 0.933594
vt 0.492432 1.000000
vt 0.505127 0.988281
vt 0.570068 1.000000
vt 0.551514 0.988281
vt 0.577298 0.542969
vt 0.521851 0.542969
vt 0.516113 0.539062
vt 0.578125 0.539062
vt 0.521851 0.589844
vt 0.577298 0.589844
vt 0.578125 0.593750
vt 0.516113 0.593750
vt 0.618775 0.589844
vt 0.624512 0.593750
vt 0.618775 0.542969
vt 0.624512 0.539062
vt 0.356593 0.531250
vt 0.301146 0.531250
vt 0.301146 0.445312
vt 0.356593 0.445312
vt 0.152344 0.449219
vt 0.105469 0.449219
vt 0.105469 0.363281
vt 0.152344 0.363281
vt 0.234497 0.440674
vt 0.203491 0.440674
vt 0.187988 0.440430
vt 0.250000 0.440430
vt 0.234497 0.496123
vt 0.234497 0.441524
vt 0.249962 0.441471
vt 0.250096 0.531288
vt 0.207173 0.496123
vt 0.250000 0.531250
vt 0.187561 0.531250
vt 0.207173 0.441558
vt 0.187561 0.441429
vt 0.214805 0.925813
vt 0.242181 0.925781
vt 0.253880 0.953125
vt 0.198093 0.953125
vt 0.214757 0.867115
vt 0.199353 0.867187
vt 0.182115 0.828053
vt 0.215698 0.828053
vt 0.228583 0.828053
vt 0.173136 0.828053
vt 0.242181 0.867187
vt 0.253856 0.867187
vt 0.417969 0.479736
vt 0.421875 0.479492
vt 0.421875 0.539062
vt 0.417969 0.538818
vt 0.371094 0.441162
vt 0.367188 0.441406
vt 0.367188 0.381836
vt 0.371094 0.382080
vt 0.205146 0.824147
vt 0.205932 0.828053
vt 0.172349 0.828053
vt 0.174140 0.824147
vt 0.271205 0.835938
vt 0.318638 0.835938
vt 0.318359 0.843750
vt 0.271484 0.843750
vt 0.287388 0.433594
vt 0.239955 0.433594
vt 0.240234 0.394531
vt 0.287109 0.394531
vt 0.054688 0.863281
vt 0.109375 0.863281
vt 0.109375 0.875000
vt 0.054688 0.875000
vt 0.253906 0.574219
vt 0.199219 0.574219
vt 0.199219 0.535156
vt 0.253906 0.535156
vt 0.360908 0.525000
vt 0.398071 0.524978
vt 0.398073 0.531235
vt 0.356597 0.531245
vt 0.363273 0.482422
vt 0.363273 0.525000
vt 0.359400 0.531250
vt 0.359400 0.445312
vt 0.398071 0.482422
vt 0.360908 0.482422
vt 0.398069 0.445312
vt 0.253913 0.519628
vt 0.296925 0.519610
vt 0.296925 0.531250
vt 0.253882 0.480407
vt 0.296920 0.480358
vt 0.296387 0.441495
vt 0.156385 0.945338
vt 0.195941 0.946208
vt 0.198093 0.953125
vt 0.156230 0.953125
vt 0.190964 0.906215
vt 0.156616 0.906219
vt 0.156327 0.871255
vt 0.192922 0.870862
vt 0.191497 0.944718
vt 0.191587 0.906208
vt 0.196384 0.871208
vt 0.195188 0.945215
vt 0.043064 0.777368
vt 0.000004 0.777368
vt 0.000004 0.738381
vt 0.042919 0.816467
vt 0.042919 0.777368
vt 0.046972 0.738381
vt 0.046972 0.828125
vt 0.000046 0.816467
vt 0.043064 0.816467
vt 0.000046 0.828125
vt 0.562537 0.382897
vt 0.550923 0.390632
vt 0.515724 0.390535
vt 0.515768 0.382869
vt 0.562476 0.441371
vt 0.550751 0.433548
vt 0.515659 0.441406
vt 0.515646 0.433489
vt 0.410156 0.462402
vt 0.414062 0.461182
vt 0.414062 0.503760
vt 0.410156 0.503906
vt 0.402344 0.461182
vt 0.406250 0.462402
vt 0.406250 0.503906
vt 0.402344 0.503760
vt 0.232119 0.425823
vt 0.231796 0.429732
vt 0.189220 0.429732
vt 0.194957 0.426102
vt 0.189193 0.375044
vt 0.194934 0.378669
vt 0.194958 0.426101
vt 0.232159 0.375000
vt 0.232682 0.378908
vt 0.189193 0.375044
s 0
usemtl m_2f88162b-3bec-932f-d54d-123f0508844e
f 57/139/29 55/140/29 56/141/29 58/142/29
f 63/143/30 65/144/30 64/145/30 66/146/30
f 81/147/31 79/148/31 78/149/31 82/150/31
f 55/151/30 59/152/30 60/153/30 56/154/30
f 56/155/32 60/156/32 61/157/32 58/158/32
f 77/159/31 78/149/31 79/148/31 80/160/31
f 65/161/33 63/162/33 67/163/33 68/164/33
f 64/165/34 65/166/34 68/167/34 69/168/34
f 66/169/35 64/170/35 69/171/35 70/172/35
f 63/173/36 66/174/36 70/175/36 67/176/36
f 68/177/31 67/178/31 52/179/31 60/180/31
f 69/181/31 68/177/31 60/180/31 59/182/31
f 70/183/31 69/181/31 59/182/31 51/184/31
f 67/178/31 70/183/31 51/184/31 52/179/31
f 72/185/31 71/186/31 58/187/31 61/188/31
f 74/189/31 73/190/31 62/191/31 57/192/31
f 71/186/31 74/189/31 57/192/31 58/187/31
f 73/190/31 75/193/31 53/194/31 62/191/31
f 76/195/31 72/185/31 61/188/31 54/196/31
f 75/193/31 76/195/31 54/196/31 53/194/31
f 78/197/37 77/198/37 71/199/37 72/200/37
f 77/201/38 80/202/38 74/203/38 71/204/38
f 84/205/37 83/206/37 57/207/37 62/208/37
f 85/209/37 84/210/37 62/211/37 59/212/37
f 86/213/37 85/209/37 59/214/37 55/215/37
f 83/216/37 86/213/37 55/215/37 57/217/37
f 88/218/32 87/219/32 80/220/32 79/221/32
f 89/222/32 88/218/32 79/221/32 73/223/32
f 90/224/37 89/225/37 73/226/37 74/227/37
f 87/219/32 90/228/32 74/229/32 80/220/32
f 83/230/39 90/231/39 87/232/39 86/233/39
f 85/234/40 88/235/40 89/236/40 84/237/40
f 86/238/41 87/239/41 88/240/41 85/241/41
f 92/242/29 91/243/29 81/244/29 82/245/29
f 94/246/29 93/247/29 76/248/29 75/249/29
f 95/250/38 97/251/38 52/252/38 51/253/38
f 98/254/38 96/255/38 53/256/38 54/257/38
f 99/258/42 92/259/42 82/260/42 78/261/42
f 100/262/37 99/263/37 78/264/37 72/265/37
f 93/266/43 100/267/43 72/200/43 76/268/43
f 102/269/37 95/270/37 51/271/37 59/212/37
f 101/272/37 102/269/37 59/212/37 62/211/37
f 96/273/37 101/272/37 62/211/37 53/274/37
f 91/275/44 103/276/44 79/277/44 81/278/44
f 104/279/45 94/280/45 75/281/45 73/282/45
f 103/283/32 104/284/32 73/285/32 79/286/32
f 106/287/32 98/288/32 54/289/32 61/157/32
f 105/290/32 106/291/32 61/292/32 60/293/32
f 97/294/32 105/295/32 60/156/32 52/296/32
f 96/297/46 94/298/46 104/299/46 101/300/47
f 98/301/48 93/302/48 94/298/48 96/297/48
f 106/303/49 100/304/49 93/302/50 98/301/50
f 101/305/51 104/306/51 103/307/51 102/308/51
f 100/309/52 106/310/52 105/311/52 99/312/52
f 99/313/53 105/314/53 97/315/53 92/316/53
f 95/317/54 91/318/54 92/319/54 97/315/54
f 102/320/55 103/321/55 91/318/55 95/322/55
o casco
v -5.194937 2.360282 2.005063
v -5.194937 2.360282 -2.005064
v -4.921519 0.689396 1.496737
v -4.921519 0.689396 -1.496737
v -1.731646 2.208384 2.521519
v -1.731646 2.208383 -2.521519
v 1.974684 2.208384 2.499819
v 1.974684 2.208383 -2.499820
v -1.731646 0.689396 -2.177073
v 1.974684 0.689396 -1.866062
v -1.731646 0.689396 2.177073
v 1.974684 0.689396 1.866062
v 1.986836 2.208383 2.071403
v 1.986836 2.208383 -2.071403
v -1.986836 2.208383 2.181314
v -1.986836 2.208383 -2.181314
v -4.967089 2.360282 1.734539
v -4.967089 2.360282 -1.734539
v 2.011854 1.296991 1.898515
v 2.011854 1.296991 -1.898515
v -2.315651 1.296991 2.060688
v -2.315651 1.296991 -2.060688
v -4.920760 1.296991 1.249635
v -4.920760 1.296991 -1.249635
v -4.124051 -0.070098 -0.748369
v -1.731646 -0.070098 -1.088536
v -1.731646 -0.070098 1.088536
v -4.124051 -0.070098 0.748369
v 1.731646 -0.070098 -0.933031
v 1.731646 -0.070098 0.933031
v -5.331646 2.360282 -0.000000
v -5.559494 2.360282 -0.000000
v -4.921519 0.689396 -0.000000
v -4.124051 -0.070098 0.000000
v -1.731646 -0.070098 0.000000
v 1.731646 -0.070098 0.000000
v 5.559494 0.689396 -0.000000
v 5.832911 2.846358 -0.000000
v 5.376456 1.175472 -0.000000
v -2.315651 1.296991 -0.000000
v -4.920760 1.296991 -0.000000
v 4.124051 -0.070098 0.000000
v 5.544304 2.846358 -0.000000
vn -0.9342 -0.3567 -0.0000
vn -0.0000 1.0000 -0.0000
vn -0.1533 -0.2186 -0.9637
vn -0.1533 -0.2185 -0.9637
vn 0.0054 -0.3850 -0.9229
vn -0.0000 -1.0000 -0.0000
vn -0.2036 -0.2165 0.9548
vn 0.0772 -0.3839 0.9202
vn 0.0772 -0.3839 0.9201
vn 0.0452 0.9983 0.0380
vn 0.0452 0.9983 0.0381
vn 0.0573 0.9974 0.0430
vn 0.0573 0.9974 0.0429
vn -0.0371 0.1443 -0.9888
vn -0.0371 0.1442 -0.9888
vn -0.0368 0.1852 0.9820
vn -0.0368 0.1853 0.9820
vn 0.2712 0.4091 -0.8713
vn 0.2712 0.4091 -0.8712
vn 0.2972 0.0192 0.9546
vn 0.2972 0.0191 0.9546
vn 0.9154 0.3537 0.1924
vn -0.0936 -0.7469 -0.6583
vn -0.0811 -0.8174 0.5703
vn -0.6897 -0.7241 -0.0000
vn 0.0257 -0.8198 -0.5720
vn 0.0281 -0.7788 0.6266
vn -0.9210 -0.3516 0.1674
vn -0.9210 -0.3517 0.1674
vn 0.9328 0.3604 -0.0000
vn 0.3479 -0.6575 0.6683
vn 0.2995 -0.5661 -0.7680
vn -0.4895 0.0492 -0.8706
vn -0.4817 0.1505 0.8633
vn 0.0361 0.9993 -0.0000
vn 0.4330 -0.3471 -0.8319
vn 0.4330 -0.3470 -0.8319
vn 0.4331 -0.3471 -0.8319
vn 0.4330 -0.3470 0.8319
vn 0.4331 -0.3471 0.8319
vn 0.4330 -0.3471 0.8319
vn -0.0000 0.9690 -0.2472
vn -0.0000 0.9689 -0.2473
vn -0.0000 0.9557 0.2943
vt 0.472660 0.144536
vt 0.529908 0.144536
vt 0.535210 0.195238
vt 0.472642 0.195304
vt 0.598176 0.110326
vt 0.598176 0.070157
vt 0.681918 0.070157
vt 0.681918 0.136398
vt 0.472638 0.195311
vt 0.580219 0.195284
vt 0.580244 0.144530
vt 0.472661 0.144541
vt 0.699326 0.195316
vt 0.699323 0.144612
vt 0.340602 0.047187
vt 0.340602 0.082178
vt 0.263697 0.082178
vt 0.263538 0.056855
vt 0.451930 0.052185
vt 0.451930 0.082178
vt 0.472658 0.144531
vt 0.579843 0.144529
vt 0.578918 0.195314
vt 0.472643 0.195308
vt 0.699410 0.144569
vt 0.697703 0.195308
vt 0.867892 0.556246
vt 0.754097 0.559812
vt 0.755104 0.570850
vt 0.867854 0.567103
vt 0.755460 0.417254
vt 0.867612 0.418246
vt 0.867819 0.403768
vt 0.755516 0.403125
vt 0.655907 0.542545
vt 0.655008 0.554037
vt 0.755102 0.570832
vt 0.655487 0.430684
vt 0.654859 0.418477
vt 0.625277 0.488987
vt 0.634314 0.488984
vt 0.457219 0.284464
vt 0.596425 0.284464
vt 0.586007 0.314071
vt 0.458230 0.314252
vt 0.684832 0.339947
vt 0.824038 0.339947
vt 0.823026 0.369760
vt 0.695249 0.369528
vt 0.683990 0.279486
vt 0.682909 0.317066
vt 0.586729 0.312021
vt 0.597160 0.337507
vt 0.695257 0.369550
vt 0.599411 0.372049
vt 0.261358 0.214533
vt 0.204540 0.218757
vt 0.204540 0.182115
vt 0.243959 0.182114
vt 0.340601 0.047187
vt 0.261728 0.054684
vt 0.237543 0.021465
vt 0.340944 0.004792
vt 0.261808 0.105556
vt 0.340602 0.114400
vt 0.339513 0.159821
vt 0.236788 0.139257
vt 0.503045 0.027416
vt 0.527102 0.027416
vt 0.527102 0.062816
vt 0.478989 0.062816
vt 0.453091 0.045884
vt 0.340946 0.004522
vt 0.460124 0.013683
vt 0.451982 0.114037
vt 0.458935 0.154750
vt 0.339515 0.159722
vt 0.597578 0.195326
vt 0.535248 0.195315
vt 0.538312 0.144537
vt 0.597983 0.144535
vt 0.575215 0.062816
vt 0.551159 0.027416
vt 0.263697 0.106234
vt 0.340602 0.117169
vt 0.681918 0.003916
vt 0.598176 0.029987
vt 0.164370 0.182115
vt 0.204540 0.218758
vt 0.148783 0.214534
vt 0.028660 0.180292
vt 0.111206 0.180292
vt 0.050455 0.236177
vt 0.789516 0.105473
vt 0.828317 0.144493
vt 0.699220 0.105469
vt 0.828312 0.144493
vt 0.789513 0.105469
vt 0.699220 0.105468
vt 0.324690 0.323645
vt 0.333766 0.270432
vt 0.458226 0.314126
vt 0.823026 0.369760
vt 0.947500 0.326002
vt 0.956507 0.378943
vt 0.004731 0.136211
vt 0.004731 0.003729
vt 0.143840 0.008942
vt 0.143840 0.130998
vt 0.252066 0.069970
vt 0.839834 0.144547
vt 0.839831 0.195308
vt 0.839837 0.144545
vt 0.839834 0.195306
vt 0.972090 0.488679
vt 0.983304 0.488667
s 0
usemtl BarcoMAT
f 110/323/56 139/324/56 138/325/56 108/326/56
f 130/327/57 147/328/57 146/329/57 128/330/57
f 108/331/58 112/332/58 115/333/58 110/334/59
f 112/332/60 114/335/60 116/336/60 115/333/60
f 132/337/61 141/338/61 140/339/61 131/340/61
f 135/341/61 142/342/61 141/338/61 132/337/61
f 109/343/62 117/344/62 111/345/62 107/346/62
f 117/344/63 118/347/63 113/348/64 111/345/63
f 119/349/57 121/350/57 111/351/57 113/352/57
f 122/353/57 120/354/57 114/355/57 112/356/57
f 121/350/65 123/357/66 107/358/65 111/359/65
f 124/360/67 122/353/68 112/356/67 108/361/67
f 108/361/57 138/362/57 137/363/57 124/360/57
f 125/364/69 127/365/69 121/366/69 119/367/70
f 128/368/71 126/369/72 120/370/72 122/371/72
f 127/365/73 129/372/74 123/373/74 121/374/74
f 130/375/75 128/368/75 122/376/76 124/377/75
f 124/378/77 137/379/77 147/380/77 130/381/77
f 132/382/78 131/383/78 110/384/78 115/385/78
f 134/386/79 133/387/79 117/388/79 109/389/79
f 131/390/80 140/391/80 139/392/80 110/393/80
f 135/394/81 132/382/81 115/395/81 116/396/81
f 133/387/82 136/397/82 118/398/82 117/399/82
f 123/357/57 137/363/57 138/362/57 107/358/57
f 107/400/83 138/401/83 139/402/84 109/403/83
f 109/404/80 139/392/80 140/391/80 134/405/80
f 134/406/61 140/339/61 141/338/61 133/407/61
f 133/407/61 141/338/61 142/342/61 136/397/61
f 127/408/57 146/329/57 147/328/57 129/409/57
f 129/410/85 147/380/85 137/411/85 123/412/85
f 135/413/61 148/414/61 136/415/61
f 148/416/86 143/417/86 118/347/86 136/418/86
f 143/419/87 148/420/87 135/421/87 116/336/87
f 149/422/88 145/423/88 125/364/88 119/424/88
f 120/425/89 126/369/89 145/426/89 149/427/89
f 128/428/57 127/429/57 125/430/57 126/431/57
f 125/430/90 145/432/90 126/431/90
f 143/433/91 116/336/92 114/335/92 144/434/93
f 113/348/94 118/347/94 143/435/95 144/436/96
f 149/437/97 144/438/97 114/355/97 120/354/98
f 144/438/99 149/437/99 119/349/99 113/352/99
o painel
v -1.762025 3.302054 0.486076
v -1.762025 3.302054 -0.486076
v -1.762025 1.965345 0.486076
v -1.762025 1.965345 -0.486076
v -2.005063 3.302054 0.486076
v -2.005063 3.302054 -0.486076
v -2.005063 1.965345 0.486076
v -2.005063 1.965345 -0.486076
v -1.762025 1.965345 -0.162025
v -2.005063 1.965345 -0.162025
v -1.762025 1.965345 0.162025
v -2.005063 1.965345 0.162025
v -2.005063 3.302054 -0.162026
v -2.005063 3.302054 0.162025
v -1.762025 3.302054 -0.162026
v -1.762025 3.302054 0.162025
v -1.762025 1.965345 -0.344304
v -1.762025 1.965345 -0.182279
v -1.822785 1.965345 -0.182279
v -1.822785 1.965345 -0.344304
v -1.762025 1.965345 -0.141772
v -1.762025 1.965345 0.020253
v -1.822785 1.965345 0.020253
v -1.822785 1.965345 -0.141772
v -1.822785 1.965345 0.405063
v -1.762025 1.965345 0.243038
v -1.822785 1.965345 0.243038
v -1.762025 1.965345 0.405063
v -1.822785 1.084333 0.405063
v -1.762025 1.084333 0.243038
v -1.822785 1.084333 0.243038
v -1.762025 1.084333 0.405063
v -1.762025 1.540029 -0.141772
v -1.762025 1.357750 0.020253
v -1.822785 1.357750 0.020253
v -1.822785 1.540029 -0.141772
v -1.762025 1.752687 -0.344304
v -1.762025 1.570409 -0.182279
v -1.822785 1.570409 -0.182279
v -1.822785 1.752687 -0.344304
v -1.762025 1.750942 -0.495888
v -1.762025 1.570409 -0.333862
v -1.822785 1.570409 -0.333862
v -1.822785 1.750942 -0.495888
v -1.762025 1.092560 -0.495186
v -1.762025 1.094306 -0.333161
v -1.822785 1.094306 -0.333161
v -1.822785 1.092560 -0.495186
v -1.762025 1.540029 -0.293356
v -1.762025 1.357750 -0.131331
v -1.822785 1.357750 -0.131331
v -1.822785 1.540029 -0.293356
v -1.762025 1.094739 -0.293359
v -1.762025 1.094739 -0.131016
v -1.822785 1.094739 -0.131016
v -1.822785 1.094739 -0.293359
vn -1.0000 -0.0000 -0.0000
vn -0.0000 1.0000 -0.0000
vn -0.0000 -1.0000 -0.0000
vn -0.0000 -0.0000 1.0000
vn -0.0000 -0.0000 -1.0000
vn -0.0000 -0.9999 0.0108
vn -0.0000 -0.0000 -0.0000
vn 1.0000 -0.0000 -0.0000
vn -0.0000 0.9999 -0.0115
vn -0.0000 0.0015 1.0000
vn -0.0000 -0.0011 -1.0000
vn -0.0000 0.0012 1.0000
vt 0.816325 0.054858
vt 0.805908 0.054858
vt 0.805908 0.011889
vt 0.816325 0.011889
vt 0.855450 0.023442
vt 0.855450 0.033858
vt 0.847638 0.033858
vt 0.847638 0.023442
vt 0.902345 0.074214
vt 0.902345 0.070308
vt 0.906252 0.070308
vt 0.906252 0.074214
vt 0.882874 0.046855
vt 0.882874 0.089824
vt 0.875062 0.089824
vt 0.875062 0.046855
vt 0.843732 0.054692
vt 0.835919 0.054692
vt 0.835919 0.011723
vt 0.843732 0.011723
vt 0.937526 0.062526
vt 0.937526 0.066432
vt 0.933620 0.066432
vt 0.933620 0.062526
vt 0.937502 0.078121
vt 0.937502 0.082027
vt 0.933595 0.082027
vt 0.933595 0.078121
vt 0.785075 0.011889
vt 0.795492 0.011889
vt 0.795492 0.054858
vt 0.785075 0.054858
vt 0.847638 0.054692
vt 0.847638 0.044275
vt 0.855450 0.044275
vt 0.855450 0.054692
vt 0.823903 0.042843
vt 0.823903 0.048051
vt 0.823903 0.052609
vt 0.823903 0.042192
vt 0.736378 0.025518
vt 0.738331 0.025518
vt 0.738331 0.026169
vt 0.730518 0.026169
vt 0.736378 0.020309
vt 0.730518 0.015752
vt 0.738331 0.020309
vt 0.738331 0.015752
vt 0.822380 0.046712
vt 0.822380 0.051921
vt 0.822380 0.052572
vt 0.822380 0.042155
vt 0.736378 0.032028
vt 0.738331 0.032028
vt 0.738331 0.036585
vt 0.730518 0.036585
vt 0.736378 0.026820
vt 0.738331 0.026820
vt 0.736378 0.039190
vt 0.736378 0.044398
vt 0.730518 0.047002
vt 0.738331 0.039190
vt 0.820448 0.044860
vt 0.820448 0.050068
vt 0.820448 0.052672
vt 0.820448 0.042256
vt 0.738331 0.044398
vt 0.738331 0.047002
vt 0.894533 0.046871
vt 0.898439 0.046871
vt 0.898439 0.074214
vt 0.894533 0.074214
vt 0.828107 0.011673
vt 0.832013 0.011673
vt 0.832013 0.039016
vt 0.828107 0.039016
vt 0.867238 0.062586
vt 0.871144 0.062586
vt 0.871144 0.089930
vt 0.867238 0.089930
vt 0.820316 0.011822
vt 0.824223 0.011822
vt 0.824223 0.039166
vt 0.820316 0.039166
vt 0.715366 0.059830
vt 0.720574 0.065689
vt 0.720574 0.079361
vt 0.715366 0.079361
vt 0.851674 0.062464
vt 0.855580 0.062464
vt 0.855580 0.081995
vt 0.851674 0.081995
vt 0.720585 0.033330
vt 0.725793 0.027471
vt 0.725793 0.047002
vt 0.720585 0.047002
vt 0.886781 0.046855
vt 0.890687 0.046855
vt 0.890687 0.062480
vt 0.886781 0.062480
vt 0.750881 0.067366
vt 0.756089 0.073226
vt 0.756089 0.080062
vt 0.750881 0.080062
vt 0.835898 0.085989
vt 0.839804 0.085989
vt 0.839804 0.097708
vt 0.835898 0.097708
vt 0.755521 0.037613
vt 0.760729 0.031753
vt 0.760729 0.044449
vt 0.755521 0.044449
vt 0.960963 0.062526
vt 0.964870 0.062526
vt 0.964870 0.070338
vt 0.960963 0.070338
vt 0.755753 0.067366
vt 0.760961 0.073169
vt 0.941408 0.078121
vt 0.945314 0.078121
vt 0.945314 0.082027
vt 0.941408 0.082027
vt 0.750648 0.037557
vt 0.755857 0.031753
vt 0.941432 0.062526
vt 0.945338 0.062526
vt 0.945338 0.066432
vt 0.941432 0.066432
vt 0.755731 0.052062
vt 0.760939 0.052006
vt 0.843766 0.066433
vt 0.847672 0.066433
vt 0.847672 0.082058
vt 0.843766 0.082058
vt 0.750671 0.016393
vt 0.755879 0.016449
vt 0.835953 0.062527
vt 0.839860 0.062527
vt 0.839860 0.082058
vt 0.835953 0.082058
vt 0.720239 0.059830
vt 0.725447 0.065689
vt 0.949220 0.078121
vt 0.953127 0.078121
vt 0.953127 0.082027
vt 0.949220 0.082027
vt 0.715712 0.033330
vt 0.720921 0.027471
vt 0.960939 0.082027
vt 0.957033 0.082027
vt 0.957033 0.078121
vt 0.960939 0.078121
vt 0.720229 0.051375
vt 0.725447 0.051375
vt 0.968776 0.062526
vt 0.972682 0.062526
vt 0.972682 0.070338
vt 0.968776 0.070338
vt 0.715712 0.019016
vt 0.720930 0.019016
vt 0.859548 0.066553
vt 0.863454 0.066553
vt 0.863454 0.082178
vt 0.859548 0.082178
s 0
usemtl m_2f88162b-3bec-932f-d54d-123f0508844e
f 154/439/100 163/440/100 161/441/100 156/442/100
f 150/443/101 165/444/101 163/445/101 154/446/101
f 178/447/102 180/448/102 179/449/102 181/450/102
f 152/451/103 150/452/103 154/453/103 156/454/103
f 155/455/104 151/456/104 153/457/104 157/458/104
f 194/459/105 195/460/105 196/461/105 197/462/105
f 202/463/102 203/464/102 204/465/102 205/466/102
f 157/467/100 159/468/100 162/469/100 155/470/100
f 159/468/100 161/441/100 163/440/100 162/469/100
f 155/471/101 162/472/101 164/473/101 151/474/101
f 162/472/101 163/445/101 165/444/101 164/473/101
f 167/475/106 166/476/106 153/477/106 158/478/106
f 168/479/102 167/480/102 158/481/102 159/482/102
f 169/483/102 168/479/102 159/482/102 157/484/102
f 166/485/102 169/483/102 157/484/102 153/486/102
f 171/487/106 170/488/106 158/489/106 160/490/106
f 172/491/102 171/492/102 160/493/102 161/494/102
f 173/495/102 172/491/102 161/494/102 159/482/102
f 170/496/102 173/495/102 159/482/102 158/481/102
f 176/497/102 174/498/102 156/499/102 161/494/102
f 175/500/102 176/497/102 161/494/102 160/493/102
f 177/501/106 175/502/106 160/503/106 152/504/106
f 174/498/102 177/505/102 152/506/102 156/499/102
f 180/507/100 178/508/100 174/509/100 176/510/100
f 179/511/104 180/512/104 176/513/104 175/514/104
f 181/515/107 179/516/107 175/517/107 177/518/107
f 178/519/103 181/520/103 177/521/103 174/522/103
f 183/523/107 182/524/107 170/525/107 171/526/107
f 184/527/103 183/528/103 171/529/103 172/530/103
f 185/531/100 184/532/100 172/533/100 173/534/100
f 182/535/104 185/536/104 173/537/104 170/538/104
f 187/539/107 186/540/107 166/541/107 167/542/107
f 188/543/103 187/544/103 167/545/103 168/546/103
f 189/547/100 188/548/100 168/549/100 169/550/100
f 186/551/104 189/552/104 169/553/104 166/554/104
f 191/555/107 190/556/107 186/540/107 187/539/107
f 192/557/102 191/558/102 187/559/102 188/560/102
f 193/561/100 192/562/100 188/548/100 189/547/100
f 190/563/108 193/564/108 189/565/108 186/566/108
f 195/567/107 194/568/107 190/556/107 191/555/107
f 196/569/109 195/570/109 191/571/109 192/572/109
f 197/573/100 196/574/100 192/562/100 193/561/100
f 194/575/110 197/576/110 193/577/110 190/578/110
f 199/579/107 198/580/107 182/524/107 183/523/107
f 200/581/102 199/582/102 183/583/102 184/584/102
f 201/585/100 200/586/100 184/532/100 185/531/100
f 198/587/101 201/588/101 185/589/101 182/590/101
f 203/591/107 202/592/107 198/580/107 199/579/107
f 204/593/111 203/594/111 199/595/111 200/596/111
f 205/597/100 204/598/100 200/586/100 201/585/100
f 202/599/104 205/600/104 201/601/104 198/602/104
o topo_garra
v -0.486076 8.831168 -4.070887
v -0.486076 8.831168 -4.800001
v -0.486076 8.041294 -4.070887
v -0.486076 8.041294 -4.800001
v -1.215190 8.831168 -4.070887
v -1.215190 8.831168 -4.800001
v -1.215190 8.041294 -4.070887
v -1.215190 8.041294 -4.800001
v -0.850633 8.831168 -4.951900
v -0.850633 8.041294 -4.951900
v -0.850633 8.041294 -3.918988
v -0.850633 8.831168 -3.918988
v -0.334177 8.831168 -4.435444
v -0.334177 8.041294 -4.435444
v -0.850633 8.041294 -4.435444
v -1.367089 8.041294 -4.435444
v -1.367089 8.831168 -4.435444
v -0.850633 8.831168 -4.435444
vn 0.9231 -0.0000 0.3846
vn -0.9231 -0.0000 0.3846
vn -0.0000 1.0000 -0.0000
vn -0.0000 -1.0000 -0.0000
vn 0.3846 -0.0000 0.9231
vn 0.3846 -0.0000 -0.9231
vn -0.3846 -0.0000 -0.9231
vn -0.3846 -0.0000 0.9231
vn 0.9231 -0.0000 -0.3846
vn -0.9231 -0.0000 -0.3846
vt 0.226562 0.683594
vt 0.238281 0.683594
vt 0.238281 0.710938
vt 0.226562 0.710938
vt 0.347656 1.000000
vt 0.335938 1.000000
vt 0.335938 0.972656
vt 0.347656 0.972656
vt 0.322266 0.745117
vt 0.327148 0.756836
vt 0.310547 0.756836
vt 0.310547 0.740234
vt 0.314453 0.998047
vt 0.314453 0.981445
vt 0.331055 0.981445
vt 0.326172 0.993164
vt 0.468750 0.671875
vt 0.457031 0.671875
vt 0.457031 0.644531
vt 0.468750 0.644531
vt 0.402344 0.507812
vt 0.414062 0.507812
vt 0.414062 0.535156
vt 0.402344 0.535156
vt 0.480469 1.000000
vt 0.468750 1.000000
vt 0.468750 0.972656
vt 0.480469 0.972656
vt 0.302734 0.993164
vt 0.297852 0.981445
vt 0.171875 0.500000
vt 0.183594 0.500000
vt 0.183594 0.527344
vt 0.171875 0.527344
vt 0.293945 0.756836
vt 0.298828 0.745117
vt 0.265625 0.664062
vt 0.253906 0.664062
vt 0.253906 0.636719
vt 0.265625 0.636719
vt 0.326172 0.969727
vt 0.314453 0.964844
vt 0.302734 0.969727
vt 0.000000 0.613281
vt 0.011719 0.613281
vt 0.011719 0.640625
vt 0.000000 0.640625
vt 0.298828 0.768555
vt 0.310547 0.773438
vt 0.322266 0.768555
s 0
usemtl m_2f88162b-3bec-932f-d54d-123f0508844e
f 208/603/112 219/604/112 218/605/112 206/606/112
f 210/607/113 222/608/113 221/609/113 212/610/113
f 206/611/114 218/612/114 223/613/114 217/614/114
f 216/615/115 220/616/115 219/617/115 208/618/115
f 206/619/116 217/620/116 216/621/116 208/622/116
f 209/623/117 215/624/117 214/625/117 207/626/117
f 211/627/118 214/628/118 215/629/118 213/630/118
f 212/631/115 221/632/115 220/616/115 216/615/115
f 212/633/119 216/634/119 217/635/119 210/636/119
f 217/614/114 223/613/114 222/637/114 210/638/114
f 207/639/120 218/640/120 219/641/120 209/642/120
f 209/643/115 219/617/115 220/616/115 215/644/115
f 215/644/115 220/616/115 221/632/115 213/645/115
f 213/646/121 221/647/121 222/648/121 211/649/121
f 211/650/114 222/637/114 223/613/114 214/651/114
f 214/651/114 223/613/114 218/612/114 207/652/114
o Plane
v 1.855285 3.311165 1.010839
v 1.970563 3.311165 1.010839
v 1.855285 3.714204 1.010839
v 1.970563 3.714204 1.010839
v 1.912924 3.311165 1.068478
v 1.912924 3.311165 0.953200
v 1.912924 3.714204 1.068478
v 1.912924 3.714204 0.953200
v 1.855285 4.019893 1.010839
v 1.970563 4.019893 1.010839
v 1.912924 4.019893 1.068478
v 1.912924 4.019893 0.953200
v 2.036373 3.064785 0.884518
v 2.036373 3.064785 1.137159
v 1.783732 3.064785 0.884518
v 1.783732 3.064785 1.137159
v 1.992385 2.884961 0.928506
v 1.992385 2.884961 1.093172
v 1.827720 2.884961 1.093172
v 1.827720 2.884961 0.928506
v 2.005850 3.317426 0.915041
v 2.036373 3.286903 0.884518
v 2.005850 3.317426 1.106636
v 2.036373 3.286903 1.137159
v 1.814255 3.317426 0.915041
v 1.783732 3.286903 0.884518
v 1.814255 3.317426 1.106636
v 1.783732 3.286903 1.137159
vn -0.0000 -0.0000 1.0000
vn 1.0000 -0.0000 -0.0000
vn -0.0000 -0.0000 -1.0000
vn -1.0000 -0.0000 -0.0000
vn 0.9714 0.2376 -0.0000
vn -0.0000 1.0000 -0.0000
vn -0.9714 0.2376 -0.0000
vn -0.0000 0.2376 0.9714
vn -0.0000 0.2376 -0.9714
vn -0.7071 -0.7071 -0.0000
vn -0.0000 -0.7071 -0.7071
vn 0.7071 -0.7071 -0.0000
vn -0.0000 -0.7071 0.7071
vn -0.0000 -1.0000 -0.0000
vt 0.000000 0.000000
vt 1.000000 0.000000
vt 1.000000 1.000000
vt 0.000000 1.000000
vt 0.405204 0.750000
vt 0.625000 0.750000
vt 0.625000 1.000000
vt 0.405204 1.000000
vt 0.405204 0.500000
vt 0.625000 0.500000
vt 0.405204 0.750000
vt 0.405204 0.250000
vt 0.625000 0.250000
vt 0.405204 0.500000
vt 0.405204 0.000000
vt 0.625000 0.000000
vt 0.405204 0.250000
vt 0.875000 0.500000
vt 0.875000 0.750000
vt 0.155204 0.530204
vt 0.155204 0.719796
vt 0.125000 0.750000
vt 0.125000 0.500000
vt 0.344796 0.530204
vt 0.375000 0.500000
vt 0.344796 0.719796
vt 0.375000 0.750000
s 0
f 224/653/122 225/654/122 227/655/122 226/656/122
f 228/653/123 229/654/123 231/655/123 230/656/123
f 230/656/123 231/655/123 235/655/123 234/656/123
f 226/656/122 227/655/122 233/655/122 232/656/122
f 249/657/122 238/658/122 236/659/122 245/660/122
f 251/661/123 239/662/123 238/658/123 249/663/123
f 247/664/124 237/665/124 239/662/124 251/666/124
f 245/667/125 236/668/125 237/665/125 247/669/125
f 238/658/126 239/662/126 242/662/126 243/658/126
f 242/662/127 241/670/127 240/671/127 243/658/127
f 237/665/128 236/668/128 240/668/128 241/665/128
f 236/659/129 238/658/129 243/658/129 240/659/129
f 239/662/130 237/665/130 241/665/130 242/662/130
f 246/672/131 244/673/131 245/674/131 247/675/131
f 250/676/132 246/672/132 247/675/132 251/677/132
f 248/678/133 250/676/133 251/661/133 249/663/133
f 244/673/134 248/678/134 249/679/134 245/674/134
f 246/672/135 250/676/135 248/678/135 244/673/135
